<svg width="83" height="45" viewBox="0 0 83 45" fill="none" xmlns="http://www.w3.org/2000/svg">
<g filter="url(#filter0_d)">
<path d="M78.7386 16.2282L73.6975 16.1821C73.7099 16.1282 73.7213 16.076 73.7316 16.0256C73.7766 15.8041 73.8076 15.5798 73.791 15.3742C73.7734 15.1571 73.6983 14.9184 73.4929 14.7365C73.3008 14.5666 73.0622 14.5077 72.8525 14.487L72.8523 14.487C72.5804 14.4603 72.3185 14.49 72.075 14.595C71.8317 14.7 71.6385 14.8663 71.4829 15.0646C71.1887 15.4393 70.9984 15.9706 70.8311 16.5527L68.5607 23.2782L68.5573 23.288L68.5545 23.2979L69.0344 23.4381C68.5545 23.2979 68.5544 23.2981 68.5543 23.2983L68.5542 23.2988L68.5539 23.2999L68.5532 23.3022L68.5516 23.3079L68.5475 23.3232C68.5445 23.3352 68.5407 23.3505 68.5367 23.3689C68.5288 23.4055 68.5195 23.4552 68.5125 23.5143C68.4988 23.6289 68.4911 23.7971 68.5292 23.9806C68.568 24.1676 68.6583 24.3858 68.8511 24.5665C69.0457 24.749 69.3037 24.8547 69.608 24.8872L69.6086 24.8873C70.1892 24.9487 70.6003 24.6825 70.8448 24.4257C70.9646 24.2997 71.049 24.1726 71.1035 24.0778C71.1311 24.0298 71.1521 23.9883 71.1668 23.9571C71.1742 23.9414 71.1801 23.9282 71.1846 23.9178L71.1903 23.9044L71.1924 23.8993L71.1932 23.8972L71.1936 23.8963L71.1938 23.8959C71.1939 23.8957 71.1939 23.8954 70.7337 23.7129L71.1941 23.8955L71.1989 23.8823L71.5072 23.0368L76.4589 23.0537L74.8765 27.6767L61.5831 27.7115L66.9249 11.0282L80.3247 11.0495L78.7386 16.2282Z" fill="#2684B9" stroke="#063F61"/>
<path d="M51.0277 24.5088L59.088 24.5457L58.0442 27.7133H43.7529L49.157 11.0276H63.2609L62.153 14.5327L53.9277 14.5401L53.5699 14.5404L53.4547 14.8792L52.7855 16.8488L52.5602 17.5118L53.2604 17.5097L61.1857 17.4861L60.09 20.9833L51.9087 20.9344L51.5483 20.9322L51.4323 21.2733L50.5566 23.8477L50.3329 24.5056L51.0277 24.5088Z" fill="#2684B9" stroke="#063F61"/>
<path d="M40.2283 27.7133H34.6888L36.5927 21.7153L36.7992 21.0649L36.1168 21.064L31.6156 21.058L31.2497 21.0575L31.1386 21.4061L29.1276 27.7133H23.716L28.9994 11.0276H34.6218L32.5581 16.9597L32.3263 17.6261L33.0318 17.624L37.6106 17.6104L37.9773 17.6093L38.0864 17.2593L40.0306 11.0276H45.5255L40.2283 27.7133Z" fill="#2684B9" stroke="#063F61"/>
<path d="M54.5537 3.68287L54.0236 2.59903C55.7273 4.12803 57.9832 5.77559 60.8878 7.56717C46.6211 4.44319 34.0091 4.57387 23.8557 9.45814L23.8556 9.45815C18.9511 11.8178 16.244 15.8539 16.0076 19.9389C15.7707 24.0336 18.0238 28.0672 22.8038 30.38C31.793 35.3646 45.355 35.2849 62.0128 31.757C60.6378 32.7371 58.8084 33.7707 56.6102 34.7595C53.4219 36.1937 49.4878 37.5201 45.1042 38.4472C36.3349 40.3017 25.8057 40.5501 15.8671 36.9077C6.18233 33.0023 2.12223 26.1514 2.52757 19.5358C2.93465 12.8918 7.85334 6.30328 16.5094 2.97025C25.0344 -0.311156 38.8507 -0.257549 53.9579 4.38056L55.0607 4.71914L54.5537 3.68287Z" fill="#2684B9" stroke="#063F61"/>
</g>
<defs>
<filter id="filter0_d" x="0" y="0" width="83.0004" height="44.2677" filterUnits="userSpaceOnUse" color-interpolation-filters="sRGB">
<feFlood flood-opacity="0" result="BackgroundImageFix"/>
<feColorMatrix in="SourceAlpha" type="matrix" values="0 0 0 0 0 0 0 0 0 0 0 0 0 0 0 0 0 0 127 0"/>
<feOffset dy="2"/>
<feGaussianBlur stdDeviation="1"/>
<feColorMatrix type="matrix" values="0 0 0 0 0 0 0 0 0 0 0 0 0 0 0 0 0 0 0.25 0"/>
<feBlend mode="normal" in2="BackgroundImageFix" result="effect1_dropShadow"/>
<feBlend mode="normal" in="SourceGraphic" in2="effect1_dropShadow" result="shape"/>
</filter>
</defs>
</svg>
