<svg width="51" height="190" viewBox="0 0 51 190" fill="none" xmlns="http://www.w3.org/2000/svg">
<line x1="26" y1="74" x2="26" y2="190" stroke="#9B9393" stroke-width="2" stroke-dasharray="15 15"/>
<circle cx="24.5" cy="52.5" r="22" stroke="#9B9393"/>
<path d="M9.60778 19.381C9.53997 19.6691 9.50607 19.9573 9.50607 20.2455C9.52302 20.5337 9.55692 20.8303 9.60778 21.1355C8.99752 21.2202 8.34488 21.3474 7.64986 21.5169C6.97179 21.6694 6.29372 21.839 5.61565 22.0254C4.93758 22.2119 4.27647 22.4153 3.6323 22.6357C2.98814 22.8561 2.4033 23.0764 1.8778 23.2968C1.8439 22.9578 1.77609 22.6357 1.67438 22.3306C1.57267 22.0424 1.42011 21.7033 1.21668 21.3135C1.79304 21.2796 2.42873 21.2117 3.12375 21.11C3.83572 20.9914 4.55617 20.8473 5.28509 20.6778C6.03097 20.4913 6.77684 20.2879 7.52272 20.0675C8.26859 19.8471 8.96361 19.6183 9.60778 19.381ZM3.83572 11.1679C3.34412 11.2018 2.93728 11.2441 2.6152 11.295C2.31007 11.3289 2.02189 11.3882 1.75066 11.473C1.73371 11.1848 1.69133 10.9136 1.62353 10.6593C1.55572 10.405 1.45401 10.1338 1.3184 9.84563C1.55572 9.79477 1.80999 9.62526 2.08122 9.33708C2.3694 9.0489 2.68301 8.59968 3.02204 7.98942C3.36108 7.3622 3.73401 6.53157 4.14085 5.49752C4.56465 4.46346 5.03082 3.16666 5.53937 1.6071C6.13268 2.03089 6.70904 2.29364 7.26844 2.39535C7.50577 2.42926 7.63291 2.51402 7.64986 2.64963C7.66681 2.76829 7.55662 2.89543 7.3193 3.03104C7.23454 3.0819 7.11588 3.19208 6.96331 3.3616C6.8277 3.51417 6.6158 3.82777 6.32762 4.30242C6.03944 4.77707 5.65803 5.45514 5.18338 6.33662C4.72569 7.20116 4.14085 8.37083 3.42888 9.84563L6.63275 9.79477C6.87008 9.35403 7.0735 8.96414 7.24302 8.62511C7.42948 8.26912 7.58205 7.94704 7.70071 7.65886C7.83633 7.35373 7.95499 7.06555 8.0567 6.79432C8.15841 6.50614 8.26012 6.20101 8.36183 5.87893C8.65001 6.0993 8.90428 6.28577 9.12465 6.43834C9.34503 6.57395 9.59083 6.69261 9.86205 6.79432C10.0824 6.87908 10.1926 6.98927 10.1926 7.12488C10.2096 7.26049 10.1248 7.3622 9.93834 7.43001C9.88748 7.44696 9.81967 7.48934 9.73492 7.55715C9.66711 7.608 9.55692 7.73514 9.40436 7.93856C9.25179 8.14198 9.04837 8.43864 8.7941 8.82853C8.55677 9.20146 8.23469 9.72697 7.82785 10.405C7.42101 11.0662 6.91246 11.8968 6.3022 12.8969C5.70889 13.8801 4.99692 15.0752 4.16628 16.4822L9.32808 15.5668C9.09075 16.0415 9.00599 16.55 9.0738 17.0925L4.77654 17.779C4.38665 17.8468 3.97134 17.9401 3.53059 18.0587C3.1068 18.1774 2.75081 18.2961 2.46264 18.4147C2.44568 18.1265 2.37788 17.8384 2.25921 17.5502C2.1575 17.245 2.02189 16.9569 1.85237 16.6856C2.02189 16.6687 2.20836 16.5839 2.41178 16.4314C2.6152 16.2618 2.86948 15.9737 3.17461 15.5668C3.47974 15.143 3.85267 14.5752 4.29342 13.8632C4.73416 13.1512 5.27662 12.2189 5.92078 11.0662L3.83572 11.1679ZM19.55 24.4156C19.0923 24.0935 18.5498 23.746 17.9226 23.3731C17.3123 23.0171 16.6597 22.6696 15.9647 22.3306C15.2696 21.9915 14.5492 21.6694 13.8033 21.3643C13.0744 21.0422 12.3709 20.754 11.6928 20.4998L12.4302 19.203C12.9557 19.4064 13.583 19.6691 14.3119 19.9912C15.0408 20.2964 15.7867 20.6354 16.5495 21.0083C17.3123 21.3643 18.0413 21.7203 18.7363 22.0763C19.4482 22.4492 20.0331 22.7798 20.4908 23.068L19.55 24.4156ZM19.3465 19.4064C19.0923 19.186 18.7532 18.9487 18.3294 18.6944C17.9056 18.4401 17.4395 18.1774 16.9309 17.9062C16.4393 17.6349 15.9138 17.3722 15.3544 17.1179C14.812 16.8636 14.278 16.6348 13.7525 16.4314L14.4899 15.16C14.9815 15.3804 15.4815 15.6092 15.9901 15.8465C16.4986 16.0839 16.9987 16.3297 17.4903 16.5839C17.9989 16.8213 18.4735 17.0671 18.9143 17.3213C19.372 17.5587 19.7958 17.7875 20.1856 18.0079L19.3465 19.4064ZM16.5241 10.583C17.1682 9.93886 17.7955 9.18451 18.4057 8.31997C19.0329 7.43849 19.55 6.57395 19.9568 5.72636H13.1676C12.8795 6.40443 12.5235 7.14183 12.0997 7.93856C11.6759 8.73529 11.2182 9.48117 10.7266 10.1762C10.5401 9.93886 10.3367 9.75239 10.1163 9.61678C9.91291 9.46421 9.64168 9.34555 9.30265 9.26079C10.3197 8.15893 11.1165 6.98927 11.6928 5.75179C12.2861 4.49736 12.7438 3.01409 13.0659 1.30197C13.6592 1.67491 14.2525 1.87833 14.8459 1.91223C15.0323 1.92918 15.134 1.98851 15.151 2.09022C15.1679 2.19193 15.1001 2.29364 14.9476 2.39535C14.7272 2.53097 14.5238 2.74286 14.3373 3.03104C14.1678 3.30227 13.9559 3.75997 13.7016 4.40413H17.9734C19.0075 4.40413 19.8551 4.3787 20.5162 4.32785C21.1943 4.27699 21.7791 4.20071 22.2707 4.099C22.0503 4.67536 21.7791 5.28562 21.457 5.92978C21.1519 6.557 20.7959 7.19269 20.3891 7.83685C19.9822 8.48102 19.5415 9.1167 19.0668 9.74392C18.5922 10.3711 18.0836 10.9644 17.5412 11.5238C18.4057 12.2528 19.3804 12.8715 20.4653 13.3801C21.5672 13.8717 22.864 14.3209 24.3558 14.7277C24.1693 14.9142 23.9828 15.1769 23.7964 15.516C23.6099 15.855 23.4743 16.1686 23.3895 16.4568C21.9486 15.8635 20.6772 15.2447 19.5754 14.6006C18.4735 13.9564 17.4734 13.236 16.5749 12.4392C15.8121 13.1173 14.9306 13.7869 13.9305 14.448C12.9473 15.0922 11.7098 15.7957 10.218 16.5585C9.96376 15.9652 9.5654 15.4482 9.02295 15.0074C9.78577 14.7192 10.4723 14.448 11.0826 14.1937C11.6928 13.9225 12.2522 13.6513 12.7608 13.3801C13.2693 13.0919 13.744 12.7952 14.1847 12.4901C14.6424 12.168 15.0917 11.8205 15.5324 11.4476C14.9899 10.8882 14.4899 10.2948 14.0322 9.66764C13.5914 9.04042 13.1507 8.36235 12.7099 7.63343L13.8542 6.92146C14.7018 8.37931 15.5917 9.59983 16.5241 10.583ZM44.0113 10.1508H31.7806V15.0583H44.0113V10.1508ZM37.9595 8.85395C39.4004 8.85395 40.5785 8.85395 41.4939 8.85395C42.4263 8.837 43.1806 8.82005 43.757 8.8031C44.3333 8.78615 44.7741 8.76919 45.0792 8.75224C45.4013 8.71834 45.6725 8.68444 45.8929 8.65053C45.842 9.15908 45.7997 9.65068 45.7658 10.1253C45.7319 10.6 45.7149 11.1424 45.7149 11.7527V14.092C45.7149 14.7701 45.7319 15.3549 45.7658 15.8465C45.7997 16.3212 45.859 16.8297 45.9438 17.3722H44.0113V16.3297H31.7806V17.6773H29.8227C29.8735 17.4061 29.9159 17.1688 29.9498 16.9653C29.9837 16.745 30.0092 16.5246 30.0261 16.3042C30.0431 16.0839 30.0515 15.8465 30.0515 15.5923C30.0685 15.338 30.077 15.0413 30.077 14.7023V11.7527C30.077 11.3289 30.0685 10.9644 30.0515 10.6593C30.0515 10.3372 30.0431 10.066 30.0261 9.84563C30.0261 9.6083 30.0092 9.39641 29.9753 9.20994C29.9583 9.02347 29.9329 8.837 29.899 8.65053C30.2041 8.68444 30.5092 8.71834 30.8144 8.75224C31.1364 8.76919 31.5263 8.78615 31.984 8.8031C32.4587 8.82005 33.035 8.837 33.7131 8.85395C34.3912 8.85395 35.2388 8.85395 36.2559 8.85395V5.16696C36.2559 4.25157 36.2304 3.50569 36.1796 2.92933C36.1457 2.33602 36.0863 1.819 36.0016 1.37825C36.4254 1.47996 36.7898 1.54777 37.095 1.58167C37.4001 1.59862 37.7646 1.56472 38.1884 1.47996C38.3918 1.44606 38.5104 1.51387 38.5443 1.68338C38.5782 1.83595 38.4935 1.98004 38.2901 2.11565C38.0697 2.25126 37.9595 2.74286 37.9595 3.59045V4.60755H43.3247C44.4605 4.60755 45.4267 4.5906 46.2235 4.5567C47.0371 4.50584 47.7067 4.44651 48.2322 4.3787V6.15863C47.2321 6.00607 45.5962 5.92978 43.3247 5.92978H37.9595V8.85395ZM31.6026 19.381C31.128 20.415 30.6194 21.3474 30.077 22.178C29.5345 23.0086 29.009 23.7206 28.5005 24.3139L27.0765 23.3477C27.3647 23.1273 27.6613 22.8391 27.9665 22.4831C28.2716 22.1271 28.5598 21.7372 28.831 21.3135C29.1192 20.8727 29.3735 20.4235 29.5938 19.9658C29.8312 19.4911 30.0176 19.025 30.1532 18.5673L31.6026 19.381ZM35.315 24.0851C35.2303 23.6613 35.137 23.2629 35.0353 22.89C34.9506 22.534 34.8489 22.178 34.7302 21.822C34.6115 21.4491 34.4759 21.0761 34.3234 20.7032C34.1877 20.3133 34.0182 19.898 33.8148 19.4572L35.2133 18.847C35.6541 19.8302 36.0185 20.7117 36.3067 21.4914C36.6118 22.2712 36.8322 22.9493 36.9678 23.5257L35.315 24.0851ZM41.4431 23.7036C41.121 22.89 40.765 22.1526 40.3751 21.4914C40.0022 20.8134 39.5191 20.0929 38.9257 19.3301L40.1717 18.4401C40.765 19.2369 41.2905 20.0421 41.7482 20.8558C42.2059 21.6694 42.5788 22.4068 42.867 23.068L41.4431 23.7036ZM47.9017 23.6528C47.5457 22.9069 47.0795 22.161 46.5032 21.4152C45.9438 20.6523 45.2487 19.8217 44.4181 18.9233L45.5878 17.9316C47.1643 19.6607 48.4102 21.2372 49.3256 22.6611L47.9017 23.6528Z" fill="black"/>
</svg>
