<svg width="143" height="63" viewBox="0 0 143 63" fill="none" xmlns="http://www.w3.org/2000/svg">
<path d="M14.9138 28H12.1872V6.30712H14.9138V28ZM33.2991 21.1167C33.1799 23.4409 32.5243 25.2189 31.3324 26.4505C30.1504 27.6822 28.4768 28.298 26.3115 28.298C24.1362 28.298 22.4079 27.4736 21.1266 25.8248C19.8453 24.166 19.2047 21.9212 19.2047 19.0904V15.1571C19.2047 12.3362 19.8602 10.1064 21.1713 8.46747C22.4924 6.82858 24.2902 6.00914 26.5647 6.00914C28.6605 6.00914 30.2795 6.63986 31.4218 7.9013C32.574 9.15282 33.1997 10.9457 33.2991 13.2798H30.5428C30.4236 11.5118 30.0511 10.2504 29.4253 9.49549C28.7996 8.74061 27.8461 8.36317 26.5647 8.36317C25.0848 8.36317 23.9475 8.94423 23.1529 10.1064C22.3583 11.2585 21.961 12.9521 21.961 15.1869V19.1649C21.961 21.36 22.3285 23.0436 23.0635 24.2157C23.8084 25.3877 24.8911 25.9737 26.3115 25.9737C27.7318 25.9737 28.7549 25.6211 29.3806 24.9159C30.0064 24.2107 30.3938 22.9443 30.5428 21.1167H33.2991ZM50.567 19.2245H46.7528V28H44.0114V6.30712H50.0902C52.2158 6.30712 53.8249 6.86334 54.9175 7.9758C56.01 9.07832 56.5563 10.6973 56.5563 12.8329C56.5563 14.1738 56.2584 15.3458 55.6624 16.349C55.0764 17.3423 54.242 18.0922 53.1594 18.5988L57.3609 27.8212V28H54.4258L50.567 19.2245ZM46.7528 16.8854H50.0604C51.2027 16.8854 52.1115 16.5179 52.7869 15.7829C53.4723 15.0478 53.8149 14.0645 53.8149 12.8329C53.8149 10.0517 52.5535 8.66115 50.0306 8.66115H46.7528V16.8854ZM62.6947 28H60.0576V11.8793H62.6947V28ZM62.799 5.1301H66.1364L62.1435 9.51039H59.9235L62.799 5.1301ZM66.479 19.1947C66.479 16.8506 67.0452 14.9982 68.1775 13.6374C69.3198 12.2667 70.8246 11.5813 72.6919 11.5813C74.5592 11.5813 76.0591 12.2468 77.1914 13.5778C78.3337 14.9088 78.9197 16.7215 78.9495 19.0159V20.7144C78.9495 23.0486 78.3833 24.8961 77.251 26.2568C76.1187 27.6176 74.6089 28.298 72.7217 28.298C70.8544 28.298 69.3545 27.6375 68.2222 26.3164C67.0998 24.9954 66.5188 23.2075 66.479 20.9528V19.1947ZM69.1162 20.7144C69.1162 22.3732 69.439 23.6793 70.0846 24.6328C70.7401 25.5764 71.6192 26.0482 72.7217 26.0482C75.0459 26.0482 76.2428 24.3696 76.3124 21.0124V19.1947C76.3124 17.5459 75.9846 16.2447 75.329 15.2912C74.6735 14.3277 73.7944 13.846 72.6919 13.846C71.6093 13.846 70.7401 14.3277 70.0846 15.2912C69.439 16.2447 69.1162 17.5409 69.1162 19.1798V20.7144ZM99.7782 18.42H92.4479V28H89.7214V6.30712H101.015V8.66115H92.4479V16.0808H99.7782V18.42ZM110.282 14.3526C109.914 14.283 109.517 14.2483 109.09 14.2483C107.739 14.2483 106.796 14.9882 106.259 16.4682V28H103.622V11.8793H106.185L106.229 13.5182C106.935 12.227 107.933 11.5813 109.224 11.5813C109.641 11.5813 109.989 11.6509 110.267 11.7899L110.282 14.3526ZM115.765 28H113.128V11.8793H115.765V28ZM115.973 7.60333C115.973 8.05029 115.849 8.42277 115.601 8.72075C115.353 9.01873 114.975 9.16772 114.469 9.16772C113.972 9.16772 113.599 9.01873 113.351 8.72075C113.103 8.42277 112.979 8.05029 112.979 7.60333C112.979 7.15636 113.103 6.77892 113.351 6.471C113.599 6.16309 113.972 6.00914 114.469 6.00914C114.965 6.00914 115.338 6.16806 115.586 6.4859C115.844 6.79382 115.973 7.16629 115.973 7.60333ZM119.37 19.1947C119.37 16.8506 119.937 14.9982 121.069 13.6374C122.211 12.2667 123.716 11.5813 125.583 11.5813C127.451 11.5813 128.95 12.2468 130.083 13.5778C131.225 14.9088 131.811 16.7215 131.841 19.0159V20.7144C131.841 23.0486 131.275 24.8961 130.142 26.2568C129.01 27.6176 127.5 28.298 125.613 28.298C123.746 28.298 122.246 27.6375 121.114 26.3164C119.991 24.9954 119.41 23.2075 119.37 20.9528V19.1947ZM122.007 20.7144C122.007 22.3732 122.33 23.6793 122.976 24.6328C123.631 25.5764 124.51 26.0482 125.613 26.0482C127.937 26.0482 129.134 24.3696 129.204 21.0124V19.1947C129.204 17.5459 128.876 16.2447 128.22 15.2912C127.565 14.3277 126.686 13.846 125.583 13.846C124.501 13.846 123.631 14.3277 122.976 15.2912C122.33 16.2447 122.007 17.5409 122.007 19.1798V20.7144Z" fill="#756B6B"/>
<path d="M16.6674 50.0223L15.2272 51.835V57H11.5769V38.9226H15.2272V46.8066L16.3818 44.8573L19.7465 38.9226H24.2162L19.0388 46.8687L24.3031 57H19.97L16.6674 50.0223ZM34.6455 50.1713H36.185V53.089H34.6455V57H31.1318V53.089H25.1474L24.986 50.8169L31.1194 38.9226H34.6455V50.1713ZM28.4003 50.1713H31.1318V44.1248L31.0573 44.2614L28.4003 50.1713ZM45.0623 50.0099C44.3174 50.7714 43.5021 51.1522 42.6164 51.1522C41.2424 51.1522 40.1581 50.6017 39.3635 49.5009C38.5772 48.3917 38.184 46.9142 38.184 45.0684C38.184 43.8765 38.4075 42.788 38.8544 41.8031C39.3014 40.8098 39.9222 40.04 40.7168 39.4937C41.5197 38.9474 42.4136 38.6743 43.3986 38.6743C44.4167 38.6743 45.3231 38.9764 46.1177 39.5806C46.9123 40.1849 47.5289 41.054 47.9676 42.188C48.4063 43.3137 48.6257 44.5966 48.6257 46.0369V47.3157C48.6257 50.3948 47.9469 52.8035 46.5895 54.5417C45.2403 56.2716 43.3241 57.1531 40.841 57.1862H40.4809V54.1568H40.7168C42.0908 54.1485 43.1213 53.7926 43.8083 53.089C44.5036 52.3855 44.9216 51.3591 45.0623 50.0099ZM43.5104 48.3959C44.1891 48.3959 44.723 47.9323 45.112 47.0053V45.3912C45.112 44.2076 44.9506 43.2805 44.6278 42.6101C44.305 41.9314 43.887 41.592 43.3738 41.592C42.8689 41.592 42.4592 41.9272 42.1446 42.5977C41.8384 43.2598 41.6852 44.071 41.6852 45.0312C41.6852 46.0741 41.8466 46.8977 42.1695 47.5019C42.4923 48.0979 42.9392 48.3959 43.5104 48.3959ZM57.6271 46.8687H61.1408V50.1341H57.6271V55.1873H54.2997V50.1341H50.7239V46.8687H54.2997V42.0265H57.6271V46.8687ZM71.5825 38.7364V41.7162H71.3838C70.0678 41.7244 69.0207 42.1217 68.2426 42.9081C67.4729 43.6861 67.0052 44.7787 66.8396 46.1858C67.5929 45.325 68.5365 44.8946 69.6704 44.8946C70.9782 44.8946 72.0212 45.4533 72.7992 46.5707C73.5856 47.6882 73.9787 49.178 73.9787 51.0404C73.9787 52.2241 73.7552 53.2918 73.3083 54.2437C72.8613 55.1956 72.2322 55.9364 71.4211 56.4661C70.6182 56.9876 69.7077 57.2483 68.6896 57.2483C67.0507 57.2483 65.7346 56.5903 64.7414 55.2742C63.7564 53.9581 63.2639 52.1868 63.2639 49.9602V48.6566C63.2639 46.6618 63.5743 44.9153 64.1951 43.4171C64.8241 41.9189 65.7264 40.7684 66.9017 39.9655C68.0854 39.1544 69.4635 38.7446 71.0362 38.7364H71.5825ZM68.5654 47.7999C68.1185 47.7999 67.7419 47.9406 67.4356 48.222C67.1376 48.5035 66.9141 48.8511 66.7652 49.265V50.5314C66.7652 51.8061 66.9348 52.7579 67.2742 53.387C67.6136 54.0161 68.0605 54.3306 68.6151 54.3306C69.178 54.3306 69.6291 54.0285 69.9684 53.4243C70.3078 52.8117 70.4775 52.0295 70.4775 51.0777C70.4775 50.1092 70.2995 49.3229 69.9436 48.7187C69.596 48.1061 69.1366 47.7999 68.5654 47.7999ZM86.7173 57H76.0646V54.5168L80.9564 48.2965C81.5772 47.4357 82.0324 46.6825 82.3221 46.0369C82.6201 45.383 82.7691 44.758 82.7691 44.1621C82.7691 43.3592 82.6284 42.7301 82.347 42.2749C82.0738 41.8196 81.6765 41.592 81.1551 41.592C80.5839 41.592 80.1287 41.8569 79.7893 42.3866C79.4582 42.9163 79.2927 43.6613 79.2927 44.6214H75.7666C75.7666 43.5123 75.9942 42.4983 76.4495 41.5796C76.913 40.6608 77.5586 39.949 78.3863 39.4441C79.2223 38.9309 80.1659 38.6743 81.2171 38.6743C82.8312 38.6743 84.0811 39.1213 84.9667 40.0152C85.8607 40.9008 86.3076 42.1631 86.3076 43.802C86.3076 44.8201 86.0593 45.8548 85.5627 46.906C85.0743 47.9489 84.1845 49.236 82.8933 50.7673L80.5715 54.0823H86.7173V57ZM99.5801 57H88.9273V54.5168L93.8192 48.2965C94.44 47.4357 94.8952 46.6825 95.1849 46.0369C95.4829 45.383 95.6319 44.758 95.6319 44.1621C95.6319 43.3592 95.4912 42.7301 95.2097 42.2749C94.9366 41.8196 94.5393 41.592 94.0178 41.592C93.4467 41.592 92.9915 41.8569 92.6521 42.3866C92.321 42.9163 92.1555 43.6613 92.1555 44.6214H88.6294C88.6294 43.5123 88.857 42.4983 89.3122 41.5796C89.7758 40.6608 90.4214 39.949 91.2491 39.4441C92.0851 38.9309 93.0287 38.6743 94.0799 38.6743C95.694 38.6743 96.9438 39.1213 97.8295 40.0152C98.7234 40.9008 99.1704 42.1631 99.1704 43.802C99.1704 44.8201 98.9221 45.8548 98.4254 46.906C97.9371 47.9489 97.0473 49.236 95.756 50.7673L93.4343 54.0823H99.5801V57ZM102.175 55.2121C102.175 54.6493 102.361 54.1858 102.734 53.8216C103.114 53.4574 103.607 53.2753 104.211 53.2753C104.799 53.2753 105.287 53.4574 105.676 53.8216C106.065 54.1775 106.26 54.641 106.26 55.2121C106.26 55.7915 106.061 56.2592 105.664 56.6151C105.275 56.9628 104.791 57.1366 104.211 57.1366C103.624 57.1366 103.135 56.9586 102.746 56.6027C102.365 56.2468 102.175 55.7833 102.175 55.2121ZM116.006 50.0099C115.261 50.7714 114.446 51.1522 113.56 51.1522C112.186 51.1522 111.102 50.6017 110.307 49.5009C109.521 48.3917 109.128 46.9142 109.128 45.0684C109.128 43.8765 109.351 42.788 109.798 41.8031C110.245 40.8098 110.866 40.04 111.661 39.4937C112.464 38.9474 113.358 38.6743 114.342 38.6743C115.361 38.6743 116.267 38.9764 117.062 39.5806C117.856 40.1849 118.473 41.054 118.912 42.188C119.35 43.3137 119.57 44.5966 119.57 46.0369V47.3157C119.57 50.3948 118.891 52.8035 117.533 54.5417C116.184 56.2716 114.268 57.1531 111.785 57.1862H111.425V54.1568H111.661C113.035 54.1485 114.065 53.7926 114.752 53.089C115.448 52.3855 115.865 51.3591 116.006 50.0099ZM114.454 48.3959C115.133 48.3959 115.667 47.9323 116.056 47.0053V45.3912C116.056 44.2076 115.894 43.2805 115.572 42.6101C115.249 41.9314 114.831 41.592 114.318 41.592C113.813 41.592 113.403 41.9272 113.088 42.5977C112.782 43.2598 112.629 44.071 112.629 45.0312C112.629 46.0741 112.791 46.8977 113.113 47.5019C113.436 48.0979 113.883 48.3959 114.454 48.3959ZM132.656 40.9464L126.945 57H123.232L128.968 41.8403H121.717V38.9226H132.656V40.9464Z" fill="#756B6B"/>
</svg>
