<svg width="137" height="63" viewBox="0 0 137 63" fill="none" xmlns="http://www.w3.org/2000/svg">
<path d="M5.37312 28H2.64661V6.30712H5.37312V28ZM23.7584 21.1167C23.6392 23.4409 22.9837 25.2189 21.7918 26.4505C20.6098 27.6822 18.9361 28.298 16.7708 28.298C14.5956 28.298 12.8673 27.4736 11.586 25.8248C10.3047 24.166 9.66402 21.9212 9.66402 19.0904V15.1571C9.66402 12.3362 10.3196 10.1064 11.6307 8.46747C12.9517 6.82858 14.7495 6.00914 17.0241 6.00914C19.1199 6.00914 20.7389 6.63986 21.8812 7.9013C23.0333 9.15282 23.6591 10.9457 23.7584 13.2798H21.0021C20.8829 11.5118 20.5105 10.2504 19.8847 9.49549C19.2589 8.74061 18.3054 8.36317 17.0241 8.36317C15.5441 8.36317 14.4069 8.94423 13.6122 10.1064C12.8176 11.2585 12.4203 12.9521 12.4203 15.1869V19.1649C12.4203 21.36 12.7878 23.0436 13.5228 24.2157C14.2678 25.3877 15.3505 25.9737 16.7708 25.9737C18.1912 25.9737 19.2142 25.6211 19.84 24.9159C20.4658 24.2107 20.8531 22.9443 21.0021 21.1167H23.7584ZM48.0437 25.3033L47.567 25.8992C46.1963 27.4984 44.1899 28.298 41.5478 28.298C39.2037 28.298 37.3612 27.5232 36.0203 25.9737C34.6893 24.4143 34.0089 22.2142 33.9791 19.3735V15.1124C33.9791 12.073 34.585 9.79844 35.7968 8.28868C37.0185 6.76898 38.8411 6.00914 41.2647 6.00914C43.3307 6.00914 44.9447 6.58523 46.1069 7.73742C47.2789 8.8896 47.9245 10.5335 48.0437 12.669H45.3172C45.208 11.3181 44.8305 10.2653 44.1849 9.51039C43.5492 8.74558 42.5808 8.36317 41.2796 8.36317C39.7202 8.36317 38.5779 8.8747 37.8528 9.89777C37.1278 10.9109 36.7503 12.5349 36.7205 14.7697V19.1947C36.7205 21.3799 37.1377 23.0585 37.972 24.2306C38.8064 25.3927 40.0033 25.9737 41.5627 25.9737C43.0327 25.9737 44.1501 25.6162 44.915 24.901L45.3172 24.5285V19.5225H41.3541V17.1983H48.0437V25.3033ZM60.3503 26.5846C59.4762 27.7269 58.1999 28.298 56.5212 28.298C55.0611 28.298 53.9586 27.7964 53.2137 26.7932C52.4687 25.7801 52.0913 24.31 52.0814 22.3831V11.8793H54.7036V22.1894C54.7036 24.7024 55.4584 25.9588 56.9682 25.9588C58.5674 25.9588 59.6699 25.2437 60.2758 23.8134V11.8793H62.9129V28H60.4099L60.3503 26.5846ZM75.1747 28C75.0158 27.6524 74.9016 27.0663 74.8321 26.2419C73.8984 27.6126 72.7065 28.298 71.2563 28.298C69.7962 28.298 68.654 27.8907 67.8296 27.0763C67.0151 26.2519 66.6078 25.0947 66.6078 23.6048C66.6078 21.9659 67.1641 20.6647 68.2765 19.7013C69.389 18.7378 70.9136 18.2461 72.8505 18.2263H74.7874V16.5129C74.7874 15.5494 74.5738 14.8641 74.1467 14.4568C73.7196 14.0496 73.069 13.846 72.1949 13.846C71.4003 13.846 70.7547 14.0844 70.2581 14.5611C69.7614 15.028 69.5131 15.6239 69.5131 16.349H66.876C66.876 15.5246 67.1194 14.7399 67.6061 13.995C68.0928 13.2401 68.7483 12.6491 69.5727 12.222C70.3971 11.7949 71.3159 11.5813 72.329 11.5813C73.9779 11.5813 75.2294 11.9936 76.0836 12.818C76.9477 13.6324 77.3897 14.8244 77.4096 16.3937V24.5285C77.4195 25.7701 77.5884 26.8478 77.9161 27.7616V28H75.1747ZM71.6586 25.8992C72.3042 25.8992 72.92 25.7205 73.5061 25.3629C74.0921 25.0053 74.5192 24.5583 74.7874 24.022V20.178H73.2975C72.046 20.1979 71.0577 20.481 70.3326 21.0273C69.6075 21.5636 69.245 22.3185 69.245 23.2919C69.245 24.2057 69.4287 24.8712 69.7962 25.2884C70.1637 25.6956 70.7845 25.8992 71.6586 25.8992ZM93.1578 20.7144C93.1578 23.2671 92.6959 25.1692 91.7722 26.4207C90.8584 27.6722 89.5622 28.298 87.8835 28.298C86.2645 28.298 85.018 27.6871 84.1439 26.4654V34.198H81.5217V11.8793H83.9055L84.0396 13.6672C84.9236 12.2766 86.19 11.5813 87.8389 11.5813C89.6069 11.5813 90.9279 12.1972 91.802 13.4288C92.676 14.6605 93.128 16.503 93.1578 18.9563V20.7144ZM90.5356 19.2096C90.5356 17.4019 90.2574 16.0709 89.7012 15.2167C89.145 14.3526 88.2511 13.9205 87.0194 13.9205C85.758 13.9205 84.7995 14.5512 84.1439 15.8127V24.2008C84.7895 25.4324 85.758 26.0482 87.0492 26.0482C88.2411 26.0482 89.1152 25.6211 89.6714 24.7669C90.2376 23.9028 90.5256 22.5867 90.5356 20.8187V19.2096ZM99.4004 28H96.7633V11.8793H99.4004V28ZM99.609 7.60333C99.609 8.05029 99.4849 8.42277 99.2366 8.72075C98.9882 9.01873 98.6108 9.16772 98.1042 9.16772C97.6076 9.16772 97.2351 9.01873 96.9868 8.72075C96.7385 8.42277 96.6143 8.05029 96.6143 7.60333C96.6143 7.15636 96.7385 6.77892 96.9868 6.471C97.2351 6.16309 97.6076 6.00914 98.1042 6.00914C98.6009 6.00914 98.9733 6.16806 99.2217 6.4859C99.4799 6.79382 99.609 7.16629 99.609 7.60333ZM106.403 28H103.766V5.1152H106.403V28ZM116.326 28.298C114.319 28.298 112.78 27.702 111.707 26.5101C110.634 25.3083 110.088 23.5502 110.068 21.2359V19.2841C110.068 16.8804 110.59 14.9982 111.632 13.6374C112.685 12.2667 114.15 11.5813 116.028 11.5813C117.915 11.5813 119.325 12.1823 120.259 13.3841C121.193 14.586 121.669 16.4583 121.689 19.001V20.7293H112.69V21.1018C112.69 22.8301 113.013 24.0865 113.659 24.8712C114.314 25.6559 115.253 26.0482 116.475 26.0482C117.249 26.0482 117.93 25.9042 118.516 25.6162C119.112 25.3182 119.668 24.8514 120.184 24.2157L121.555 25.8843C120.413 27.4934 118.67 28.298 116.326 28.298ZM116.028 13.846C114.935 13.846 114.126 14.2234 113.599 14.9783C113.073 15.7233 112.775 16.8854 112.705 18.4647H119.052V18.1071C118.983 16.5775 118.705 15.4849 118.218 14.8293C117.741 14.1738 117.011 13.846 116.028 13.846ZM132.7 23.873C132.7 23.3068 132.486 22.8201 132.059 22.4129C131.632 22.0057 130.807 21.5289 129.586 20.9826C128.165 20.3966 127.162 19.895 126.576 19.4778C126 19.0606 125.568 18.5888 125.28 18.0624C124.992 17.526 124.848 16.8903 124.848 16.1553C124.848 14.8442 125.325 13.7566 126.278 12.8925C127.242 12.0184 128.468 11.5813 129.958 11.5813C131.528 11.5813 132.789 12.0382 133.743 12.9521C134.696 13.8659 135.173 15.0379 135.173 16.4682H132.551C132.551 15.7431 132.307 15.1273 131.821 14.6207C131.334 14.1042 130.713 13.846 129.958 13.846C129.183 13.846 128.573 14.0496 128.126 14.4568C127.689 14.8542 127.47 15.3905 127.47 16.0659C127.47 16.6023 127.629 17.0344 127.947 17.3621C128.275 17.6899 129.054 18.122 130.286 18.6584C132.243 19.4232 133.574 20.1731 134.279 20.9081C134.984 21.6332 135.337 22.5569 135.337 23.6793C135.337 25.0798 134.855 26.2022 133.892 27.0465C132.928 27.8808 131.637 28.298 130.018 28.298C128.339 28.298 126.978 27.8162 125.935 26.8528C124.893 25.8893 124.371 24.6676 124.371 23.1876H127.023C127.053 24.0816 127.326 24.7818 127.843 25.2884C128.359 25.795 129.084 26.0482 130.018 26.0482C130.892 26.0482 131.557 25.8545 132.014 25.4672C132.471 25.0699 132.7 24.5385 132.7 23.873Z" fill="#756B6B"/>
<path d="M13.7373 50.0223L12.297 51.835V57H8.64681V38.9226H12.297V46.8066L13.4517 44.8573L16.8164 38.9226H21.2861L16.1087 46.8687L21.373 57H17.0399L13.7373 50.0223ZM30.8338 38.7364V41.7162H30.6352C29.3191 41.7244 28.272 42.1217 27.494 42.9081C26.7242 43.6861 26.2565 44.7787 26.091 46.1858C26.8442 45.325 27.7878 44.8946 28.9218 44.8946C30.2296 44.8946 31.2725 45.4533 32.0506 46.5707C32.8369 47.6882 33.2301 49.178 33.2301 51.0404C33.2301 52.2241 33.0066 53.2918 32.5596 54.2437C32.1127 55.1956 31.4836 55.9364 30.6724 56.4661C29.8695 56.9876 28.9591 57.2483 27.941 57.2483C26.3021 57.2483 24.986 56.5903 23.9927 55.2742C23.0077 53.9581 22.5153 52.1868 22.5153 49.9602V48.6566C22.5153 46.6618 22.8256 44.9153 23.4464 43.4171C24.0755 41.9189 24.9777 40.7684 26.1531 39.9655C27.3367 39.1544 28.7149 38.7446 30.2875 38.7364H30.8338ZM27.8168 47.7999C27.3698 47.7999 26.9932 47.9406 26.687 48.222C26.389 48.5035 26.1655 48.8511 26.0165 49.265V50.5314C26.0165 51.8061 26.1862 52.7579 26.5256 53.387C26.8649 54.0161 27.3119 54.3306 27.8665 54.3306C28.4293 54.3306 28.8804 54.0285 29.2198 53.4243C29.5591 52.8117 29.7288 52.0295 29.7288 51.0777C29.7288 50.1092 29.5509 49.3229 29.195 48.7187C28.8473 48.1061 28.3879 47.7999 27.8168 47.7999ZM45.9687 57H35.3159V54.5168L40.2078 48.2965C40.8286 47.4357 41.2838 46.6825 41.5735 46.0369C41.8715 45.383 42.0205 44.758 42.0205 44.1621C42.0205 43.3592 41.8798 42.7301 41.5983 42.2749C41.3252 41.8196 40.9279 41.592 40.4064 41.592C39.8353 41.592 39.38 41.8569 39.0407 42.3866C38.7096 42.9163 38.544 43.6613 38.544 44.6214H35.018C35.018 43.5123 35.2456 42.4983 35.7008 41.5796C36.1644 40.6608 36.81 39.949 37.6377 39.4441C38.4737 38.9309 39.4173 38.6743 40.4685 38.6743C42.0826 38.6743 43.3324 39.1213 44.2181 40.0152C45.112 40.9008 45.559 42.1631 45.559 43.802C45.559 44.8201 45.3107 45.8548 44.814 46.906C44.3257 47.9489 43.4359 49.236 42.1446 50.7673L39.8229 54.0823H45.9687V57ZM54.697 46.8687H58.2107V50.1341H54.697V55.1873H51.3696V50.1341H47.7938V46.8687H51.3696V42.0265H54.697V46.8687ZM70.403 43.7275C70.403 44.6049 70.2167 45.383 69.8443 46.0617C69.4718 46.7404 68.9586 47.2826 68.3047 47.6882C69.0497 48.1103 69.6373 48.6938 70.0678 49.4388C70.4982 50.1754 70.7134 51.0446 70.7134 52.0461C70.7134 53.6519 70.2499 54.9224 69.3228 55.8577C68.3958 56.7848 67.1335 57.2483 65.536 57.2483C63.9385 57.2483 62.6679 56.7848 61.7243 55.8577C60.7807 54.9224 60.3089 53.6519 60.3089 52.0461C60.3089 51.0446 60.5241 50.1713 60.9546 49.4264C61.385 48.6814 61.9768 48.102 62.73 47.6882C62.0678 47.2826 61.5505 46.7404 61.178 46.0617C60.8056 45.383 60.6193 44.6049 60.6193 43.7275C60.6193 42.1466 61.0622 40.9091 61.9478 40.0152C62.8335 39.1213 64.0213 38.6743 65.5112 38.6743C67.0176 38.6743 68.2095 39.1254 69.0869 40.0276C69.9643 40.9298 70.403 42.1631 70.403 43.7275ZM65.536 54.3306C66.0657 54.3306 66.4713 54.1071 66.7527 53.6602C67.0424 53.2049 67.1873 52.5758 67.1873 51.7729C67.1873 50.9701 67.0383 50.341 66.7403 49.8857C66.4423 49.4305 66.0326 49.2029 65.5112 49.2029C64.9897 49.2029 64.5758 49.4305 64.2696 49.8857C63.9716 50.341 63.8226 50.9701 63.8226 51.7729C63.8226 52.5758 63.9716 53.2049 64.2696 53.6602C64.5758 54.1071 64.998 54.3306 65.536 54.3306ZM66.9017 43.9137C66.9017 43.2102 66.7859 42.6473 66.5541 42.2252C66.3306 41.8031 65.983 41.592 65.5112 41.592C65.0642 41.592 64.7248 41.7989 64.4931 42.2128C64.2613 42.6184 64.1454 43.1854 64.1454 43.9137C64.1454 44.6256 64.2613 45.2009 64.4931 45.6395C64.7248 46.07 65.0725 46.2852 65.536 46.2852C65.9995 46.2852 66.343 46.07 66.5665 45.6395C66.79 45.2009 66.9017 44.6256 66.9017 43.9137ZM79.9507 50.0099C79.2058 50.7714 78.3905 51.1522 77.5048 51.1522C76.1308 51.1522 75.0465 50.6017 74.2519 49.5009C73.4655 48.3917 73.0724 46.9142 73.0724 45.0684C73.0724 43.8765 73.2959 42.788 73.7428 41.8031C74.1898 40.8098 74.8106 40.04 75.6052 39.4937C76.4081 38.9474 77.302 38.6743 78.287 38.6743C79.3051 38.6743 80.2115 38.9764 81.0061 39.5806C81.8007 40.1849 82.4173 41.054 82.856 42.188C83.2947 43.3137 83.5141 44.5966 83.5141 46.0369V47.3157C83.5141 50.3948 82.8353 52.8035 81.4779 54.5417C80.1287 56.2716 78.2125 57.1531 75.7294 57.1862H75.3693V54.1568H75.6052C76.9792 54.1485 78.0097 53.7926 78.6967 53.089C79.392 52.3855 79.81 51.3591 79.9507 50.0099ZM78.3988 48.3959C79.0775 48.3959 79.6114 47.9323 80.0004 47.0053V45.3912C80.0004 44.2076 79.839 43.2805 79.5162 42.6101C79.1934 41.9314 78.7754 41.592 78.2622 41.592C77.7573 41.592 77.3476 41.9272 77.033 42.5977C76.7268 43.2598 76.5736 44.071 76.5736 45.0312C76.5736 46.0741 76.735 46.8977 77.0578 47.5019C77.3807 48.0979 77.8276 48.3959 78.3988 48.3959ZM96.501 49.5257C96.501 52.0254 96.0458 53.9374 95.1353 55.2618C94.233 56.5861 92.9418 57.2483 91.2615 57.2483C89.5978 57.2483 88.3107 56.6068 87.4002 55.3239C86.498 54.0326 86.0303 52.1868 85.9972 49.7864V46.3721C85.9972 43.8806 86.4483 41.9769 87.3506 40.6608C88.2528 39.3365 89.5482 38.6743 91.2367 38.6743C92.9253 38.6743 94.2206 39.3282 95.1228 40.636C96.0251 41.9438 96.4844 43.8103 96.501 46.2355V49.5257ZM92.9749 45.863C92.9749 44.4394 92.8342 43.3716 92.5528 42.6598C92.2714 41.9479 91.8327 41.592 91.2367 41.592C90.1193 41.592 89.5399 42.8957 89.4985 45.503V50.0099C89.4985 51.4667 89.6392 52.551 89.9206 53.2628C90.2103 53.9747 90.6573 54.3306 91.2615 54.3306C91.8327 54.3306 92.2548 53.9995 92.5279 53.3373C92.8094 52.6669 92.9584 51.6447 92.9749 50.2706V45.863ZM99.2449 55.2121C99.2449 54.6493 99.4311 54.1858 99.8036 53.8216C100.184 53.4574 100.677 53.2753 101.281 53.2753C101.869 53.2753 102.357 53.4574 102.746 53.8216C103.135 54.1775 103.33 54.641 103.33 55.2121C103.33 55.7915 103.131 56.2592 102.734 56.6151C102.345 56.9628 101.86 57.1366 101.281 57.1366C100.693 57.1366 100.205 56.9586 99.816 56.6027C99.4353 56.2468 99.2449 55.7833 99.2449 55.2121ZM116.913 57H106.26V54.5168L111.152 48.2965C111.772 47.4357 112.228 46.6825 112.517 46.0369C112.815 45.383 112.964 44.758 112.964 44.1621C112.964 43.3592 112.824 42.7301 112.542 42.2749C112.269 41.8196 111.872 41.592 111.35 41.592C110.779 41.592 110.324 41.8569 109.985 42.3866C109.653 42.9163 109.488 43.6613 109.488 44.6214H105.962C105.962 43.5123 106.189 42.4983 106.645 41.5796C107.108 40.6608 107.754 39.949 108.582 39.4441C109.418 38.9309 110.361 38.6743 111.412 38.6743C113.026 38.6743 114.276 39.1213 115.162 40.0152C116.056 40.9008 116.503 42.1631 116.503 43.802C116.503 44.8201 116.255 45.8548 115.758 46.906C115.27 47.9489 114.38 49.236 113.088 50.7673L110.767 54.0823H116.913V57ZM125.939 50.0099C125.194 50.7714 124.379 51.1522 123.493 51.1522C122.119 51.1522 121.035 50.6017 120.24 49.5009C119.454 48.3917 119.061 46.9142 119.061 45.0684C119.061 43.8765 119.284 42.788 119.731 41.8031C120.178 40.8098 120.799 40.04 121.593 39.4937C122.396 38.9474 123.29 38.6743 124.275 38.6743C125.293 38.6743 126.2 38.9764 126.994 39.5806C127.789 40.1849 128.405 41.054 128.844 42.188C129.283 43.3137 129.502 44.5966 129.502 46.0369V47.3157C129.502 50.3948 128.823 52.8035 127.466 54.5417C126.117 56.2716 124.201 57.1531 121.717 57.1862H121.357V54.1568H121.593C122.967 54.1485 123.998 53.7926 124.685 53.089C125.38 52.3855 125.798 51.3591 125.939 50.0099ZM124.387 48.3959C125.066 48.3959 125.599 47.9323 125.989 47.0053V45.3912C125.989 44.2076 125.827 43.2805 125.504 42.6101C125.181 41.9314 124.763 41.592 124.25 41.592C123.745 41.592 123.336 41.9272 123.021 42.5977C122.715 43.2598 122.562 44.071 122.562 45.0312C122.562 46.0741 122.723 46.8977 123.046 47.5019C123.369 48.0979 123.816 48.3959 124.387 48.3959Z" fill="#756B6B"/>
</svg>
