<svg width="140" height="63" viewBox="0 0 140 63" fill="none" xmlns="http://www.w3.org/2000/svg">
<path d="M5.39812 19.5076V28H2.67161V6.30712H9.58473C11.6011 6.30712 13.1853 6.91301 14.3375 8.12479C15.4897 9.32664 16.0658 10.9308 16.0658 12.9372C16.0658 15.023 15.5145 16.6321 14.412 17.7644C13.3194 18.8868 11.7749 19.4679 9.77841 19.5076H5.39812ZM5.39812 17.1685H9.58473C10.7965 17.1685 11.7252 16.8059 12.3708 16.0808C13.0165 15.3558 13.3393 14.3178 13.3393 12.967C13.3393 11.6658 13.0065 10.6228 12.341 9.83817C11.6755 9.05349 10.7617 8.66115 9.59963 8.66115H5.39812V17.1685ZM29.0726 22.5172C29.0726 21.4345 28.7796 20.6052 28.1935 20.0291C27.6075 19.453 26.5497 18.8918 25.02 18.3455C23.4904 17.7992 22.3184 17.2281 21.5039 16.6321C20.6993 16.0262 20.0935 15.3409 19.6862 14.576C19.2889 13.8013 19.0903 12.9173 19.0903 11.924C19.0903 10.2057 19.6614 8.79028 20.8036 7.67782C21.9558 6.56536 23.4606 6.00914 25.318 6.00914C26.5894 6.00914 27.7217 6.29718 28.715 6.87328C29.7083 7.43944 30.4731 8.22908 31.0094 9.24221C31.5458 10.2553 31.814 11.3678 31.814 12.5796H29.0726C29.0726 11.2387 28.7498 10.2007 28.1041 9.4657C27.4585 8.73068 26.5298 8.36317 25.318 8.36317C24.2155 8.36317 23.3613 8.67108 22.7554 9.28691C22.1495 9.90273 21.8466 10.7669 21.8466 11.8793C21.8466 12.7931 22.1743 13.5579 22.8299 14.1738C23.4855 14.7896 24.4986 15.3409 25.8693 15.8276C28.0048 16.5328 29.5295 17.4019 30.4433 18.4349C31.367 19.4679 31.8289 20.8187 31.8289 22.4874C31.8289 24.2455 31.2577 25.6559 30.1155 26.7187C28.9732 27.7715 27.4188 28.298 25.4521 28.298C24.1907 28.298 23.0236 28.0248 21.9509 27.4785C20.8881 26.9223 20.0488 26.1476 19.4329 25.1543C18.827 24.1511 18.5241 23.0039 18.5241 21.7126H21.2655C21.2655 23.0535 21.638 24.0965 22.3829 24.8414C23.1378 25.5864 24.1609 25.9588 25.4521 25.9588C26.654 25.9588 27.5578 25.6509 28.1637 25.0351C28.7696 24.4193 29.0726 23.58 29.0726 22.5172ZM41.6175 23.8134L46.5788 6.30712H49.5735L42.8243 28H40.4405L33.7061 6.30712H36.6859L41.6175 23.8134ZM63.0422 6.30712L68.7038 24.0071L74.3654 6.30712H77.8816V28H75.155V19.5523L75.4083 11.0897L69.7318 28H67.646L61.9993 11.1493L62.2525 19.5523V28H59.526V6.30712H63.0422ZM81.6659 19.1947C81.6659 16.8506 82.232 14.9982 83.3644 13.6374C84.5066 12.2667 86.0114 11.5813 87.8788 11.5813C89.7461 11.5813 91.2459 12.2468 92.3782 13.5778C93.5205 14.9088 94.1065 16.7215 94.1363 19.0159V20.7144C94.1363 23.0486 93.5702 24.8961 92.4378 26.2568C91.3055 27.6176 89.7958 28.298 87.9086 28.298C86.0412 28.298 84.5414 27.6375 83.4091 26.3164C82.2867 24.9954 81.7056 23.2075 81.6659 20.9528V19.1947ZM84.303 20.7144C84.303 22.3732 84.6258 23.6793 85.2714 24.6328C85.927 25.5764 86.806 26.0482 87.9086 26.0482C90.2328 26.0482 91.4297 24.3696 91.4992 21.0124V19.1947C91.4992 17.5459 91.1714 16.2447 90.5159 15.2912C89.8603 14.3277 88.9813 13.846 87.8788 13.846C86.7961 13.846 85.927 14.3277 85.2714 15.2912C84.6258 16.2447 84.303 17.5409 84.303 19.1798V20.7144ZM100.379 28H97.7419V5.1152H100.379V28ZM107.381 28H104.744V11.8793H107.381V28ZM107.59 7.60333C107.59 8.05029 107.466 8.42277 107.218 8.72075C106.969 9.01873 106.592 9.16772 106.085 9.16772C105.589 9.16772 105.216 9.01873 104.968 8.72075C104.72 8.42277 104.595 8.05029 104.595 7.60333C104.595 7.15636 104.72 6.77892 104.968 6.471C105.216 6.16309 105.589 6.00914 106.085 6.00914C106.582 6.00914 106.954 6.16806 107.203 6.4859C107.461 6.79382 107.59 7.16629 107.59 7.60333ZM114.026 11.8793L114.101 13.6225C115.124 12.2617 116.43 11.5813 118.019 11.5813C120.87 11.5813 122.315 13.4834 122.355 17.2876V28H119.733V17.4068C119.733 16.1454 119.519 15.2515 119.092 14.725C118.675 14.1887 118.044 13.9205 117.2 13.9205C116.544 13.9205 115.953 14.139 115.427 14.576C114.91 15.0131 114.493 15.5842 114.175 16.2894V28H111.538V11.8793H114.026ZM125.767 19.1947C125.767 16.8506 126.333 14.9982 127.465 13.6374C128.608 12.2667 130.112 11.5813 131.98 11.5813C133.847 11.5813 135.347 12.2468 136.479 13.5778C137.621 14.9088 138.207 16.7215 138.237 19.0159V20.7144C138.237 23.0486 137.671 24.8961 136.539 26.2568C135.406 27.6176 133.897 28.298 132.009 28.298C130.142 28.298 128.642 27.6375 127.51 26.3164C126.388 24.9954 125.807 23.2075 125.767 20.9528V19.1947ZM128.404 20.7144C128.404 22.3732 128.727 23.6793 129.372 24.6328C130.028 25.5764 130.907 26.0482 132.009 26.0482C134.334 26.0482 135.531 24.3696 135.6 21.0124V19.1947C135.6 17.5459 135.272 16.2447 134.617 15.2912C133.961 14.3277 133.082 13.846 131.98 13.846C130.897 13.846 130.028 14.3277 129.372 15.2912C128.727 16.2447 128.404 17.5409 128.404 19.1798V20.7144Z" fill="#756B6B"/>
<path d="M15.7373 50.0223L14.297 51.835V57H10.6468V38.9226H14.297V46.8066L15.4517 44.8573L18.8164 38.9226H23.2861L18.1087 46.8687L23.373 57H19.0399L15.7373 50.0223ZM32.8338 38.7364V41.7162H32.6352C31.3191 41.7244 30.272 42.1217 29.494 42.9081C28.7242 43.6861 28.2565 44.7787 28.091 46.1858C28.8442 45.325 29.7878 44.8946 30.9218 44.8946C32.2296 44.8946 33.2725 45.4533 34.0506 46.5707C34.8369 47.6882 35.2301 49.178 35.2301 51.0404C35.2301 52.2241 35.0066 53.2918 34.5596 54.2437C34.1127 55.1956 33.4836 55.9364 32.6724 56.4661C31.8695 56.9876 30.9591 57.2483 29.941 57.2483C28.3021 57.2483 26.986 56.5903 25.9927 55.2742C25.0077 53.9581 24.5153 52.1868 24.5153 49.9602V48.6566C24.5153 46.6618 24.8256 44.9153 25.4464 43.4171C26.0755 41.9189 26.9777 40.7684 28.1531 39.9655C29.3367 39.1544 30.7149 38.7446 32.2875 38.7364H32.8338ZM29.8168 47.7999C29.3698 47.7999 28.9932 47.9406 28.687 48.222C28.389 48.5035 28.1655 48.8511 28.0165 49.265V50.5314C28.0165 51.8061 28.1862 52.7579 28.5256 53.387C28.8649 54.0161 29.3119 54.3306 29.8665 54.3306C30.4293 54.3306 30.8804 54.0285 31.2198 53.4243C31.5591 52.8117 31.7288 52.0295 31.7288 51.0777C31.7288 50.1092 31.5509 49.3229 31.195 48.7187C30.8473 48.1061 30.3879 47.7999 29.8168 47.7999ZM46.5781 50.1713H48.1177V53.089H46.5781V57H43.0645V53.089H37.08L36.9186 50.8169L43.052 38.9226H46.5781V50.1713ZM40.333 50.1713H43.0645V44.1248L42.99 44.2614L40.333 50.1713ZM56.697 46.8687H60.2107V50.1341H56.697V55.1873H53.3696V50.1341H49.7938V46.8687H53.3696V42.0265H56.697V46.8687ZM62.6318 48.1103L63.5257 38.9226H72.2788V41.9272H66.4062L66.0833 45.8009C66.7621 45.3457 67.4615 45.1181 68.1816 45.1181C69.6715 45.1181 70.8179 45.6478 71.6208 46.7073C72.432 47.7668 72.8375 49.265 72.8375 51.2018C72.8375 53.0145 72.3575 54.4755 71.3973 55.5846C70.4372 56.6937 69.1542 57.2483 67.5484 57.2483C66.5965 57.2483 65.715 57.0248 64.9038 56.5779C64.0927 56.1226 63.4512 55.4935 62.9794 54.6907C62.5159 53.8878 62.28 52.9773 62.2717 51.9592H65.7481C65.8061 52.7124 65.9923 53.296 66.3068 53.7098C66.6214 54.1237 67.0269 54.3306 67.5236 54.3306C68.103 54.3306 68.5499 54.0533 68.8645 53.4987C69.179 52.9359 69.3363 52.0999 69.3363 50.9908C69.3363 49.9478 69.1459 49.1615 68.7652 48.6318C68.3927 48.102 67.8671 47.8371 67.1884 47.8371C66.5262 47.8371 66.013 48.0648 65.6488 48.52L65.4253 48.8304L62.6318 48.1103ZM85.7375 40.9464L80.0263 57H76.314L82.0501 41.8403H74.7992V38.9226H85.7375V40.9464ZM98.1285 43.7275C98.1285 44.6049 97.9423 45.383 97.5698 46.0617C97.1973 46.7404 96.6842 47.2826 96.0303 47.6882C96.7752 48.1103 97.3629 48.6938 97.7933 49.4388C98.2237 50.1754 98.4389 51.0446 98.4389 52.0461C98.4389 53.6519 97.9754 54.9224 97.0484 55.8577C96.1213 56.7848 94.859 57.2483 93.2615 57.2483C91.664 57.2483 90.3935 56.7848 89.4499 55.8577C88.5063 54.9224 88.0345 53.6519 88.0345 52.0461C88.0345 51.0446 88.2497 50.1713 88.6801 49.4264C89.1105 48.6814 89.7023 48.102 90.4556 47.6882C89.7934 47.2826 89.2761 46.7404 88.9036 46.0617C88.5311 45.383 88.3449 44.6049 88.3449 43.7275C88.3449 42.1466 88.7877 40.9091 89.6734 40.0152C90.559 39.1213 91.7468 38.6743 93.2367 38.6743C94.7432 38.6743 95.9351 39.1254 96.8125 40.0276C97.6898 40.9298 98.1285 42.1631 98.1285 43.7275ZM93.2615 54.3306C93.7913 54.3306 94.1969 54.1071 94.4783 53.6602C94.768 53.2049 94.9128 52.5758 94.9128 51.7729C94.9128 50.9701 94.7638 50.341 94.4659 49.8857C94.1679 49.4305 93.7582 49.2029 93.2367 49.2029C92.7152 49.2029 92.3014 49.4305 91.9951 49.8857C91.6971 50.341 91.5482 50.9701 91.5482 51.7729C91.5482 52.5758 91.6971 53.2049 91.9951 53.6602C92.3014 54.1071 92.7235 54.3306 93.2615 54.3306ZM94.6273 43.9137C94.6273 43.2102 94.5114 42.6473 94.2796 42.2252C94.0561 41.8031 93.7085 41.592 93.2367 41.592C92.7897 41.592 92.4504 41.7989 92.2186 42.2128C91.9868 42.6184 91.871 43.1854 91.871 43.9137C91.871 44.6256 91.9868 45.2009 92.2186 45.6395C92.4504 46.07 92.798 46.2852 93.2615 46.2852C93.7251 46.2852 94.0686 46.07 94.292 45.6395C94.5155 45.2009 94.6273 44.6256 94.6273 43.9137ZM101.245 55.2121C101.245 54.6493 101.431 54.1858 101.804 53.8216C102.184 53.4574 102.677 53.2753 103.281 53.2753C103.869 53.2753 104.357 53.4574 104.746 53.8216C105.135 54.1775 105.33 54.641 105.33 55.2121C105.33 55.7915 105.131 56.2592 104.734 56.6151C104.345 56.9628 103.86 57.1366 103.281 57.1366C102.693 57.1366 102.205 56.9586 101.816 56.6027C101.435 56.2468 101.245 55.7833 101.245 55.2121ZM108.62 48.1103L109.514 38.9226H118.267V41.9272H112.394L112.071 45.8009C112.75 45.3457 113.45 45.1181 114.17 45.1181C115.66 45.1181 116.806 45.6478 117.609 46.7073C118.42 47.7668 118.826 49.265 118.826 51.2018C118.826 53.0145 118.346 54.4755 117.385 55.5846C116.425 56.6937 115.142 57.2483 113.537 57.2483C112.585 57.2483 111.703 57.0248 110.892 56.5779C110.081 56.1226 109.439 55.4935 108.968 54.6907C108.504 53.8878 108.268 52.9773 108.26 51.9592H111.736C111.794 52.7124 111.98 53.296 112.295 53.7098C112.609 54.1237 113.015 54.3306 113.512 54.3306C114.091 54.3306 114.538 54.0533 114.853 53.4987C115.167 52.9359 115.324 52.0999 115.324 50.9908C115.324 49.9478 115.134 49.1615 114.753 48.6318C114.381 48.102 113.855 47.8371 113.176 47.8371C112.514 47.8371 112.001 48.0648 111.637 48.52L111.413 48.8304L108.62 48.1103ZM131.726 40.9464L126.014 57H122.302L128.038 41.8403H120.787V38.9226H131.726V40.9464Z" fill="#756B6B"/>
</svg>
