<svg width="51" height="190" viewBox="0 0 51 190" fill="none" xmlns="http://www.w3.org/2000/svg">
<line x1="26" y1="74" x2="26" y2="190" stroke="#9B9393" stroke-width="2" stroke-dasharray="15 15"/>
<circle cx="24.5" cy="52.5" r="22" stroke="#9B9393"/>
<path d="M8.23469 10.1253C8.77714 10.1253 9.25179 10.1169 9.65863 10.0999C10.0655 10.083 10.4384 10.0745 10.7774 10.0745C11.1334 10.0575 11.464 10.0406 11.7691 10.0236C12.0743 10.0067 12.4048 9.98124 12.7608 9.94734V11.5747C12.4387 11.5578 12.1336 11.5408 11.8454 11.5238C11.5742 11.4899 11.286 11.473 10.9809 11.473C10.6757 11.456 10.3452 11.4391 9.98919 11.4221C9.65016 11.4052 9.26027 11.3967 8.81952 11.3967V15.516C9.71796 15.516 10.4893 15.499 11.1334 15.4651C11.7945 15.4312 12.3031 15.3888 12.6591 15.338V16.8891C12.3031 16.8382 11.7945 16.8043 11.1334 16.7874C10.4893 16.7534 9.71796 16.7365 8.81952 16.7365V21.2117C9.32808 21.4152 10.0146 21.6016 10.8792 21.7712C11.7606 21.9407 12.854 22.0593 14.1593 22.1271C15.4646 22.2119 16.9987 22.2288 18.7617 22.178C20.5416 22.1271 22.5928 21.983 24.9152 21.7457C24.6778 21.983 24.4999 22.3051 24.3812 22.712C24.2625 23.1188 24.2032 23.5172 24.2032 23.9071C22.5928 23.9579 21.1604 23.9833 19.9059 23.9833C18.6685 24.0003 17.5581 23.9918 16.5749 23.9579C15.5917 23.924 14.7187 23.8647 13.9559 23.7799C13.21 23.7121 12.5319 23.6189 11.9217 23.5002C9.98919 23.1273 8.39573 22.5679 7.14131 21.822C5.90383 21.0592 4.87825 20.0082 4.06457 18.669C3.91201 19.5505 3.68316 20.4743 3.37803 21.4406C3.08985 22.3899 2.77624 23.2968 2.43721 24.1613C2.14903 23.9071 1.8778 23.7206 1.62353 23.6019C1.36925 23.5002 1.04717 23.4239 0.657279 23.3731C1.40315 22.356 2.00494 21.0168 2.46264 19.3555C2.93728 17.6943 3.12375 15.8126 3.02204 13.7106C3.31022 13.8123 3.6323 13.9056 3.98829 13.9903C4.36123 14.0581 4.68331 14.109 4.95454 14.1429C5.141 14.1598 5.25119 14.2446 5.28509 14.3972C5.319 14.5328 5.24271 14.6853 5.05625 14.8549C4.98844 14.9227 4.90368 15.0668 4.80197 15.2871C4.71721 15.5075 4.59855 15.9567 4.44598 16.6348C4.78502 17.3468 5.18338 18.0163 5.64108 18.6436C6.11573 19.2538 6.65818 19.8048 7.26844 20.2964V11.3967C6.60733 11.3967 6.01402 11.4052 5.48851 11.4221C4.96301 11.4221 4.47141 11.4306 4.01372 11.4476C3.55602 11.4476 3.12375 11.4645 2.71691 11.4984C2.31007 11.5154 1.89475 11.5408 1.47096 11.5747V9.94734C1.86085 9.98124 2.23379 10.0151 2.58977 10.049C2.96271 10.066 3.3526 10.083 3.75944 10.0999C4.16628 10.0999 4.59855 10.1084 5.05625 10.1253C5.53089 10.1253 6.06487 10.1253 6.65818 10.1253V6.38748C5.64108 6.38748 4.81045 6.40443 4.16628 6.43834C3.53907 6.45529 2.94576 6.49767 2.38635 6.56547V4.96354C2.94576 5.03134 3.53907 5.0822 4.16628 5.1161C4.81045 5.13305 5.64108 5.14153 6.65818 5.14153C6.65818 4.49737 6.64971 3.96339 6.63275 3.53959C6.63275 3.1158 6.62428 2.76829 6.60733 2.49706C6.60733 2.20889 6.59038 1.98004 6.55647 1.81052C6.53952 1.62405 6.51409 1.45453 6.48019 1.30197C6.87008 1.38673 7.19216 1.44606 7.44644 1.47996C7.71766 1.49691 8.01432 1.48844 8.3364 1.45453C8.53982 1.43758 8.65848 1.50539 8.69239 1.65796C8.74324 1.79357 8.70086 1.92918 8.56525 2.0648C8.49744 2.1326 8.42116 2.27669 8.3364 2.49706C8.26859 2.70048 8.23469 2.92086 8.23469 3.15818V5.14153C9.09923 5.14153 9.82815 5.13305 10.4215 5.1161C11.0317 5.0822 11.5911 5.03134 12.0997 4.96354V6.56547C11.5911 6.51462 11.0317 6.47224 10.4215 6.43834C9.82815 6.40443 9.09923 6.38748 8.23469 6.38748V10.1253ZM20.745 5.1161H16.9563C16.7021 5.1161 16.4139 5.12458 16.0918 5.14153C15.7867 5.15848 15.4815 5.18391 15.1764 5.21781C14.8713 5.23476 14.5831 5.26867 14.3119 5.31952C14.0576 5.35343 13.8457 5.38733 13.6762 5.42123V3.61588C13.8796 3.66673 14.1 3.70911 14.3373 3.74301C14.5746 3.77692 14.8543 3.81082 15.1764 3.84472C15.5154 3.86168 15.9053 3.87863 16.3461 3.89558C16.8038 3.89558 17.3378 3.89558 17.948 3.89558C18.5583 3.89558 19.0923 3.89558 19.55 3.89558C20.0246 3.87863 20.4399 3.86168 20.7959 3.84472C21.1519 3.81082 21.457 3.77692 21.7113 3.74301C21.9825 3.70911 22.2283 3.66673 22.4487 3.61588C22.3978 3.95491 22.3639 4.30242 22.347 4.65841C22.33 5.01439 22.3216 5.42971 22.3216 5.90436V8.98109C22.3216 9.71001 22.33 10.3966 22.347 11.0407C22.3809 11.6679 22.4148 12.3375 22.4487 13.0495H20.745V11.7018H15.7358V16.5585C15.7358 16.9823 15.7528 17.3213 15.7867 17.5756C15.8375 17.8299 15.9477 18.0333 16.1172 18.1859C16.3037 18.3215 16.5834 18.4147 16.9563 18.4656C17.3293 18.5164 17.8378 18.5419 18.482 18.5419C19.2618 18.5419 19.889 18.5079 20.3636 18.4401C20.8552 18.3554 21.2366 18.1943 21.5079 17.957C21.7961 17.7197 21.9995 17.3807 22.1181 16.9399C22.2368 16.4992 22.3385 15.9143 22.4233 15.1854C22.5928 15.5753 22.8047 15.8635 23.059 16.05C23.3132 16.2195 23.6268 16.3212 23.9998 16.3551C23.7625 17.1688 23.5251 17.8214 23.2878 18.313C23.0674 18.7877 22.7708 19.1521 22.3978 19.4064C22.0249 19.6607 21.5418 19.8302 20.9485 19.9149C20.3721 19.9827 19.6178 20.0167 18.6854 20.0167C17.5836 20.0167 16.7275 19.9827 16.1172 19.9149C15.507 19.8471 15.0578 19.7115 14.7696 19.5081C14.4814 19.3047 14.3119 19.008 14.261 18.6181C14.2102 18.2282 14.1847 17.7112 14.1847 17.0671V12.5918C14.1847 12.0154 14.1763 11.5747 14.1593 11.2696C14.1424 10.9475 14.1085 10.6424 14.0576 10.3542C14.2441 10.3881 14.4305 10.4135 14.617 10.4305C14.8035 10.4474 15.0154 10.4644 15.2527 10.4813C15.507 10.4983 15.8036 10.5067 16.1427 10.5067C16.4817 10.5067 16.897 10.5067 17.3886 10.5067H20.745V5.1161ZM44.0113 10.1508H31.7806V15.0583H44.0113V10.1508ZM37.9595 8.85395C39.4004 8.85395 40.5785 8.85395 41.4939 8.85395C42.4263 8.837 43.1806 8.82005 43.757 8.8031C44.3333 8.78615 44.7741 8.76919 45.0792 8.75224C45.4013 8.71834 45.6725 8.68444 45.8929 8.65053C45.842 9.15908 45.7997 9.65068 45.7658 10.1253C45.7319 10.6 45.7149 11.1424 45.7149 11.7527V14.092C45.7149 14.7701 45.7319 15.3549 45.7658 15.8465C45.7997 16.3212 45.859 16.8297 45.9438 17.3722H44.0113V16.3297H31.7806V17.6773H29.8227C29.8735 17.4061 29.9159 17.1688 29.9498 16.9653C29.9837 16.745 30.0092 16.5246 30.0261 16.3042C30.0431 16.0839 30.0515 15.8465 30.0515 15.5923C30.0685 15.338 30.077 15.0413 30.077 14.7023V11.7527C30.077 11.3289 30.0685 10.9644 30.0515 10.6593C30.0515 10.3372 30.0431 10.066 30.0261 9.84563C30.0261 9.6083 30.0092 9.39641 29.9753 9.20994C29.9583 9.02347 29.9329 8.837 29.899 8.65053C30.2041 8.68444 30.5092 8.71834 30.8144 8.75224C31.1364 8.76919 31.5263 8.78615 31.984 8.8031C32.4587 8.82005 33.035 8.837 33.7131 8.85395C34.3912 8.85395 35.2388 8.85395 36.2559 8.85395V5.16696C36.2559 4.25157 36.2304 3.50569 36.1796 2.92933C36.1457 2.33602 36.0863 1.819 36.0016 1.37825C36.4254 1.47996 36.7898 1.54777 37.095 1.58167C37.4001 1.59862 37.7646 1.56472 38.1884 1.47996C38.3918 1.44606 38.5104 1.51387 38.5443 1.68338C38.5782 1.83595 38.4935 1.98004 38.2901 2.11565C38.0697 2.25126 37.9595 2.74286 37.9595 3.59045V4.60755H43.3247C44.4605 4.60755 45.4267 4.5906 46.2235 4.5567C47.0371 4.50584 47.7067 4.44651 48.2322 4.3787V6.15863C47.2321 6.00607 45.5962 5.92978 43.3247 5.92978H37.9595V8.85395ZM31.6026 19.381C31.128 20.415 30.6194 21.3474 30.077 22.178C29.5345 23.0086 29.009 23.7206 28.5005 24.3139L27.0765 23.3477C27.3647 23.1273 27.6613 22.8391 27.9665 22.4831C28.2716 22.1271 28.5598 21.7372 28.831 21.3135C29.1192 20.8727 29.3735 20.4235 29.5938 19.9658C29.8312 19.4911 30.0176 19.025 30.1532 18.5673L31.6026 19.381ZM35.315 24.0851C35.2303 23.6613 35.137 23.2629 35.0353 22.89C34.9506 22.534 34.8489 22.178 34.7302 21.822C34.6115 21.4491 34.4759 21.0761 34.3234 20.7032C34.1877 20.3133 34.0182 19.898 33.8148 19.4572L35.2133 18.847C35.6541 19.8302 36.0185 20.7117 36.3067 21.4914C36.6118 22.2712 36.8322 22.9493 36.9678 23.5257L35.315 24.0851ZM41.4431 23.7036C41.121 22.89 40.765 22.1526 40.3751 21.4914C40.0022 20.8134 39.5191 20.0929 38.9257 19.3301L40.1717 18.4401C40.765 19.2369 41.2905 20.0421 41.7482 20.8558C42.2059 21.6694 42.5788 22.4068 42.867 23.068L41.4431 23.7036ZM47.9017 23.6528C47.5457 22.9069 47.0795 22.161 46.5032 21.4152C45.9438 20.6523 45.2487 19.8217 44.4181 18.9233L45.5878 17.9316C47.1643 19.6607 48.4102 21.2372 49.3256 22.6611L47.9017 23.6528Z" fill="black"/>
</svg>
