<svg width="52" height="190" viewBox="0 0 52 190" fill="none" xmlns="http://www.w3.org/2000/svg">
<line x1="28" y1="74" x2="28" y2="190" stroke="#9B9393" stroke-width="2" stroke-dasharray="15 15"/>
<circle cx="26.5" cy="52.5" r="22" stroke="#9B9393"/>
<path d="M6.12231 15.0855L4.02404 17.519V24H2.60864V5.9226H4.02404V15.5573L6.01056 13.0741L11.6101 5.9226H13.3855L7.07832 13.968L13.8698 24H12.144L6.12231 15.0855ZM21.9897 24H20.5991V7.74772L16.5143 9.57284V8.15744L21.7538 5.86052H21.9897V24ZM37.6709 16.4512C37.6709 19.0171 37.2735 20.9581 36.4789 22.2742C35.6926 23.5903 34.5297 24.2483 32.9901 24.2483C31.4671 24.2483 30.3041 23.5944 29.5013 22.2866C28.7066 20.9705 28.3011 19.0751 28.2845 16.6002V13.4217C28.2845 10.9055 28.6777 8.98516 29.464 7.66081C30.2503 6.33646 31.4174 5.67428 32.9653 5.67428C34.4883 5.67428 35.6471 6.31576 36.4417 7.59873C37.2363 8.87342 37.646 10.7358 37.6709 13.1858V16.4512ZM36.2803 13.2231C36.2803 11.1538 36.003 9.59354 35.4484 8.54233C34.9021 7.49113 34.0744 6.96552 32.9653 6.96552C31.8975 6.96552 31.0822 7.47043 30.5194 8.48025C29.9648 9.48179 29.6751 10.9758 29.6502 12.9624V16.625C29.6502 18.6447 29.9317 20.209 30.4945 21.3182C31.0656 22.4191 31.8975 22.9695 32.9901 22.9695C34.0496 22.9695 34.8566 22.448 35.4112 21.4051C35.974 20.3539 36.2637 18.8143 36.2803 16.7864V13.2231ZM50.397 24H40.812V22.8329L45.9522 15.8925C46.813 14.7088 47.4131 13.728 47.7525 12.9499C48.0918 12.1719 48.2615 11.4104 48.2615 10.6654C48.2615 9.53146 47.9884 8.63338 47.4421 7.9712C46.9041 7.30075 46.155 6.96552 45.1948 6.96552C44.1767 6.96552 43.3656 7.35455 42.7613 8.13261C42.1571 8.90239 41.855 9.90393 41.855 11.1372H40.4768C40.4768 9.56457 40.9114 8.26091 41.7805 7.22626C42.6496 6.19161 43.7877 5.67428 45.1948 5.67428C46.5688 5.67428 47.6573 6.1047 48.4602 6.96552C49.2631 7.81808 49.6645 9.00585 49.6645 10.5289C49.6645 11.9774 49.0106 13.6701 47.7028 15.6069L46.9082 16.7492L42.4882 22.7212H50.397V24Z" fill="black"/>
</svg>
