<svg width="52" height="190" viewBox="0 0 52 190" fill="none" xmlns="http://www.w3.org/2000/svg">
<line x1="28" y1="74" x2="28" y2="190" stroke="#9B9393" stroke-width="2" stroke-dasharray="15 15"/>
<circle cx="26.5" cy="52.5" r="22" stroke="#9B9393"/>
<path d="M6.12231 15.0855L4.02404 17.519V24H2.60864V5.9226H4.02404V15.5573L6.01056 13.0741L11.6101 5.9226H13.3855L7.07832 13.968L13.8698 24H12.144L6.12231 15.0855ZM21.9897 24H20.5991V7.74772L16.5143 9.57284V8.15744L21.7538 5.86052H21.9897V24ZM37.6709 16.4512C37.6709 19.0171 37.2735 20.9581 36.4789 22.2742C35.6926 23.5903 34.5297 24.2483 32.9901 24.2483C31.4671 24.2483 30.3041 23.5944 29.5013 22.2866C28.7066 20.9705 28.3011 19.0751 28.2845 16.6002V13.4217C28.2845 10.9055 28.6777 8.98516 29.464 7.66081C30.2503 6.33646 31.4174 5.67428 32.9653 5.67428C34.4883 5.67428 35.6471 6.31576 36.4417 7.59873C37.2363 8.87342 37.646 10.7358 37.6709 13.1858V16.4512ZM36.2803 13.2231C36.2803 11.1538 36.003 9.59354 35.4484 8.54233C34.9021 7.49113 34.0744 6.96552 32.9653 6.96552C31.8975 6.96552 31.0822 7.47043 30.5194 8.48025C29.9648 9.48179 29.6751 10.9758 29.6502 12.9624V16.625C29.6502 18.6447 29.9317 20.209 30.4945 21.3182C31.0656 22.4191 31.8975 22.9695 32.9901 22.9695C34.0496 22.9695 34.8566 22.448 35.4112 21.4051C35.974 20.3539 36.2637 18.8143 36.2803 16.7864V13.2231ZM43.5808 14.1419H44.9341C45.9439 14.1336 46.7592 13.8149 47.38 13.1858C48.0091 12.5485 48.3236 11.7001 48.3236 10.6406C48.3236 9.47352 48.0546 8.5713 47.5166 7.93396C46.9786 7.28834 46.2171 6.96552 45.2321 6.96552C44.2719 6.96552 43.4939 7.30903 42.8979 7.99604C42.3102 8.67477 42.0164 9.56457 42.0164 10.6654H40.6382C40.6382 9.72183 40.8286 8.87342 41.2094 8.12019C41.5984 7.35869 42.1488 6.76273 42.8607 6.33232C43.5725 5.89363 44.363 5.67428 45.2321 5.67428C46.5895 5.67428 47.6738 6.11711 48.485 7.00277C49.2962 7.88016 49.7018 9.10932 49.7018 10.6903C49.7018 11.5842 49.4659 12.3954 48.9941 13.1238C48.5305 13.8522 47.9056 14.3902 47.1193 14.7378C48.0298 15.0358 48.7333 15.5614 49.23 16.3146C49.7266 17.0596 49.9749 17.9825 49.9749 19.0833C49.9749 20.656 49.5445 21.91 48.6837 22.8453C47.8228 23.7807 46.6847 24.2483 45.2693 24.2483C44.3671 24.2483 43.5394 24.0372 42.7862 23.6151C42.0329 23.1847 41.4494 22.5846 41.0355 21.8148C40.63 21.045 40.4272 20.1428 40.4272 19.1082H41.8053C41.8053 20.2339 42.124 21.1609 42.7613 21.8893C43.407 22.6094 44.2429 22.9695 45.2693 22.9695C46.3205 22.9695 47.1358 22.6425 47.7152 21.9886C48.3029 21.3265 48.5968 20.3746 48.5968 19.133C48.5968 17.9411 48.2822 17.0306 47.6532 16.4015C47.0324 15.7642 46.1219 15.4414 44.9217 15.4331H43.5808V14.1419Z" fill="black"/>
</svg>
