<svg width="52" height="190" viewBox="0 0 52 190" fill="none" xmlns="http://www.w3.org/2000/svg">
<line x1="28" y1="74" x2="28" y2="190" stroke="#9B9393" stroke-width="2" stroke-dasharray="15 15"/>
<circle cx="26.5" cy="52.5" r="22" stroke="#9B9393"/>
<path d="M6.12231 15.0855L4.02404 17.519V24H2.60864V5.9226H4.02404V15.5573L6.01056 13.0741L11.6101 5.9226H13.3855L7.07832 13.968L13.8698 24H12.144L6.12231 15.0855ZM21.9897 24H20.5991V7.74772L16.5143 9.57284V8.15744L21.7538 5.86052H21.9897V24ZM37.6709 16.4512C37.6709 19.0171 37.2735 20.9581 36.4789 22.2742C35.6926 23.5903 34.5297 24.2483 32.9901 24.2483C31.4671 24.2483 30.3041 23.5944 29.5013 22.2866C28.7066 20.9705 28.3011 19.0751 28.2845 16.6002V13.4217C28.2845 10.9055 28.6777 8.98516 29.464 7.66081C30.2503 6.33646 31.4174 5.67428 32.9653 5.67428C34.4883 5.67428 35.6471 6.31576 36.4417 7.59873C37.2363 8.87342 37.646 10.7358 37.6709 13.1858V16.4512ZM36.2803 13.2231C36.2803 11.1538 36.003 9.59354 35.4484 8.54233C34.9021 7.49113 34.0744 6.96552 32.9653 6.96552C31.8975 6.96552 31.0822 7.47043 30.5194 8.48025C29.9648 9.48179 29.6751 10.9758 29.6502 12.9624V16.625C29.6502 18.6447 29.9317 20.209 30.4945 21.3182C31.0656 22.4191 31.8975 22.9695 32.9901 22.9695C34.0496 22.9695 34.8566 22.448 35.4112 21.4051C35.974 20.3539 36.2637 18.8143 36.2803 16.7864V13.2231ZM41.6563 14.7378L42.4013 5.9226H50.037V7.338H43.5808L43.0717 13.3969C43.8829 12.7347 44.8141 12.4036 45.8653 12.4036C47.2476 12.4036 48.3402 12.9375 49.143 14.0053C49.9542 15.0648 50.3598 16.476 50.3598 18.2391C50.3598 20.1263 49.9625 21.5996 49.1679 22.6591C48.3733 23.7186 47.2434 24.2483 45.7784 24.2483C44.4457 24.2483 43.3656 23.8055 42.5378 22.9198C41.7101 22.0259 41.2425 20.8009 41.1349 19.2447H42.4509C42.5668 20.4615 42.9103 21.3885 43.4814 22.0259C44.0526 22.655 44.8182 22.9695 45.7784 22.9695C46.8296 22.9695 47.6242 22.5598 48.1622 21.7403C48.7085 20.9209 48.9816 19.7621 48.9816 18.2639C48.9816 16.9313 48.6754 15.8552 48.0629 15.0358C47.4586 14.2081 46.6392 13.7942 45.6045 13.7942C45.0086 13.7942 44.4954 13.8894 44.065 14.0798C43.6346 14.2619 43.1959 14.5971 42.7489 15.0855L41.6563 14.7378Z" fill="black"/>
</svg>
