<svg width="52" height="190" viewBox="0 0 52 190" fill="none" xmlns="http://www.w3.org/2000/svg">
<line x1="28" y1="74" x2="28" y2="190" stroke="#9B9393" stroke-width="2" stroke-dasharray="15 15"/>
<circle cx="26.5" cy="52.5" r="22" stroke="#9B9393"/>
<path d="M6.12231 15.0855L4.02404 17.519V24H2.60864V5.9226H4.02404V15.5573L6.01056 13.0741L11.6101 5.9226H13.3855L7.07832 13.968L13.8698 24H12.144L6.12231 15.0855ZM21.9897 24H20.5991V7.74772L16.5143 9.57284V8.15744L21.7538 5.86052H21.9897V24ZM37.6709 16.4512C37.6709 19.0171 37.2735 20.9581 36.4789 22.2742C35.6926 23.5903 34.5297 24.2483 32.9901 24.2483C31.4671 24.2483 30.3041 23.5944 29.5013 22.2866C28.7066 20.9705 28.3011 19.0751 28.2845 16.6002V13.4217C28.2845 10.9055 28.6777 8.98516 29.464 7.66081C30.2503 6.33646 31.4174 5.67428 32.9653 5.67428C34.4883 5.67428 35.6471 6.31576 36.4417 7.59873C37.2363 8.87342 37.646 10.7358 37.6709 13.1858V16.4512ZM36.2803 13.2231C36.2803 11.1538 36.003 9.59354 35.4484 8.54233C34.9021 7.49113 34.0744 6.96552 32.9653 6.96552C31.8975 6.96552 31.0822 7.47043 30.5194 8.48025C29.9648 9.48179 29.6751 10.9758 29.6502 12.9624V16.625C29.6502 18.6447 29.9317 20.209 30.4945 21.3182C31.0656 22.4191 31.8975 22.9695 32.9901 22.9695C34.0496 22.9695 34.8566 22.448 35.4112 21.4051C35.974 20.3539 36.2637 18.8143 36.2803 16.7864V13.2231ZM48.2119 5.79844V7.12693H48.0008C46.246 7.13521 44.8637 7.756 43.8539 8.9893C42.8524 10.2226 42.2937 11.965 42.1778 14.2164C42.5999 13.5459 43.1255 13.0327 43.7546 12.6768C44.3837 12.3126 45.0789 12.1305 45.8404 12.1305C47.1731 12.1305 48.2326 12.6809 49.0189 13.7818C49.8135 14.8744 50.2108 16.3063 50.2108 18.0777C50.2108 19.9235 49.7928 21.4134 48.9568 22.5474C48.1208 23.6813 47.0282 24.2483 45.679 24.2483C44.2305 24.2483 43.051 23.6275 42.1405 22.3859C41.23 21.1444 40.7748 19.5138 40.7748 17.4941V16.0291C40.7748 12.7099 41.3873 10.1854 42.6123 8.45542C43.8374 6.71721 45.5963 5.83155 47.8891 5.79844H48.2119ZM45.617 13.4342C44.8389 13.4342 44.1188 13.7156 43.4566 14.2784C42.8027 14.833 42.3682 15.52 42.153 16.3395V17.6307C42.153 19.2034 42.484 20.4863 43.1462 21.4796C43.8084 22.4646 44.6527 22.9571 45.679 22.9571C46.6226 22.9571 47.3883 22.506 47.976 21.6038C48.5636 20.7015 48.8575 19.5469 48.8575 18.1397C48.8575 16.7243 48.5636 15.5862 47.976 14.7254C47.3966 13.8646 46.6102 13.4342 45.617 13.4342Z" fill="black"/>
</svg>
