<svg width="52" height="190" viewBox="0 0 52 190" fill="none" xmlns="http://www.w3.org/2000/svg">
<line x1="28" y1="74" x2="28" y2="190" stroke="#9B9393" stroke-width="2" stroke-dasharray="15 15"/>
<circle cx="26.5" cy="52.5" r="22" stroke="#9B9393"/>
<path d="M6.12231 15.0855L4.02404 17.519V24H2.60864V5.9226H4.02404V15.5573L6.01056 13.0741L11.6101 5.9226H13.3855L7.07832 13.968L13.8698 24H12.144L6.12231 15.0855ZM21.9897 24H20.5991V7.74772L16.5143 9.57284V8.15744L21.7538 5.86052H21.9897V24ZM37.6709 16.4512C37.6709 19.0171 37.2735 20.9581 36.4789 22.2742C35.6926 23.5903 34.5297 24.2483 32.9901 24.2483C31.4671 24.2483 30.3041 23.5944 29.5013 22.2866C28.7066 20.9705 28.3011 19.0751 28.2845 16.6002V13.4217C28.2845 10.9055 28.6777 8.98516 29.464 7.66081C30.2503 6.33646 31.4174 5.67428 32.9653 5.67428C34.4883 5.67428 35.6471 6.31576 36.4417 7.59873C37.2363 8.87342 37.646 10.7358 37.6709 13.1858V16.4512ZM36.2803 13.2231C36.2803 11.1538 36.003 9.59354 35.4484 8.54233C34.9021 7.49113 34.0744 6.96552 32.9653 6.96552C31.8975 6.96552 31.0822 7.47043 30.5194 8.48025C29.9648 9.48179 29.6751 10.9758 29.6502 12.9624V16.625C29.6502 18.6447 29.9317 20.209 30.4945 21.3182C31.0656 22.4191 31.8975 22.9695 32.9901 22.9695C34.0496 22.9695 34.8566 22.448 35.4112 21.4051C35.974 20.3539 36.2637 18.8143 36.2803 16.7864V13.2231ZM49.8011 10.5785C49.8011 11.489 49.5776 12.3167 49.1306 13.0617C48.6919 13.7984 48.0918 14.3529 47.3303 14.7254C48.2243 15.1061 48.9237 15.6938 49.4286 16.4884C49.9418 17.2831 50.1984 18.1894 50.1984 19.2075C50.1984 20.7305 49.7556 21.9514 48.8699 22.8702C47.9925 23.7889 46.8254 24.2483 45.3686 24.2483C43.8953 24.2483 42.7199 23.7931 41.8426 22.8826C40.9652 21.9638 40.5265 20.7388 40.5265 19.2075C40.5265 18.1729 40.7748 17.2624 41.2714 16.476C41.7763 15.6897 42.4675 15.1061 43.3449 14.7254C42.5834 14.3529 41.9833 13.8025 41.5446 13.0741C41.1142 12.3374 40.899 11.5056 40.899 10.5785C40.899 9.08035 41.3045 7.88843 42.1157 7.00277C42.9269 6.11711 44.0029 5.67428 45.3438 5.67428C46.693 5.67428 47.7732 6.12125 48.5843 7.01519C49.3955 7.90913 49.8011 9.0969 49.8011 10.5785ZM48.8078 19.2075C48.8078 18.0818 48.4809 17.163 47.827 16.4512C47.1731 15.7311 46.3454 15.371 45.3438 15.371C44.3423 15.371 43.5146 15.7228 42.8607 16.4264C42.215 17.1299 41.8922 18.057 41.8922 19.2075C41.8922 20.358 42.2026 21.2727 42.8234 21.9514C43.4525 22.6301 44.3009 22.9695 45.3686 22.9695C46.4116 22.9695 47.2434 22.6301 47.8642 21.9514C48.4933 21.2727 48.8078 20.358 48.8078 19.2075ZM48.4229 10.5661C48.4229 9.53146 48.1291 8.67477 47.5414 7.99604C46.962 7.30903 46.2295 6.96552 45.3438 6.96552C44.425 6.96552 43.6842 7.29661 43.1214 7.95879C42.5668 8.62096 42.2895 9.49007 42.2895 10.5661C42.2895 11.6504 42.5751 12.5071 43.1462 13.1362C43.7256 13.7652 44.4623 14.0798 45.3562 14.0798C46.2502 14.0798 46.9827 13.7611 47.5538 13.1238C48.1332 12.4781 48.4229 11.6256 48.4229 10.5661Z" fill="black"/>
</svg>
