<svg width="52" height="190" viewBox="0 0 52 190" fill="none" xmlns="http://www.w3.org/2000/svg">
<line x1="28" y1="74" x2="28" y2="190" stroke="#9B9393" stroke-width="2" stroke-dasharray="15 15"/>
<circle cx="26.5" cy="52.5" r="22" stroke="#9B9393"/>
<path d="M6.12231 15.0855L4.02404 17.519V24H2.60864V5.9226H4.02404V15.5573L6.01056 13.0741L11.6101 5.9226H13.3855L7.07832 13.968L13.8698 24H12.144L6.12231 15.0855ZM21.9897 24H20.5991V7.74772L16.5143 9.57284V8.15744L21.7538 5.86052H21.9897V24ZM37.6709 16.4512C37.6709 19.0171 37.2735 20.9581 36.4789 22.2742C35.6926 23.5903 34.5297 24.2483 32.9901 24.2483C31.4671 24.2483 30.3041 23.5944 29.5013 22.2866C28.7066 20.9705 28.3011 19.0751 28.2845 16.6002V13.4217C28.2845 10.9055 28.6777 8.98516 29.464 7.66081C30.2503 6.33646 31.4174 5.67428 32.9653 5.67428C34.4883 5.67428 35.6471 6.31576 36.4417 7.59873C37.2363 8.87342 37.646 10.7358 37.6709 13.1858V16.4512ZM36.2803 13.2231C36.2803 11.1538 36.003 9.59354 35.4484 8.54233C34.9021 7.49113 34.0744 6.96552 32.9653 6.96552C31.8975 6.96552 31.0822 7.47043 30.5194 8.48025C29.9648 9.48179 29.6751 10.9758 29.6502 12.9624V16.625C29.6502 18.6447 29.9317 20.209 30.4945 21.3182C31.0656 22.4191 31.8975 22.9695 32.9901 22.9695C34.0496 22.9695 34.8566 22.448 35.4112 21.4051C35.974 20.3539 36.2637 18.8143 36.2803 16.7864V13.2231ZM48.5223 15.7559C48.0918 16.4843 47.5497 17.0554 46.8958 17.4693C46.2419 17.8749 45.5466 18.0777 44.8099 18.0777C43.5187 18.0777 42.4716 17.5107 41.6687 16.3767C40.8659 15.2427 40.4644 13.7901 40.4644 12.0188C40.4644 10.1812 40.8824 8.66649 41.7184 7.47457C42.5627 6.27438 43.6801 5.67428 45.0707 5.67428C46.5937 5.67428 47.7773 6.30749 48.6216 7.5739C49.4741 8.84031 49.9004 10.6406 49.9004 12.9748V14.3157C49.9004 17.61 49.3251 20.0642 48.1746 21.6782C47.0241 23.284 45.2735 24.0993 42.9227 24.1242H42.5503L42.5627 22.8081H42.96C44.7479 22.7833 46.1053 22.1956 47.0324 21.045C47.9677 19.8862 48.4643 18.1232 48.5223 15.7559ZM44.9962 16.774C45.7742 16.774 46.4819 16.4926 47.1193 15.9297C47.7649 15.3586 48.2367 14.5971 48.5347 13.6452V12.7389C48.5347 10.9593 48.2201 9.55629 47.5911 8.52992C46.9703 7.49527 46.1343 6.97794 45.0831 6.97794C44.1312 6.97794 43.349 7.44974 42.7365 8.39334C42.124 9.33694 41.8177 10.5247 41.8177 11.9567C41.8177 13.339 42.1116 14.4895 42.6993 15.4083C43.2869 16.3188 44.0526 16.774 44.9962 16.774Z" fill="black"/>
</svg>
