<svg width="52" height="190" viewBox="0 0 52 190" fill="none" xmlns="http://www.w3.org/2000/svg">
<line x1="28" y1="74" x2="28" y2="190" stroke="#9B9393" stroke-width="2" stroke-dasharray="15 15"/>
<circle cx="26.5" cy="52.5" r="22" stroke="#9B9393"/>
<path d="M6.12231 15.0855L4.02404 17.519V24H2.60864V5.9226H4.02404V15.5573L6.01056 13.0741L11.6101 5.9226H13.3855L7.07832 13.968L13.8698 24H12.144L6.12231 15.0855ZM21.9897 24H20.5991V7.74772L16.5143 9.57284V8.15744L21.7538 5.86052H21.9897V24ZM34.3558 24H32.9653V7.74772L28.8805 9.57284V8.15744L34.1199 5.86052H34.3558V24ZM50.2481 6.7917L43.7918 24H42.3516L48.7706 7.21384H40.2161V5.9226H50.2481V6.7917Z" fill="black"/>
</svg>
