<svg width="52" height="190" viewBox="0 0 52 190" fill="none" xmlns="http://www.w3.org/2000/svg">
<line x1="28" y1="74" x2="28" y2="190" stroke="#9B9393" stroke-width="2" stroke-dasharray="15 15"/>
<circle cx="26.5" cy="52.5" r="22" stroke="#9B9393"/>
<path d="M6.12231 15.0855L4.02404 17.519V24H2.60864V5.9226H4.02404V15.5573L6.01056 13.0741L11.6101 5.9226H13.3855L7.07832 13.968L13.8698 24H12.144L6.12231 15.0855ZM21.9897 24H20.5991V7.74772L16.5143 9.57284V8.15744L21.7538 5.86052H21.9897V24ZM38.0309 24H28.4459V22.8329L33.5861 15.8925C34.4469 14.7088 35.047 13.728 35.3863 12.9499C35.7257 12.1719 35.8954 11.4104 35.8954 10.6654C35.8954 9.53146 35.6222 8.63338 35.0759 7.9712C34.5379 7.30075 33.7888 6.96552 32.8287 6.96552C31.8106 6.96552 30.9994 7.35455 30.3952 8.13261C29.791 8.90239 29.4888 9.90393 29.4888 11.1372H28.1107C28.1107 9.56457 28.5452 8.26091 29.4143 7.22626C30.2835 6.19161 31.4216 5.67428 32.8287 5.67428C34.2027 5.67428 35.2912 6.1047 36.094 6.96552C36.8969 7.81808 37.2984 9.00585 37.2984 10.5289C37.2984 11.9774 36.6445 13.6701 35.3367 15.6069L34.5421 16.7492L30.122 22.7212H38.0309V24ZM50.037 16.4512C50.037 19.0171 49.6397 20.9581 48.8451 22.2742C48.0587 23.5903 46.8958 24.2483 45.3562 24.2483C43.8332 24.2483 42.6703 23.5944 41.8674 22.2866C41.0728 20.9705 40.6672 19.0751 40.6506 16.6002V13.4217C40.6506 10.9055 41.0438 8.98516 41.8301 7.66081C42.6165 6.33646 43.7836 5.67428 45.3314 5.67428C46.8544 5.67428 48.0132 6.31576 48.8078 7.59873C49.6024 8.87342 50.0122 10.7358 50.037 13.1858V16.4512ZM48.6464 13.2231C48.6464 11.1538 48.3691 9.59354 47.8146 8.54233C47.2683 7.49113 46.4405 6.96552 45.3314 6.96552C44.2636 6.96552 43.4483 7.47043 42.8855 8.48025C42.3309 9.48179 42.0412 10.9758 42.0164 12.9624V16.625C42.0164 18.6447 42.2978 20.209 42.8607 21.3182C43.4318 22.4191 44.2636 22.9695 45.3562 22.9695C46.4157 22.9695 47.2227 22.448 47.7773 21.4051C48.3402 20.3539 48.6299 18.8143 48.6464 16.7864V13.2231Z" fill="black"/>
</svg>
