<svg width="52" height="190" viewBox="0 0 52 190" fill="none" xmlns="http://www.w3.org/2000/svg">
<line x1="28" y1="74" x2="28" y2="190" stroke="#9B9393" stroke-width="2" stroke-dasharray="15 15"/>
<circle cx="26.5" cy="52.5" r="22" stroke="#9B9393"/>
<path d="M6.12231 15.0855L4.02404 17.519V24H2.60864V5.9226H4.02404V15.5573L6.01056 13.0741L11.6101 5.9226H13.3855L7.07832 13.968L13.8698 24H12.144L6.12231 15.0855ZM21.9897 24H20.5991V7.74772L16.5143 9.57284V8.15744L21.7538 5.86052H21.9897V24ZM38.0309 24H28.4459V22.8329L33.5861 15.8925C34.4469 14.7088 35.047 13.728 35.3863 12.9499C35.7257 12.1719 35.8954 11.4104 35.8954 10.6654C35.8954 9.53146 35.6222 8.63338 35.0759 7.9712C34.5379 7.30075 33.7888 6.96552 32.8287 6.96552C31.8106 6.96552 30.9994 7.35455 30.3952 8.13261C29.791 8.90239 29.4888 9.90393 29.4888 11.1372H28.1107C28.1107 9.56457 28.5452 8.26091 29.4143 7.22626C30.2835 6.19161 31.4216 5.67428 32.8287 5.67428C34.2027 5.67428 35.2912 6.1047 36.094 6.96552C36.8969 7.81808 37.2984 9.00585 37.2984 10.5289C37.2984 11.9774 36.6445 13.6701 35.3367 15.6069L34.5421 16.7492L30.122 22.7212H38.0309V24ZM50.397 24H40.812V22.8329L45.9522 15.8925C46.813 14.7088 47.4131 13.728 47.7525 12.9499C48.0918 12.1719 48.2615 11.4104 48.2615 10.6654C48.2615 9.53146 47.9884 8.63338 47.4421 7.9712C46.9041 7.30075 46.155 6.96552 45.1948 6.96552C44.1767 6.96552 43.3656 7.35455 42.7613 8.13261C42.1571 8.90239 41.855 9.90393 41.855 11.1372H40.4768C40.4768 9.56457 40.9114 8.26091 41.7805 7.22626C42.6496 6.19161 43.7877 5.67428 45.1948 5.67428C46.5688 5.67428 47.6573 6.1047 48.4602 6.96552C49.2631 7.81808 49.6645 9.00585 49.6645 10.5289C49.6645 11.9774 49.0106 13.6701 47.7028 15.6069L46.9082 16.7492L42.4882 22.7212H50.397V24Z" fill="black"/>
</svg>
