<svg width="52" height="190" viewBox="0 0 52 190" fill="none" xmlns="http://www.w3.org/2000/svg">
<line x1="28" y1="74" x2="28" y2="190" stroke="#9B9393" stroke-width="2" stroke-dasharray="15 15"/>
<circle cx="26.5" cy="52.5" r="22" stroke="#9B9393"/>
<path d="M6.12231 15.0855L4.02404 17.519V24H2.60864V5.9226H4.02404V15.5573L6.01056 13.0741L11.6101 5.9226H13.3855L7.07832 13.968L13.8698 24H12.144L6.12231 15.0855ZM21.9897 24H20.5991V7.74772L16.5143 9.57284V8.15744L21.7538 5.86052H21.9897V24ZM38.0309 24H28.4459V22.8329L33.5861 15.8925C34.4469 14.7088 35.047 13.728 35.3863 12.9499C35.7257 12.1719 35.8954 11.4104 35.8954 10.6654C35.8954 9.53146 35.6222 8.63338 35.0759 7.9712C34.5379 7.30075 33.7888 6.96552 32.8287 6.96552C31.8106 6.96552 30.9994 7.35455 30.3952 8.13261C29.791 8.90239 29.4888 9.90393 29.4888 11.1372H28.1107C28.1107 9.56457 28.5452 8.26091 29.4143 7.22626C30.2835 6.19161 31.4216 5.67428 32.8287 5.67428C34.2027 5.67428 35.2912 6.1047 36.094 6.96552C36.8969 7.81808 37.2984 9.00585 37.2984 10.5289C37.2984 11.9774 36.6445 13.6701 35.3367 15.6069L34.5421 16.7492L30.122 22.7212H38.0309V24ZM43.5808 14.1419H44.9341C45.9439 14.1336 46.7592 13.8149 47.38 13.1858C48.0091 12.5485 48.3236 11.7001 48.3236 10.6406C48.3236 9.47352 48.0546 8.5713 47.5166 7.93396C46.9786 7.28834 46.2171 6.96552 45.2321 6.96552C44.2719 6.96552 43.4939 7.30903 42.8979 7.99604C42.3102 8.67477 42.0164 9.56457 42.0164 10.6654H40.6382C40.6382 9.72183 40.8286 8.87342 41.2094 8.12019C41.5984 7.35869 42.1488 6.76273 42.8607 6.33232C43.5725 5.89363 44.363 5.67428 45.2321 5.67428C46.5895 5.67428 47.6738 6.11711 48.485 7.00277C49.2962 7.88016 49.7018 9.10932 49.7018 10.6903C49.7018 11.5842 49.4659 12.3954 48.9941 13.1238C48.5305 13.8522 47.9056 14.3902 47.1193 14.7378C48.0298 15.0358 48.7333 15.5614 49.23 16.3146C49.7266 17.0596 49.9749 17.9825 49.9749 19.0833C49.9749 20.656 49.5445 21.91 48.6837 22.8453C47.8228 23.7807 46.6847 24.2483 45.2693 24.2483C44.3671 24.2483 43.5394 24.0372 42.7862 23.6151C42.0329 23.1847 41.4494 22.5846 41.0355 21.8148C40.63 21.045 40.4272 20.1428 40.4272 19.1082H41.8053C41.8053 20.2339 42.124 21.1609 42.7613 21.8893C43.407 22.6094 44.2429 22.9695 45.2693 22.9695C46.3205 22.9695 47.1358 22.6425 47.7152 21.9886C48.3029 21.3265 48.5968 20.3746 48.5968 19.133C48.5968 17.9411 48.2822 17.0306 47.6532 16.4015C47.0324 15.7642 46.1219 15.4414 44.9217 15.4331H43.5808V14.1419Z" fill="black"/>
</svg>
