<svg width="52" height="190" viewBox="0 0 52 190" fill="none" xmlns="http://www.w3.org/2000/svg">
<line x1="28" y1="74" x2="28" y2="190" stroke="#9B9393" stroke-width="2" stroke-dasharray="15 15"/>
<circle cx="26.5" cy="52.5" r="22" stroke="#9B9393"/>
<path d="M6.12231 15.0855L4.02404 17.519V24H2.60864V5.9226H4.02404V15.5573L6.01056 13.0741L11.6101 5.9226H13.3855L7.07832 13.968L13.8698 24H12.144L6.12231 15.0855ZM21.9897 24H20.5991V7.74772L16.5143 9.57284V8.15744L21.7538 5.86052H21.9897V24ZM38.0309 24H28.4459V22.8329L33.5861 15.8925C34.4469 14.7088 35.047 13.728 35.3863 12.9499C35.7257 12.1719 35.8954 11.4104 35.8954 10.6654C35.8954 9.53146 35.6222 8.63338 35.0759 7.9712C34.5379 7.30075 33.7888 6.96552 32.8287 6.96552C31.8106 6.96552 30.9994 7.35455 30.3952 8.13261C29.791 8.90239 29.4888 9.90393 29.4888 11.1372H28.1107C28.1107 9.56457 28.5452 8.26091 29.4143 7.22626C30.2835 6.19161 31.4216 5.67428 32.8287 5.67428C34.2027 5.67428 35.2912 6.1047 36.094 6.96552C36.8969 7.81808 37.2984 9.00585 37.2984 10.5289C37.2984 11.9774 36.6445 13.6701 35.3367 15.6069L34.5421 16.7492L30.122 22.7212H38.0309V24ZM41.6563 14.7378L42.4013 5.9226H50.037V7.338H43.5808L43.0717 13.3969C43.8829 12.7347 44.8141 12.4036 45.8653 12.4036C47.2476 12.4036 48.3402 12.9375 49.143 14.0053C49.9542 15.0648 50.3598 16.476 50.3598 18.2391C50.3598 20.1263 49.9625 21.5996 49.1679 22.6591C48.3733 23.7186 47.2434 24.2483 45.7784 24.2483C44.4457 24.2483 43.3656 23.8055 42.5378 22.9198C41.7101 22.0259 41.2425 20.8009 41.1349 19.2447H42.4509C42.5668 20.4615 42.9103 21.3885 43.4814 22.0259C44.0526 22.655 44.8182 22.9695 45.7784 22.9695C46.8296 22.9695 47.6242 22.5598 48.1622 21.7403C48.7085 20.9209 48.9816 19.7621 48.9816 18.2639C48.9816 16.9313 48.6754 15.8552 48.0629 15.0358C47.4586 14.2081 46.6392 13.7942 45.6045 13.7942C45.0086 13.7942 44.4954 13.8894 44.065 14.0798C43.6346 14.2619 43.1959 14.5971 42.7489 15.0855L41.6563 14.7378Z" fill="black"/>
</svg>
