<svg width="52" height="190" viewBox="0 0 52 190" fill="none" xmlns="http://www.w3.org/2000/svg">
<line x1="27" y1="74" x2="27" y2="190" stroke="#9B9393" stroke-width="2" stroke-dasharray="15 15"/>
<circle cx="25.5" cy="52.5" r="22" stroke="#9B9393"/>
<path d="M6.12231 15.0855L4.02404 17.519V24H2.60864V5.9226H4.02404V15.5573L6.01056 13.0741L11.6101 5.9226H13.3855L7.07832 13.968L13.8698 24H12.144L6.12231 15.0855ZM21.9897 24H20.5991V7.74772L16.5143 9.57284V8.15744L21.7538 5.86052H21.9897V24ZM38.0309 24H28.4459V22.8329L33.5861 15.8925C34.4469 14.7088 35.047 13.728 35.3863 12.9499C35.7257 12.1719 35.8954 11.4104 35.8954 10.6654C35.8954 9.53146 35.6222 8.63338 35.0759 7.9712C34.5379 7.30075 33.7888 6.96552 32.8287 6.96552C31.8106 6.96552 30.9994 7.35455 30.3952 8.13261C29.791 8.90239 29.4888 9.90393 29.4888 11.1372H28.1107C28.1107 9.56457 28.5452 8.26091 29.4143 7.22626C30.2835 6.19161 31.4216 5.67428 32.8287 5.67428C34.2027 5.67428 35.2912 6.1047 36.094 6.96552C36.8969 7.81808 37.2984 9.00585 37.2984 10.5289C37.2984 11.9774 36.6445 13.6701 35.3367 15.6069L34.5421 16.7492L30.122 22.7212H38.0309V24ZM49.8011 10.5785C49.8011 11.489 49.5776 12.3167 49.1306 13.0617C48.6919 13.7984 48.0918 14.3529 47.3303 14.7254C48.2243 15.1061 48.9237 15.6938 49.4286 16.4884C49.9418 17.2831 50.1984 18.1894 50.1984 19.2075C50.1984 20.7305 49.7556 21.9514 48.8699 22.8702C47.9925 23.7889 46.8254 24.2483 45.3686 24.2483C43.8953 24.2483 42.7199 23.7931 41.8426 22.8826C40.9652 21.9638 40.5265 20.7388 40.5265 19.2075C40.5265 18.1729 40.7748 17.2624 41.2714 16.476C41.7763 15.6897 42.4675 15.1061 43.3449 14.7254C42.5834 14.3529 41.9833 13.8025 41.5446 13.0741C41.1142 12.3374 40.899 11.5056 40.899 10.5785C40.899 9.08035 41.3045 7.88843 42.1157 7.00277C42.9269 6.11711 44.0029 5.67428 45.3438 5.67428C46.693 5.67428 47.7732 6.12125 48.5843 7.01519C49.3955 7.90913 49.8011 9.0969 49.8011 10.5785ZM48.8078 19.2075C48.8078 18.0818 48.4809 17.163 47.827 16.4512C47.1731 15.7311 46.3454 15.371 45.3438 15.371C44.3423 15.371 43.5146 15.7228 42.8607 16.4264C42.215 17.1299 41.8922 18.057 41.8922 19.2075C41.8922 20.358 42.2026 21.2727 42.8234 21.9514C43.4525 22.6301 44.3009 22.9695 45.3686 22.9695C46.4116 22.9695 47.2434 22.6301 47.8642 21.9514C48.4933 21.2727 48.8078 20.358 48.8078 19.2075ZM48.4229 10.5661C48.4229 9.53146 48.1291 8.67477 47.5414 7.99604C46.962 7.30903 46.2295 6.96552 45.3438 6.96552C44.425 6.96552 43.6842 7.29661 43.1214 7.95879C42.5668 8.62096 42.2895 9.49007 42.2895 10.5661C42.2895 11.6504 42.5751 12.5071 43.1462 13.1362C43.7256 13.7652 44.4623 14.0798 45.3562 14.0798C46.2502 14.0798 46.9827 13.7611 47.5538 13.1238C48.1332 12.4781 48.4229 11.6256 48.4229 10.5661Z" fill="black"/>
</svg>
