<svg width="52" height="190" viewBox="0 0 52 190" fill="none" xmlns="http://www.w3.org/2000/svg">
<line x1="27" y1="74" x2="27" y2="190" stroke="#9B9393" stroke-width="2" stroke-dasharray="15 15"/>
<circle cx="25.5" cy="52.5" r="22" stroke="#9B9393"/>
<path d="M6.12231 15.0855L4.02404 17.519V24H2.60864V5.9226H4.02404V15.5573L6.01056 13.0741L11.6101 5.9226H13.3855L7.07832 13.968L13.8698 24H12.144L6.12231 15.0855ZM21.9897 24H20.5991V7.74772L16.5143 9.57284V8.15744L21.7538 5.86052H21.9897V24ZM38.0309 24H28.4459V22.8329L33.5861 15.8925C34.4469 14.7088 35.047 13.728 35.3863 12.9499C35.7257 12.1719 35.8954 11.4104 35.8954 10.6654C35.8954 9.53146 35.6222 8.63338 35.0759 7.9712C34.5379 7.30075 33.7888 6.96552 32.8287 6.96552C31.8106 6.96552 30.9994 7.35455 30.3952 8.13261C29.791 8.90239 29.4888 9.90393 29.4888 11.1372H28.1107C28.1107 9.56457 28.5452 8.26091 29.4143 7.22626C30.2835 6.19161 31.4216 5.67428 32.8287 5.67428C34.2027 5.67428 35.2912 6.1047 36.094 6.96552C36.8969 7.81808 37.2984 9.00585 37.2984 10.5289C37.2984 11.9774 36.6445 13.6701 35.3367 15.6069L34.5421 16.7492L30.122 22.7212H38.0309V24ZM48.5223 15.7559C48.0918 16.4843 47.5497 17.0554 46.8958 17.4693C46.2419 17.8749 45.5466 18.0777 44.8099 18.0777C43.5187 18.0777 42.4716 17.5107 41.6687 16.3767C40.8659 15.2427 40.4644 13.7901 40.4644 12.0188C40.4644 10.1812 40.8824 8.66649 41.7184 7.47457C42.5627 6.27438 43.6801 5.67428 45.0707 5.67428C46.5937 5.67428 47.7773 6.30749 48.6216 7.5739C49.4741 8.84031 49.9004 10.6406 49.9004 12.9748V14.3157C49.9004 17.61 49.3251 20.0642 48.1746 21.6782C47.0241 23.284 45.2735 24.0993 42.9227 24.1242H42.5503L42.5627 22.8081H42.96C44.7479 22.7833 46.1053 22.1956 47.0324 21.045C47.9677 19.8862 48.4643 18.1232 48.5223 15.7559ZM44.9962 16.774C45.7742 16.774 46.4819 16.4926 47.1193 15.9297C47.7649 15.3586 48.2367 14.5971 48.5347 13.6452V12.7389C48.5347 10.9593 48.2201 9.55629 47.5911 8.52992C46.9703 7.49527 46.1343 6.97794 45.0831 6.97794C44.1312 6.97794 43.349 7.44974 42.7365 8.39334C42.124 9.33694 41.8177 10.5247 41.8177 11.9567C41.8177 13.339 42.1116 14.4895 42.6993 15.4083C43.2869 16.3188 44.0526 16.774 44.9962 16.774Z" fill="black"/>
</svg>
