<svg width="52" height="190" viewBox="0 0 52 190" fill="none" xmlns="http://www.w3.org/2000/svg">
<line x1="27" y1="74" x2="27" y2="190" stroke="#9B9393" stroke-width="2" stroke-dasharray="15 15"/>
<circle cx="25.5" cy="52.5" r="22" stroke="#9B9393"/>
<path d="M6.12231 15.0855L4.02404 17.519V24H2.60864V5.9226H4.02404V15.5573L6.01056 13.0741L11.6101 5.9226H13.3855L7.07832 13.968L13.8698 24H12.144L6.12231 15.0855ZM21.9897 24H20.5991V7.74772L16.5143 9.57284V8.15744L21.7538 5.86052H21.9897V24ZM31.2146 14.1419H32.568C33.5778 14.1336 34.3931 13.8149 35.0139 13.1858C35.6429 12.5485 35.9575 11.7001 35.9575 10.6406C35.9575 9.47352 35.6885 8.5713 35.1504 7.93396C34.6124 7.28834 33.8509 6.96552 32.8659 6.96552C31.9058 6.96552 31.1277 7.30903 30.5318 7.99604C29.9441 8.67477 29.6502 9.56457 29.6502 10.6654H28.2721C28.2721 9.72183 28.4625 8.87342 28.8432 8.12019C29.2322 7.35869 29.7827 6.76273 30.4945 6.33232C31.2064 5.89363 31.9968 5.67428 32.8659 5.67428C34.2234 5.67428 35.3077 6.11711 36.1189 7.00277C36.93 7.88016 37.3356 9.10932 37.3356 10.6903C37.3356 11.5842 37.0997 12.3954 36.6279 13.1238C36.1644 13.8522 35.5395 14.3902 34.7531 14.7378C35.6636 15.0358 36.3672 15.5614 36.8638 16.3146C37.3605 17.0596 37.6088 17.9825 37.6088 19.0833C37.6088 20.656 37.1784 21.91 36.3175 22.8453C35.4567 23.7807 34.3186 24.2483 32.9032 24.2483C32.001 24.2483 31.1732 24.0372 30.42 23.6151C29.6668 23.1847 29.0833 22.5846 28.6694 21.8148C28.2638 21.045 28.061 20.1428 28.061 19.1082H29.4392C29.4392 20.2339 29.7578 21.1609 30.3952 21.8893C31.0408 22.6094 31.8768 22.9695 32.9032 22.9695C33.9544 22.9695 34.7697 22.6425 35.3491 21.9886C35.9368 21.3265 36.2306 20.3746 36.2306 19.133C36.2306 17.9411 35.9161 17.0306 35.287 16.4015C34.6662 15.7642 33.7557 15.4414 32.5555 15.4331H31.2146V14.1419ZM48.5595 18.1646H50.8813V19.4558H48.5595V24H47.1814V19.4558H40.0795V18.5743L47.0696 5.9226H48.5595V18.1646ZM41.7308 18.1646H47.1814V8.00845L46.6847 9.01413L41.7308 18.1646Z" fill="black"/>
</svg>
