<svg width="52" height="190" viewBox="0 0 52 190" fill="none" xmlns="http://www.w3.org/2000/svg">
<line x1="27" y1="74" x2="27" y2="190" stroke="#9B9393" stroke-width="2" stroke-dasharray="15 15"/>
<circle cx="25.5" cy="52.5" r="22" stroke="#9B9393"/>
<path d="M6.12231 15.0855L4.02404 17.519V24H2.60864V5.9226H4.02404V15.5573L6.01056 13.0741L11.6101 5.9226H13.3855L7.07832 13.968L13.8698 24H12.144L6.12231 15.0855ZM21.9897 24H20.5991V7.74772L16.5143 9.57284V8.15744L21.7538 5.86052H21.9897V24ZM36.1934 18.1646H38.5151V19.4558H36.1934V24H34.8152V19.4558H27.7134V18.5743L34.7035 5.9226H36.1934V18.1646ZM29.3647 18.1646H34.8152V8.00845L34.3186 9.01413L29.3647 18.1646ZM46.722 24H45.3314V7.74772L41.2466 9.57284V8.15744L46.4861 5.86052H46.722V24Z" fill="black"/>
</svg>
