<svg width="52" height="190" viewBox="0 0 52 190" fill="none" xmlns="http://www.w3.org/2000/svg">
<line x1="27" y1="74" x2="27" y2="190" stroke="#9B9393" stroke-width="2" stroke-dasharray="15 15"/>
<circle cx="25.5" cy="52.5" r="22" stroke="#9B9393"/>
<path d="M6.12231 15.0855L4.02404 17.519V24H2.60864V5.9226H4.02404V15.5573L6.01056 13.0741L11.6101 5.9226H13.3855L7.07832 13.968L13.8698 24H12.144L6.12231 15.0855ZM21.9897 24H20.5991V7.74772L16.5143 9.57284V8.15744L21.7538 5.86052H21.9897V24ZM36.1934 18.1646H38.5151V19.4558H36.1934V24H34.8152V19.4558H27.7134V18.5743L34.7035 5.9226H36.1934V18.1646ZM29.3647 18.1646H34.8152V8.00845L34.3186 9.01413L29.3647 18.1646ZM50.397 24H40.812V22.8329L45.9522 15.8925C46.813 14.7088 47.4131 13.728 47.7525 12.9499C48.0918 12.1719 48.2615 11.4104 48.2615 10.6654C48.2615 9.53146 47.9884 8.63338 47.4421 7.9712C46.9041 7.30075 46.155 6.96552 45.1948 6.96552C44.1767 6.96552 43.3656 7.35455 42.7613 8.13261C42.1571 8.90239 41.855 9.90393 41.855 11.1372H40.4768C40.4768 9.56457 40.9114 8.26091 41.7805 7.22626C42.6496 6.19161 43.7877 5.67428 45.1948 5.67428C46.5688 5.67428 47.6573 6.1047 48.4602 6.96552C49.2631 7.81808 49.6645 9.00585 49.6645 10.5289C49.6645 11.9774 49.0106 13.6701 47.7028 15.6069L46.9082 16.7492L42.4882 22.7212H50.397V24Z" fill="black"/>
</svg>
