<svg width="52" height="190" viewBox="0 0 52 190" fill="none" xmlns="http://www.w3.org/2000/svg">
<line x1="27" y1="74" x2="27" y2="190" stroke="#9B9393" stroke-width="2" stroke-dasharray="15 15"/>
<circle cx="25.5" cy="52.5" r="22" stroke="#9B9393"/>
<path d="M6.12231 15.0855L4.02404 17.519V24H2.60864V5.9226H4.02404V15.5573L6.01056 13.0741L11.6101 5.9226H13.3855L7.07832 13.968L13.8698 24H12.144L6.12231 15.0855ZM21.9897 24H20.5991V7.74772L16.5143 9.57284V8.15744L21.7538 5.86052H21.9897V24ZM36.1934 18.1646H38.5151V19.4558H36.1934V24H34.8152V19.4558H27.7134V18.5743L34.7035 5.9226H36.1934V18.1646ZM29.3647 18.1646H34.8152V8.00845L34.3186 9.01413L29.3647 18.1646ZM48.5223 15.7559C48.0918 16.4843 47.5497 17.0554 46.8958 17.4693C46.2419 17.8749 45.5466 18.0777 44.8099 18.0777C43.5187 18.0777 42.4716 17.5107 41.6687 16.3767C40.8659 15.2427 40.4644 13.7901 40.4644 12.0188C40.4644 10.1812 40.8824 8.66649 41.7184 7.47457C42.5627 6.27438 43.6801 5.67428 45.0707 5.67428C46.5937 5.67428 47.7773 6.30749 48.6216 7.5739C49.4741 8.84031 49.9004 10.6406 49.9004 12.9748V14.3157C49.9004 17.61 49.3251 20.0642 48.1746 21.6782C47.0241 23.284 45.2735 24.0993 42.9227 24.1242H42.5503L42.5627 22.8081H42.96C44.7479 22.7833 46.1053 22.1956 47.0324 21.045C47.9677 19.8862 48.4643 18.1232 48.5223 15.7559ZM44.9962 16.774C45.7742 16.774 46.4819 16.4926 47.1193 15.9297C47.7649 15.3586 48.2367 14.5971 48.5347 13.6452V12.7389C48.5347 10.9593 48.2201 9.55629 47.5911 8.52992C46.9703 7.49527 46.1343 6.97794 45.0831 6.97794C44.1312 6.97794 43.349 7.44974 42.7365 8.39334C42.124 9.33694 41.8177 10.5247 41.8177 11.9567C41.8177 13.339 42.1116 14.4895 42.6993 15.4083C43.2869 16.3188 44.0526 16.774 44.9962 16.774Z" fill="black"/>
</svg>
