<svg width="52" height="190" viewBox="0 0 52 190" fill="none" xmlns="http://www.w3.org/2000/svg">
<line x1="27" y1="74" x2="27" y2="190" stroke="#9B9393" stroke-width="2" stroke-dasharray="15 15"/>
<circle cx="25.5" cy="52.5" r="22" stroke="#9B9393"/>
<path d="M6.12231 15.0855L4.02404 17.519V24H2.60864V5.9226H4.02404V15.5573L6.01056 13.0741L11.6101 5.9226H13.3855L7.07832 13.968L13.8698 24H12.144L6.12231 15.0855ZM21.9897 24H20.5991V7.74772L16.5143 9.57284V8.15744L21.7538 5.86052H21.9897V24ZM29.2902 14.7378L30.0351 5.9226H37.6709V7.338H31.2146L30.7056 13.3969C31.5168 12.7347 32.4479 12.4036 33.4991 12.4036C34.8814 12.4036 35.974 12.9375 36.7769 14.0053C37.5881 15.0648 37.9937 16.476 37.9937 18.2391C37.9937 20.1263 37.5964 21.5996 36.8017 22.6591C36.0071 23.7186 34.8773 24.2483 33.4122 24.2483C32.0796 24.2483 30.9994 23.8055 30.1717 22.9198C29.344 22.0259 28.8763 20.8009 28.7687 19.2447H30.0848C30.2007 20.4615 30.5442 21.3885 31.1153 22.0259C31.6864 22.655 32.4521 22.9695 33.4122 22.9695C34.4634 22.9695 35.258 22.5598 35.7961 21.7403C36.3424 20.9209 36.6155 19.7621 36.6155 18.2639C36.6155 16.9313 36.3093 15.8552 35.6967 15.0358C35.0925 14.2081 34.2731 13.7942 33.2384 13.7942C32.6425 13.7942 32.1293 13.8894 31.6989 14.0798C31.2684 14.2619 30.8297 14.5971 30.3828 15.0855L29.2902 14.7378ZM50.037 16.4512C50.037 19.0171 49.6397 20.9581 48.8451 22.2742C48.0587 23.5903 46.8958 24.2483 45.3562 24.2483C43.8332 24.2483 42.6703 23.5944 41.8674 22.2866C41.0728 20.9705 40.6672 19.0751 40.6506 16.6002V13.4217C40.6506 10.9055 41.0438 8.98516 41.8301 7.66081C42.6165 6.33646 43.7836 5.67428 45.3314 5.67428C46.8544 5.67428 48.0132 6.31576 48.8078 7.59873C49.6024 8.87342 50.0122 10.7358 50.037 13.1858V16.4512ZM48.6464 13.2231C48.6464 11.1538 48.3691 9.59354 47.8146 8.54233C47.2683 7.49113 46.4405 6.96552 45.3314 6.96552C44.2636 6.96552 43.4483 7.47043 42.8855 8.48025C42.3309 9.48179 42.0412 10.9758 42.0164 12.9624V16.625C42.0164 18.6447 42.2978 20.209 42.8607 21.3182C43.4318 22.4191 44.2636 22.9695 45.3562 22.9695C46.4157 22.9695 47.2227 22.448 47.7773 21.4051C48.3402 20.3539 48.6299 18.8143 48.6464 16.7864V13.2231Z" fill="black"/>
</svg>
