<svg width="52" height="190" viewBox="0 0 52 190" fill="none" xmlns="http://www.w3.org/2000/svg">
<line x1="27" y1="74" x2="27" y2="190" stroke="#9B9393" stroke-width="2" stroke-dasharray="15 15"/>
<circle cx="25.5" cy="52.5" r="22" stroke="#9B9393"/>
<path d="M6.12231 15.0855L4.02404 17.519V24H2.60864V5.9226H4.02404V15.5573L6.01056 13.0741L11.6101 5.9226H13.3855L7.07832 13.968L13.8698 24H12.144L6.12231 15.0855ZM21.9897 24H20.5991V7.74772L16.5143 9.57284V8.15744L21.7538 5.86052H21.9897V24ZM29.2902 14.7378L30.0351 5.9226H37.6709V7.338H31.2146L30.7056 13.3969C31.5168 12.7347 32.4479 12.4036 33.4991 12.4036C34.8814 12.4036 35.974 12.9375 36.7769 14.0053C37.5881 15.0648 37.9937 16.476 37.9937 18.2391C37.9937 20.1263 37.5964 21.5996 36.8017 22.6591C36.0071 23.7186 34.8773 24.2483 33.4122 24.2483C32.0796 24.2483 30.9994 23.8055 30.1717 22.9198C29.344 22.0259 28.8763 20.8009 28.7687 19.2447H30.0848C30.2007 20.4615 30.5442 21.3885 31.1153 22.0259C31.6864 22.655 32.4521 22.9695 33.4122 22.9695C34.4634 22.9695 35.258 22.5598 35.7961 21.7403C36.3424 20.9209 36.6155 19.7621 36.6155 18.2639C36.6155 16.9313 36.3093 15.8552 35.6967 15.0358C35.0925 14.2081 34.2731 13.7942 33.2384 13.7942C32.6425 13.7942 32.1293 13.8894 31.6989 14.0798C31.2684 14.2619 30.8297 14.5971 30.3828 15.0855L29.2902 14.7378ZM43.5808 14.1419H44.9341C45.9439 14.1336 46.7592 13.8149 47.38 13.1858C48.0091 12.5485 48.3236 11.7001 48.3236 10.6406C48.3236 9.47352 48.0546 8.5713 47.5166 7.93396C46.9786 7.28834 46.2171 6.96552 45.2321 6.96552C44.2719 6.96552 43.4939 7.30903 42.8979 7.99604C42.3102 8.67477 42.0164 9.56457 42.0164 10.6654H40.6382C40.6382 9.72183 40.8286 8.87342 41.2094 8.12019C41.5984 7.35869 42.1488 6.76273 42.8607 6.33232C43.5725 5.89363 44.363 5.67428 45.2321 5.67428C46.5895 5.67428 47.6738 6.11711 48.485 7.00277C49.2962 7.88016 49.7018 9.10932 49.7018 10.6903C49.7018 11.5842 49.4659 12.3954 48.9941 13.1238C48.5305 13.8522 47.9056 14.3902 47.1193 14.7378C48.0298 15.0358 48.7333 15.5614 49.23 16.3146C49.7266 17.0596 49.9749 17.9825 49.9749 19.0833C49.9749 20.656 49.5445 21.91 48.6837 22.8453C47.8228 23.7807 46.6847 24.2483 45.2693 24.2483C44.3671 24.2483 43.5394 24.0372 42.7862 23.6151C42.0329 23.1847 41.4494 22.5846 41.0355 21.8148C40.63 21.045 40.4272 20.1428 40.4272 19.1082H41.8053C41.8053 20.2339 42.124 21.1609 42.7613 21.8893C43.407 22.6094 44.2429 22.9695 45.2693 22.9695C46.3205 22.9695 47.1358 22.6425 47.7152 21.9886C48.3029 21.3265 48.5968 20.3746 48.5968 19.133C48.5968 17.9411 48.2822 17.0306 47.6532 16.4015C47.0324 15.7642 46.1219 15.4414 44.9217 15.4331H43.5808V14.1419Z" fill="black"/>
</svg>
