<svg width="52" height="190" viewBox="0 0 52 190" fill="none" xmlns="http://www.w3.org/2000/svg">
<line x1="27" y1="74" x2="27" y2="190" stroke="#9B9393" stroke-width="2" stroke-dasharray="15 15"/>
<circle cx="25.5" cy="52.5" r="22" stroke="#9B9393"/>
<path d="M6.12231 15.0855L4.02404 17.519V24H2.60864V5.9226H4.02404V15.5573L6.01056 13.0741L11.6101 5.9226H13.3855L7.07832 13.968L13.8698 24H12.144L6.12231 15.0855ZM21.9897 24H20.5991V7.74772L16.5143 9.57284V8.15744L21.7538 5.86052H21.9897V24ZM29.2902 14.7378L30.0351 5.9226H37.6709V7.338H31.2146L30.7056 13.3969C31.5168 12.7347 32.4479 12.4036 33.4991 12.4036C34.8814 12.4036 35.974 12.9375 36.7769 14.0053C37.5881 15.0648 37.9937 16.476 37.9937 18.2391C37.9937 20.1263 37.5964 21.5996 36.8017 22.6591C36.0071 23.7186 34.8773 24.2483 33.4122 24.2483C32.0796 24.2483 30.9994 23.8055 30.1717 22.9198C29.344 22.0259 28.8763 20.8009 28.7687 19.2447H30.0848C30.2007 20.4615 30.5442 21.3885 31.1153 22.0259C31.6864 22.655 32.4521 22.9695 33.4122 22.9695C34.4634 22.9695 35.258 22.5598 35.7961 21.7403C36.3424 20.9209 36.6155 19.7621 36.6155 18.2639C36.6155 16.9313 36.3093 15.8552 35.6967 15.0358C35.0925 14.2081 34.2731 13.7942 33.2384 13.7942C32.6425 13.7942 32.1293 13.8894 31.6989 14.0798C31.2684 14.2619 30.8297 14.5971 30.3828 15.0855L29.2902 14.7378ZM48.5595 18.1646H50.8813V19.4558H48.5595V24H47.1814V19.4558H40.0795V18.5743L47.0696 5.9226H48.5595V18.1646ZM41.7308 18.1646H47.1814V8.00845L46.6847 9.01413L41.7308 18.1646Z" fill="black"/>
</svg>
