<svg width="52" height="190" viewBox="0 0 52 190" fill="none" xmlns="http://www.w3.org/2000/svg">
<line x1="27" y1="74" x2="27" y2="190" stroke="#9B9393" stroke-width="2" stroke-dasharray="15 15"/>
<circle cx="25.5" cy="52.5" r="22" stroke="#9B9393"/>
<path d="M6.12231 15.0855L4.02404 17.519V24H2.60864V5.9226H4.02404V15.5573L6.01056 13.0741L11.6101 5.9226H13.3855L7.07832 13.968L13.8698 24H12.144L6.12231 15.0855ZM21.9897 24H20.5991V7.74772L16.5143 9.57284V8.15744L21.7538 5.86052H21.9897V24ZM29.2902 14.7378L30.0351 5.9226H37.6709V7.338H31.2146L30.7056 13.3969C31.5168 12.7347 32.4479 12.4036 33.4991 12.4036C34.8814 12.4036 35.974 12.9375 36.7769 14.0053C37.5881 15.0648 37.9937 16.476 37.9937 18.2391C37.9937 20.1263 37.5964 21.5996 36.8017 22.6591C36.0071 23.7186 34.8773 24.2483 33.4122 24.2483C32.0796 24.2483 30.9994 23.8055 30.1717 22.9198C29.344 22.0259 28.8763 20.8009 28.7687 19.2447H30.0848C30.2007 20.4615 30.5442 21.3885 31.1153 22.0259C31.6864 22.655 32.4521 22.9695 33.4122 22.9695C34.4634 22.9695 35.258 22.5598 35.7961 21.7403C36.3424 20.9209 36.6155 19.7621 36.6155 18.2639C36.6155 16.9313 36.3093 15.8552 35.6967 15.0358C35.0925 14.2081 34.2731 13.7942 33.2384 13.7942C32.6425 13.7942 32.1293 13.8894 31.6989 14.0798C31.2684 14.2619 30.8297 14.5971 30.3828 15.0855L29.2902 14.7378ZM41.6563 14.7378L42.4013 5.9226H50.037V7.338H43.5808L43.0717 13.3969C43.8829 12.7347 44.8141 12.4036 45.8653 12.4036C47.2476 12.4036 48.3402 12.9375 49.143 14.0053C49.9542 15.0648 50.3598 16.476 50.3598 18.2391C50.3598 20.1263 49.9625 21.5996 49.1679 22.6591C48.3733 23.7186 47.2434 24.2483 45.7784 24.2483C44.4457 24.2483 43.3656 23.8055 42.5378 22.9198C41.7101 22.0259 41.2425 20.8009 41.1349 19.2447H42.4509C42.5668 20.4615 42.9103 21.3885 43.4814 22.0259C44.0526 22.655 44.8182 22.9695 45.7784 22.9695C46.8296 22.9695 47.6242 22.5598 48.1622 21.7403C48.7085 20.9209 48.9816 19.7621 48.9816 18.2639C48.9816 16.9313 48.6754 15.8552 48.0629 15.0358C47.4586 14.2081 46.6392 13.7942 45.6045 13.7942C45.0086 13.7942 44.4954 13.8894 44.065 14.0798C43.6346 14.2619 43.1959 14.5971 42.7489 15.0855L41.6563 14.7378Z" fill="black"/>
</svg>
