<svg width="45" height="190" viewBox="0 0 45 190" fill="none" xmlns="http://www.w3.org/2000/svg">
<line x1="24" y1="74" x2="24" y2="190" stroke="#9B9393" stroke-width="2" stroke-dasharray="15 15"/>
<circle cx="22.5" cy="52.5" r="22" stroke="#9B9393"/>
<path d="M8.80537 15.0855L6.7071 17.519V24H5.2917V5.9226H6.7071V15.5573L8.69363 13.0741L14.2932 5.9226H16.0686L9.76139 13.968L16.5528 24H14.827L8.80537 15.0855ZM19.6071 14.7378L20.3521 5.9226H27.9878V7.338H21.5316L21.0225 13.3969C21.8337 12.7347 22.7649 12.4036 23.8161 12.4036C25.1984 12.4036 26.291 12.9375 27.0938 14.0053C27.905 15.0648 28.3106 16.476 28.3106 18.2391C28.3106 20.1263 27.9133 21.5996 27.1187 22.6591C26.3241 23.7186 25.1942 24.2483 23.7292 24.2483C22.3965 24.2483 21.3164 23.8055 20.4886 22.9198C19.6609 22.0259 19.1933 20.8009 19.0857 19.2447H20.4017C20.5176 20.4615 20.8611 21.3885 21.4322 22.0259C22.0034 22.655 22.769 22.9695 23.7292 22.9695C24.7804 22.9695 25.575 22.5598 26.113 21.7403C26.6593 20.9209 26.9324 19.7621 26.9324 18.2639C26.9324 16.9313 26.6262 15.8552 26.0137 15.0358C25.4094 14.2081 24.59 13.7942 23.5553 13.7942C22.9594 13.7942 22.4462 13.8894 22.0158 14.0798C21.5854 14.2619 21.1467 14.5971 20.6997 15.0855L19.6071 14.7378ZM33.8977 14.1419H35.251C36.2608 14.1336 37.0761 13.8149 37.6969 13.1858C38.326 12.5485 38.6405 11.7001 38.6405 10.6406C38.6405 9.47352 38.3715 8.5713 37.8335 7.93396C37.2955 7.28834 36.534 6.96552 35.549 6.96552C34.5888 6.96552 33.8108 7.30903 33.2148 7.99604C32.6272 8.67477 32.3333 9.56457 32.3333 10.6654H30.9552C30.9552 9.72183 31.1455 8.87342 31.5263 8.12019C31.9153 7.35869 32.4657 6.76273 33.1776 6.33232C33.8894 5.89363 34.6799 5.67428 35.549 5.67428C36.9065 5.67428 37.9908 6.11711 38.8019 7.00277C39.6131 7.88016 40.0187 9.10932 40.0187 10.6903C40.0187 11.5842 39.7828 12.3954 39.311 13.1238C38.8475 13.8522 38.2225 14.3902 37.4362 14.7378C38.3467 15.0358 39.0503 15.5614 39.5469 16.3146C40.0435 17.0596 40.2918 17.9825 40.2918 19.0833C40.2918 20.656 39.8614 21.91 39.0006 22.8453C38.1398 23.7807 37.0017 24.2483 35.5863 24.2483C34.684 24.2483 33.8563 24.0372 33.1031 23.6151C32.3499 23.1847 31.7663 22.5846 31.3525 21.8148C30.9469 21.045 30.7441 20.1428 30.7441 19.1082H32.1222C32.1222 20.2339 32.4409 21.1609 33.0783 21.8893C33.7239 22.6094 34.5599 22.9695 35.5863 22.9695C36.6375 22.9695 37.4528 22.6425 38.0322 21.9886C38.6198 21.3265 38.9137 20.3746 38.9137 19.133C38.9137 17.9411 38.5992 17.0306 37.9701 16.4015C37.3493 15.7642 36.4388 15.4414 35.2386 15.4331H33.8977V14.1419Z" fill="black"/>
</svg>
