<svg width="45" height="190" viewBox="0 0 45 190" fill="none" xmlns="http://www.w3.org/2000/svg">
<line x1="24" y1="74" x2="24" y2="190" stroke="#9B9393" stroke-width="2" stroke-dasharray="15 15"/>
<circle cx="22.5" cy="52.5" r="22" stroke="#9B9393"/>
<path d="M8.80537 15.0855L6.7071 17.519V24H5.2917V5.9226H6.7071V15.5573L8.69363 13.0741L14.2932 5.9226H16.0686L9.76139 13.968L16.5528 24H14.827L8.80537 15.0855ZM19.6071 14.7378L20.3521 5.9226H27.9878V7.338H21.5316L21.0225 13.3969C21.8337 12.7347 22.7649 12.4036 23.8161 12.4036C25.1984 12.4036 26.291 12.9375 27.0938 14.0053C27.905 15.0648 28.3106 16.476 28.3106 18.2391C28.3106 20.1263 27.9133 21.5996 27.1187 22.6591C26.3241 23.7186 25.1942 24.2483 23.7292 24.2483C22.3965 24.2483 21.3164 23.8055 20.4886 22.9198C19.6609 22.0259 19.1933 20.8009 19.0857 19.2447H20.4017C20.5176 20.4615 20.8611 21.3885 21.4322 22.0259C22.0034 22.655 22.769 22.9695 23.7292 22.9695C24.7804 22.9695 25.575 22.5598 26.113 21.7403C26.6593 20.9209 26.9324 19.7621 26.9324 18.2639C26.9324 16.9313 26.6262 15.8552 26.0137 15.0358C25.4094 14.2081 24.59 13.7942 23.5553 13.7942C22.9594 13.7942 22.4462 13.8894 22.0158 14.0798C21.5854 14.2619 21.1467 14.5971 20.6997 15.0855L19.6071 14.7378ZM31.9733 14.7378L32.7182 5.9226H40.3539V7.338H33.8977L33.3887 13.3969C34.1998 12.7347 35.131 12.4036 36.1822 12.4036C37.5645 12.4036 38.6571 12.9375 39.46 14.0053C40.2711 15.0648 40.6767 16.476 40.6767 18.2391C40.6767 20.1263 40.2794 21.5996 39.4848 22.6591C38.6902 23.7186 37.5604 24.2483 36.0953 24.2483C34.7627 24.2483 33.6825 23.8055 32.8548 22.9198C32.0271 22.0259 31.5594 20.8009 31.4518 19.2447H32.7679C32.8837 20.4615 33.2272 21.3885 33.7984 22.0259C34.3695 22.655 35.1351 22.9695 36.0953 22.9695C37.1465 22.9695 37.9411 22.5598 38.4791 21.7403C39.0254 20.9209 39.2986 19.7621 39.2986 18.2639C39.2986 16.9313 38.9923 15.8552 38.3798 15.0358C37.7756 14.2081 36.9561 13.7942 35.9215 13.7942C35.3255 13.7942 34.8123 13.8894 34.3819 14.0798C33.9515 14.2619 33.5128 14.5971 33.0658 15.0855L31.9733 14.7378Z" fill="black"/>
</svg>
