<svg width="45" height="190" viewBox="0 0 45 190" fill="none" xmlns="http://www.w3.org/2000/svg">
<line x1="24" y1="74" x2="24" y2="190" stroke="#9B9393" stroke-width="2" stroke-dasharray="15 15"/>
<circle cx="22.5" cy="52.5" r="22" stroke="#9B9393"/>
<path d="M8.80537 15.0855L6.7071 17.519V24H5.2917V5.9226H6.7071V15.5573L8.69363 13.0741L14.2932 5.9226H16.0686L9.76139 13.968L16.5528 24H14.827L8.80537 15.0855ZM19.6071 14.7378L20.3521 5.9226H27.9878V7.338H21.5316L21.0225 13.3969C21.8337 12.7347 22.7649 12.4036 23.8161 12.4036C25.1984 12.4036 26.291 12.9375 27.0938 14.0053C27.905 15.0648 28.3106 16.476 28.3106 18.2391C28.3106 20.1263 27.9133 21.5996 27.1187 22.6591C26.3241 23.7186 25.1942 24.2483 23.7292 24.2483C22.3965 24.2483 21.3164 23.8055 20.4886 22.9198C19.6609 22.0259 19.1933 20.8009 19.0857 19.2447H20.4017C20.5176 20.4615 20.8611 21.3885 21.4322 22.0259C22.0034 22.655 22.769 22.9695 23.7292 22.9695C24.7804 22.9695 25.575 22.5598 26.113 21.7403C26.6593 20.9209 26.9324 19.7621 26.9324 18.2639C26.9324 16.9313 26.6262 15.8552 26.0137 15.0358C25.4094 14.2081 24.59 13.7942 23.5553 13.7942C22.9594 13.7942 22.4462 13.8894 22.0158 14.0798C21.5854 14.2619 21.1467 14.5971 20.6997 15.0855L19.6071 14.7378ZM38.5288 5.79844V7.12693H38.3177C36.563 7.13521 35.1807 7.756 34.1709 8.9893C33.1693 10.2226 32.6106 11.965 32.4947 14.2164C32.9169 13.5459 33.4425 13.0327 34.0715 12.6768C34.7006 12.3126 35.3959 12.1305 36.1574 12.1305C37.49 12.1305 38.5495 12.6809 39.3358 13.7818C40.1304 14.8744 40.5277 16.3063 40.5277 18.0777C40.5277 19.9235 40.1097 21.4134 39.2737 22.5474C38.4377 23.6813 37.3452 24.2483 35.996 24.2483C34.5475 24.2483 33.368 23.6275 32.4575 22.3859C31.547 21.1444 31.0917 19.5138 31.0917 17.4941V16.0291C31.0917 12.7099 31.7042 10.1854 32.9293 8.45542C34.1543 6.71721 35.9132 5.83155 38.206 5.79844H38.5288ZM35.9339 13.4342C35.1558 13.4342 34.4357 13.7156 33.7735 14.2784C33.1196 14.833 32.6851 15.52 32.4699 16.3395V17.6307C32.4699 19.2034 32.801 20.4863 33.4631 21.4796C34.1253 22.4646 34.9696 22.9571 35.996 22.9571C36.9396 22.9571 37.7052 22.506 38.2929 21.6038C38.8806 20.7015 39.1744 19.5469 39.1744 18.1397C39.1744 16.7243 38.8806 15.5862 38.2929 14.7254C37.7135 13.8646 36.9272 13.4342 35.9339 13.4342Z" fill="black"/>
</svg>
