<svg width="45" height="190" viewBox="0 0 45 190" fill="none" xmlns="http://www.w3.org/2000/svg">
<line x1="24" y1="74" x2="24" y2="190" stroke="#9B9393" stroke-width="2" stroke-dasharray="15 15"/>
<circle cx="22.5" cy="52.5" r="22" stroke="#9B9393"/>
<path d="M8.80537 15.0855L6.7071 17.519V24H5.2917V5.9226H6.7071V15.5573L8.69363 13.0741L14.2932 5.9226H16.0686L9.76139 13.968L16.5528 24H14.827L8.80537 15.0855ZM19.6071 14.7378L20.3521 5.9226H27.9878V7.338H21.5316L21.0225 13.3969C21.8337 12.7347 22.7649 12.4036 23.8161 12.4036C25.1984 12.4036 26.291 12.9375 27.0938 14.0053C27.905 15.0648 28.3106 16.476 28.3106 18.2391C28.3106 20.1263 27.9133 21.5996 27.1187 22.6591C26.3241 23.7186 25.1942 24.2483 23.7292 24.2483C22.3965 24.2483 21.3164 23.8055 20.4886 22.9198C19.6609 22.0259 19.1933 20.8009 19.0857 19.2447H20.4017C20.5176 20.4615 20.8611 21.3885 21.4322 22.0259C22.0034 22.655 22.769 22.9695 23.7292 22.9695C24.7804 22.9695 25.575 22.5598 26.113 21.7403C26.6593 20.9209 26.9324 19.7621 26.9324 18.2639C26.9324 16.9313 26.6262 15.8552 26.0137 15.0358C25.4094 14.2081 24.59 13.7942 23.5553 13.7942C22.9594 13.7942 22.4462 13.8894 22.0158 14.0798C21.5854 14.2619 21.1467 14.5971 20.6997 15.0855L19.6071 14.7378ZM40.118 10.5785C40.118 11.489 39.8945 12.3167 39.4476 13.0617C39.0089 13.7984 38.4088 14.3529 37.6473 14.7254C38.5412 15.1061 39.2406 15.6938 39.7455 16.4884C40.2587 17.2831 40.5153 18.1894 40.5153 19.2075C40.5153 20.7305 40.0725 21.9514 39.1868 22.8702C38.3094 23.7889 37.1424 24.2483 35.6856 24.2483C34.2122 24.2483 33.0369 23.7931 32.1595 22.8826C31.2821 21.9638 30.8434 20.7388 30.8434 19.2075C30.8434 18.1729 31.0917 17.2624 31.5884 16.476C32.0933 15.6897 32.7844 15.1061 33.6618 14.7254C32.9003 14.3529 32.3002 13.8025 31.8615 13.0741C31.4311 12.3374 31.2159 11.5056 31.2159 10.5785C31.2159 9.08035 31.6215 7.88843 32.4326 7.00277C33.2438 6.11711 34.3198 5.67428 35.6607 5.67428C37.0099 5.67428 38.0901 6.12125 38.9013 7.01519C39.7124 7.90913 40.118 9.0969 40.118 10.5785ZM39.1248 19.2075C39.1248 18.0818 38.7978 17.163 38.1439 16.4512C37.49 15.7311 36.6623 15.371 35.6607 15.371C34.6592 15.371 33.8315 15.7228 33.1776 16.4264C32.532 17.1299 32.2092 18.057 32.2092 19.2075C32.2092 20.358 32.5195 21.2727 33.1403 21.9514C33.7694 22.6301 34.6178 22.9695 35.6856 22.9695C36.7285 22.9695 37.5604 22.6301 38.1812 21.9514C38.8102 21.2727 39.1248 20.358 39.1248 19.2075ZM38.7399 10.5661C38.7399 9.53146 38.446 8.67477 37.8583 7.99604C37.2789 7.30903 36.5464 6.96552 35.6607 6.96552C34.742 6.96552 34.0012 7.29661 33.4383 7.95879C32.8837 8.62096 32.6065 9.49007 32.6065 10.5661C32.6065 11.6504 32.892 12.5071 33.4631 13.1362C34.0426 13.7652 34.7792 14.0798 35.6732 14.0798C36.5671 14.0798 37.2996 13.7611 37.8708 13.1238C38.4502 12.4781 38.7399 11.6256 38.7399 10.5661Z" fill="black"/>
</svg>
