<svg width="45" height="190" viewBox="0 0 45 190" fill="none" xmlns="http://www.w3.org/2000/svg">
<line x1="24" y1="74" x2="24" y2="190" stroke="#9B9393" stroke-width="2" stroke-dasharray="15 15"/>
<circle cx="22.5" cy="52.5" r="22" stroke="#9B9393"/>
<path d="M8.80537 15.0855L6.7071 17.519V24H5.2917V5.9226H6.7071V15.5573L8.69363 13.0741L14.2932 5.9226H16.0686L9.76139 13.968L16.5528 24H14.827L8.80537 15.0855ZM26.1627 5.79844V7.12693H25.9516C24.1968 7.13521 22.8145 7.756 21.8047 8.9893C20.8032 10.2226 20.2445 11.965 20.1286 14.2164C20.5507 13.5459 21.0763 13.0327 21.7054 12.6768C22.3345 12.3126 23.0297 12.1305 23.7912 12.1305C25.1239 12.1305 26.1834 12.6809 26.9697 13.7818C27.7643 14.8744 28.1616 16.3063 28.1616 18.0777C28.1616 19.9235 27.7436 21.4134 26.9076 22.5474C26.0716 23.6813 24.979 24.2483 23.6298 24.2483C22.1813 24.2483 21.0018 23.6275 20.0913 22.3859C19.1808 21.1444 18.7256 19.5138 18.7256 17.4941V16.0291C18.7256 12.7099 19.3381 10.1854 20.5631 8.45542C21.7882 6.71721 23.5471 5.83155 25.8398 5.79844H26.1627ZM23.5678 13.4342C22.7897 13.4342 22.0696 13.7156 21.4074 14.2784C20.7535 14.833 20.319 15.52 20.1038 16.3395V17.6307C20.1038 19.2034 20.4348 20.4863 21.097 21.4796C21.7592 22.4646 22.6035 22.9571 23.6298 22.9571C24.5734 22.9571 25.3391 22.506 25.9268 21.6038C26.5144 20.7015 26.8083 19.5469 26.8083 18.1397C26.8083 16.7243 26.5144 15.5862 25.9268 14.7254C25.3474 13.8646 24.561 13.4342 23.5678 13.4342ZM33.8977 14.1419H35.251C36.2608 14.1336 37.0761 13.8149 37.6969 13.1858C38.326 12.5485 38.6405 11.7001 38.6405 10.6406C38.6405 9.47352 38.3715 8.5713 37.8335 7.93396C37.2955 7.28834 36.534 6.96552 35.549 6.96552C34.5888 6.96552 33.8108 7.30903 33.2148 7.99604C32.6272 8.67477 32.3333 9.56457 32.3333 10.6654H30.9552C30.9552 9.72183 31.1455 8.87342 31.5263 8.12019C31.9153 7.35869 32.4657 6.76273 33.1776 6.33232C33.8894 5.89363 34.6799 5.67428 35.549 5.67428C36.9065 5.67428 37.9908 6.11711 38.8019 7.00277C39.6131 7.88016 40.0187 9.10932 40.0187 10.6903C40.0187 11.5842 39.7828 12.3954 39.311 13.1238C38.8475 13.8522 38.2225 14.3902 37.4362 14.7378C38.3467 15.0358 39.0503 15.5614 39.5469 16.3146C40.0435 17.0596 40.2918 17.9825 40.2918 19.0833C40.2918 20.656 39.8614 21.91 39.0006 22.8453C38.1398 23.7807 37.0017 24.2483 35.5863 24.2483C34.684 24.2483 33.8563 24.0372 33.1031 23.6151C32.3499 23.1847 31.7663 22.5846 31.3525 21.8148C30.9469 21.045 30.7441 20.1428 30.7441 19.1082H32.1222C32.1222 20.2339 32.4409 21.1609 33.0783 21.8893C33.7239 22.6094 34.5599 22.9695 35.5863 22.9695C36.6375 22.9695 37.4528 22.6425 38.0322 21.9886C38.6198 21.3265 38.9137 20.3746 38.9137 19.133C38.9137 17.9411 38.5992 17.0306 37.9701 16.4015C37.3493 15.7642 36.4388 15.4414 35.2386 15.4331H33.8977V14.1419Z" fill="black"/>
</svg>
