<svg width="45" height="190" viewBox="0 0 45 190" fill="none" xmlns="http://www.w3.org/2000/svg">
<line x1="24" y1="74" x2="24" y2="190" stroke="#9B9393" stroke-width="2" stroke-dasharray="15 15"/>
<circle cx="22.5" cy="52.5" r="22" stroke="#9B9393"/>
<path d="M8.80537 15.0855L6.7071 17.519V24H5.2917V5.9226H6.7071V15.5573L8.69363 13.0741L14.2932 5.9226H16.0686L9.76139 13.968L16.5528 24H14.827L8.80537 15.0855ZM26.1627 5.79844V7.12693H25.9516C24.1968 7.13521 22.8145 7.756 21.8047 8.9893C20.8032 10.2226 20.2445 11.965 20.1286 14.2164C20.5507 13.5459 21.0763 13.0327 21.7054 12.6768C22.3345 12.3126 23.0297 12.1305 23.7912 12.1305C25.1239 12.1305 26.1834 12.6809 26.9697 13.7818C27.7643 14.8744 28.1616 16.3063 28.1616 18.0777C28.1616 19.9235 27.7436 21.4134 26.9076 22.5474C26.0716 23.6813 24.979 24.2483 23.6298 24.2483C22.1813 24.2483 21.0018 23.6275 20.0913 22.3859C19.1808 21.1444 18.7256 19.5138 18.7256 17.4941V16.0291C18.7256 12.7099 19.3381 10.1854 20.5631 8.45542C21.7882 6.71721 23.5471 5.83155 25.8398 5.79844H26.1627ZM23.5678 13.4342C22.7897 13.4342 22.0696 13.7156 21.4074 14.2784C20.7535 14.833 20.319 15.52 20.1038 16.3395V17.6307C20.1038 19.2034 20.4348 20.4863 21.097 21.4796C21.7592 22.4646 22.6035 22.9571 23.6298 22.9571C24.5734 22.9571 25.3391 22.506 25.9268 21.6038C26.5144 20.7015 26.8083 19.5469 26.8083 18.1397C26.8083 16.7243 26.5144 15.5862 25.9268 14.7254C25.3474 13.8646 24.561 13.4342 23.5678 13.4342ZM31.9733 14.7378L32.7182 5.9226H40.3539V7.338H33.8977L33.3887 13.3969C34.1998 12.7347 35.131 12.4036 36.1822 12.4036C37.5645 12.4036 38.6571 12.9375 39.46 14.0053C40.2711 15.0648 40.6767 16.476 40.6767 18.2391C40.6767 20.1263 40.2794 21.5996 39.4848 22.6591C38.6902 23.7186 37.5604 24.2483 36.0953 24.2483C34.7627 24.2483 33.6825 23.8055 32.8548 22.9198C32.0271 22.0259 31.5594 20.8009 31.4518 19.2447H32.7679C32.8837 20.4615 33.2272 21.3885 33.7984 22.0259C34.3695 22.655 35.1351 22.9695 36.0953 22.9695C37.1465 22.9695 37.9411 22.5598 38.4791 21.7403C39.0254 20.9209 39.2986 19.7621 39.2986 18.2639C39.2986 16.9313 38.9923 15.8552 38.3798 15.0358C37.7756 14.2081 36.9561 13.7942 35.9215 13.7942C35.3255 13.7942 34.8123 13.8894 34.3819 14.0798C33.9515 14.2619 33.5128 14.5971 33.0658 15.0855L31.9733 14.7378Z" fill="black"/>
</svg>
