<svg width="45" height="190" viewBox="0 0 45 190" fill="none" xmlns="http://www.w3.org/2000/svg">
<line x1="24" y1="74" x2="24" y2="190" stroke="#9B9393" stroke-width="2" stroke-dasharray="15 15"/>
<circle cx="22.5" cy="52.5" r="22" stroke="#9B9393"/>
<path d="M8.80537 15.0855L6.7071 17.519V24H5.2917V5.9226H6.7071V15.5573L8.69363 13.0741L14.2932 5.9226H16.0686L9.76139 13.968L16.5528 24H14.827L8.80537 15.0855ZM28.1989 6.7917L21.7426 24H20.3024L26.7214 7.21384H18.1669V5.9226H28.1989V6.7917ZM40.3539 16.4512C40.3539 19.0171 39.9566 20.9581 39.162 22.2742C38.3757 23.5903 37.2127 24.2483 35.6732 24.2483C34.1502 24.2483 32.9872 23.5944 32.1843 22.2866C31.3897 20.9705 30.9841 19.0751 30.9676 16.6002V13.4217C30.9676 10.9055 31.3607 8.98516 32.1471 7.66081C32.9334 6.33646 34.1005 5.67428 35.6483 5.67428C37.1713 5.67428 38.3301 6.31576 39.1248 7.59873C39.9194 8.87342 40.3291 10.7358 40.3539 13.1858V16.4512ZM38.9633 13.2231C38.9633 11.1538 38.6861 9.59354 38.1315 8.54233C37.5852 7.49113 36.7575 6.96552 35.6483 6.96552C34.5806 6.96552 33.7653 7.47043 33.2024 8.48025C32.6478 9.48179 32.3581 10.9758 32.3333 12.9624V16.625C32.3333 18.6447 32.6147 20.209 33.1776 21.3182C33.7487 22.4191 34.5806 22.9695 35.6732 22.9695C36.7326 22.9695 37.5397 22.448 38.0942 21.4051C38.6571 20.3539 38.9468 18.8143 38.9633 16.7864V13.2231Z" fill="black"/>
</svg>
