<svg width="45" height="190" viewBox="0 0 45 190" fill="none" xmlns="http://www.w3.org/2000/svg">
<line x1="24" y1="74" x2="24" y2="190" stroke="#9B9393" stroke-width="2" stroke-dasharray="15 15"/>
<circle cx="22.5" cy="52.5" r="22" stroke="#9B9393"/>
<path d="M8.80537 15.0855L6.7071 17.519V24H5.2917V5.9226H6.7071V15.5573L8.69363 13.0741L14.2932 5.9226H16.0686L9.76139 13.968L16.5528 24H14.827L8.80537 15.0855ZM28.1989 6.7917L21.7426 24H20.3024L26.7214 7.21384H18.1669V5.9226H28.1989V6.7917ZM40.714 24H31.129V22.8329L36.2691 15.8925C37.1299 14.7088 37.73 13.728 38.0694 12.9499C38.4088 12.1719 38.5785 11.4104 38.5785 10.6654C38.5785 9.53146 38.3053 8.63338 37.759 7.9712C37.221 7.30075 36.4719 6.96552 35.5118 6.96552C34.4937 6.96552 33.6825 7.35455 33.0783 8.13261C32.474 8.90239 32.1719 9.90393 32.1719 11.1372H30.7938C30.7938 9.56457 31.2283 8.26091 32.0974 7.22626C32.9665 6.19161 34.1046 5.67428 35.5118 5.67428C36.8858 5.67428 37.9742 6.1047 38.7771 6.96552C39.58 7.81808 39.9814 9.00585 39.9814 10.5289C39.9814 11.9774 39.3275 13.6701 38.0197 15.6069L37.2251 16.7492L32.8051 22.7212H40.714V24Z" fill="black"/>
</svg>
