<svg width="45" height="190" viewBox="0 0 45 190" fill="none" xmlns="http://www.w3.org/2000/svg">
<line x1="24" y1="74" x2="24" y2="190" stroke="#9B9393" stroke-width="2" stroke-dasharray="15 15"/>
<circle cx="22.5" cy="52.5" r="22" stroke="#9B9393"/>
<path d="M8.80537 15.0855L6.7071 17.519V24H5.2917V5.9226H6.7071V15.5573L8.69363 13.0741L14.2932 5.9226H16.0686L9.76139 13.968L16.5528 24H14.827L8.80537 15.0855ZM28.1989 6.7917L21.7426 24H20.3024L26.7214 7.21384H18.1669V5.9226H28.1989V6.7917ZM38.8764 18.1646H41.1982V19.4558H38.8764V24H37.4983V19.4558H30.3964V18.5743L37.3865 5.9226H38.8764V18.1646ZM32.0477 18.1646H37.4983V8.00845L37.0017 9.01413L32.0477 18.1646Z" fill="black"/>
</svg>
