<svg width="45" height="190" viewBox="0 0 45 190" fill="none" xmlns="http://www.w3.org/2000/svg">
<line x1="24" y1="74" x2="24" y2="190" stroke="#9B9393" stroke-width="2" stroke-dasharray="15 15"/>
<circle cx="22.5" cy="52.5" r="22" stroke="#9B9393"/>
<path d="M8.80537 15.0855L6.7071 17.519V24H5.2917V5.9226H6.7071V15.5573L8.69363 13.0741L14.2932 5.9226H16.0686L9.76139 13.968L16.5528 24H14.827L8.80537 15.0855ZM28.1989 6.7917L21.7426 24H20.3024L26.7214 7.21384H18.1669V5.9226H28.1989V6.7917ZM38.5288 5.79844V7.12693H38.3177C36.563 7.13521 35.1807 7.756 34.1709 8.9893C33.1693 10.2226 32.6106 11.965 32.4947 14.2164C32.9169 13.5459 33.4425 13.0327 34.0715 12.6768C34.7006 12.3126 35.3959 12.1305 36.1574 12.1305C37.49 12.1305 38.5495 12.6809 39.3358 13.7818C40.1304 14.8744 40.5277 16.3063 40.5277 18.0777C40.5277 19.9235 40.1097 21.4134 39.2737 22.5474C38.4377 23.6813 37.3452 24.2483 35.996 24.2483C34.5475 24.2483 33.368 23.6275 32.4575 22.3859C31.547 21.1444 31.0917 19.5138 31.0917 17.4941V16.0291C31.0917 12.7099 31.7042 10.1854 32.9293 8.45542C34.1543 6.71721 35.9132 5.83155 38.206 5.79844H38.5288ZM35.9339 13.4342C35.1558 13.4342 34.4357 13.7156 33.7735 14.2784C33.1196 14.833 32.6851 15.52 32.4699 16.3395V17.6307C32.4699 19.2034 32.801 20.4863 33.4631 21.4796C34.1253 22.4646 34.9696 22.9571 35.996 22.9571C36.9396 22.9571 37.7052 22.506 38.2929 21.6038C38.8806 20.7015 39.1744 19.5469 39.1744 18.1397C39.1744 16.7243 38.8806 15.5862 38.2929 14.7254C37.7135 13.8646 36.9272 13.4342 35.9339 13.4342Z" fill="black"/>
</svg>
