<svg width="45" height="190" viewBox="0 0 45 190" fill="none" xmlns="http://www.w3.org/2000/svg">
<line x1="24" y1="74" x2="24" y2="190" stroke="#9B9393" stroke-width="2" stroke-dasharray="15 15"/>
<circle cx="22.5" cy="52.5" r="22" stroke="#9B9393"/>
<path d="M8.80537 15.0855L6.7071 17.519V24H5.2917V5.9226H6.7071V15.5573L8.69363 13.0741L14.2932 5.9226H16.0686L9.76139 13.968L16.5528 24H14.827L8.80537 15.0855ZM28.1989 6.7917L21.7426 24H20.3024L26.7214 7.21384H18.1669V5.9226H28.1989V6.7917ZM38.8392 15.7559C38.4088 16.4843 37.8666 17.0554 37.2127 17.4693C36.5588 17.8749 35.8635 18.0777 35.1269 18.0777C33.8356 18.0777 32.7886 17.5107 31.9857 16.3767C31.1828 15.2427 30.7813 13.7901 30.7813 12.0188C30.7813 10.1812 31.1993 8.66649 32.0353 7.47457C32.8796 6.27438 33.997 5.67428 35.3876 5.67428C36.9106 5.67428 38.0942 6.30749 38.9385 7.5739C39.7911 8.84031 40.2173 10.6406 40.2173 12.9748V14.3157C40.2173 17.61 39.6421 20.0642 38.4915 21.6782C37.341 23.284 35.5904 24.0993 33.2397 24.1242H32.8672L32.8796 22.8081H33.2769C35.0648 22.7833 36.4222 22.1956 37.3493 21.045C38.2846 19.8862 38.7812 18.1232 38.8392 15.7559ZM35.3131 16.774C36.0912 16.774 36.7989 16.4926 37.4362 15.9297C38.0818 15.3586 38.5536 14.5971 38.8516 13.6452V12.7389C38.8516 10.9593 38.5371 9.55629 37.908 8.52992C37.2872 7.49527 36.4512 6.97794 35.4 6.97794C34.4481 6.97794 33.6659 7.44974 33.0534 8.39334C32.4409 9.33694 32.1347 10.5247 32.1347 11.9567C32.1347 13.339 32.4285 14.4895 33.0162 15.4083C33.6039 16.3188 34.3695 16.774 35.3131 16.774Z" fill="black"/>
</svg>
