<svg width="45" height="190" viewBox="0 0 45 190" fill="none" xmlns="http://www.w3.org/2000/svg">
<line x1="24" y1="74" x2="24" y2="190" stroke="#9B9393" stroke-width="2" stroke-dasharray="15 15"/>
<circle cx="22.5" cy="52.5" r="22" stroke="#9B9393"/>
<path d="M8.80537 15.0855L6.7071 17.519V24H5.2917V5.9226H6.7071V15.5573L8.69363 13.0741L14.2932 5.9226H16.0686L9.76139 13.968L16.5528 24H14.827L8.80537 15.0855ZM27.7519 10.5785C27.7519 11.489 27.5284 12.3167 27.0814 13.0617C26.6427 13.7984 26.0426 14.3529 25.2811 14.7254C26.1751 15.1061 26.8745 15.6938 27.3794 16.4884C27.8926 17.2831 28.1492 18.1894 28.1492 19.2075C28.1492 20.7305 27.7064 21.9514 26.8207 22.8702C25.9433 23.7889 24.7762 24.2483 23.3194 24.2483C21.8461 24.2483 20.6707 23.7931 19.7934 22.8826C18.916 21.9638 18.4773 20.7388 18.4773 19.2075C18.4773 18.1729 18.7256 17.2624 19.2222 16.476C19.7271 15.6897 20.4183 15.1061 21.2957 14.7254C20.5342 14.3529 19.9341 13.8025 19.4954 13.0741C19.065 12.3374 18.8498 11.5056 18.8498 10.5785C18.8498 9.08035 19.2553 7.88843 20.0665 7.00277C20.8777 6.11711 21.9537 5.67428 23.2946 5.67428C24.6438 5.67428 25.724 6.12125 26.5351 7.01519C27.3463 7.90913 27.7519 9.0969 27.7519 10.5785ZM26.7586 19.2075C26.7586 18.0818 26.4317 17.163 25.7778 16.4512C25.1239 15.7311 24.2962 15.371 23.2946 15.371C22.2931 15.371 21.4653 15.7228 20.8115 16.4264C20.1658 17.1299 19.843 18.057 19.843 19.2075C19.843 20.358 20.1534 21.2727 20.7742 21.9514C21.4033 22.6301 22.2517 22.9695 23.3194 22.9695C24.3624 22.9695 25.1942 22.6301 25.815 21.9514C26.4441 21.2727 26.7586 20.358 26.7586 19.2075ZM26.3737 10.5661C26.3737 9.53146 26.0799 8.67477 25.4922 7.99604C24.9128 7.30903 24.1803 6.96552 23.2946 6.96552C22.3758 6.96552 21.635 7.29661 21.0722 7.95879C20.5176 8.62096 20.2403 9.49007 20.2403 10.5661C20.2403 11.6504 20.5259 12.5071 21.097 13.1362C21.6764 13.7652 22.4131 14.0798 23.307 14.0798C24.201 14.0798 24.9335 13.7611 25.5046 13.1238C26.084 12.4781 26.3737 11.6256 26.3737 10.5661ZM40.3539 16.4512C40.3539 19.0171 39.9566 20.9581 39.162 22.2742C38.3757 23.5903 37.2127 24.2483 35.6732 24.2483C34.1502 24.2483 32.9872 23.5944 32.1843 22.2866C31.3897 20.9705 30.9841 19.0751 30.9676 16.6002V13.4217C30.9676 10.9055 31.3607 8.98516 32.1471 7.66081C32.9334 6.33646 34.1005 5.67428 35.6483 5.67428C37.1713 5.67428 38.3301 6.31576 39.1248 7.59873C39.9194 8.87342 40.3291 10.7358 40.3539 13.1858V16.4512ZM38.9633 13.2231C38.9633 11.1538 38.6861 9.59354 38.1315 8.54233C37.5852 7.49113 36.7575 6.96552 35.6483 6.96552C34.5806 6.96552 33.7653 7.47043 33.2024 8.48025C32.6478 9.48179 32.3581 10.9758 32.3333 12.9624V16.625C32.3333 18.6447 32.6147 20.209 33.1776 21.3182C33.7487 22.4191 34.5806 22.9695 35.6732 22.9695C36.7326 22.9695 37.5397 22.448 38.0942 21.4051C38.6571 20.3539 38.9468 18.8143 38.9633 16.7864V13.2231Z" fill="black"/>
</svg>
