<svg width="45" height="190" viewBox="0 0 45 190" fill="none" xmlns="http://www.w3.org/2000/svg">
<line x1="24" y1="74" x2="24" y2="190" stroke="#9B9393" stroke-width="2" stroke-dasharray="15 15"/>
<circle cx="22.5" cy="52.5" r="22" stroke="#9B9393"/>
<path d="M8.80537 15.0855L6.7071 17.519V24H5.2917V5.9226H6.7071V15.5573L8.69363 13.0741L14.2932 5.9226H16.0686L9.76139 13.968L16.5528 24H14.827L8.80537 15.0855ZM27.7519 10.5785C27.7519 11.489 27.5284 12.3167 27.0814 13.0617C26.6427 13.7984 26.0426 14.3529 25.2811 14.7254C26.1751 15.1061 26.8745 15.6938 27.3794 16.4884C27.8926 17.2831 28.1492 18.1894 28.1492 19.2075C28.1492 20.7305 27.7064 21.9514 26.8207 22.8702C25.9433 23.7889 24.7762 24.2483 23.3194 24.2483C21.8461 24.2483 20.6707 23.7931 19.7934 22.8826C18.916 21.9638 18.4773 20.7388 18.4773 19.2075C18.4773 18.1729 18.7256 17.2624 19.2222 16.476C19.7271 15.6897 20.4183 15.1061 21.2957 14.7254C20.5342 14.3529 19.9341 13.8025 19.4954 13.0741C19.065 12.3374 18.8498 11.5056 18.8498 10.5785C18.8498 9.08035 19.2553 7.88843 20.0665 7.00277C20.8777 6.11711 21.9537 5.67428 23.2946 5.67428C24.6438 5.67428 25.724 6.12125 26.5351 7.01519C27.3463 7.90913 27.7519 9.0969 27.7519 10.5785ZM26.7586 19.2075C26.7586 18.0818 26.4317 17.163 25.7778 16.4512C25.1239 15.7311 24.2962 15.371 23.2946 15.371C22.2931 15.371 21.4653 15.7228 20.8115 16.4264C20.1658 17.1299 19.843 18.057 19.843 19.2075C19.843 20.358 20.1534 21.2727 20.7742 21.9514C21.4033 22.6301 22.2517 22.9695 23.3194 22.9695C24.3624 22.9695 25.1942 22.6301 25.815 21.9514C26.4441 21.2727 26.7586 20.358 26.7586 19.2075ZM26.3737 10.5661C26.3737 9.53146 26.0799 8.67477 25.4922 7.99604C24.9128 7.30903 24.1803 6.96552 23.2946 6.96552C22.3758 6.96552 21.635 7.29661 21.0722 7.95879C20.5176 8.62096 20.2403 9.49007 20.2403 10.5661C20.2403 11.6504 20.5259 12.5071 21.097 13.1362C21.6764 13.7652 22.4131 14.0798 23.307 14.0798C24.201 14.0798 24.9335 13.7611 25.5046 13.1238C26.084 12.4781 26.3737 11.6256 26.3737 10.5661ZM33.8977 14.1419H35.251C36.2608 14.1336 37.0761 13.8149 37.6969 13.1858C38.326 12.5485 38.6405 11.7001 38.6405 10.6406C38.6405 9.47352 38.3715 8.5713 37.8335 7.93396C37.2955 7.28834 36.534 6.96552 35.549 6.96552C34.5888 6.96552 33.8108 7.30903 33.2148 7.99604C32.6272 8.67477 32.3333 9.56457 32.3333 10.6654H30.9552C30.9552 9.72183 31.1455 8.87342 31.5263 8.12019C31.9153 7.35869 32.4657 6.76273 33.1776 6.33232C33.8894 5.89363 34.6799 5.67428 35.549 5.67428C36.9065 5.67428 37.9908 6.11711 38.8019 7.00277C39.6131 7.88016 40.0187 9.10932 40.0187 10.6903C40.0187 11.5842 39.7828 12.3954 39.311 13.1238C38.8475 13.8522 38.2225 14.3902 37.4362 14.7378C38.3467 15.0358 39.0503 15.5614 39.5469 16.3146C40.0435 17.0596 40.2918 17.9825 40.2918 19.0833C40.2918 20.656 39.8614 21.91 39.0006 22.8453C38.1398 23.7807 37.0017 24.2483 35.5863 24.2483C34.684 24.2483 33.8563 24.0372 33.1031 23.6151C32.3499 23.1847 31.7663 22.5846 31.3525 21.8148C30.9469 21.045 30.7441 20.1428 30.7441 19.1082H32.1222C32.1222 20.2339 32.4409 21.1609 33.0783 21.8893C33.7239 22.6094 34.5599 22.9695 35.5863 22.9695C36.6375 22.9695 37.4528 22.6425 38.0322 21.9886C38.6198 21.3265 38.9137 20.3746 38.9137 19.133C38.9137 17.9411 38.5992 17.0306 37.9701 16.4015C37.3493 15.7642 36.4388 15.4414 35.2386 15.4331H33.8977V14.1419Z" fill="black"/>
</svg>
