<svg width="45" height="190" viewBox="0 0 45 190" fill="none" xmlns="http://www.w3.org/2000/svg">
<line x1="24" y1="74" x2="24" y2="190" stroke="#9B9393" stroke-width="2" stroke-dasharray="15 15"/>
<circle cx="22.5" cy="52.5" r="22" stroke="#9B9393"/>
<path d="M8.80537 15.0855L6.7071 17.519V24H5.2917V5.9226H6.7071V15.5573L8.69363 13.0741L14.2932 5.9226H16.0686L9.76139 13.968L16.5528 24H14.827L8.80537 15.0855ZM27.7519 10.5785C27.7519 11.489 27.5284 12.3167 27.0814 13.0617C26.6427 13.7984 26.0426 14.3529 25.2811 14.7254C26.1751 15.1061 26.8745 15.6938 27.3794 16.4884C27.8926 17.2831 28.1492 18.1894 28.1492 19.2075C28.1492 20.7305 27.7064 21.9514 26.8207 22.8702C25.9433 23.7889 24.7762 24.2483 23.3194 24.2483C21.8461 24.2483 20.6707 23.7931 19.7934 22.8826C18.916 21.9638 18.4773 20.7388 18.4773 19.2075C18.4773 18.1729 18.7256 17.2624 19.2222 16.476C19.7271 15.6897 20.4183 15.1061 21.2957 14.7254C20.5342 14.3529 19.9341 13.8025 19.4954 13.0741C19.065 12.3374 18.8498 11.5056 18.8498 10.5785C18.8498 9.08035 19.2553 7.88843 20.0665 7.00277C20.8777 6.11711 21.9537 5.67428 23.2946 5.67428C24.6438 5.67428 25.724 6.12125 26.5351 7.01519C27.3463 7.90913 27.7519 9.0969 27.7519 10.5785ZM26.7586 19.2075C26.7586 18.0818 26.4317 17.163 25.7778 16.4512C25.1239 15.7311 24.2962 15.371 23.2946 15.371C22.2931 15.371 21.4653 15.7228 20.8115 16.4264C20.1658 17.1299 19.843 18.057 19.843 19.2075C19.843 20.358 20.1534 21.2727 20.7742 21.9514C21.4033 22.6301 22.2517 22.9695 23.3194 22.9695C24.3624 22.9695 25.1942 22.6301 25.815 21.9514C26.4441 21.2727 26.7586 20.358 26.7586 19.2075ZM26.3737 10.5661C26.3737 9.53146 26.0799 8.67477 25.4922 7.99604C24.9128 7.30903 24.1803 6.96552 23.2946 6.96552C22.3758 6.96552 21.635 7.29661 21.0722 7.95879C20.5176 8.62096 20.2403 9.49007 20.2403 10.5661C20.2403 11.6504 20.5259 12.5071 21.097 13.1362C21.6764 13.7652 22.4131 14.0798 23.307 14.0798C24.201 14.0798 24.9335 13.7611 25.5046 13.1238C26.084 12.4781 26.3737 11.6256 26.3737 10.5661ZM38.5288 5.79844V7.12693H38.3177C36.563 7.13521 35.1807 7.756 34.1709 8.9893C33.1693 10.2226 32.6106 11.965 32.4947 14.2164C32.9169 13.5459 33.4425 13.0327 34.0715 12.6768C34.7006 12.3126 35.3959 12.1305 36.1574 12.1305C37.49 12.1305 38.5495 12.6809 39.3358 13.7818C40.1304 14.8744 40.5277 16.3063 40.5277 18.0777C40.5277 19.9235 40.1097 21.4134 39.2737 22.5474C38.4377 23.6813 37.3452 24.2483 35.996 24.2483C34.5475 24.2483 33.368 23.6275 32.4575 22.3859C31.547 21.1444 31.0917 19.5138 31.0917 17.4941V16.0291C31.0917 12.7099 31.7042 10.1854 32.9293 8.45542C34.1543 6.71721 35.9132 5.83155 38.206 5.79844H38.5288ZM35.9339 13.4342C35.1558 13.4342 34.4357 13.7156 33.7735 14.2784C33.1196 14.833 32.6851 15.52 32.4699 16.3395V17.6307C32.4699 19.2034 32.801 20.4863 33.4631 21.4796C34.1253 22.4646 34.9696 22.9571 35.996 22.9571C36.9396 22.9571 37.7052 22.506 38.2929 21.6038C38.8806 20.7015 39.1744 19.5469 39.1744 18.1397C39.1744 16.7243 38.8806 15.5862 38.2929 14.7254C37.7135 13.8646 36.9272 13.4342 35.9339 13.4342Z" fill="black"/>
</svg>
