<svg width="45" height="190" viewBox="0 0 45 190" fill="none" xmlns="http://www.w3.org/2000/svg">
<line x1="24" y1="74" x2="24" y2="190" stroke="#9B9393" stroke-width="2" stroke-dasharray="15 15"/>
<circle cx="22.5" cy="52.5" r="22" stroke="#9B9393"/>
<path d="M8.80537 15.0855L6.7071 17.519V24H5.2917V5.9226H6.7071V15.5573L8.69363 13.0741L14.2932 5.9226H16.0686L9.76139 13.968L16.5528 24H14.827L8.80537 15.0855ZM27.7519 10.5785C27.7519 11.489 27.5284 12.3167 27.0814 13.0617C26.6427 13.7984 26.0426 14.3529 25.2811 14.7254C26.1751 15.1061 26.8745 15.6938 27.3794 16.4884C27.8926 17.2831 28.1492 18.1894 28.1492 19.2075C28.1492 20.7305 27.7064 21.9514 26.8207 22.8702C25.9433 23.7889 24.7762 24.2483 23.3194 24.2483C21.8461 24.2483 20.6707 23.7931 19.7934 22.8826C18.916 21.9638 18.4773 20.7388 18.4773 19.2075C18.4773 18.1729 18.7256 17.2624 19.2222 16.476C19.7271 15.6897 20.4183 15.1061 21.2957 14.7254C20.5342 14.3529 19.9341 13.8025 19.4954 13.0741C19.065 12.3374 18.8498 11.5056 18.8498 10.5785C18.8498 9.08035 19.2553 7.88843 20.0665 7.00277C20.8777 6.11711 21.9537 5.67428 23.2946 5.67428C24.6438 5.67428 25.724 6.12125 26.5351 7.01519C27.3463 7.90913 27.7519 9.0969 27.7519 10.5785ZM26.7586 19.2075C26.7586 18.0818 26.4317 17.163 25.7778 16.4512C25.1239 15.7311 24.2962 15.371 23.2946 15.371C22.2931 15.371 21.4653 15.7228 20.8115 16.4264C20.1658 17.1299 19.843 18.057 19.843 19.2075C19.843 20.358 20.1534 21.2727 20.7742 21.9514C21.4033 22.6301 22.2517 22.9695 23.3194 22.9695C24.3624 22.9695 25.1942 22.6301 25.815 21.9514C26.4441 21.2727 26.7586 20.358 26.7586 19.2075ZM26.3737 10.5661C26.3737 9.53146 26.0799 8.67477 25.4922 7.99604C24.9128 7.30903 24.1803 6.96552 23.2946 6.96552C22.3758 6.96552 21.635 7.29661 21.0722 7.95879C20.5176 8.62096 20.2403 9.49007 20.2403 10.5661C20.2403 11.6504 20.5259 12.5071 21.097 13.1362C21.6764 13.7652 22.4131 14.0798 23.307 14.0798C24.201 14.0798 24.9335 13.7611 25.5046 13.1238C26.084 12.4781 26.3737 11.6256 26.3737 10.5661ZM40.118 10.5785C40.118 11.489 39.8945 12.3167 39.4476 13.0617C39.0089 13.7984 38.4088 14.3529 37.6473 14.7254C38.5412 15.1061 39.2406 15.6938 39.7455 16.4884C40.2587 17.2831 40.5153 18.1894 40.5153 19.2075C40.5153 20.7305 40.0725 21.9514 39.1868 22.8702C38.3094 23.7889 37.1424 24.2483 35.6856 24.2483C34.2122 24.2483 33.0369 23.7931 32.1595 22.8826C31.2821 21.9638 30.8434 20.7388 30.8434 19.2075C30.8434 18.1729 31.0917 17.2624 31.5884 16.476C32.0933 15.6897 32.7844 15.1061 33.6618 14.7254C32.9003 14.3529 32.3002 13.8025 31.8615 13.0741C31.4311 12.3374 31.2159 11.5056 31.2159 10.5785C31.2159 9.08035 31.6215 7.88843 32.4326 7.00277C33.2438 6.11711 34.3198 5.67428 35.6607 5.67428C37.0099 5.67428 38.0901 6.12125 38.9013 7.01519C39.7124 7.90913 40.118 9.0969 40.118 10.5785ZM39.1248 19.2075C39.1248 18.0818 38.7978 17.163 38.1439 16.4512C37.49 15.7311 36.6623 15.371 35.6607 15.371C34.6592 15.371 33.8315 15.7228 33.1776 16.4264C32.532 17.1299 32.2092 18.057 32.2092 19.2075C32.2092 20.358 32.5195 21.2727 33.1403 21.9514C33.7694 22.6301 34.6178 22.9695 35.6856 22.9695C36.7285 22.9695 37.5604 22.6301 38.1812 21.9514C38.8102 21.2727 39.1248 20.358 39.1248 19.2075ZM38.7399 10.5661C38.7399 9.53146 38.446 8.67477 37.8583 7.99604C37.2789 7.30903 36.5464 6.96552 35.6607 6.96552C34.742 6.96552 34.0012 7.29661 33.4383 7.95879C32.8837 8.62096 32.6065 9.49007 32.6065 10.5661C32.6065 11.6504 32.892 12.5071 33.4631 13.1362C34.0426 13.7652 34.7792 14.0798 35.6732 14.0798C36.5671 14.0798 37.2996 13.7611 37.8708 13.1238C38.4502 12.4781 38.7399 11.6256 38.7399 10.5661Z" fill="black"/>
</svg>
