<svg width="45" height="190" viewBox="0 0 45 190" fill="none" xmlns="http://www.w3.org/2000/svg">
<line x1="24" y1="74" x2="24" y2="190" stroke="#9B9393" stroke-width="2" stroke-dasharray="15 15"/>
<circle cx="22.5" cy="52.5" r="22" stroke="#9B9393"/>
<path d="M8.80537 15.0855L6.7071 17.519V24H5.2917V5.9226H6.7071V15.5573L8.69363 13.0741L14.2932 5.9226H16.0686L9.76139 13.968L16.5528 24H14.827L8.80537 15.0855ZM27.7519 10.5785C27.7519 11.489 27.5284 12.3167 27.0814 13.0617C26.6427 13.7984 26.0426 14.3529 25.2811 14.7254C26.1751 15.1061 26.8745 15.6938 27.3794 16.4884C27.8926 17.2831 28.1492 18.1894 28.1492 19.2075C28.1492 20.7305 27.7064 21.9514 26.8207 22.8702C25.9433 23.7889 24.7762 24.2483 23.3194 24.2483C21.8461 24.2483 20.6707 23.7931 19.7934 22.8826C18.916 21.9638 18.4773 20.7388 18.4773 19.2075C18.4773 18.1729 18.7256 17.2624 19.2222 16.476C19.7271 15.6897 20.4183 15.1061 21.2957 14.7254C20.5342 14.3529 19.9341 13.8025 19.4954 13.0741C19.065 12.3374 18.8498 11.5056 18.8498 10.5785C18.8498 9.08035 19.2553 7.88843 20.0665 7.00277C20.8777 6.11711 21.9537 5.67428 23.2946 5.67428C24.6438 5.67428 25.724 6.12125 26.5351 7.01519C27.3463 7.90913 27.7519 9.0969 27.7519 10.5785ZM26.7586 19.2075C26.7586 18.0818 26.4317 17.163 25.7778 16.4512C25.1239 15.7311 24.2962 15.371 23.2946 15.371C22.2931 15.371 21.4653 15.7228 20.8115 16.4264C20.1658 17.1299 19.843 18.057 19.843 19.2075C19.843 20.358 20.1534 21.2727 20.7742 21.9514C21.4033 22.6301 22.2517 22.9695 23.3194 22.9695C24.3624 22.9695 25.1942 22.6301 25.815 21.9514C26.4441 21.2727 26.7586 20.358 26.7586 19.2075ZM26.3737 10.5661C26.3737 9.53146 26.0799 8.67477 25.4922 7.99604C24.9128 7.30903 24.1803 6.96552 23.2946 6.96552C22.3758 6.96552 21.635 7.29661 21.0722 7.95879C20.5176 8.62096 20.2403 9.49007 20.2403 10.5661C20.2403 11.6504 20.5259 12.5071 21.097 13.1362C21.6764 13.7652 22.4131 14.0798 23.307 14.0798C24.201 14.0798 24.9335 13.7611 25.5046 13.1238C26.084 12.4781 26.3737 11.6256 26.3737 10.5661ZM38.8392 15.7559C38.4088 16.4843 37.8666 17.0554 37.2127 17.4693C36.5588 17.8749 35.8635 18.0777 35.1269 18.0777C33.8356 18.0777 32.7886 17.5107 31.9857 16.3767C31.1828 15.2427 30.7813 13.7901 30.7813 12.0188C30.7813 10.1812 31.1993 8.66649 32.0353 7.47457C32.8796 6.27438 33.997 5.67428 35.3876 5.67428C36.9106 5.67428 38.0942 6.30749 38.9385 7.5739C39.7911 8.84031 40.2173 10.6406 40.2173 12.9748V14.3157C40.2173 17.61 39.6421 20.0642 38.4915 21.6782C37.341 23.284 35.5904 24.0993 33.2397 24.1242H32.8672L32.8796 22.8081H33.2769C35.0648 22.7833 36.4222 22.1956 37.3493 21.045C38.2846 19.8862 38.7812 18.1232 38.8392 15.7559ZM35.3131 16.774C36.0912 16.774 36.7989 16.4926 37.4362 15.9297C38.0818 15.3586 38.5536 14.5971 38.8516 13.6452V12.7389C38.8516 10.9593 38.5371 9.55629 37.908 8.52992C37.2872 7.49527 36.4512 6.97794 35.4 6.97794C34.4481 6.97794 33.6659 7.44974 33.0534 8.39334C32.4409 9.33694 32.1347 10.5247 32.1347 11.9567C32.1347 13.339 32.4285 14.4895 33.0162 15.4083C33.6039 16.3188 34.3695 16.774 35.3131 16.774Z" fill="black"/>
</svg>
