<svg width="45" height="190" viewBox="0 0 45 190" fill="none" xmlns="http://www.w3.org/2000/svg">
<line x1="24" y1="74" x2="24" y2="190" stroke="#9B9393" stroke-width="2" stroke-dasharray="15 15"/>
<circle cx="22.5" cy="52.5" r="22" stroke="#9B9393"/>
<path d="M8.80537 15.0855L6.7071 17.519V24H5.2917V5.9226H6.7071V15.5573L8.69363 13.0741L14.2932 5.9226H16.0686L9.76139 13.968L16.5528 24H14.827L8.80537 15.0855ZM26.4731 15.7559C26.0426 16.4843 25.5005 17.0554 24.8466 17.4693C24.1927 17.8749 23.4974 18.0777 22.7607 18.0777C21.4695 18.0777 20.4224 17.5107 19.6195 16.3767C18.8166 15.2427 18.4152 13.7901 18.4152 12.0188C18.4152 10.1812 18.8332 8.66649 19.6692 7.47457C20.5135 6.27438 21.6309 5.67428 23.0215 5.67428C24.5445 5.67428 25.7281 6.30749 26.5724 7.5739C27.4249 8.84031 27.8512 10.6406 27.8512 12.9748V14.3157C27.8512 17.61 27.2759 20.0642 26.1254 21.6782C24.9749 23.284 23.2243 24.0993 20.8735 24.1242H20.5011L20.5135 22.8081H20.9108C22.6987 22.7833 24.0561 22.1956 24.9832 21.045C25.9185 19.8862 26.4151 18.1232 26.4731 15.7559ZM22.947 16.774C23.725 16.774 24.4327 16.4926 25.0701 15.9297C25.7157 15.3586 26.1875 14.5971 26.4855 13.6452V12.7389C26.4855 10.9593 26.1709 9.55629 25.5419 8.52992C24.9211 7.49527 24.0851 6.97794 23.0339 6.97794C22.082 6.97794 21.2998 7.44974 20.6873 8.39334C20.0748 9.33694 19.7685 10.5247 19.7685 11.9567C19.7685 13.339 20.0624 14.4895 20.65 15.4083C21.2377 16.3188 22.0034 16.774 22.947 16.774ZM40.3539 16.4512C40.3539 19.0171 39.9566 20.9581 39.162 22.2742C38.3757 23.5903 37.2127 24.2483 35.6732 24.2483C34.1502 24.2483 32.9872 23.5944 32.1843 22.2866C31.3897 20.9705 30.9841 19.0751 30.9676 16.6002V13.4217C30.9676 10.9055 31.3607 8.98516 32.1471 7.66081C32.9334 6.33646 34.1005 5.67428 35.6483 5.67428C37.1713 5.67428 38.3301 6.31576 39.1248 7.59873C39.9194 8.87342 40.3291 10.7358 40.3539 13.1858V16.4512ZM38.9633 13.2231C38.9633 11.1538 38.6861 9.59354 38.1315 8.54233C37.5852 7.49113 36.7575 6.96552 35.6483 6.96552C34.5806 6.96552 33.7653 7.47043 33.2024 8.48025C32.6478 9.48179 32.3581 10.9758 32.3333 12.9624V16.625C32.3333 18.6447 32.6147 20.209 33.1776 21.3182C33.7487 22.4191 34.5806 22.9695 35.6732 22.9695C36.7326 22.9695 37.5397 22.448 38.0942 21.4051C38.6571 20.3539 38.9468 18.8143 38.9633 16.7864V13.2231Z" fill="black"/>
</svg>
