<svg width="45" height="190" viewBox="0 0 45 190" fill="none" xmlns="http://www.w3.org/2000/svg">
<line x1="24" y1="74" x2="24" y2="190" stroke="#9B9393" stroke-width="2" stroke-dasharray="15 15"/>
<circle cx="22.5" cy="52.5" r="22" stroke="#9B9393"/>
<path d="M8.80537 15.0855L6.7071 17.519V24H5.2917V5.9226H6.7071V15.5573L8.69363 13.0741L14.2932 5.9226H16.0686L9.76139 13.968L16.5528 24H14.827L8.80537 15.0855ZM26.4731 15.7559C26.0426 16.4843 25.5005 17.0554 24.8466 17.4693C24.1927 17.8749 23.4974 18.0777 22.7607 18.0777C21.4695 18.0777 20.4224 17.5107 19.6195 16.3767C18.8166 15.2427 18.4152 13.7901 18.4152 12.0188C18.4152 10.1812 18.8332 8.66649 19.6692 7.47457C20.5135 6.27438 21.6309 5.67428 23.0215 5.67428C24.5445 5.67428 25.7281 6.30749 26.5724 7.5739C27.4249 8.84031 27.8512 10.6406 27.8512 12.9748V14.3157C27.8512 17.61 27.2759 20.0642 26.1254 21.6782C24.9749 23.284 23.2243 24.0993 20.8735 24.1242H20.5011L20.5135 22.8081H20.9108C22.6987 22.7833 24.0561 22.1956 24.9832 21.045C25.9185 19.8862 26.4151 18.1232 26.4731 15.7559ZM22.947 16.774C23.725 16.774 24.4327 16.4926 25.0701 15.9297C25.7157 15.3586 26.1875 14.5971 26.4855 13.6452V12.7389C26.4855 10.9593 26.1709 9.55629 25.5419 8.52992C24.9211 7.49527 24.0851 6.97794 23.0339 6.97794C22.082 6.97794 21.2998 7.44974 20.6873 8.39334C20.0748 9.33694 19.7685 10.5247 19.7685 11.9567C19.7685 13.339 20.0624 14.4895 20.65 15.4083C21.2377 16.3188 22.0034 16.774 22.947 16.774ZM40.714 24H31.129V22.8329L36.2691 15.8925C37.1299 14.7088 37.73 13.728 38.0694 12.9499C38.4088 12.1719 38.5785 11.4104 38.5785 10.6654C38.5785 9.53146 38.3053 8.63338 37.759 7.9712C37.221 7.30075 36.4719 6.96552 35.5118 6.96552C34.4937 6.96552 33.6825 7.35455 33.0783 8.13261C32.474 8.90239 32.1719 9.90393 32.1719 11.1372H30.7938C30.7938 9.56457 31.2283 8.26091 32.0974 7.22626C32.9665 6.19161 34.1046 5.67428 35.5118 5.67428C36.8858 5.67428 37.9742 6.1047 38.7771 6.96552C39.58 7.81808 39.9814 9.00585 39.9814 10.5289C39.9814 11.9774 39.3275 13.6701 38.0197 15.6069L37.2251 16.7492L32.8051 22.7212H40.714V24Z" fill="black"/>
</svg>
