<svg width="45" height="190" viewBox="0 0 45 190" fill="none" xmlns="http://www.w3.org/2000/svg">
<line x1="24" y1="74" x2="24" y2="190" stroke="#9B9393" stroke-width="2" stroke-dasharray="15 15"/>
<circle cx="22.5" cy="52.5" r="22" stroke="#9B9393"/>
<path d="M8.80537 15.0855L6.7071 17.519V24H5.2917V5.9226H6.7071V15.5573L8.69363 13.0741L14.2932 5.9226H16.0686L9.76139 13.968L16.5528 24H14.827L8.80537 15.0855ZM26.4731 15.7559C26.0426 16.4843 25.5005 17.0554 24.8466 17.4693C24.1927 17.8749 23.4974 18.0777 22.7607 18.0777C21.4695 18.0777 20.4224 17.5107 19.6195 16.3767C18.8166 15.2427 18.4152 13.7901 18.4152 12.0188C18.4152 10.1812 18.8332 8.66649 19.6692 7.47457C20.5135 6.27438 21.6309 5.67428 23.0215 5.67428C24.5445 5.67428 25.7281 6.30749 26.5724 7.5739C27.4249 8.84031 27.8512 10.6406 27.8512 12.9748V14.3157C27.8512 17.61 27.2759 20.0642 26.1254 21.6782C24.9749 23.284 23.2243 24.0993 20.8735 24.1242H20.5011L20.5135 22.8081H20.9108C22.6987 22.7833 24.0561 22.1956 24.9832 21.045C25.9185 19.8862 26.4151 18.1232 26.4731 15.7559ZM22.947 16.774C23.725 16.774 24.4327 16.4926 25.0701 15.9297C25.7157 15.3586 26.1875 14.5971 26.4855 13.6452V12.7389C26.4855 10.9593 26.1709 9.55629 25.5419 8.52992C24.9211 7.49527 24.0851 6.97794 23.0339 6.97794C22.082 6.97794 21.2998 7.44974 20.6873 8.39334C20.0748 9.33694 19.7685 10.5247 19.7685 11.9567C19.7685 13.339 20.0624 14.4895 20.65 15.4083C21.2377 16.3188 22.0034 16.774 22.947 16.774ZM33.8977 14.1419H35.251C36.2608 14.1336 37.0761 13.8149 37.6969 13.1858C38.326 12.5485 38.6405 11.7001 38.6405 10.6406C38.6405 9.47352 38.3715 8.5713 37.8335 7.93396C37.2955 7.28834 36.534 6.96552 35.549 6.96552C34.5888 6.96552 33.8108 7.30903 33.2148 7.99604C32.6272 8.67477 32.3333 9.56457 32.3333 10.6654H30.9552C30.9552 9.72183 31.1455 8.87342 31.5263 8.12019C31.9153 7.35869 32.4657 6.76273 33.1776 6.33232C33.8894 5.89363 34.6799 5.67428 35.549 5.67428C36.9065 5.67428 37.9908 6.11711 38.8019 7.00277C39.6131 7.88016 40.0187 9.10932 40.0187 10.6903C40.0187 11.5842 39.7828 12.3954 39.311 13.1238C38.8475 13.8522 38.2225 14.3902 37.4362 14.7378C38.3467 15.0358 39.0503 15.5614 39.5469 16.3146C40.0435 17.0596 40.2918 17.9825 40.2918 19.0833C40.2918 20.656 39.8614 21.91 39.0006 22.8453C38.1398 23.7807 37.0017 24.2483 35.5863 24.2483C34.684 24.2483 33.8563 24.0372 33.1031 23.6151C32.3499 23.1847 31.7663 22.5846 31.3525 21.8148C30.9469 21.045 30.7441 20.1428 30.7441 19.1082H32.1222C32.1222 20.2339 32.4409 21.1609 33.0783 21.8893C33.7239 22.6094 34.5599 22.9695 35.5863 22.9695C36.6375 22.9695 37.4528 22.6425 38.0322 21.9886C38.6198 21.3265 38.9137 20.3746 38.9137 19.133C38.9137 17.9411 38.5992 17.0306 37.9701 16.4015C37.3493 15.7642 36.4388 15.4414 35.2386 15.4331H33.8977V14.1419Z" fill="black"/>
</svg>
