<svg width="45" height="190" viewBox="0 0 45 190" fill="none" xmlns="http://www.w3.org/2000/svg">
<line x1="24" y1="74" x2="24" y2="190" stroke="#9B9393" stroke-width="2" stroke-dasharray="15 15"/>
<circle cx="22.5" cy="52.5" r="22" stroke="#9B9393"/>
<path d="M8.80537 15.0855L6.7071 17.519V24H5.2917V5.9226H6.7071V15.5573L8.69363 13.0741L14.2932 5.9226H16.0686L9.76139 13.968L16.5528 24H14.827L8.80537 15.0855ZM26.4731 15.7559C26.0426 16.4843 25.5005 17.0554 24.8466 17.4693C24.1927 17.8749 23.4974 18.0777 22.7607 18.0777C21.4695 18.0777 20.4224 17.5107 19.6195 16.3767C18.8166 15.2427 18.4152 13.7901 18.4152 12.0188C18.4152 10.1812 18.8332 8.66649 19.6692 7.47457C20.5135 6.27438 21.6309 5.67428 23.0215 5.67428C24.5445 5.67428 25.7281 6.30749 26.5724 7.5739C27.4249 8.84031 27.8512 10.6406 27.8512 12.9748V14.3157C27.8512 17.61 27.2759 20.0642 26.1254 21.6782C24.9749 23.284 23.2243 24.0993 20.8735 24.1242H20.5011L20.5135 22.8081H20.9108C22.6987 22.7833 24.0561 22.1956 24.9832 21.045C25.9185 19.8862 26.4151 18.1232 26.4731 15.7559ZM22.947 16.774C23.725 16.774 24.4327 16.4926 25.0701 15.9297C25.7157 15.3586 26.1875 14.5971 26.4855 13.6452V12.7389C26.4855 10.9593 26.1709 9.55629 25.5419 8.52992C24.9211 7.49527 24.0851 6.97794 23.0339 6.97794C22.082 6.97794 21.2998 7.44974 20.6873 8.39334C20.0748 9.33694 19.7685 10.5247 19.7685 11.9567C19.7685 13.339 20.0624 14.4895 20.65 15.4083C21.2377 16.3188 22.0034 16.774 22.947 16.774ZM31.9733 14.7378L32.7182 5.9226H40.3539V7.338H33.8977L33.3887 13.3969C34.1998 12.7347 35.131 12.4036 36.1822 12.4036C37.5645 12.4036 38.6571 12.9375 39.46 14.0053C40.2711 15.0648 40.6767 16.476 40.6767 18.2391C40.6767 20.1263 40.2794 21.5996 39.4848 22.6591C38.6902 23.7186 37.5604 24.2483 36.0953 24.2483C34.7627 24.2483 33.6825 23.8055 32.8548 22.9198C32.0271 22.0259 31.5594 20.8009 31.4518 19.2447H32.7679C32.8837 20.4615 33.2272 21.3885 33.7984 22.0259C34.3695 22.655 35.1351 22.9695 36.0953 22.9695C37.1465 22.9695 37.9411 22.5598 38.4791 21.7403C39.0254 20.9209 39.2986 19.7621 39.2986 18.2639C39.2986 16.9313 38.9923 15.8552 38.3798 15.0358C37.7756 14.2081 36.9561 13.7942 35.9215 13.7942C35.3255 13.7942 34.8123 13.8894 34.3819 14.0798C33.9515 14.2619 33.5128 14.5971 33.0658 15.0855L31.9733 14.7378Z" fill="black"/>
</svg>
