<svg width="45" height="190" viewBox="0 0 45 190" fill="none" xmlns="http://www.w3.org/2000/svg">
<line x1="24" y1="74" x2="24" y2="190" stroke="#9B9393" stroke-width="2" stroke-dasharray="15 15"/>
<circle cx="22.5" cy="52.5" r="22" stroke="#9B9393"/>
<path d="M8.80537 15.0855L6.7071 17.519V24H5.2917V5.9226H6.7071V15.5573L8.69363 13.0741L14.2932 5.9226H16.0686L9.76139 13.968L16.5528 24H14.827L8.80537 15.0855ZM26.4731 15.7559C26.0426 16.4843 25.5005 17.0554 24.8466 17.4693C24.1927 17.8749 23.4974 18.0777 22.7607 18.0777C21.4695 18.0777 20.4224 17.5107 19.6195 16.3767C18.8166 15.2427 18.4152 13.7901 18.4152 12.0188C18.4152 10.1812 18.8332 8.66649 19.6692 7.47457C20.5135 6.27438 21.6309 5.67428 23.0215 5.67428C24.5445 5.67428 25.7281 6.30749 26.5724 7.5739C27.4249 8.84031 27.8512 10.6406 27.8512 12.9748V14.3157C27.8512 17.61 27.2759 20.0642 26.1254 21.6782C24.9749 23.284 23.2243 24.0993 20.8735 24.1242H20.5011L20.5135 22.8081H20.9108C22.6987 22.7833 24.0561 22.1956 24.9832 21.045C25.9185 19.8862 26.4151 18.1232 26.4731 15.7559ZM22.947 16.774C23.725 16.774 24.4327 16.4926 25.0701 15.9297C25.7157 15.3586 26.1875 14.5971 26.4855 13.6452V12.7389C26.4855 10.9593 26.1709 9.55629 25.5419 8.52992C24.9211 7.49527 24.0851 6.97794 23.0339 6.97794C22.082 6.97794 21.2998 7.44974 20.6873 8.39334C20.0748 9.33694 19.7685 10.5247 19.7685 11.9567C19.7685 13.339 20.0624 14.4895 20.65 15.4083C21.2377 16.3188 22.0034 16.774 22.947 16.774ZM38.5288 5.79844V7.12693H38.3177C36.563 7.13521 35.1807 7.756 34.1709 8.9893C33.1693 10.2226 32.6106 11.965 32.4947 14.2164C32.9169 13.5459 33.4425 13.0327 34.0715 12.6768C34.7006 12.3126 35.3959 12.1305 36.1574 12.1305C37.49 12.1305 38.5495 12.6809 39.3358 13.7818C40.1304 14.8744 40.5277 16.3063 40.5277 18.0777C40.5277 19.9235 40.1097 21.4134 39.2737 22.5474C38.4377 23.6813 37.3452 24.2483 35.996 24.2483C34.5475 24.2483 33.368 23.6275 32.4575 22.3859C31.547 21.1444 31.0917 19.5138 31.0917 17.4941V16.0291C31.0917 12.7099 31.7042 10.1854 32.9293 8.45542C34.1543 6.71721 35.9132 5.83155 38.206 5.79844H38.5288ZM35.9339 13.4342C35.1558 13.4342 34.4357 13.7156 33.7735 14.2784C33.1196 14.833 32.6851 15.52 32.4699 16.3395V17.6307C32.4699 19.2034 32.801 20.4863 33.4631 21.4796C34.1253 22.4646 34.9696 22.9571 35.996 22.9571C36.9396 22.9571 37.7052 22.506 38.2929 21.6038C38.8806 20.7015 39.1744 19.5469 39.1744 18.1397C39.1744 16.7243 38.8806 15.5862 38.2929 14.7254C37.7135 13.8646 36.9272 13.4342 35.9339 13.4342Z" fill="black"/>
</svg>
