<svg width="113" height="56" viewBox="0 0 113 56" fill="none" xmlns="http://www.w3.org/2000/svg">
<path d="M4.05859 22H2.72266V4.9375H4.05859V22ZM18.5664 16.6797C18.4414 18.5938 17.9258 20 17.0195 20.8984C16.1133 21.7891 14.8594 22.2344 13.2578 22.2344C11.6094 22.2344 10.3086 21.6133 9.35547 20.3711C8.40234 19.1211 7.92188 17.4258 7.91406 15.2852V11.582C7.91406 9.43359 8.39844 7.75 9.36719 6.53125C10.3438 5.3125 11.6758 4.70312 13.3633 4.70312C14.957 4.70312 16.1914 5.16016 17.0664 6.07422C17.9414 6.98828 18.4414 8.39062 18.5664 10.2812H17.207C17.082 8.73438 16.7148 7.62891 16.1055 6.96484C15.5039 6.30078 14.5898 5.96875 13.3633 5.96875C12.0742 5.96875 11.0703 6.44922 10.3516 7.41016C9.63281 8.37109 9.27344 9.76562 9.27344 11.5938V15.25C9.27344 17.0625 9.62109 18.4727 10.3164 19.4805C11.0117 20.4883 11.9922 20.9922 13.2578 20.9922C14.5859 20.9922 15.5469 20.6602 16.1406 19.9961C16.7344 19.332 17.0898 18.2266 17.207 16.6797H18.5664ZM35.3125 17.8047C35.3125 16.8516 35.0391 16.1016 34.4922 15.5547C33.9531 15.0078 32.9414 14.4844 31.457 13.9844C29.9727 13.4844 28.8828 12.9258 28.1875 12.3086C27.2734 11.5039 26.8164 10.4414 26.8164 9.12109C26.8164 7.81641 27.2656 6.75391 28.1641 5.93359C29.0625 5.11328 30.2227 4.70312 31.6445 4.70312C33.0977 4.70312 34.2852 5.17969 35.207 6.13281C36.1289 7.08594 36.5898 8.3125 36.5898 9.8125H35.2422C35.2422 8.66406 34.918 7.73828 34.2695 7.03516C33.6289 6.32422 32.7539 5.96875 31.6445 5.96875C30.5664 5.96875 29.7148 6.26172 29.0898 6.84766C28.4727 7.42578 28.1641 8.17578 28.1641 9.09766C28.1641 9.95703 28.457 10.6602 29.043 11.207C29.6289 11.7539 30.5625 12.2422 31.8438 12.6719C33.125 13.0938 34.0938 13.5352 34.75 13.9961C35.4062 14.4492 35.8906 14.9844 36.2031 15.6016C36.5156 16.2188 36.6719 16.9453 36.6719 17.7812C36.6719 19.1172 36.2188 20.1953 35.3125 21.0156C34.4141 21.8281 33.2227 22.2344 31.7383 22.2344C30.7383 22.2344 29.8242 22.0312 28.9961 21.625C28.1758 21.2109 27.5312 20.6211 27.0625 19.8555C26.6016 19.082 26.3711 18.1719 26.3711 17.125H27.707C27.707 18.3281 28.0703 19.2734 28.7969 19.9609C29.5234 20.6484 30.5039 20.9922 31.7383 20.9922C32.8164 20.9922 33.6797 20.7031 34.3281 20.125C34.9844 19.5469 35.3125 18.7734 35.3125 17.8047ZM40.8906 22H39.5781V9.32031H40.8906V22ZM39.3906 5.66406C39.3906 5.39844 39.4648 5.17188 39.6133 4.98438C39.7617 4.79688 39.9727 4.70312 40.2461 4.70312C40.5195 4.70312 40.7305 4.79688 40.8789 4.98438C41.0352 5.17188 41.1133 5.39844 41.1133 5.66406C41.1133 5.92969 41.0352 6.15625 40.8789 6.34375C40.7305 6.52344 40.5195 6.61328 40.2461 6.61328C39.9727 6.61328 39.7617 6.52344 39.6133 6.34375C39.4648 6.15625 39.3906 5.92969 39.3906 5.66406ZM44.0312 15.0742C44.0312 13.0664 44.3789 11.5664 45.0742 10.5742C45.7695 9.58203 46.8086 9.08594 48.1914 9.08594C49.6055 9.08594 50.6758 9.71094 51.4023 10.9609L51.4727 9.32031H52.6914V26.875H51.3789V20.5234C50.6367 21.6641 49.5703 22.2344 48.1797 22.2344C46.8281 22.2344 45.8008 21.7383 45.0977 20.7461C44.4023 19.7539 44.0469 18.3008 44.0312 16.3867V15.0742ZM45.3555 16.2578C45.3555 17.8828 45.6016 19.0859 46.0938 19.8672C46.5938 20.6406 47.375 21.0273 48.4375 21.0273C49.7734 21.0273 50.7539 20.4062 51.3789 19.1641V12.332C50.7461 10.9805 49.7695 10.3047 48.4492 10.3047C47.3867 10.3047 46.6055 10.6875 46.1055 11.4531C45.6133 12.2188 45.3633 13.3984 45.3555 14.9922V16.2578ZM63.0625 20.4883C62.3438 21.6523 61.2305 22.2344 59.7227 22.2344C58.5742 22.2344 57.707 21.8359 57.1211 21.0391C56.5352 20.2422 56.2383 19.0703 56.2305 17.5234V9.32031H57.5195V17.4883C57.5195 18.6367 57.7227 19.5078 58.1289 20.1016C58.5352 20.6953 59.1211 20.9922 59.8867 20.9922C61.5273 20.9922 62.5781 20.1953 63.0391 18.6016V9.32031H64.3516V22H63.0859L63.0625 20.4883ZM69.2734 22H67.9609V9.32031H69.2734V22ZM67.7734 5.66406C67.7734 5.39844 67.8477 5.17188 67.9961 4.98438C68.1445 4.79688 68.3555 4.70312 68.6289 4.70312C68.9023 4.70312 69.1133 4.79688 69.2617 4.98438C69.418 5.17188 69.4961 5.39844 69.4961 5.66406C69.4961 5.92969 69.418 6.15625 69.2617 6.34375C69.1133 6.52344 68.9023 6.61328 68.6289 6.61328C68.3555 6.61328 68.1445 6.52344 67.9961 6.34375C67.8477 6.15625 67.7734 5.92969 67.7734 5.66406ZM77.8516 10.5391C77.5391 10.4844 77.2656 10.457 77.0312 10.457C76.3125 10.457 75.707 10.7031 75.2148 11.1953C74.7305 11.6875 74.3867 12.3711 74.1836 13.2461V22H72.8828V9.32031H74.1602L74.1836 11.2188C74.8008 9.79688 75.7695 9.08594 77.0898 9.08594C77.4336 9.08594 77.6953 9.13672 77.875 9.23828L77.8516 10.5391ZM85.1172 10.5391C84.8047 10.4844 84.5312 10.457 84.2969 10.457C83.5781 10.457 82.9727 10.7031 82.4805 11.1953C81.9961 11.6875 81.6523 12.3711 81.4492 13.2461V22H80.1484V9.32031H81.4258L81.4492 11.2188C82.0664 9.79688 83.0352 9.08594 84.3555 9.08594C84.6992 9.08594 84.9609 9.13672 85.1406 9.23828L85.1172 10.5391ZM91.3633 22.2344C89.8711 22.2344 88.7031 21.7461 87.8594 20.7695C87.0156 19.793 86.5859 18.4023 86.5703 16.5977V15.0508C86.5703 13.1914 86.9766 11.7344 87.7891 10.6797C88.6016 9.61719 89.7188 9.08594 91.1406 9.08594C92.5156 9.08594 93.5625 9.53516 94.2812 10.4336C95.0078 11.332 95.3789 12.707 95.3945 14.5586V15.7773H87.8594V16.4922C87.8594 17.9453 88.168 19.0664 88.7852 19.8555C89.4102 20.6445 90.2891 21.0391 91.4219 21.0391C92.6719 21.0391 93.6836 20.582 94.457 19.668L95.1367 20.5352C94.3086 21.668 93.0508 22.2344 91.3633 22.2344ZM91.1406 10.3047C90.1172 10.3047 89.3281 10.668 88.7734 11.3945C88.2266 12.1133 87.9258 13.168 87.8711 14.5586H94.0938V14.2188C94.0312 11.6094 93.0469 10.3047 91.1406 10.3047ZM104.512 18.8828C104.512 18.3359 104.285 17.8594 103.832 17.4531C103.379 17.0391 102.609 16.5898 101.523 16.1055C100.445 15.6133 99.6914 15.207 99.2617 14.8867C98.832 14.5586 98.5156 14.2031 98.3125 13.8203C98.1094 13.4375 98.0078 12.9844 98.0078 12.4609C98.0078 11.4844 98.3594 10.6797 99.0625 10.0469C99.7656 9.40625 100.676 9.08594 101.793 9.08594C102.996 9.08594 103.957 9.42578 104.676 10.1055C105.395 10.7852 105.754 11.6836 105.754 12.8008H104.453C104.453 12.082 104.207 11.4883 103.715 11.0195C103.223 10.543 102.582 10.3047 101.793 10.3047C101.027 10.3047 100.418 10.5 99.9648 10.8906C99.5195 11.2812 99.2969 11.7891 99.2969 12.4141C99.2969 12.9219 99.4688 13.3359 99.8125 13.6562C100.156 13.9766 100.898 14.4102 102.039 14.957C103.219 15.4727 104.031 15.8984 104.477 16.2344C104.922 16.5703 105.258 16.9453 105.484 17.3594C105.711 17.7656 105.824 18.25 105.824 18.8125C105.824 19.8594 105.461 20.6914 104.734 21.3086C104.008 21.9258 103.051 22.2344 101.863 22.2344C100.605 22.2344 99.5859 21.8906 98.8047 21.2031C98.0312 20.5156 97.6445 19.6289 97.6445 18.543H98.957C98.9961 19.332 99.2578 19.9453 99.7422 20.3828C100.234 20.8125 100.941 21.0273 101.863 21.0273C102.66 21.0273 103.301 20.832 103.785 20.4414C104.27 20.0508 104.512 19.5312 104.512 18.8828ZM5.59375 41.5859L3.61328 43.8828V50H2.27734V32.9375H3.61328V42.0312L5.48828 39.6875L10.7734 32.9375H12.4492L6.49609 40.5312L12.9062 50H11.2773L5.59375 41.5859ZM22.2695 42.2188C21.8633 42.9062 21.3516 43.4453 20.7344 43.8359C20.1172 44.2188 19.4609 44.4102 18.7656 44.4102C17.5469 44.4102 16.5586 43.875 15.8008 42.8047C15.043 41.7344 14.6641 40.3633 14.6641 38.6914C14.6641 36.957 15.0586 35.5273 15.8477 34.4023C16.6445 33.2695 17.6992 32.7031 19.0117 32.7031C20.4492 32.7031 21.5664 33.3008 22.3633 34.4961C23.168 35.6914 23.5703 37.3906 23.5703 39.5938V40.8594C23.5703 43.9688 23.0273 46.2852 21.9414 47.8086C20.8555 49.3242 19.2031 50.0938 16.9844 50.1172H16.6328L16.6445 48.875H17.0195C18.707 48.8516 19.9883 48.2969 20.8633 47.2109C21.7461 46.1172 22.2148 44.4531 22.2695 42.2188ZM18.9414 43.1797C19.6758 43.1797 20.3438 42.9141 20.9453 42.3828C21.5547 41.8438 22 41.125 22.2812 40.2266V39.3711C22.2812 37.6914 21.9844 36.3672 21.3906 35.3984C20.8047 34.4219 20.0156 33.9336 19.0234 33.9336C18.125 33.9336 17.3867 34.3789 16.8086 35.2695C16.2305 36.1602 15.9414 37.2812 15.9414 38.6328C15.9414 39.9375 16.2188 41.0234 16.7734 41.8906C17.3281 42.75 18.0508 43.1797 18.9414 43.1797ZM33.6484 32.8203V34.0742H33.4492C31.793 34.082 30.4883 34.668 29.5352 35.832C28.5898 36.9961 28.0625 38.6406 27.9531 40.7656C28.3516 40.1328 28.8477 39.6484 29.4414 39.3125C30.0352 38.9688 30.6914 38.7969 31.4102 38.7969C32.668 38.7969 33.668 39.3164 34.4102 40.3555C35.1602 41.3867 35.5352 42.7383 35.5352 44.4102C35.5352 46.1523 35.1406 47.5586 34.3516 48.6289C33.5625 49.6992 32.5312 50.2344 31.2578 50.2344C29.8906 50.2344 28.7773 49.6484 27.918 48.4766C27.0586 47.3047 26.6289 45.7656 26.6289 43.8594V42.4766C26.6289 39.3438 27.207 36.9609 28.3633 35.3281C29.5195 33.6875 31.1797 32.8516 33.3438 32.8203H33.6484ZM31.1992 40.0273C30.4648 40.0273 29.7852 40.293 29.1602 40.8242C28.543 41.3477 28.1328 41.9961 27.9297 42.7695V43.9883C27.9297 45.4727 28.2422 46.6836 28.8672 47.6211C29.4922 48.5508 30.2891 49.0156 31.2578 49.0156C32.1484 49.0156 32.8711 48.5898 33.4258 47.7383C33.9805 46.8867 34.2578 45.7969 34.2578 44.4688C34.2578 43.1328 33.9805 42.0586 33.4258 41.2461C32.8789 40.4336 32.1367 40.0273 31.1992 40.0273ZM43.293 41.3047H47.582V42.6523H43.293V48.2891H41.9688V42.6523H37.75V41.3047H41.9688V35.8672H43.293V41.3047ZM57.4727 42.2188C57.0664 42.9062 56.5547 43.4453 55.9375 43.8359C55.3203 44.2188 54.6641 44.4102 53.9688 44.4102C52.75 44.4102 51.7617 43.875 51.0039 42.8047C50.2461 41.7344 49.8672 40.3633 49.8672 38.6914C49.8672 36.957 50.2617 35.5273 51.0508 34.4023C51.8477 33.2695 52.9023 32.7031 54.2148 32.7031C55.6523 32.7031 56.7695 33.3008 57.5664 34.4961C58.3711 35.6914 58.7734 37.3906 58.7734 39.5938V40.8594C58.7734 43.9688 58.2305 46.2852 57.1445 47.8086C56.0586 49.3242 54.4062 50.0938 52.1875 50.1172H51.8359L51.8477 48.875H52.2227C53.9102 48.8516 55.1914 48.2969 56.0664 47.2109C56.9492 46.1172 57.418 44.4531 57.4727 42.2188ZM54.1445 43.1797C54.8789 43.1797 55.5469 42.9141 56.1484 42.3828C56.7578 41.8438 57.2031 41.125 57.4844 40.2266V39.3711C57.4844 37.6914 57.1875 36.3672 56.5938 35.3984C56.0078 34.4219 55.2188 33.9336 54.2266 33.9336C53.3281 33.9336 52.5898 34.3789 52.0117 35.2695C51.4336 36.1602 51.1445 37.2812 51.1445 38.6328C51.1445 39.9375 51.4219 41.0234 51.9766 41.8906C52.5312 42.75 53.2539 43.1797 54.1445 43.1797ZM68.8516 32.8203V34.0742H68.6523C66.9961 34.082 65.6914 34.668 64.7383 35.832C63.793 36.9961 63.2656 38.6406 63.1562 40.7656C63.5547 40.1328 64.0508 39.6484 64.6445 39.3125C65.2383 38.9688 65.8945 38.7969 66.6133 38.7969C67.8711 38.7969 68.8711 39.3164 69.6133 40.3555C70.3633 41.3867 70.7383 42.7383 70.7383 44.4102C70.7383 46.1523 70.3438 47.5586 69.5547 48.6289C68.7656 49.6992 67.7344 50.2344 66.4609 50.2344C65.0938 50.2344 63.9805 49.6484 63.1211 48.4766C62.2617 47.3047 61.832 45.7656 61.832 43.8594V42.4766C61.832 39.3438 62.4102 36.9609 63.5664 35.3281C64.7227 33.6875 66.3828 32.8516 68.5469 32.8203H68.8516ZM66.4023 40.0273C65.668 40.0273 64.9883 40.293 64.3633 40.8242C63.7461 41.3477 63.3359 41.9961 63.1328 42.7695V43.9883C63.1328 45.4727 63.4453 46.6836 64.0703 47.6211C64.6953 48.5508 65.4922 49.0156 66.4609 49.0156C67.3516 49.0156 68.0742 48.5898 68.6289 47.7383C69.1836 46.8867 69.4609 45.7969 69.4609 44.4688C69.4609 43.1328 69.1836 42.0586 68.6289 41.2461C68.082 40.4336 67.3398 40.0273 66.4023 40.0273ZM82.5859 50H73.5391V48.8984L78.3906 42.3477C79.2031 41.2305 79.7695 40.3047 80.0898 39.5703C80.4102 38.8359 80.5703 38.1172 80.5703 37.4141C80.5703 36.3438 80.3125 35.4961 79.7969 34.8711C79.2891 34.2383 78.582 33.9219 77.6758 33.9219C76.7148 33.9219 75.9492 34.2891 75.3789 35.0234C74.8086 35.75 74.5234 36.6953 74.5234 37.8594H73.2227C73.2227 36.375 73.6328 35.1445 74.4531 34.168C75.2734 33.1914 76.3477 32.7031 77.6758 32.7031C78.9727 32.7031 80 33.1094 80.7578 33.9219C81.5156 34.7266 81.8945 35.8477 81.8945 37.2852C81.8945 38.6523 81.2773 40.25 80.043 42.0781L79.293 43.1562L75.1211 48.793H82.5859V50ZM85.3516 49.1445C85.3516 48.8633 85.4375 48.6289 85.6094 48.4414C85.7891 48.2461 86.0352 48.1484 86.3477 48.1484C86.6602 48.1484 86.9062 48.2461 87.0859 48.4414C87.2656 48.6289 87.3555 48.8633 87.3555 49.1445C87.3555 49.418 87.2656 49.6445 87.0859 49.8242C86.9062 50.0039 86.6602 50.0938 86.3477 50.0938C86.0352 50.0938 85.7891 50.0039 85.6094 49.8242C85.4375 49.6445 85.3516 49.418 85.3516 49.1445ZM98.2305 42.2188C97.8242 42.9062 97.3125 43.4453 96.6953 43.8359C96.0781 44.2188 95.4219 44.4102 94.7266 44.4102C93.5078 44.4102 92.5195 43.875 91.7617 42.8047C91.0039 41.7344 90.625 40.3633 90.625 38.6914C90.625 36.957 91.0195 35.5273 91.8086 34.4023C92.6055 33.2695 93.6602 32.7031 94.9727 32.7031C96.4102 32.7031 97.5273 33.3008 98.3242 34.4961C99.1289 35.6914 99.5312 37.3906 99.5312 39.5938V40.8594C99.5312 43.9688 98.9883 46.2852 97.9023 47.8086C96.8164 49.3242 95.1641 50.0938 92.9453 50.1172H92.5938L92.6055 48.875H92.9805C94.668 48.8516 95.9492 48.2969 96.8242 47.2109C97.707 46.1172 98.1758 44.4531 98.2305 42.2188ZM94.9023 43.1797C95.6367 43.1797 96.3047 42.9141 96.9062 42.3828C97.5156 41.8438 97.9609 41.125 98.2422 40.2266V39.3711C98.2422 37.6914 97.9453 36.3672 97.3516 35.3984C96.7656 34.4219 95.9766 33.9336 94.9844 33.9336C94.0859 33.9336 93.3477 34.3789 92.7695 35.2695C92.1914 36.1602 91.9023 37.2812 91.9023 38.6328C91.9023 39.9375 92.1797 41.0234 92.7344 41.8906C93.2891 42.75 94.0117 43.1797 94.9023 43.1797ZM111.109 37.332C111.109 38.1914 110.898 38.9727 110.477 39.6758C110.062 40.3711 109.496 40.8945 108.777 41.2461C109.621 41.6055 110.281 42.1602 110.758 42.9102C111.242 43.6602 111.484 44.5156 111.484 45.4766C111.484 46.9141 111.066 48.0664 110.23 48.9336C109.402 49.8008 108.301 50.2344 106.926 50.2344C105.535 50.2344 104.426 49.8047 103.598 48.9453C102.77 48.0781 102.355 46.9219 102.355 45.4766C102.355 44.5 102.59 43.6406 103.059 42.8984C103.535 42.1562 104.188 41.6055 105.016 41.2461C104.297 40.8945 103.73 40.375 103.316 39.6875C102.91 38.9922 102.707 38.207 102.707 37.332C102.707 35.918 103.09 34.793 103.855 33.957C104.621 33.1211 105.637 32.7031 106.902 32.7031C108.176 32.7031 109.195 33.125 109.961 33.9688C110.727 34.8125 111.109 35.9336 111.109 37.332ZM110.172 45.4766C110.172 44.4141 109.863 43.5469 109.246 42.875C108.629 42.1953 107.848 41.8555 106.902 41.8555C105.957 41.8555 105.176 42.1875 104.559 42.8516C103.949 43.5156 103.645 44.3906 103.645 45.4766C103.645 46.5625 103.938 47.4258 104.523 48.0664C105.117 48.707 105.918 49.0273 106.926 49.0273C107.91 49.0273 108.695 48.707 109.281 48.0664C109.875 47.4258 110.172 46.5625 110.172 45.4766ZM109.809 37.3203C109.809 36.3438 109.531 35.5352 108.977 34.8945C108.43 34.2461 107.738 33.9219 106.902 33.9219C106.035 33.9219 105.336 34.2344 104.805 34.8594C104.281 35.4844 104.02 36.3047 104.02 37.3203C104.02 38.3438 104.289 39.1523 104.828 39.7461C105.375 40.3398 106.07 40.6367 106.914 40.6367C107.758 40.6367 108.449 40.3359 108.988 39.7344C109.535 39.125 109.809 38.3203 109.809 37.3203Z" fill="black"/>
</svg>
