<svg width="123" height="51" viewBox="0 0 123 51" fill="none" xmlns="http://www.w3.org/2000/svg">
<path d="M14.4844 22H13.1484V4.9375H14.4844V22ZM28.9922 16.6797C28.8672 18.5938 28.3516 20 27.4453 20.8984C26.5391 21.7891 25.2852 22.2344 23.6836 22.2344C22.0352 22.2344 20.7344 21.6133 19.7812 20.3711C18.8281 19.1211 18.3477 17.4258 18.3398 15.2852V11.582C18.3398 9.43359 18.8242 7.75 19.793 6.53125C20.7695 5.3125 22.1016 4.70312 23.7891 4.70312C25.3828 4.70312 26.6172 5.16016 27.4922 6.07422C28.3672 6.98828 28.8672 8.39062 28.9922 10.2812H27.6328C27.5078 8.73438 27.1406 7.62891 26.5312 6.96484C25.9297 6.30078 25.0156 5.96875 23.7891 5.96875C22.5 5.96875 21.4961 6.44922 20.7773 7.41016C20.0586 8.37109 19.6992 9.76562 19.6992 11.5938V15.25C19.6992 17.0625 20.0469 18.4727 20.7422 19.4805C21.4375 20.4883 22.418 20.9922 23.6836 20.9922C25.0117 20.9922 25.9727 20.6602 26.5664 19.9961C27.1602 19.332 27.5156 18.2266 27.6328 16.6797H28.9922ZM43.0312 14.8984H39.0469V22H37.6992V4.9375H42.375C43.9297 4.9375 45.1328 5.38281 45.9844 6.27344C46.8438 7.15625 47.2734 8.38672 47.2734 9.96484C47.2734 11.0664 47.0078 12.0352 46.4766 12.8711C45.9453 13.6992 45.2305 14.2734 44.332 14.5938L47.8828 21.8477V22H46.4531L43.0312 14.8984ZM39.0469 13.6562H42.6094C43.6172 13.6562 44.4219 13.3125 45.0234 12.625C45.625 11.9297 45.9258 11.043 45.9258 9.96484C45.9258 8.76953 45.6133 7.84375 44.9883 7.1875C44.3633 6.53125 43.4883 6.20312 42.3633 6.20312H39.0469V13.6562ZM52.0898 22H50.7773V9.32031H52.0898V22ZM50.5898 5.66406C50.5898 5.39844 50.6641 5.17188 50.8125 4.98438C50.9609 4.79688 51.1719 4.70312 51.4453 4.70312C51.7188 4.70312 51.9297 4.79688 52.0781 4.98438C52.2344 5.17188 52.3125 5.39844 52.3125 5.66406C52.3125 5.92969 52.2344 6.15625 52.0781 6.34375C51.9297 6.52344 51.7188 6.61328 51.4453 6.61328C51.1719 6.61328 50.9609 6.52344 50.8125 6.34375C50.6641 6.15625 50.5898 5.92969 50.5898 5.66406ZM55.207 15.0156C55.207 13.1875 55.6211 11.7422 56.4492 10.6797C57.2773 9.61719 58.4062 9.08594 59.8359 9.08594C61.2734 9.08594 62.4023 9.60938 63.2227 10.6562C64.0508 11.7031 64.4688 13.1445 64.4766 14.9805V16.3281C64.4766 18.1875 64.0586 19.6367 63.2227 20.6758C62.3945 21.7148 61.2734 22.2344 59.8594 22.2344C58.4453 22.2344 57.3242 21.7266 56.4961 20.7109C55.668 19.6953 55.2383 18.2969 55.207 16.5156V15.0156ZM56.5195 16.3281C56.5195 17.7891 56.8125 18.9375 57.3984 19.7734C57.9922 20.6094 58.8125 21.0273 59.8594 21.0273C60.9297 21.0273 61.7461 20.625 62.3086 19.8203C62.8789 19.0156 63.168 17.8633 63.1758 16.3633V15.0156C63.1758 13.5547 62.8789 12.4062 62.2852 11.5703C61.6914 10.7266 60.875 10.3047 59.8359 10.3047C58.8281 10.3047 58.0273 10.7148 57.4336 11.5352C56.8398 12.3555 56.5352 13.4844 56.5195 14.9219V16.3281ZM81.0586 14.0547H74.4961V22H73.1602V4.9375H82.043V6.20312H74.4961V12.7891H81.0586V14.0547ZM89.3086 10.5391C88.9961 10.4844 88.7227 10.457 88.4883 10.457C87.7695 10.457 87.1641 10.7031 86.6719 11.1953C86.1875 11.6875 85.8438 12.3711 85.6406 13.2461V22H84.3398V9.32031H85.6172L85.6406 11.2188C86.2578 9.79688 87.2266 9.08594 88.5469 9.08594C88.8906 9.08594 89.1523 9.13672 89.332 9.23828L89.3086 10.5391ZM93.0352 22H91.7344V9.32031H93.0352V22ZM93.8203 4.14062H95.5195L92.8125 7.43359H91.582L93.8203 4.14062ZM96.1758 15.0156C96.1758 13.1875 96.5898 11.7422 97.418 10.6797C98.2461 9.61719 99.375 9.08594 100.805 9.08594C102.242 9.08594 103.371 9.60938 104.191 10.6562C105.02 11.7031 105.438 13.1445 105.445 14.9805V16.3281C105.445 18.1875 105.027 19.6367 104.191 20.6758C103.363 21.7148 102.242 22.2344 100.828 22.2344C99.4141 22.2344 98.293 21.7266 97.4648 20.7109C96.6367 19.6953 96.207 18.2969 96.1758 16.5156V15.0156ZM97.4883 16.3281C97.4883 17.7891 97.7812 18.9375 98.3672 19.7734C98.9609 20.6094 99.7812 21.0273 100.828 21.0273C101.898 21.0273 102.715 20.625 103.277 19.8203C103.848 19.0156 104.137 17.8633 104.145 16.3633V15.0156C104.145 13.5547 103.848 12.4062 103.254 11.5703C102.66 10.7266 101.844 10.3047 100.805 10.3047C99.7969 10.3047 98.9961 10.7148 98.4023 11.5352C97.8086 12.3555 97.5039 13.4844 97.4883 14.9219V16.3281ZM10.5938 41.5859L8.61328 43.8828V50H7.27734V32.9375H8.61328V42.0312L10.4883 39.6875L15.7734 32.9375H17.4492L11.4961 40.5312L17.9062 50H16.2773L10.5938 41.5859ZM27.3047 44.4922H29.4961V45.7109H27.3047V50H26.0039V45.7109H19.3008V44.8789L25.8984 32.9375H27.3047V44.4922ZM20.8594 44.4922H26.0039V34.9062L25.5352 35.8555L20.8594 44.4922ZM38.9414 42.2188C38.5352 42.9062 38.0234 43.4453 37.4062 43.8359C36.7891 44.2188 36.1328 44.4102 35.4375 44.4102C34.2188 44.4102 33.2305 43.875 32.4727 42.8047C31.7148 41.7344 31.3359 40.3633 31.3359 38.6914C31.3359 36.957 31.7305 35.5273 32.5195 34.4023C33.3164 33.2695 34.3711 32.7031 35.6836 32.7031C37.1211 32.7031 38.2383 33.3008 39.0352 34.4961C39.8398 35.6914 40.2422 37.3906 40.2422 39.5938V40.8594C40.2422 43.9688 39.6992 46.2852 38.6133 47.8086C37.5273 49.3242 35.875 50.0938 33.6562 50.1172H33.3047L33.3164 48.875H33.6914C35.3789 48.8516 36.6602 48.2969 37.5352 47.2109C38.418 46.1172 38.8867 44.4531 38.9414 42.2188ZM35.6133 43.1797C36.3477 43.1797 37.0156 42.9141 37.6172 42.3828C38.2266 41.8438 38.6719 41.125 38.9531 40.2266V39.3711C38.9531 37.6914 38.6562 36.3672 38.0625 35.3984C37.4766 34.4219 36.6875 33.9336 35.6953 33.9336C34.7969 33.9336 34.0586 34.3789 33.4805 35.2695C32.9023 36.1602 32.6133 37.2812 32.6133 38.6328C32.6133 39.9375 32.8906 41.0234 33.4453 41.8906C34 42.75 34.7227 43.1797 35.6133 43.1797ZM48.293 41.3047H52.582V42.6523H48.293V48.2891H46.9688V42.6523H42.75V41.3047H46.9688V35.8672H48.293V41.3047ZM62.1797 32.8203V34.0742H61.9805C60.3242 34.082 59.0195 34.668 58.0664 35.832C57.1211 36.9961 56.5938 38.6406 56.4844 40.7656C56.8828 40.1328 57.3789 39.6484 57.9727 39.3125C58.5664 38.9688 59.2227 38.7969 59.9414 38.7969C61.1992 38.7969 62.1992 39.3164 62.9414 40.3555C63.6914 41.3867 64.0664 42.7383 64.0664 44.4102C64.0664 46.1523 63.6719 47.5586 62.8828 48.6289C62.0938 49.6992 61.0625 50.2344 59.7891 50.2344C58.4219 50.2344 57.3086 49.6484 56.4492 48.4766C55.5898 47.3047 55.1602 45.7656 55.1602 43.8594V42.4766C55.1602 39.3438 55.7383 36.9609 56.8945 35.3281C58.0508 33.6875 59.7109 32.8516 61.875 32.8203H62.1797ZM59.7305 40.0273C58.9961 40.0273 58.3164 40.293 57.6914 40.8242C57.0742 41.3477 56.6641 41.9961 56.4609 42.7695V43.9883C56.4609 45.4727 56.7734 46.6836 57.3984 47.6211C58.0234 48.5508 58.8203 49.0156 59.7891 49.0156C60.6797 49.0156 61.4023 48.5898 61.957 47.7383C62.5117 46.8867 62.7891 45.7969 62.7891 44.4688C62.7891 43.1328 62.5117 42.0586 61.957 41.2461C61.4102 40.4336 60.668 40.0273 59.7305 40.0273ZM75.9141 50H66.8672V48.8984L71.7188 42.3477C72.5312 41.2305 73.0977 40.3047 73.418 39.5703C73.7383 38.8359 73.8984 38.1172 73.8984 37.4141C73.8984 36.3438 73.6406 35.4961 73.125 34.8711C72.6172 34.2383 71.9102 33.9219 71.0039 33.9219C70.043 33.9219 69.2773 34.2891 68.707 35.0234C68.1367 35.75 67.8516 36.6953 67.8516 37.8594H66.5508C66.5508 36.375 66.9609 35.1445 67.7812 34.168C68.6016 33.1914 69.6758 32.7031 71.0039 32.7031C72.3008 32.7031 73.3281 33.1094 74.0859 33.9219C74.8438 34.7266 75.2227 35.8477 75.2227 37.2852C75.2227 38.6523 74.6055 40.25 73.3711 42.0781L72.6211 43.1562L68.4492 48.793H75.9141V50ZM87.5859 50H78.5391V48.8984L83.3906 42.3477C84.2031 41.2305 84.7695 40.3047 85.0898 39.5703C85.4102 38.8359 85.5703 38.1172 85.5703 37.4141C85.5703 36.3438 85.3125 35.4961 84.7969 34.8711C84.2891 34.2383 83.582 33.9219 82.6758 33.9219C81.7148 33.9219 80.9492 34.2891 80.3789 35.0234C79.8086 35.75 79.5234 36.6953 79.5234 37.8594H78.2227C78.2227 36.375 78.6328 35.1445 79.4531 34.168C80.2734 33.1914 81.3477 32.7031 82.6758 32.7031C83.9727 32.7031 85 33.1094 85.7578 33.9219C86.5156 34.7266 86.8945 35.8477 86.8945 37.2852C86.8945 38.6523 86.2773 40.25 85.043 42.0781L84.293 43.1562L80.1211 48.793H87.5859V50ZM90.3516 49.1445C90.3516 48.8633 90.4375 48.6289 90.6094 48.4414C90.7891 48.2461 91.0352 48.1484 91.3477 48.1484C91.6602 48.1484 91.9062 48.2461 92.0859 48.4414C92.2656 48.6289 92.3555 48.8633 92.3555 49.1445C92.3555 49.418 92.2656 49.6445 92.0859 49.8242C91.9062 50.0039 91.6602 50.0938 91.3477 50.0938C91.0352 50.0938 90.7891 50.0039 90.6094 49.8242C90.4375 49.6445 90.3516 49.418 90.3516 49.1445ZM103.23 42.2188C102.824 42.9062 102.312 43.4453 101.695 43.8359C101.078 44.2188 100.422 44.4102 99.7266 44.4102C98.5078 44.4102 97.5195 43.875 96.7617 42.8047C96.0039 41.7344 95.625 40.3633 95.625 38.6914C95.625 36.957 96.0195 35.5273 96.8086 34.4023C97.6055 33.2695 98.6602 32.7031 99.9727 32.7031C101.41 32.7031 102.527 33.3008 103.324 34.4961C104.129 35.6914 104.531 37.3906 104.531 39.5938V40.8594C104.531 43.9688 103.988 46.2852 102.902 47.8086C101.816 49.3242 100.164 50.0938 97.9453 50.1172H97.5938L97.6055 48.875H97.9805C99.668 48.8516 100.949 48.2969 101.824 47.2109C102.707 46.1172 103.176 44.4531 103.23 42.2188ZM99.9023 43.1797C100.637 43.1797 101.305 42.9141 101.906 42.3828C102.516 41.8438 102.961 41.125 103.242 40.2266V39.3711C103.242 37.6914 102.945 36.3672 102.352 35.3984C101.766 34.4219 100.977 33.9336 99.9844 33.9336C99.0859 33.9336 98.3477 34.3789 97.7695 35.2695C97.1914 36.1602 96.9023 37.2812 96.9023 38.6328C96.9023 39.9375 97.1797 41.0234 97.7344 41.8906C98.2891 42.75 99.0117 43.1797 99.9023 43.1797ZM116.531 33.7578L110.438 50H109.078L115.137 34.1562H107.062V32.9375H116.531V33.7578Z" fill="black"/>
</svg>
