<svg width="125" height="56" viewBox="0 0 125 56" fill="none" xmlns="http://www.w3.org/2000/svg">
<path d="M29.3711 22H28.0352V4.9375H29.3711V22ZM43.8789 16.6797C43.7539 18.5938 43.2383 20 42.332 20.8984C41.4258 21.7891 40.1719 22.2344 38.5703 22.2344C36.9219 22.2344 35.6211 21.6133 34.668 20.3711C33.7148 19.1211 33.2344 17.4258 33.2266 15.2852V11.582C33.2266 9.43359 33.7109 7.75 34.6797 6.53125C35.6562 5.3125 36.9883 4.70312 38.6758 4.70312C40.2695 4.70312 41.5039 5.16016 42.3789 6.07422C43.2539 6.98828 43.7539 8.39062 43.8789 10.2812H42.5195C42.3945 8.73438 42.0273 7.62891 41.418 6.96484C40.8164 6.30078 39.9023 5.96875 38.6758 5.96875C37.3867 5.96875 36.3828 6.44922 35.6641 7.41016C34.9453 8.37109 34.5859 9.76562 34.5859 11.5938V15.25C34.5859 17.0625 34.9336 18.4727 35.6289 19.4805C36.3242 20.4883 37.3047 20.9922 38.5703 20.9922C39.8984 20.9922 40.8594 20.6602 41.4531 19.9961C42.0469 19.332 42.4023 18.2266 42.5195 16.6797H43.8789ZM61.9023 6.20312H57.0508V22H55.7031V6.20312H50.8633V4.9375H61.9023V6.20312ZM74.5586 16.6797C74.4336 18.5938 73.918 20 73.0117 20.8984C72.1055 21.7891 70.8516 22.2344 69.25 22.2344C67.6016 22.2344 66.3008 21.6133 65.3477 20.3711C64.3945 19.1211 63.9141 17.4258 63.9062 15.2852V11.582C63.9062 9.43359 64.3906 7.75 65.3594 6.53125C66.3359 5.3125 67.668 4.70312 69.3555 4.70312C70.9492 4.70312 72.1836 5.16016 73.0586 6.07422C73.9336 6.98828 74.4336 8.39062 74.5586 10.2812H73.1992C73.0742 8.73438 72.707 7.62891 72.0977 6.96484C71.4961 6.30078 70.582 5.96875 69.3555 5.96875C68.0664 5.96875 67.0625 6.44922 66.3438 7.41016C65.625 8.37109 65.2656 9.76562 65.2656 11.5938V15.25C65.2656 17.0625 65.6133 18.4727 66.3086 19.4805C67.0039 20.4883 67.9844 20.9922 69.25 20.9922C70.5781 20.9922 71.5391 20.6602 72.1328 19.9961C72.7266 19.332 73.082 18.2266 73.1992 16.6797H74.5586ZM79.668 4.9375L84.8359 19.9492L90.0273 4.9375H91.7969V22H90.4609V14.6055L90.5781 7.16406L85.3516 22H84.3203L79.1172 7.23438L79.2344 14.5586V22H77.8984V4.9375H79.668ZM5.75781 41.5859L3.77734 43.8828V50H2.44141V32.9375H3.77734V42.0312L5.65234 39.6875L10.9375 32.9375H12.6133L6.66016 40.5312L13.0703 50H11.4414L5.75781 41.5859ZM20.7344 50H19.4219V34.6602L15.5664 36.3828V35.0469L20.5117 32.8789H20.7344V50ZM34.1406 44.4922H36.332V45.7109H34.1406V50H32.8398V45.7109H26.1367V44.8789L32.7344 32.9375H34.1406V44.4922ZM27.6953 44.4922H32.8398V34.9062L32.3711 35.8555L27.6953 44.4922ZM47.4062 33.7578L41.3125 50H39.9531L46.0117 34.1562H37.9375V32.9375H47.4062V33.7578ZM55.1289 41.3047H59.418V42.6523H55.1289V48.2891H53.8047V42.6523H49.5859V41.3047H53.8047V35.8672H55.1289V41.3047ZM67.6094 50H66.2969V34.6602L62.4414 36.3828V35.0469L67.3867 32.8789H67.6094V50ZM82.6094 33.7578L76.5156 50H75.1562L81.2148 34.1562H73.1406V32.9375H82.6094V33.7578ZM92.6523 42.2188C92.2461 42.9062 91.7344 43.4453 91.1172 43.8359C90.5 44.2188 89.8438 44.4102 89.1484 44.4102C87.9297 44.4102 86.9414 43.875 86.1836 42.8047C85.4258 41.7344 85.0469 40.3633 85.0469 38.6914C85.0469 36.957 85.4414 35.5273 86.2305 34.4023C87.0273 33.2695 88.082 32.7031 89.3945 32.7031C90.832 32.7031 91.9492 33.3008 92.7461 34.4961C93.5508 35.6914 93.9531 37.3906 93.9531 39.5938V40.8594C93.9531 43.9688 93.4102 46.2852 92.3242 47.8086C91.2383 49.3242 89.5859 50.0938 87.3672 50.1172H87.0156L87.0273 48.875H87.4023C89.0898 48.8516 90.3711 48.2969 91.2461 47.2109C92.1289 46.1172 92.5977 44.4531 92.6523 42.2188ZM89.3242 43.1797C90.0586 43.1797 90.7266 42.9141 91.3281 42.3828C91.9375 41.8438 92.3828 41.125 92.6641 40.2266V39.3711C92.6641 37.6914 92.3672 36.3672 91.7734 35.3984C91.1875 34.4219 90.3984 33.9336 89.4062 33.9336C88.5078 33.9336 87.7695 34.3789 87.1914 35.2695C86.6133 36.1602 86.3242 37.2812 86.3242 38.6328C86.3242 39.9375 86.6016 41.0234 87.1562 41.8906C87.7109 42.75 88.4336 43.1797 89.3242 43.1797ZM97.1875 49.1445C97.1875 48.8633 97.2734 48.6289 97.4453 48.4414C97.625 48.2461 97.8711 48.1484 98.1836 48.1484C98.4961 48.1484 98.7422 48.2461 98.9219 48.4414C99.1016 48.6289 99.1914 48.8633 99.1914 49.1445C99.1914 49.418 99.1016 49.6445 98.9219 49.8242C98.7422 50.0039 98.4961 50.0938 98.1836 50.0938C97.8711 50.0938 97.625 50.0039 97.4453 49.8242C97.2734 49.6445 97.1875 49.418 97.1875 49.1445ZM108.367 50H107.055V34.6602L103.199 36.3828V35.0469L108.145 32.8789H108.367V50ZM123.508 50H114.461V48.8984L119.312 42.3477C120.125 41.2305 120.691 40.3047 121.012 39.5703C121.332 38.8359 121.492 38.1172 121.492 37.4141C121.492 36.3438 121.234 35.4961 120.719 34.8711C120.211 34.2383 119.504 33.9219 118.598 33.9219C117.637 33.9219 116.871 34.2891 116.301 35.0234C115.73 35.75 115.445 36.6953 115.445 37.8594H114.145C114.145 36.375 114.555 35.1445 115.375 34.168C116.195 33.1914 117.27 32.7031 118.598 32.7031C119.895 32.7031 120.922 33.1094 121.68 33.9219C122.438 34.7266 122.816 35.8477 122.816 37.2852C122.816 38.6523 122.199 40.25 120.965 42.0781L120.215 43.1562L116.043 48.793H123.508V50Z" fill="black"/>
</svg>
