<svg width="178" height="56" viewBox="0 0 178 56" fill="none" xmlns="http://www.w3.org/2000/svg">
<path d="M3.83984 15.0625V22H2.50391V4.9375H7.46094C8.96875 4.9375 10.1562 5.39063 11.0234 6.29688C11.8906 7.20312 12.3242 8.44922 12.3242 10.0352C12.3242 11.6523 11.9023 12.8945 11.0586 13.7617C10.2227 14.6289 9.01562 15.0625 7.4375 15.0625H3.83984ZM3.83984 13.8086H7.46094C8.58594 13.8086 9.45312 13.4844 10.0625 12.8359C10.6797 12.1797 10.9883 11.2539 10.9883 10.0586C10.9883 8.86328 10.6758 7.92188 10.0508 7.23438C9.43359 6.54687 8.57422 6.20312 7.47266 6.20312H3.83984V13.8086ZM23.457 17.8047C23.457 16.8516 23.1836 16.1016 22.6367 15.5547C22.0977 15.0078 21.0859 14.4844 19.6016 13.9844C18.1172 13.4844 17.0273 12.9258 16.332 12.3086C15.418 11.5039 14.9609 10.4414 14.9609 9.12109C14.9609 7.81641 15.4102 6.75391 16.3086 5.93359C17.207 5.11328 18.3672 4.70312 19.7891 4.70312C21.2422 4.70312 22.4297 5.17969 23.3516 6.13281C24.2734 7.08594 24.7344 8.3125 24.7344 9.8125H23.3867C23.3867 8.66406 23.0625 7.73828 22.4141 7.03516C21.7734 6.32422 20.8984 5.96875 19.7891 5.96875C18.7109 5.96875 17.8594 6.26172 17.2344 6.84766C16.6172 7.42578 16.3086 8.17578 16.3086 9.09766C16.3086 9.95703 16.6016 10.6602 17.1875 11.207C17.7734 11.7539 18.707 12.2422 19.9883 12.6719C21.2695 13.0938 22.2383 13.5352 22.8945 13.9961C23.5508 14.4492 24.0352 14.9844 24.3477 15.6016C24.6602 16.2188 24.8164 16.9453 24.8164 17.7812C24.8164 19.1172 24.3633 20.1953 23.457 21.0156C22.5586 21.8281 21.3672 22.2344 19.8828 22.2344C18.8828 22.2344 17.9688 22.0312 17.1406 21.625C16.3203 21.2109 15.6758 20.6211 15.207 19.8555C14.7461 19.082 14.5156 18.1719 14.5156 17.125H15.8516C15.8516 18.3281 16.2148 19.2734 16.9414 19.9609C17.668 20.6484 18.6484 20.9922 19.8828 20.9922C20.9609 20.9922 21.8242 20.7031 22.4727 20.125C23.1289 19.5469 23.457 18.7734 23.457 17.8047ZM32.293 19.8672L32.3281 20.0547L32.375 19.8672L36.8281 4.9375H38.3047L32.9727 22H31.707L26.375 4.9375H27.8398L32.293 19.8672ZM56.4688 16.6797C56.3438 18.5938 55.8281 20 54.9219 20.8984C54.0156 21.7891 52.7617 22.2344 51.1602 22.2344C49.5117 22.2344 48.2109 21.6133 47.2578 20.3711C46.3047 19.1211 45.8242 17.4258 45.8164 15.2852V11.582C45.8164 9.43359 46.3008 7.75 47.2695 6.53125C48.2461 5.3125 49.5781 4.70312 51.2656 4.70312C52.8594 4.70312 54.0938 5.16016 54.9688 6.07422C55.8438 6.98828 56.3438 8.39062 56.4688 10.2812H55.1094C54.9844 8.73438 54.6172 7.62891 54.0078 6.96484C53.4062 6.30078 52.4922 5.96875 51.2656 5.96875C49.9766 5.96875 48.9727 6.44922 48.2539 7.41016C47.5352 8.37109 47.1758 9.76562 47.1758 11.5938V15.25C47.1758 17.0625 47.5234 18.4727 48.2188 19.4805C48.9141 20.4883 49.8945 20.9922 51.1602 20.9922C52.4883 20.9922 53.4492 20.6602 54.043 19.9961C54.6367 19.332 54.9922 18.2266 55.1094 16.6797H56.4688ZM66.2305 22C66.1133 21.5938 66.0352 21.0078 65.9961 20.2422C65.6055 20.875 65.1016 21.3672 64.4844 21.7188C63.875 22.0625 63.2109 22.2344 62.4922 22.2344C61.3984 22.2344 60.5469 21.9258 59.9375 21.3086C59.3281 20.6914 59.0234 19.8125 59.0234 18.6719C59.0234 17.4297 59.4453 16.4453 60.2891 15.7188C61.1406 14.9922 62.3125 14.625 63.8047 14.6172H65.9844V12.8477C65.9844 11.9414 65.7578 11.293 65.3047 10.9023C64.8594 10.5039 64.2031 10.3047 63.3359 10.3047C62.5312 10.3047 61.8711 10.5391 61.3555 11.0078C60.8398 11.4766 60.582 12.082 60.582 12.8242L59.2812 12.8125C59.2812 11.7734 59.6719 10.8945 60.4531 10.1758C61.2344 9.44922 62.2148 9.08594 63.3945 9.08594C64.668 9.08594 65.6328 9.40625 66.2891 10.0469C66.9453 10.6875 67.2734 11.6211 67.2734 12.8477V19.0703C67.2734 20.3125 67.3867 21.2422 67.6133 21.8594V22H66.2305ZM62.6562 20.9805C63.4219 20.9805 64.0977 20.7812 64.6836 20.3828C65.2773 19.9844 65.7109 19.4531 65.9844 18.7891V15.707H63.9219C62.7344 15.7227 61.8398 15.9883 61.2383 16.5039C60.6367 17.0117 60.3359 17.6992 60.3359 18.5664C60.3359 20.1758 61.1094 20.9805 62.6562 20.9805ZM72.2773 22H70.9648V9.32031H72.2773V22ZM70.7773 5.66406C70.7773 5.39844 70.8516 5.17188 71 4.98438C71.1484 4.79688 71.3594 4.70312 71.6328 4.70312C71.9062 4.70312 72.1172 4.79688 72.2656 4.98438C72.4219 5.17188 72.5 5.39844 72.5 5.66406C72.5 5.92969 72.4219 6.15625 72.2656 6.34375C72.1172 6.52344 71.9062 6.61328 71.6328 6.61328C71.3594 6.61328 71.1484 6.52344 71 6.34375C70.8516 6.15625 70.7773 5.92969 70.7773 5.66406ZM82.2266 18.8828C82.2266 18.3359 82 17.8594 81.5469 17.4531C81.0938 17.0391 80.3242 16.5898 79.2383 16.1055C78.1602 15.6133 77.4062 15.207 76.9766 14.8867C76.5469 14.5586 76.2305 14.2031 76.0273 13.8203C75.8242 13.4375 75.7227 12.9844 75.7227 12.4609C75.7227 11.4844 76.0742 10.6797 76.7773 10.0469C77.4805 9.40625 78.3906 9.08594 79.5078 9.08594C80.7109 9.08594 81.6719 9.42578 82.3906 10.1055C83.1094 10.7852 83.4688 11.6836 83.4688 12.8008H82.168C82.168 12.082 81.9219 11.4883 81.4297 11.0195C80.9375 10.543 80.2969 10.3047 79.5078 10.3047C78.7422 10.3047 78.1328 10.5 77.6797 10.8906C77.2344 11.2812 77.0117 11.7891 77.0117 12.4141C77.0117 12.9219 77.1836 13.3359 77.5273 13.6562C77.8711 13.9766 78.6133 14.4102 79.7539 14.957C80.9336 15.4727 81.7461 15.8984 82.1914 16.2344C82.6367 16.5703 82.9727 16.9453 83.1992 17.3594C83.4258 17.7656 83.5391 18.25 83.5391 18.8125C83.5391 19.8594 83.1758 20.6914 82.4492 21.3086C81.7227 21.9258 80.7656 22.2344 79.5781 22.2344C78.3203 22.2344 77.3008 21.8906 76.5195 21.2031C75.7461 20.5156 75.3594 19.6289 75.3594 18.543H76.6719C76.7109 19.332 76.9727 19.9453 77.457 20.3828C77.9492 20.8125 78.6562 21.0273 79.5781 21.0273C80.375 21.0273 81.0156 20.832 81.5 20.4414C81.9844 20.0508 82.2266 19.5312 82.2266 18.8828ZM100.285 17.8047C100.285 16.8516 100.012 16.1016 99.4648 15.5547C98.9258 15.0078 97.9141 14.4844 96.4297 13.9844C94.9453 13.4844 93.8555 12.9258 93.1602 12.3086C92.2461 11.5039 91.7891 10.4414 91.7891 9.12109C91.7891 7.81641 92.2383 6.75391 93.1367 5.93359C94.0352 5.11328 95.1953 4.70312 96.6172 4.70312C98.0703 4.70312 99.2578 5.17969 100.18 6.13281C101.102 7.08594 101.562 8.3125 101.562 9.8125H100.215C100.215 8.66406 99.8906 7.73828 99.2422 7.03516C98.6016 6.32422 97.7266 5.96875 96.6172 5.96875C95.5391 5.96875 94.6875 6.26172 94.0625 6.84766C93.4453 7.42578 93.1367 8.17578 93.1367 9.09766C93.1367 9.95703 93.4297 10.6602 94.0156 11.207C94.6016 11.7539 95.5352 12.2422 96.8164 12.6719C98.0977 13.0938 99.0664 13.5352 99.7227 13.9961C100.379 14.4492 100.863 14.9844 101.176 15.6016C101.488 16.2188 101.645 16.9453 101.645 17.7812C101.645 19.1172 101.191 20.1953 100.285 21.0156C99.3867 21.8281 98.1953 22.2344 96.7109 22.2344C95.7109 22.2344 94.7969 22.0312 93.9688 21.625C93.1484 21.2109 92.5039 20.6211 92.0352 19.8555C91.5742 19.082 91.3438 18.1719 91.3438 17.125H92.6797C92.6797 18.3281 93.043 19.2734 93.7695 19.9609C94.4961 20.6484 95.4766 20.9922 96.7109 20.9922C97.7891 20.9922 98.6523 20.7031 99.3008 20.125C99.957 19.5469 100.285 18.7734 100.285 17.8047ZM105.863 22H104.551V9.32031H105.863V22ZM104.363 5.66406C104.363 5.39844 104.438 5.17188 104.586 4.98438C104.734 4.79688 104.945 4.70312 105.219 4.70312C105.492 4.70312 105.703 4.79688 105.852 4.98438C106.008 5.17188 106.086 5.39844 106.086 5.66406C106.086 5.92969 106.008 6.15625 105.852 6.34375C105.703 6.52344 105.492 6.61328 105.219 6.61328C104.945 6.61328 104.734 6.52344 104.586 6.34375C104.438 6.15625 104.363 5.92969 104.363 5.66406ZM109.004 15.0742C109.004 13.0664 109.352 11.5664 110.047 10.5742C110.742 9.58203 111.781 9.08594 113.164 9.08594C114.578 9.08594 115.648 9.71094 116.375 10.9609L116.445 9.32031H117.664V26.875H116.352V20.5234C115.609 21.6641 114.543 22.2344 113.152 22.2344C111.801 22.2344 110.773 21.7383 110.07 20.7461C109.375 19.7539 109.02 18.3008 109.004 16.3867V15.0742ZM110.328 16.2578C110.328 17.8828 110.574 19.0859 111.066 19.8672C111.566 20.6406 112.348 21.0273 113.41 21.0273C114.746 21.0273 115.727 20.4062 116.352 19.1641V12.332C115.719 10.9805 114.742 10.3047 113.422 10.3047C112.359 10.3047 111.578 10.6875 111.078 11.4531C110.586 12.2188 110.336 13.3984 110.328 14.9922V16.2578ZM128.035 20.4883C127.316 21.6523 126.203 22.2344 124.695 22.2344C123.547 22.2344 122.68 21.8359 122.094 21.0391C121.508 20.2422 121.211 19.0703 121.203 17.5234V9.32031H122.492V17.4883C122.492 18.6367 122.695 19.5078 123.102 20.1016C123.508 20.6953 124.094 20.9922 124.859 20.9922C126.5 20.9922 127.551 20.1953 128.012 18.6016V9.32031H129.324V22H128.059L128.035 20.4883ZM134.246 22H132.934V9.32031H134.246V22ZM132.746 5.66406C132.746 5.39844 132.82 5.17188 132.969 4.98438C133.117 4.79688 133.328 4.70312 133.602 4.70312C133.875 4.70312 134.086 4.79688 134.234 4.98438C134.391 5.17188 134.469 5.39844 134.469 5.66406C134.469 5.92969 134.391 6.15625 134.234 6.34375C134.086 6.52344 133.875 6.61328 133.602 6.61328C133.328 6.61328 133.117 6.52344 132.969 6.34375C132.82 6.15625 132.746 5.92969 132.746 5.66406ZM142.824 10.5391C142.512 10.4844 142.238 10.457 142.004 10.457C141.285 10.457 140.68 10.7031 140.188 11.1953C139.703 11.6875 139.359 12.3711 139.156 13.2461V22H137.855V9.32031H139.133L139.156 11.2188C139.773 9.79688 140.742 9.08594 142.062 9.08594C142.406 9.08594 142.668 9.13672 142.848 9.23828L142.824 10.5391ZM150.09 10.5391C149.777 10.4844 149.504 10.457 149.27 10.457C148.551 10.457 147.945 10.7031 147.453 11.1953C146.969 11.6875 146.625 12.3711 146.422 13.2461V22H145.121V9.32031H146.398L146.422 11.2188C147.039 9.79688 148.008 9.08594 149.328 9.08594C149.672 9.08594 149.934 9.13672 150.113 9.23828L150.09 10.5391ZM156.336 22.2344C154.844 22.2344 153.676 21.7461 152.832 20.7695C151.988 19.793 151.559 18.4023 151.543 16.5977V15.0508C151.543 13.1914 151.949 11.7344 152.762 10.6797C153.574 9.61719 154.691 9.08594 156.113 9.08594C157.488 9.08594 158.535 9.53516 159.254 10.4336C159.98 11.332 160.352 12.707 160.367 14.5586V15.7773H152.832V16.4922C152.832 17.9453 153.141 19.0664 153.758 19.8555C154.383 20.6445 155.262 21.0391 156.395 21.0391C157.645 21.0391 158.656 20.582 159.43 19.668L160.109 20.5352C159.281 21.668 158.023 22.2344 156.336 22.2344ZM156.113 10.3047C155.09 10.3047 154.301 10.668 153.746 11.3945C153.199 12.1133 152.898 13.168 152.844 14.5586H159.066V14.2188C159.004 11.6094 158.02 10.3047 156.113 10.3047ZM169.484 18.8828C169.484 18.3359 169.258 17.8594 168.805 17.4531C168.352 17.0391 167.582 16.5898 166.496 16.1055C165.418 15.6133 164.664 15.207 164.234 14.8867C163.805 14.5586 163.488 14.2031 163.285 13.8203C163.082 13.4375 162.98 12.9844 162.98 12.4609C162.98 11.4844 163.332 10.6797 164.035 10.0469C164.738 9.40625 165.648 9.08594 166.766 9.08594C167.969 9.08594 168.93 9.42578 169.648 10.1055C170.367 10.7852 170.727 11.6836 170.727 12.8008H169.426C169.426 12.082 169.18 11.4883 168.688 11.0195C168.195 10.543 167.555 10.3047 166.766 10.3047C166 10.3047 165.391 10.5 164.938 10.8906C164.492 11.2812 164.27 11.7891 164.27 12.4141C164.27 12.9219 164.441 13.3359 164.785 13.6562C165.129 13.9766 165.871 14.4102 167.012 14.957C168.191 15.4727 169.004 15.8984 169.449 16.2344C169.895 16.5703 170.23 16.9453 170.457 17.3594C170.684 17.7656 170.797 18.25 170.797 18.8125C170.797 19.8594 170.434 20.6914 169.707 21.3086C168.98 21.9258 168.023 22.2344 166.836 22.2344C165.578 22.2344 164.559 21.8906 163.777 21.2031C163.004 20.5156 162.617 19.6289 162.617 18.543H163.93C163.969 19.332 164.23 19.9453 164.715 20.3828C165.207 20.8125 165.914 21.0273 166.836 21.0273C167.633 21.0273 168.273 20.832 168.758 20.4414C169.242 20.0508 169.484 19.5312 169.484 18.8828ZM38.0938 41.5859L36.1133 43.8828V50H34.7773V32.9375H36.1133V42.0312L37.9883 39.6875L43.2734 32.9375H44.9492L38.9961 40.5312L45.4062 50H43.7773L38.0938 41.5859ZM54.7695 42.2188C54.3633 42.9062 53.8516 43.4453 53.2344 43.8359C52.6172 44.2188 51.9609 44.4102 51.2656 44.4102C50.0469 44.4102 49.0586 43.875 48.3008 42.8047C47.543 41.7344 47.1641 40.3633 47.1641 38.6914C47.1641 36.957 47.5586 35.5273 48.3477 34.4023C49.1445 33.2695 50.1992 32.7031 51.5117 32.7031C52.9492 32.7031 54.0664 33.3008 54.8633 34.4961C55.668 35.6914 56.0703 37.3906 56.0703 39.5938V40.8594C56.0703 43.9688 55.5273 46.2852 54.4414 47.8086C53.3555 49.3242 51.7031 50.0938 49.4844 50.1172H49.1328L49.1445 48.875H49.5195C51.207 48.8516 52.4883 48.2969 53.3633 47.2109C54.2461 46.1172 54.7148 44.4531 54.7695 42.2188ZM51.4414 43.1797C52.1758 43.1797 52.8438 42.9141 53.4453 42.3828C54.0547 41.8438 54.5 41.125 54.7812 40.2266V39.3711C54.7812 37.6914 54.4844 36.3672 53.8906 35.3984C53.3047 34.4219 52.5156 33.9336 51.5234 33.9336C50.625 33.9336 49.8867 34.3789 49.3086 35.2695C48.7305 36.1602 48.4414 37.2812 48.4414 38.6328C48.4414 39.9375 48.7188 41.0234 49.2734 41.8906C49.8281 42.75 50.5508 43.1797 51.4414 43.1797ZM59.9609 41.2578L60.6641 32.9375H67.8711V34.2734H61.7773L61.2969 39.9922C62.0625 39.3672 62.9414 39.0547 63.9336 39.0547C65.2383 39.0547 66.2695 39.5586 67.0273 40.5664C67.793 41.5664 68.1758 42.8984 68.1758 44.5625C68.1758 46.3438 67.8008 47.7344 67.0508 48.7344C66.3008 49.7344 65.2344 50.2344 63.8516 50.2344C62.5938 50.2344 61.5742 49.8164 60.793 48.9805C60.0117 48.1367 59.5703 46.9805 59.4688 45.5117H60.7109C60.8203 46.6602 61.1445 47.5352 61.6836 48.1367C62.2227 48.7305 62.9453 49.0273 63.8516 49.0273C64.8438 49.0273 65.5938 48.6406 66.1016 47.8672C66.6172 47.0938 66.875 46 66.875 44.5859C66.875 43.3281 66.5859 42.3125 66.0078 41.5391C65.4375 40.7578 64.6641 40.3672 63.6875 40.3672C63.125 40.3672 62.6406 40.457 62.2344 40.6367C61.8281 40.8086 61.4141 41.125 60.9922 41.5859L59.9609 41.2578ZM75.793 41.3047H80.082V42.6523H75.793V48.2891H74.4688V42.6523H70.25V41.3047H74.4688V35.8672H75.793V41.3047ZM91.7422 50H82.6953V48.8984L87.5469 42.3477C88.3594 41.2305 88.9258 40.3047 89.2461 39.5703C89.5664 38.8359 89.7266 38.1172 89.7266 37.4141C89.7266 36.3438 89.4688 35.4961 88.9531 34.8711C88.4453 34.2383 87.7383 33.9219 86.832 33.9219C85.8711 33.9219 85.1055 34.2891 84.5352 35.0234C83.9648 35.75 83.6797 36.6953 83.6797 37.8594H82.3789C82.3789 36.375 82.7891 35.1445 83.6094 34.168C84.4297 33.1914 85.5039 32.7031 86.832 32.7031C88.1289 32.7031 89.1562 33.1094 89.9141 33.9219C90.6719 34.7266 91.0508 35.8477 91.0508 37.2852C91.0508 38.6523 90.4336 40.25 89.1992 42.0781L88.4492 43.1562L84.2773 48.793H91.7422V50ZM103.074 42.875C103.074 45.2969 102.699 47.1289 101.949 48.3711C101.207 49.6133 100.109 50.2344 98.6562 50.2344C97.2188 50.2344 96.1211 49.6172 95.3633 48.3828C94.6133 47.1406 94.2305 45.3516 94.2148 43.0156V40.0156C94.2148 37.6406 94.5859 35.8281 95.3281 34.5781C96.0703 33.3281 97.1719 32.7031 98.6328 32.7031C100.07 32.7031 101.164 33.3086 101.914 34.5195C102.664 35.7227 103.051 37.4805 103.074 39.793V42.875ZM101.762 39.8281C101.762 37.875 101.5 36.4023 100.977 35.4102C100.461 34.418 99.6797 33.9219 98.6328 33.9219C97.625 33.9219 96.8555 34.3984 96.3242 35.3516C95.8008 36.2969 95.5273 37.707 95.5039 39.582V43.0391C95.5039 44.9453 95.7695 46.4219 96.3008 47.4688C96.8398 48.5078 97.625 49.0273 98.6562 49.0273C99.6562 49.0273 100.418 48.5352 100.941 47.5508C101.473 46.5586 101.746 45.1055 101.762 43.1914V39.8281ZM114.746 42.875C114.746 45.2969 114.371 47.1289 113.621 48.3711C112.879 49.6133 111.781 50.2344 110.328 50.2344C108.891 50.2344 107.793 49.6172 107.035 48.3828C106.285 47.1406 105.902 45.3516 105.887 43.0156V40.0156C105.887 37.6406 106.258 35.8281 107 34.5781C107.742 33.3281 108.844 32.7031 110.305 32.7031C111.742 32.7031 112.836 33.3086 113.586 34.5195C114.336 35.7227 114.723 37.4805 114.746 39.793V42.875ZM113.434 39.8281C113.434 37.875 113.172 36.4023 112.648 35.4102C112.133 34.418 111.352 33.9219 110.305 33.9219C109.297 33.9219 108.527 34.3984 107.996 35.3516C107.473 36.2969 107.199 37.707 107.176 39.582V43.0391C107.176 44.9453 107.441 46.4219 107.973 47.4688C108.512 48.5078 109.297 49.0273 110.328 49.0273C111.328 49.0273 112.09 48.5352 112.613 47.5508C113.145 46.5586 113.418 45.1055 113.434 43.1914V39.8281ZM117.852 49.1445C117.852 48.8633 117.938 48.6289 118.109 48.4414C118.289 48.2461 118.535 48.1484 118.848 48.1484C119.16 48.1484 119.406 48.2461 119.586 48.4414C119.766 48.6289 119.855 48.8633 119.855 49.1445C119.855 49.418 119.766 49.6445 119.586 49.8242C119.406 50.0039 119.16 50.0938 118.848 50.0938C118.535 50.0938 118.289 50.0039 118.109 49.8242C117.938 49.6445 117.852 49.418 117.852 49.1445ZM130.438 32.8203V34.0742H130.238C128.582 34.082 127.277 34.668 126.324 35.832C125.379 36.9961 124.852 38.6406 124.742 40.7656C125.141 40.1328 125.637 39.6484 126.23 39.3125C126.824 38.9688 127.48 38.7969 128.199 38.7969C129.457 38.7969 130.457 39.3164 131.199 40.3555C131.949 41.3867 132.324 42.7383 132.324 44.4102C132.324 46.1523 131.93 47.5586 131.141 48.6289C130.352 49.6992 129.32 50.2344 128.047 50.2344C126.68 50.2344 125.566 49.6484 124.707 48.4766C123.848 47.3047 123.418 45.7656 123.418 43.8594V42.4766C123.418 39.3438 123.996 36.9609 125.152 35.3281C126.309 33.6875 127.969 32.8516 130.133 32.8203H130.438ZM127.988 40.0273C127.254 40.0273 126.574 40.293 125.949 40.8242C125.332 41.3477 124.922 41.9961 124.719 42.7695V43.9883C124.719 45.4727 125.031 46.6836 125.656 47.6211C126.281 48.5508 127.078 49.0156 128.047 49.0156C128.938 49.0156 129.66 48.5898 130.215 47.7383C130.77 46.8867 131.047 45.7969 131.047 44.4688C131.047 43.1328 130.77 42.0586 130.215 41.2461C129.668 40.4336 128.926 40.0273 127.988 40.0273ZM142.402 42.2188C141.996 42.9062 141.484 43.4453 140.867 43.8359C140.25 44.2188 139.594 44.4102 138.898 44.4102C137.68 44.4102 136.691 43.875 135.934 42.8047C135.176 41.7344 134.797 40.3633 134.797 38.6914C134.797 36.957 135.191 35.5273 135.98 34.4023C136.777 33.2695 137.832 32.7031 139.145 32.7031C140.582 32.7031 141.699 33.3008 142.496 34.4961C143.301 35.6914 143.703 37.3906 143.703 39.5938V40.8594C143.703 43.9688 143.16 46.2852 142.074 47.8086C140.988 49.3242 139.336 50.0938 137.117 50.1172H136.766L136.777 48.875H137.152C138.84 48.8516 140.121 48.2969 140.996 47.2109C141.879 46.1172 142.348 44.4531 142.402 42.2188ZM139.074 43.1797C139.809 43.1797 140.477 42.9141 141.078 42.3828C141.688 41.8438 142.133 41.125 142.414 40.2266V39.3711C142.414 37.6914 142.117 36.3672 141.523 35.3984C140.938 34.4219 140.148 33.9336 139.156 33.9336C138.258 33.9336 137.52 34.3789 136.941 35.2695C136.363 36.1602 136.074 37.2812 136.074 38.6328C136.074 39.9375 136.352 41.0234 136.906 41.8906C137.461 42.75 138.184 43.1797 139.074 43.1797Z" fill="black"/>
</svg>
