<svg width="115" height="56" viewBox="0 0 115 56" fill="none" xmlns="http://www.w3.org/2000/svg">
<path d="M3.61719 15.0625V22H2.28125V4.9375H7.23828C8.74609 4.9375 9.93359 5.39063 10.8008 6.29688C11.668 7.20312 12.1016 8.44922 12.1016 10.0352C12.1016 11.6523 11.6797 12.8945 10.8359 13.7617C10 14.6289 8.79297 15.0625 7.21484 15.0625H3.61719ZM3.61719 13.8086H7.23828C8.36328 13.8086 9.23047 13.4844 9.83984 12.8359C10.457 12.1797 10.7656 11.2539 10.7656 10.0586C10.7656 8.86328 10.4531 7.92188 9.82812 7.23438C9.21094 6.54687 8.35156 6.20312 7.25 6.20312H3.61719V13.8086ZM23.2344 17.8047C23.2344 16.8516 22.9609 16.1016 22.4141 15.5547C21.875 15.0078 20.8633 14.4844 19.3789 13.9844C17.8945 13.4844 16.8047 12.9258 16.1094 12.3086C15.1953 11.5039 14.7383 10.4414 14.7383 9.12109C14.7383 7.81641 15.1875 6.75391 16.0859 5.93359C16.9844 5.11328 18.1445 4.70312 19.5664 4.70312C21.0195 4.70312 22.207 5.17969 23.1289 6.13281C24.0508 7.08594 24.5117 8.3125 24.5117 9.8125H23.1641C23.1641 8.66406 22.8398 7.73828 22.1914 7.03516C21.5508 6.32422 20.6758 5.96875 19.5664 5.96875C18.4883 5.96875 17.6367 6.26172 17.0117 6.84766C16.3945 7.42578 16.0859 8.17578 16.0859 9.09766C16.0859 9.95703 16.3789 10.6602 16.9648 11.207C17.5508 11.7539 18.4844 12.2422 19.7656 12.6719C21.0469 13.0938 22.0156 13.5352 22.6719 13.9961C23.3281 14.4492 23.8125 14.9844 24.125 15.6016C24.4375 16.2188 24.5938 16.9453 24.5938 17.7812C24.5938 19.1172 24.1406 20.1953 23.2344 21.0156C22.3359 21.8281 21.1445 22.2344 19.6602 22.2344C18.6602 22.2344 17.7461 22.0312 16.918 21.625C16.0977 21.2109 15.4531 20.6211 14.9844 19.8555C14.5234 19.082 14.293 18.1719 14.293 17.125H15.6289C15.6289 18.3281 15.9922 19.2734 16.7188 19.9609C17.4453 20.6484 18.4258 20.9922 19.6602 20.9922C20.7383 20.9922 21.6016 20.7031 22.25 20.125C22.9062 19.5469 23.2344 18.7734 23.2344 17.8047ZM32.0703 19.8672L32.1055 20.0547L32.1523 19.8672L36.6055 4.9375H38.082L32.75 22H31.4844L26.1523 4.9375H27.6172L32.0703 19.8672ZM47.3516 15.0625V22H46.0156V4.9375H50.9727C52.4805 4.9375 53.668 5.39063 54.5352 6.29688C55.4023 7.20312 55.8359 8.44922 55.8359 10.0352C55.8359 11.6523 55.4141 12.8945 54.5703 13.7617C53.7344 14.6289 52.5273 15.0625 50.9492 15.0625H47.3516ZM47.3516 13.8086H50.9727C52.0977 13.8086 52.9648 13.4844 53.5742 12.8359C54.1914 12.1797 54.5 11.2539 54.5 10.0586C54.5 8.86328 54.1875 7.92188 53.5625 7.23438C52.9453 6.54687 52.0859 6.20312 50.9844 6.20312H47.3516V13.8086ZM58.0156 15.0156C58.0156 13.1875 58.4297 11.7422 59.2578 10.6797C60.0859 9.61719 61.2148 9.08594 62.6445 9.08594C64.082 9.08594 65.2109 9.60938 66.0312 10.6562C66.8594 11.7031 67.2773 13.1445 67.2852 14.9805V16.3281C67.2852 18.1875 66.8672 19.6367 66.0312 20.6758C65.2031 21.7148 64.082 22.2344 62.668 22.2344C61.2539 22.2344 60.1328 21.7266 59.3047 20.7109C58.4766 19.6953 58.0469 18.2969 58.0156 16.5156V15.0156ZM59.3281 16.3281C59.3281 17.7891 59.6211 18.9375 60.207 19.7734C60.8008 20.6094 61.6211 21.0273 62.668 21.0273C63.7383 21.0273 64.5547 20.625 65.1172 19.8203C65.6875 19.0156 65.9766 17.8633 65.9844 16.3633V15.0156C65.9844 13.5547 65.6875 12.4062 65.0938 11.5703C64.5 10.7266 63.6836 10.3047 62.6445 10.3047C61.6367 10.3047 60.8359 10.7148 60.2422 11.5352C59.6484 12.3555 59.3438 13.4844 59.3281 14.9219V16.3281ZM74.3047 21.0273C75.2109 21.0273 75.9062 20.7734 76.3906 20.2656C76.875 19.7578 77.1367 19.0273 77.1758 18.0742H78.4297C78.3672 19.3711 77.9531 20.3906 77.1875 21.1328C76.4219 21.8672 75.4609 22.2344 74.3047 22.2344C72.7969 22.2344 71.6562 21.7539 70.8828 20.793C70.1172 19.8242 69.7266 18.3906 69.7109 16.4922V14.9453C69.7109 13.0078 70.0938 11.5469 70.8594 10.5625C71.6328 9.57812 72.7773 9.08594 74.293 9.08594C75.5508 9.08594 76.543 9.48438 77.2695 10.2812C77.9961 11.0703 78.3828 12.1758 78.4297 13.5977H77.1758C77.1367 12.5508 76.8711 11.7422 76.3789 11.1719C75.8867 10.5938 75.1914 10.3047 74.293 10.3047C73.168 10.3047 72.3398 10.6836 71.8086 11.4414C71.2852 12.1992 71.0234 13.3633 71.0234 14.9336V16.375C71.0234 18 71.2891 19.1836 71.8203 19.9258C72.3516 20.6602 73.1797 21.0273 74.3047 21.0273ZM80.7031 15.0156C80.7031 13.1875 81.1172 11.7422 81.9453 10.6797C82.7734 9.61719 83.9023 9.08594 85.332 9.08594C86.7695 9.08594 87.8984 9.60938 88.7188 10.6562C89.5469 11.7031 89.9648 13.1445 89.9727 14.9805V16.3281C89.9727 18.1875 89.5547 19.6367 88.7188 20.6758C87.8906 21.7148 86.7695 22.2344 85.3555 22.2344C83.9414 22.2344 82.8203 21.7266 81.9922 20.7109C81.1641 19.6953 80.7344 18.2969 80.7031 16.5156V15.0156ZM82.0156 16.3281C82.0156 17.7891 82.3086 18.9375 82.8945 19.7734C83.4883 20.6094 84.3086 21.0273 85.3555 21.0273C86.4258 21.0273 87.2422 20.625 87.8047 19.8203C88.375 19.0156 88.6641 17.8633 88.6719 16.3633V15.0156C88.6719 13.5547 88.375 12.4062 87.7812 11.5703C87.1875 10.7266 86.3711 10.3047 85.332 10.3047C84.3242 10.3047 83.5234 10.7148 82.9297 11.5352C82.3359 12.3555 82.0312 13.4844 82.0156 14.9219V16.3281ZM97.9531 10.5391C97.6406 10.4844 97.3672 10.457 97.1328 10.457C96.4141 10.457 95.8086 10.7031 95.3164 11.1953C94.832 11.6875 94.4883 12.3711 94.2852 13.2461V22H92.9844V9.32031H94.2617L94.2852 11.2188C94.9023 9.79688 95.8711 9.08594 97.1914 9.08594C97.5352 9.08594 97.7969 9.13672 97.9766 9.23828L97.9531 10.5391ZM106.484 22C106.367 21.5938 106.289 21.0078 106.25 20.2422C105.859 20.875 105.355 21.3672 104.738 21.7188C104.129 22.0625 103.465 22.2344 102.746 22.2344C101.652 22.2344 100.801 21.9258 100.191 21.3086C99.582 20.6914 99.2773 19.8125 99.2773 18.6719C99.2773 17.4297 99.6992 16.4453 100.543 15.7188C101.395 14.9922 102.566 14.625 104.059 14.6172H106.238V12.8477C106.238 11.9414 106.012 11.293 105.559 10.9023C105.113 10.5039 104.457 10.3047 103.59 10.3047C102.785 10.3047 102.125 10.5391 101.609 11.0078C101.094 11.4766 100.836 12.082 100.836 12.8242L99.5352 12.8125C99.5352 11.7734 99.9258 10.8945 100.707 10.1758C101.488 9.44922 102.469 9.08594 103.648 9.08594C104.922 9.08594 105.887 9.40625 106.543 10.0469C107.199 10.6875 107.527 11.6211 107.527 12.8477V19.0703C107.527 20.3125 107.641 21.2422 107.867 21.8594V22H106.484ZM102.91 20.9805C103.676 20.9805 104.352 20.7812 104.938 20.3828C105.531 19.9844 105.965 19.4531 106.238 18.7891V15.707H104.176C102.988 15.7227 102.094 15.9883 101.492 16.5039C100.891 17.0117 100.59 17.6992 100.59 18.5664C100.59 20.1758 101.363 20.9805 102.91 20.9805ZM6.59375 41.5859L4.61328 43.8828V50H3.27734V32.9375H4.61328V42.0312L6.48828 39.6875L11.7734 32.9375H13.4492L7.49609 40.5312L13.9062 50H12.2773L6.59375 41.5859ZM24.4766 37.332C24.4766 38.1914 24.2656 38.9727 23.8438 39.6758C23.4297 40.3711 22.8633 40.8945 22.1445 41.2461C22.9883 41.6055 23.6484 42.1602 24.125 42.9102C24.6094 43.6602 24.8516 44.5156 24.8516 45.4766C24.8516 46.9141 24.4336 48.0664 23.5977 48.9336C22.7695 49.8008 21.668 50.2344 20.293 50.2344C18.9023 50.2344 17.793 49.8047 16.9648 48.9453C16.1367 48.0781 15.7227 46.9219 15.7227 45.4766C15.7227 44.5 15.957 43.6406 16.4258 42.8984C16.9023 42.1562 17.5547 41.6055 18.3828 41.2461C17.6641 40.8945 17.0977 40.375 16.6836 39.6875C16.2773 38.9922 16.0742 38.207 16.0742 37.332C16.0742 35.918 16.457 34.793 17.2227 33.957C17.9883 33.1211 19.0039 32.7031 20.2695 32.7031C21.543 32.7031 22.5625 33.125 23.3281 33.9688C24.0938 34.8125 24.4766 35.9336 24.4766 37.332ZM23.5391 45.4766C23.5391 44.4141 23.2305 43.5469 22.6133 42.875C21.9961 42.1953 21.2148 41.8555 20.2695 41.8555C19.3242 41.8555 18.543 42.1875 17.9258 42.8516C17.3164 43.5156 17.0117 44.3906 17.0117 45.4766C17.0117 46.5625 17.3047 47.4258 17.8906 48.0664C18.4844 48.707 19.2852 49.0273 20.293 49.0273C21.2773 49.0273 22.0625 48.707 22.6484 48.0664C23.2422 47.4258 23.5391 46.5625 23.5391 45.4766ZM23.1758 37.3203C23.1758 36.3438 22.8984 35.5352 22.3438 34.8945C21.7969 34.2461 21.1055 33.9219 20.2695 33.9219C19.4023 33.9219 18.7031 34.2344 18.1719 34.8594C17.6484 35.4844 17.3867 36.3047 17.3867 37.3203C17.3867 38.3438 17.6562 39.1523 18.1953 39.7461C18.7422 40.3398 19.4375 40.6367 20.2812 40.6367C21.125 40.6367 21.8164 40.3359 22.3555 39.7344C22.9023 39.125 23.1758 38.3203 23.1758 37.3203ZM30.2773 40.6953H31.5547C32.5078 40.6875 33.2773 40.3867 33.8633 39.793C34.457 39.1914 34.7539 38.3906 34.7539 37.3906C34.7539 36.2891 34.5 35.4375 33.9922 34.8359C33.4844 34.2266 32.7656 33.9219 31.8359 33.9219C30.9297 33.9219 30.1953 34.2461 29.6328 34.8945C29.0781 35.5352 28.8008 36.375 28.8008 37.4141H27.5C27.5 36.5234 27.6797 35.7227 28.0391 35.0117C28.4062 34.293 28.9258 33.7305 29.5977 33.3242C30.2695 32.9102 31.0156 32.7031 31.8359 32.7031C33.1172 32.7031 34.1406 33.1211 34.9062 33.957C35.6719 34.7852 36.0547 35.9453 36.0547 37.4375C36.0547 38.2812 35.832 39.0469 35.3867 39.7344C34.9492 40.4219 34.3594 40.9297 33.6172 41.2578C34.4766 41.5391 35.1406 42.0352 35.6094 42.7461C36.0781 43.4492 36.3125 44.3203 36.3125 45.3594C36.3125 46.8438 35.9062 48.0273 35.0938 48.9102C34.2812 49.793 33.207 50.2344 31.8711 50.2344C31.0195 50.2344 30.2383 50.0352 29.5273 49.6367C28.8164 49.2305 28.2656 48.6641 27.875 47.9375C27.4922 47.2109 27.3008 46.3594 27.3008 45.3828H28.6016C28.6016 46.4453 28.9023 47.3203 29.5039 48.0078C30.1133 48.6875 30.9023 49.0273 31.8711 49.0273C32.8633 49.0273 33.6328 48.7188 34.1797 48.1016C34.7344 47.4766 35.0117 46.5781 35.0117 45.4062C35.0117 44.2812 34.7148 43.4219 34.1211 42.8281C33.5352 42.2266 32.6758 41.9219 31.543 41.9141H30.2773V40.6953ZM44.293 41.3047H48.582V42.6523H44.293V48.2891H42.9688V42.6523H38.75V41.3047H42.9688V35.8672H44.293V41.3047ZM53.8086 40.6953H55.0859C56.0391 40.6875 56.8086 40.3867 57.3945 39.793C57.9883 39.1914 58.2852 38.3906 58.2852 37.3906C58.2852 36.2891 58.0312 35.4375 57.5234 34.8359C57.0156 34.2266 56.2969 33.9219 55.3672 33.9219C54.4609 33.9219 53.7266 34.2461 53.1641 34.8945C52.6094 35.5352 52.332 36.375 52.332 37.4141H51.0312C51.0312 36.5234 51.2109 35.7227 51.5703 35.0117C51.9375 34.293 52.457 33.7305 53.1289 33.3242C53.8008 32.9102 54.5469 32.7031 55.3672 32.7031C56.6484 32.7031 57.6719 33.1211 58.4375 33.957C59.2031 34.7852 59.5859 35.9453 59.5859 37.4375C59.5859 38.2812 59.3633 39.0469 58.918 39.7344C58.4805 40.4219 57.8906 40.9297 57.1484 41.2578C58.0078 41.5391 58.6719 42.0352 59.1406 42.7461C59.6094 43.4492 59.8438 44.3203 59.8438 45.3594C59.8438 46.8438 59.4375 48.0273 58.625 48.9102C57.8125 49.793 56.7383 50.2344 55.4023 50.2344C54.5508 50.2344 53.7695 50.0352 53.0586 49.6367C52.3477 49.2305 51.7969 48.6641 51.4062 47.9375C51.0234 47.2109 50.832 46.3594 50.832 45.3828H52.1328C52.1328 46.4453 52.4336 47.3203 53.0352 48.0078C53.6445 48.6875 54.4336 49.0273 55.4023 49.0273C56.3945 49.0273 57.1641 48.7188 57.7109 48.1016C58.2656 47.4766 58.543 46.5781 58.543 45.4062C58.543 44.2812 58.2461 43.4219 57.6523 42.8281C57.0664 42.2266 56.207 41.9219 55.0742 41.9141H53.8086V40.6953ZM65.4805 40.6953H66.7578C67.7109 40.6875 68.4805 40.3867 69.0664 39.793C69.6602 39.1914 69.957 38.3906 69.957 37.3906C69.957 36.2891 69.7031 35.4375 69.1953 34.8359C68.6875 34.2266 67.9688 33.9219 67.0391 33.9219C66.1328 33.9219 65.3984 34.2461 64.8359 34.8945C64.2812 35.5352 64.0039 36.375 64.0039 37.4141H62.7031C62.7031 36.5234 62.8828 35.7227 63.2422 35.0117C63.6094 34.293 64.1289 33.7305 64.8008 33.3242C65.4727 32.9102 66.2188 32.7031 67.0391 32.7031C68.3203 32.7031 69.3438 33.1211 70.1094 33.957C70.875 34.7852 71.2578 35.9453 71.2578 37.4375C71.2578 38.2812 71.0352 39.0469 70.5898 39.7344C70.1523 40.4219 69.5625 40.9297 68.8203 41.2578C69.6797 41.5391 70.3438 42.0352 70.8125 42.7461C71.2812 43.4492 71.5156 44.3203 71.5156 45.3594C71.5156 46.8438 71.1094 48.0273 70.2969 48.9102C69.4844 49.793 68.4102 50.2344 67.0742 50.2344C66.2227 50.2344 65.4414 50.0352 64.7305 49.6367C64.0195 49.2305 63.4688 48.6641 63.0781 47.9375C62.6953 47.2109 62.5039 46.3594 62.5039 45.3828H63.8047C63.8047 46.4453 64.1055 47.3203 64.707 48.0078C65.3164 48.6875 66.1055 49.0273 67.0742 49.0273C68.0664 49.0273 68.8359 48.7188 69.3828 48.1016C69.9375 47.4766 70.2148 46.5781 70.2148 45.4062C70.2148 44.2812 69.918 43.4219 69.3242 42.8281C68.7383 42.2266 67.8789 41.9219 66.7461 41.9141H65.4805V40.6953ZM81.5234 32.8203V34.0742H81.3242C79.668 34.082 78.3633 34.668 77.4102 35.832C76.4648 36.9961 75.9375 38.6406 75.8281 40.7656C76.2266 40.1328 76.7227 39.6484 77.3164 39.3125C77.9102 38.9688 78.5664 38.7969 79.2852 38.7969C80.543 38.7969 81.543 39.3164 82.2852 40.3555C83.0352 41.3867 83.4102 42.7383 83.4102 44.4102C83.4102 46.1523 83.0156 47.5586 82.2266 48.6289C81.4375 49.6992 80.4062 50.2344 79.1328 50.2344C77.7656 50.2344 76.6523 49.6484 75.793 48.4766C74.9336 47.3047 74.5039 45.7656 74.5039 43.8594V42.4766C74.5039 39.3438 75.082 36.9609 76.2383 35.3281C77.3945 33.6875 79.0547 32.8516 81.2188 32.8203H81.5234ZM79.0742 40.0273C78.3398 40.0273 77.6602 40.293 77.0352 40.8242C76.418 41.3477 76.0078 41.9961 75.8047 42.7695V43.9883C75.8047 45.4727 76.1172 46.6836 76.7422 47.6211C77.3672 48.5508 78.1641 49.0156 79.1328 49.0156C80.0234 49.0156 80.7461 48.5898 81.3008 47.7383C81.8555 46.8867 82.1328 45.7969 82.1328 44.4688C82.1328 43.1328 81.8555 42.0586 81.3008 41.2461C80.7539 40.4336 80.0117 40.0273 79.0742 40.0273ZM86.3516 49.1445C86.3516 48.8633 86.4375 48.6289 86.6094 48.4414C86.7891 48.2461 87.0352 48.1484 87.3477 48.1484C87.6602 48.1484 87.9062 48.2461 88.0859 48.4414C88.2656 48.6289 88.3555 48.8633 88.3555 49.1445C88.3555 49.418 88.2656 49.6445 88.0859 49.8242C87.9062 50.0039 87.6602 50.0938 87.3477 50.0938C87.0352 50.0938 86.7891 50.0039 86.6094 49.8242C86.4375 49.6445 86.3516 49.418 86.3516 49.1445ZM100.66 42.875C100.66 45.2969 100.285 47.1289 99.5352 48.3711C98.793 49.6133 97.6953 50.2344 96.2422 50.2344C94.8047 50.2344 93.707 49.6172 92.9492 48.3828C92.1992 47.1406 91.8164 45.3516 91.8008 43.0156V40.0156C91.8008 37.6406 92.1719 35.8281 92.9141 34.5781C93.6562 33.3281 94.7578 32.7031 96.2188 32.7031C97.6562 32.7031 98.75 33.3086 99.5 34.5195C100.25 35.7227 100.637 37.4805 100.66 39.793V42.875ZM99.3477 39.8281C99.3477 37.875 99.0859 36.4023 98.5625 35.4102C98.0469 34.418 97.2656 33.9219 96.2188 33.9219C95.2109 33.9219 94.4414 34.3984 93.9102 35.3516C93.3867 36.2969 93.1133 37.707 93.0898 39.582V43.0391C93.0898 44.9453 93.3555 46.4219 93.8867 47.4688C94.4258 48.5078 95.2109 49.0273 96.2422 49.0273C97.2422 49.0273 98.0039 48.5352 98.5273 47.5508C99.0586 46.5586 99.332 45.1055 99.3477 43.1914V39.8281ZM112.531 33.7578L106.438 50H105.078L111.137 34.1562H103.062V32.9375H112.531V33.7578Z" fill="black"/>
</svg>
