<svg width="125" height="56" viewBox="0 0 125 56" fill="none" xmlns="http://www.w3.org/2000/svg">
<path d="M27.8125 22H26.4766V4.9375H27.8125V22ZM42.3203 16.6797C42.1953 18.5938 41.6797 20 40.7734 20.8984C39.8672 21.7891 38.6133 22.2344 37.0117 22.2344C35.3633 22.2344 34.0625 21.6133 33.1094 20.3711C32.1562 19.1211 31.6758 17.4258 31.668 15.2852V11.582C31.668 9.43359 32.1523 7.75 33.1211 6.53125C34.0977 5.3125 35.4297 4.70312 37.1172 4.70312C38.7109 4.70312 39.9453 5.16016 40.8203 6.07422C41.6953 6.98828 42.1953 8.39062 42.3203 10.2812H40.9609C40.8359 8.73438 40.4688 7.62891 39.8594 6.96484C39.2578 6.30078 38.3438 5.96875 37.1172 5.96875C35.8281 5.96875 34.8242 6.44922 34.1055 7.41016C33.3867 8.37109 33.0273 9.76562 33.0273 11.5938V15.25C33.0273 17.0625 33.375 18.4727 34.0703 19.4805C34.7656 20.4883 35.7461 20.9922 37.0117 20.9922C38.3398 20.9922 39.3008 20.6602 39.8945 19.9961C40.4883 19.332 40.8438 18.2266 40.9609 16.6797H42.3203ZM52.8203 4.9375L57.9883 19.9492L63.1797 4.9375H64.9492V22H63.6133V14.6055L63.7305 7.16406L58.5039 22H57.4727L52.2695 7.23438L52.3867 14.5586V22H51.0508V4.9375H52.8203ZM68.2305 15.0156C68.2305 13.1875 68.6445 11.7422 69.4727 10.6797C70.3008 9.61719 71.4297 9.08594 72.8594 9.08594C74.2969 9.08594 75.4258 9.60938 76.2461 10.6562C77.0742 11.7031 77.4922 13.1445 77.5 14.9805V16.3281C77.5 18.1875 77.082 19.6367 76.2461 20.6758C75.418 21.7148 74.2969 22.2344 72.8828 22.2344C71.4688 22.2344 70.3477 21.7266 69.5195 20.7109C68.6914 19.6953 68.2617 18.2969 68.2305 16.5156V15.0156ZM69.543 16.3281C69.543 17.7891 69.8359 18.9375 70.4219 19.7734C71.0156 20.6094 71.8359 21.0273 72.8828 21.0273C73.9531 21.0273 74.7695 20.625 75.332 19.8203C75.9023 19.0156 76.1914 17.8633 76.1992 16.3633V15.0156C76.1992 13.5547 75.9023 12.4062 75.3086 11.5703C74.7148 10.7266 73.8984 10.3047 72.8594 10.3047C71.8516 10.3047 71.0508 10.7148 70.457 11.5352C69.8633 12.3555 69.5586 13.4844 69.543 14.9219V16.3281ZM81.9648 22H80.6523V9.32031H81.9648V22ZM80.4648 5.66406C80.4648 5.39844 80.5391 5.17188 80.6875 4.98438C80.8359 4.79688 81.0469 4.70312 81.3203 4.70312C81.5938 4.70312 81.8047 4.79688 81.9531 4.98438C82.1094 5.17188 82.1875 5.39844 82.1875 5.66406C82.1875 5.92969 82.1094 6.15625 81.9531 6.34375C81.8047 6.52344 81.5938 6.61328 81.3203 6.61328C81.0469 6.61328 80.8359 6.52344 80.6875 6.34375C80.5391 6.15625 80.4648 5.92969 80.4648 5.66406ZM86.8164 9.32031L86.8516 11.3359C87.2266 10.6484 87.7031 10.1016 88.2812 9.69531C88.8672 9.28906 89.5312 9.08594 90.2734 9.08594C92.4844 9.08594 93.6172 10.5586 93.6719 13.5039V22H92.3828V13.6445C92.375 12.5117 92.1758 11.6758 91.7852 11.1367C91.3945 10.5977 90.7812 10.3281 89.9453 10.3281C89.2656 10.3281 88.6523 10.5859 88.1055 11.1016C87.5664 11.6094 87.1562 12.3086 86.875 13.1992V22H85.5742V9.32031H86.8164ZM5.75781 41.5859L3.77734 43.8828V50H2.44141V32.9375H3.77734V42.0312L5.65234 39.6875L10.9375 32.9375H12.6133L6.66016 40.5312L13.0703 50H11.4414L5.75781 41.5859ZM20.7344 50H19.4219V34.6602L15.5664 36.3828V35.0469L20.5117 32.8789H20.7344V50ZM34.1406 44.4922H36.332V45.7109H34.1406V50H32.8398V45.7109H26.1367V44.8789L32.7344 32.9375H34.1406V44.4922ZM27.6953 44.4922H32.8398V34.9062L32.3711 35.8555L27.6953 44.4922ZM45.7773 42.2188C45.3711 42.9062 44.8594 43.4453 44.2422 43.8359C43.625 44.2188 42.9688 44.4102 42.2734 44.4102C41.0547 44.4102 40.0664 43.875 39.3086 42.8047C38.5508 41.7344 38.1719 40.3633 38.1719 38.6914C38.1719 36.957 38.5664 35.5273 39.3555 34.4023C40.1523 33.2695 41.207 32.7031 42.5195 32.7031C43.957 32.7031 45.0742 33.3008 45.8711 34.4961C46.6758 35.6914 47.0781 37.3906 47.0781 39.5938V40.8594C47.0781 43.9688 46.5352 46.2852 45.4492 47.8086C44.3633 49.3242 42.7109 50.0938 40.4922 50.1172H40.1406L40.1523 48.875H40.5273C42.2148 48.8516 43.4961 48.2969 44.3711 47.2109C45.2539 46.1172 45.7227 44.4531 45.7773 42.2188ZM42.4492 43.1797C43.1836 43.1797 43.8516 42.9141 44.4531 42.3828C45.0625 41.8438 45.5078 41.125 45.7891 40.2266V39.3711C45.7891 37.6914 45.4922 36.3672 44.8984 35.3984C44.3125 34.4219 43.5234 33.9336 42.5312 33.9336C41.6328 33.9336 40.8945 34.3789 40.3164 35.2695C39.7383 36.1602 39.4492 37.2812 39.4492 38.6328C39.4492 39.9375 39.7266 41.0234 40.2812 41.8906C40.8359 42.75 41.5586 43.1797 42.4492 43.1797ZM55.1289 41.3047H59.418V42.6523H55.1289V48.2891H53.8047V42.6523H49.5859V41.3047H53.8047V35.8672H55.1289V41.3047ZM69.3086 42.2188C68.9023 42.9062 68.3906 43.4453 67.7734 43.8359C67.1562 44.2188 66.5 44.4102 65.8047 44.4102C64.5859 44.4102 63.5977 43.875 62.8398 42.8047C62.082 41.7344 61.7031 40.3633 61.7031 38.6914C61.7031 36.957 62.0977 35.5273 62.8867 34.4023C63.6836 33.2695 64.7383 32.7031 66.0508 32.7031C67.4883 32.7031 68.6055 33.3008 69.4023 34.4961C70.207 35.6914 70.6094 37.3906 70.6094 39.5938V40.8594C70.6094 43.9688 70.0664 46.2852 68.9805 47.8086C67.8945 49.3242 66.2422 50.0938 64.0234 50.1172H63.6719L63.6836 48.875H64.0586C65.7461 48.8516 67.0273 48.2969 67.9023 47.2109C68.7852 46.1172 69.2539 44.4531 69.3086 42.2188ZM65.9805 43.1797C66.7148 43.1797 67.3828 42.9141 67.9844 42.3828C68.5938 41.8438 69.0391 41.125 69.3203 40.2266V39.3711C69.3203 37.6914 69.0234 36.3672 68.4297 35.3984C67.8438 34.4219 67.0547 33.9336 66.0625 33.9336C65.1641 33.9336 64.4258 34.3789 63.8477 35.2695C63.2695 36.1602 62.9805 37.2812 62.9805 38.6328C62.9805 39.9375 63.2578 41.0234 63.8125 41.8906C64.3672 42.75 65.0898 43.1797 65.9805 43.1797ZM79.2812 50H77.9688V34.6602L74.1133 36.3828V35.0469L79.0586 32.8789H79.2812V50ZM94.4219 50H85.375V48.8984L90.2266 42.3477C91.0391 41.2305 91.6055 40.3047 91.9258 39.5703C92.2461 38.8359 92.4062 38.1172 92.4062 37.4141C92.4062 36.3438 92.1484 35.4961 91.6328 34.8711C91.125 34.2383 90.418 33.9219 89.5117 33.9219C88.5508 33.9219 87.7852 34.2891 87.2148 35.0234C86.6445 35.75 86.3594 36.6953 86.3594 37.8594H85.0586C85.0586 36.375 85.4688 35.1445 86.2891 34.168C87.1094 33.1914 88.1836 32.7031 89.5117 32.7031C90.8086 32.7031 91.8359 33.1094 92.5938 33.9219C93.3516 34.7266 93.7305 35.8477 93.7305 37.2852C93.7305 38.6523 93.1133 40.25 91.8789 42.0781L91.1289 43.1562L86.957 48.793H94.4219V50ZM97.1875 49.1445C97.1875 48.8633 97.2734 48.6289 97.4453 48.4414C97.625 48.2461 97.8711 48.1484 98.1836 48.1484C98.4961 48.1484 98.7422 48.2461 98.9219 48.4414C99.1016 48.6289 99.1914 48.8633 99.1914 49.1445C99.1914 49.418 99.1016 49.6445 98.9219 49.8242C98.7422 50.0039 98.4961 50.0938 98.1836 50.0938C97.8711 50.0938 97.625 50.0039 97.4453 49.8242C97.2734 49.6445 97.1875 49.418 97.1875 49.1445ZM111.273 37.332C111.273 38.1914 111.062 38.9727 110.641 39.6758C110.227 40.3711 109.66 40.8945 108.941 41.2461C109.785 41.6055 110.445 42.1602 110.922 42.9102C111.406 43.6602 111.648 44.5156 111.648 45.4766C111.648 46.9141 111.23 48.0664 110.395 48.9336C109.566 49.8008 108.465 50.2344 107.09 50.2344C105.699 50.2344 104.59 49.8047 103.762 48.9453C102.934 48.0781 102.52 46.9219 102.52 45.4766C102.52 44.5 102.754 43.6406 103.223 42.8984C103.699 42.1562 104.352 41.6055 105.18 41.2461C104.461 40.8945 103.895 40.375 103.48 39.6875C103.074 38.9922 102.871 38.207 102.871 37.332C102.871 35.918 103.254 34.793 104.02 33.957C104.785 33.1211 105.801 32.7031 107.066 32.7031C108.34 32.7031 109.359 33.125 110.125 33.9688C110.891 34.8125 111.273 35.9336 111.273 37.332ZM110.336 45.4766C110.336 44.4141 110.027 43.5469 109.41 42.875C108.793 42.1953 108.012 41.8555 107.066 41.8555C106.121 41.8555 105.34 42.1875 104.723 42.8516C104.113 43.5156 103.809 44.3906 103.809 45.4766C103.809 46.5625 104.102 47.4258 104.688 48.0664C105.281 48.707 106.082 49.0273 107.09 49.0273C108.074 49.0273 108.859 48.707 109.445 48.0664C110.039 47.4258 110.336 46.5625 110.336 45.4766ZM109.973 37.3203C109.973 36.3438 109.695 35.5352 109.141 34.8945C108.594 34.2461 107.902 33.9219 107.066 33.9219C106.199 33.9219 105.5 34.2344 104.969 34.8594C104.445 35.4844 104.184 36.3047 104.184 37.3203C104.184 38.3438 104.453 39.1523 104.992 39.7461C105.539 40.3398 106.234 40.6367 107.078 40.6367C107.922 40.6367 108.613 40.3359 109.152 39.7344C109.699 39.125 109.973 38.3203 109.973 37.3203ZM117.074 40.6953H118.352C119.305 40.6875 120.074 40.3867 120.66 39.793C121.254 39.1914 121.551 38.3906 121.551 37.3906C121.551 36.2891 121.297 35.4375 120.789 34.8359C120.281 34.2266 119.562 33.9219 118.633 33.9219C117.727 33.9219 116.992 34.2461 116.43 34.8945C115.875 35.5352 115.598 36.375 115.598 37.4141H114.297C114.297 36.5234 114.477 35.7227 114.836 35.0117C115.203 34.293 115.723 33.7305 116.395 33.3242C117.066 32.9102 117.812 32.7031 118.633 32.7031C119.914 32.7031 120.938 33.1211 121.703 33.957C122.469 34.7852 122.852 35.9453 122.852 37.4375C122.852 38.2812 122.629 39.0469 122.184 39.7344C121.746 40.4219 121.156 40.9297 120.414 41.2578C121.273 41.5391 121.938 42.0352 122.406 42.7461C122.875 43.4492 123.109 44.3203 123.109 45.3594C123.109 46.8438 122.703 48.0273 121.891 48.9102C121.078 49.793 120.004 50.2344 118.668 50.2344C117.816 50.2344 117.035 50.0352 116.324 49.6367C115.613 49.2305 115.062 48.6641 114.672 47.9375C114.289 47.2109 114.098 46.3594 114.098 45.3828H115.398C115.398 46.4453 115.699 47.3203 116.301 48.0078C116.91 48.6875 117.699 49.0273 118.668 49.0273C119.66 49.0273 120.43 48.7188 120.977 48.1016C121.531 47.4766 121.809 46.5781 121.809 45.4062C121.809 44.2812 121.512 43.4219 120.918 42.8281C120.332 42.2266 119.473 41.9219 118.34 41.9141H117.074V40.6953Z" fill="black"/>
</svg>
