<svg width="118" height="56" viewBox="0 0 118 56" fill="none" xmlns="http://www.w3.org/2000/svg">
<path d="M3.60547 15.0625V22H2.26953V4.9375H7.22656C8.73438 4.9375 9.92188 5.39063 10.7891 6.29688C11.6562 7.20312 12.0898 8.44922 12.0898 10.0352C12.0898 11.6523 11.668 12.8945 10.8242 13.7617C9.98828 14.6289 8.78125 15.0625 7.20312 15.0625H3.60547ZM3.60547 13.8086H7.22656C8.35156 13.8086 9.21875 13.4844 9.82812 12.8359C10.4453 12.1797 10.7539 11.2539 10.7539 10.0586C10.7539 8.86328 10.4414 7.92188 9.81641 7.23438C9.19922 6.54687 8.33984 6.20312 7.23828 6.20312H3.60547V13.8086ZM23.2227 17.8047C23.2227 16.8516 22.9492 16.1016 22.4023 15.5547C21.8633 15.0078 20.8516 14.4844 19.3672 13.9844C17.8828 13.4844 16.793 12.9258 16.0977 12.3086C15.1836 11.5039 14.7266 10.4414 14.7266 9.12109C14.7266 7.81641 15.1758 6.75391 16.0742 5.93359C16.9727 5.11328 18.1328 4.70312 19.5547 4.70312C21.0078 4.70312 22.1953 5.17969 23.1172 6.13281C24.0391 7.08594 24.5 8.3125 24.5 9.8125H23.1523C23.1523 8.66406 22.8281 7.73828 22.1797 7.03516C21.5391 6.32422 20.6641 5.96875 19.5547 5.96875C18.4766 5.96875 17.625 6.26172 17 6.84766C16.3828 7.42578 16.0742 8.17578 16.0742 9.09766C16.0742 9.95703 16.3672 10.6602 16.9531 11.207C17.5391 11.7539 18.4727 12.2422 19.7539 12.6719C21.0352 13.0938 22.0039 13.5352 22.6602 13.9961C23.3164 14.4492 23.8008 14.9844 24.1133 15.6016C24.4258 16.2188 24.582 16.9453 24.582 17.7812C24.582 19.1172 24.1289 20.1953 23.2227 21.0156C22.3242 21.8281 21.1328 22.2344 19.6484 22.2344C18.6484 22.2344 17.7344 22.0312 16.9062 21.625C16.0859 21.2109 15.4414 20.6211 14.9727 19.8555C14.5117 19.082 14.2812 18.1719 14.2812 17.125H15.6172C15.6172 18.3281 15.9805 19.2734 16.707 19.9609C17.4336 20.6484 18.4141 20.9922 19.6484 20.9922C20.7266 20.9922 21.5898 20.7031 22.2383 20.125C22.8945 19.5469 23.2227 18.7734 23.2227 17.8047ZM32.0586 19.8672L32.0938 20.0547L32.1406 19.8672L36.5938 4.9375H38.0703L32.7383 22H31.4727L26.1406 4.9375H27.6055L32.0586 19.8672ZM53.9023 14.0547H47.3398V22H46.0039V4.9375H54.8867V6.20312H47.3398V12.7891H53.9023V14.0547ZM62.1523 10.5391C61.8398 10.4844 61.5664 10.457 61.332 10.457C60.6133 10.457 60.0078 10.7031 59.5156 11.1953C59.0312 11.6875 58.6875 12.3711 58.4844 13.2461V22H57.1836V9.32031H58.4609L58.4844 11.2188C59.1016 9.79688 60.0703 9.08594 61.3906 9.08594C61.7344 9.08594 61.9961 9.13672 62.1758 9.23828L62.1523 10.5391ZM70.6836 22C70.5664 21.5938 70.4883 21.0078 70.4492 20.2422C70.0586 20.875 69.5547 21.3672 68.9375 21.7188C68.3281 22.0625 67.6641 22.2344 66.9453 22.2344C65.8516 22.2344 65 21.9258 64.3906 21.3086C63.7812 20.6914 63.4766 19.8125 63.4766 18.6719C63.4766 17.4297 63.8984 16.4453 64.7422 15.7188C65.5938 14.9922 66.7656 14.625 68.2578 14.6172H70.4375V12.8477C70.4375 11.9414 70.2109 11.293 69.7578 10.9023C69.3125 10.5039 68.6562 10.3047 67.7891 10.3047C66.9844 10.3047 66.3242 10.5391 65.8086 11.0078C65.293 11.4766 65.0352 12.082 65.0352 12.8242L63.7344 12.8125C63.7344 11.7734 64.125 10.8945 64.9062 10.1758C65.6875 9.44922 66.668 9.08594 67.8477 9.08594C69.1211 9.08594 70.0859 9.40625 70.7422 10.0469C71.3984 10.6875 71.7266 11.6211 71.7266 12.8477V19.0703C71.7266 20.3125 71.8398 21.2422 72.0664 21.8594V22H70.6836ZM67.1094 20.9805C67.875 20.9805 68.5508 20.7812 69.1367 20.3828C69.7305 19.9844 70.1641 19.4531 70.4375 18.7891V15.707H68.375C67.1875 15.7227 66.293 15.9883 65.6914 16.5039C65.0898 17.0117 64.7891 17.6992 64.7891 18.5664C64.7891 20.1758 65.5625 20.9805 67.1094 20.9805ZM76.5195 9.32031L76.5547 11.3359C76.9297 10.6484 77.4062 10.1016 77.9844 9.69531C78.5703 9.28906 79.2344 9.08594 79.9766 9.08594C82.1875 9.08594 83.3203 10.5586 83.375 13.5039V22H82.0859V13.6445C82.0781 12.5117 81.8789 11.6758 81.4883 11.1367C81.0977 10.5977 80.4844 10.3281 79.6484 10.3281C78.9688 10.3281 78.3555 10.5859 77.8086 11.1016C77.2695 11.6094 76.8594 12.3086 76.5781 13.1992V22H75.2773V9.32031H76.5195ZM90.8398 21.0273C91.7461 21.0273 92.4414 20.7734 92.9258 20.2656C93.4102 19.7578 93.6719 19.0273 93.7109 18.0742H94.9648C94.9023 19.3711 94.4883 20.3906 93.7227 21.1328C92.957 21.8672 91.9961 22.2344 90.8398 22.2344C89.332 22.2344 88.1914 21.7539 87.418 20.793C86.6523 19.8242 86.2617 18.3906 86.2461 16.4922V14.9453C86.2461 13.0078 86.6289 11.5469 87.3945 10.5625C88.168 9.57812 89.3125 9.08594 90.8281 9.08594C92.0859 9.08594 93.0781 9.48438 93.8047 10.2812C94.5312 11.0703 94.918 12.1758 94.9648 13.5977H93.7109C93.6719 12.5508 93.4062 11.7422 92.9141 11.1719C92.4219 10.5938 91.7266 10.3047 90.8281 10.3047C89.7031 10.3047 88.875 10.6836 88.3438 11.4414C87.8203 12.1992 87.5586 13.3633 87.5586 14.9336V16.375C87.5586 18 87.8242 19.1836 88.3555 19.9258C88.8867 20.6602 89.7148 21.0273 90.8398 21.0273ZM99.1836 22H97.8711V9.32031H99.1836V22ZM97.6836 5.66406C97.6836 5.39844 97.7578 5.17188 97.9062 4.98438C98.0547 4.79688 98.2656 4.70312 98.5391 4.70312C98.8125 4.70312 99.0234 4.79688 99.1719 4.98438C99.3281 5.17188 99.4062 5.39844 99.4062 5.66406C99.4062 5.92969 99.3281 6.15625 99.1719 6.34375C99.0234 6.52344 98.8125 6.61328 98.5391 6.61328C98.2656 6.61328 98.0547 6.52344 97.9062 6.34375C97.7578 6.15625 97.6836 5.92969 97.6836 5.66406ZM109.496 22C109.379 21.5938 109.301 21.0078 109.262 20.2422C108.871 20.875 108.367 21.3672 107.75 21.7188C107.141 22.0625 106.477 22.2344 105.758 22.2344C104.664 22.2344 103.812 21.9258 103.203 21.3086C102.594 20.6914 102.289 19.8125 102.289 18.6719C102.289 17.4297 102.711 16.4453 103.555 15.7188C104.406 14.9922 105.578 14.625 107.07 14.6172H109.25V12.8477C109.25 11.9414 109.023 11.293 108.57 10.9023C108.125 10.5039 107.469 10.3047 106.602 10.3047C105.797 10.3047 105.137 10.5391 104.621 11.0078C104.105 11.4766 103.848 12.082 103.848 12.8242L102.547 12.8125C102.547 11.7734 102.938 10.8945 103.719 10.1758C104.5 9.44922 105.48 9.08594 106.66 9.08594C107.934 9.08594 108.898 9.40625 109.555 10.0469C110.211 10.6875 110.539 11.6211 110.539 12.8477V19.0703C110.539 20.3125 110.652 21.2422 110.879 21.8594V22H109.496ZM105.922 20.9805C106.688 20.9805 107.363 20.7812 107.949 20.3828C108.543 19.9844 108.977 19.4531 109.25 18.7891V15.707H107.188C106 15.7227 105.105 15.9883 104.504 16.5039C103.902 17.0117 103.602 17.6992 103.602 18.5664C103.602 20.1758 104.375 20.9805 105.922 20.9805ZM8.09375 41.5859L6.11328 43.8828V50H4.77734V32.9375H6.11328V42.0312L7.98828 39.6875L13.2734 32.9375H14.9492L8.99609 40.5312L15.4062 50H13.7773L8.09375 41.5859ZM24.7695 42.2188C24.3633 42.9062 23.8516 43.4453 23.2344 43.8359C22.6172 44.2188 21.9609 44.4102 21.2656 44.4102C20.0469 44.4102 19.0586 43.875 18.3008 42.8047C17.543 41.7344 17.1641 40.3633 17.1641 38.6914C17.1641 36.957 17.5586 35.5273 18.3477 34.4023C19.1445 33.2695 20.1992 32.7031 21.5117 32.7031C22.9492 32.7031 24.0664 33.3008 24.8633 34.4961C25.668 35.6914 26.0703 37.3906 26.0703 39.5938V40.8594C26.0703 43.9688 25.5273 46.2852 24.4414 47.8086C23.3555 49.3242 21.7031 50.0938 19.4844 50.1172H19.1328L19.1445 48.875H19.5195C21.207 48.8516 22.4883 48.2969 23.3633 47.2109C24.2461 46.1172 24.7148 44.4531 24.7695 42.2188ZM21.4414 43.1797C22.1758 43.1797 22.8438 42.9141 23.4453 42.3828C24.0547 41.8438 24.5 41.125 24.7812 40.2266V39.3711C24.7812 37.6914 24.4844 36.3672 23.8906 35.3984C23.3047 34.4219 22.5156 33.9336 21.5234 33.9336C20.625 33.9336 19.8867 34.3789 19.3086 35.2695C18.7305 36.1602 18.4414 37.2812 18.4414 38.6328C18.4414 39.9375 18.7188 41.0234 19.2734 41.8906C19.8281 42.75 20.5508 43.1797 21.4414 43.1797ZM34.7422 50H33.4297V34.6602L29.5742 36.3828V35.0469L34.5195 32.8789H34.7422V50ZM45.793 41.3047H50.082V42.6523H45.793V48.2891H44.4688V42.6523H40.25V41.3047H44.4688V35.8672H45.793V41.3047ZM59.9727 42.2188C59.5664 42.9062 59.0547 43.4453 58.4375 43.8359C57.8203 44.2188 57.1641 44.4102 56.4688 44.4102C55.25 44.4102 54.2617 43.875 53.5039 42.8047C52.7461 41.7344 52.3672 40.3633 52.3672 38.6914C52.3672 36.957 52.7617 35.5273 53.5508 34.4023C54.3477 33.2695 55.4023 32.7031 56.7148 32.7031C58.1523 32.7031 59.2695 33.3008 60.0664 34.4961C60.8711 35.6914 61.2734 37.3906 61.2734 39.5938V40.8594C61.2734 43.9688 60.7305 46.2852 59.6445 47.8086C58.5586 49.3242 56.9062 50.0938 54.6875 50.1172H54.3359L54.3477 48.875H54.7227C56.4102 48.8516 57.6914 48.2969 58.5664 47.2109C59.4492 46.1172 59.918 44.4531 59.9727 42.2188ZM56.6445 43.1797C57.3789 43.1797 58.0469 42.9141 58.6484 42.3828C59.2578 41.8438 59.7031 41.125 59.9844 40.2266V39.3711C59.9844 37.6914 59.6875 36.3672 59.0938 35.3984C58.5078 34.4219 57.7188 33.9336 56.7266 33.9336C55.8281 33.9336 55.0898 34.3789 54.5117 35.2695C53.9336 36.1602 53.6445 37.2812 53.6445 38.6328C53.6445 39.9375 53.9219 41.0234 54.4766 41.8906C55.0312 42.75 55.7539 43.1797 56.6445 43.1797ZM65.1641 41.2578L65.8672 32.9375H73.0742V34.2734H66.9805L66.5 39.9922C67.2656 39.3672 68.1445 39.0547 69.1367 39.0547C70.4414 39.0547 71.4727 39.5586 72.2305 40.5664C72.9961 41.5664 73.3789 42.8984 73.3789 44.5625C73.3789 46.3438 73.0039 47.7344 72.2539 48.7344C71.5039 49.7344 70.4375 50.2344 69.0547 50.2344C67.7969 50.2344 66.7773 49.8164 65.9961 48.9805C65.2148 48.1367 64.7734 46.9805 64.6719 45.5117H65.9141C66.0234 46.6602 66.3477 47.5352 66.8867 48.1367C67.4258 48.7305 68.1484 49.0273 69.0547 49.0273C70.0469 49.0273 70.7969 48.6406 71.3047 47.8672C71.8203 47.0938 72.0781 46 72.0781 44.5859C72.0781 43.3281 71.7891 42.3125 71.2109 41.5391C70.6406 40.7578 69.8672 40.3672 68.8906 40.3672C68.3281 40.3672 67.8438 40.457 67.4375 40.6367C67.0312 40.8086 66.6172 41.125 66.1953 41.5859L65.1641 41.2578ZM84.9453 33.7578L78.8516 50H77.4922L83.5508 34.1562H75.4766V32.9375H84.9453V33.7578ZM87.8516 49.1445C87.8516 48.8633 87.9375 48.6289 88.1094 48.4414C88.2891 48.2461 88.5352 48.1484 88.8477 48.1484C89.1602 48.1484 89.4062 48.2461 89.5859 48.4414C89.7656 48.6289 89.8555 48.8633 89.8555 49.1445C89.8555 49.418 89.7656 49.6445 89.5859 49.8242C89.4062 50.0039 89.1602 50.0938 88.8477 50.0938C88.5352 50.0938 88.2891 50.0039 88.1094 49.8242C87.9375 49.6445 87.8516 49.418 87.8516 49.1445ZM96.0664 40.6953H97.3438C98.2969 40.6875 99.0664 40.3867 99.6523 39.793C100.246 39.1914 100.543 38.3906 100.543 37.3906C100.543 36.2891 100.289 35.4375 99.7812 34.8359C99.2734 34.2266 98.5547 33.9219 97.625 33.9219C96.7188 33.9219 95.9844 34.2461 95.4219 34.8945C94.8672 35.5352 94.5898 36.375 94.5898 37.4141H93.2891C93.2891 36.5234 93.4688 35.7227 93.8281 35.0117C94.1953 34.293 94.7148 33.7305 95.3867 33.3242C96.0586 32.9102 96.8047 32.7031 97.625 32.7031C98.9062 32.7031 99.9297 33.1211 100.695 33.957C101.461 34.7852 101.844 35.9453 101.844 37.4375C101.844 38.2812 101.621 39.0469 101.176 39.7344C100.738 40.4219 100.148 40.9297 99.4062 41.2578C100.266 41.5391 100.93 42.0352 101.398 42.7461C101.867 43.4492 102.102 44.3203 102.102 45.3594C102.102 46.8438 101.695 48.0273 100.883 48.9102C100.07 49.793 98.9961 50.2344 97.6602 50.2344C96.8086 50.2344 96.0273 50.0352 95.3164 49.6367C94.6055 49.2305 94.0547 48.6641 93.6641 47.9375C93.2812 47.2109 93.0898 46.3594 93.0898 45.3828H94.3906C94.3906 46.4453 94.6914 47.3203 95.293 48.0078C95.9023 48.6875 96.6914 49.0273 97.6602 49.0273C98.6523 49.0273 99.4219 48.7188 99.9688 48.1016C100.523 47.4766 100.801 46.5781 100.801 45.4062C100.801 44.2812 100.504 43.4219 99.9102 42.8281C99.3242 42.2266 98.4648 41.9219 97.332 41.9141H96.0664V40.6953ZM113.832 42.875C113.832 45.2969 113.457 47.1289 112.707 48.3711C111.965 49.6133 110.867 50.2344 109.414 50.2344C107.977 50.2344 106.879 49.6172 106.121 48.3828C105.371 47.1406 104.988 45.3516 104.973 43.0156V40.0156C104.973 37.6406 105.344 35.8281 106.086 34.5781C106.828 33.3281 107.93 32.7031 109.391 32.7031C110.828 32.7031 111.922 33.3086 112.672 34.5195C113.422 35.7227 113.809 37.4805 113.832 39.793V42.875ZM112.52 39.8281C112.52 37.875 112.258 36.4023 111.734 35.4102C111.219 34.418 110.438 33.9219 109.391 33.9219C108.383 33.9219 107.613 34.3984 107.082 35.3516C106.559 36.2969 106.285 37.707 106.262 39.582V43.0391C106.262 44.9453 106.527 46.4219 107.059 47.4688C107.598 48.5078 108.383 49.0273 109.414 49.0273C110.414 49.0273 111.176 48.5352 111.699 47.5508C112.23 46.5586 112.504 45.1055 112.52 43.1914V39.8281Z" fill="black"/>
</svg>
