<svg width="144" height="56" viewBox="0 0 144 56" fill="none" xmlns="http://www.w3.org/2000/svg">
<path d="M3.43359 15.0625V22H2.09766V4.9375H7.05469C8.5625 4.9375 9.75 5.39063 10.6172 6.29688C11.4844 7.20312 11.918 8.44922 11.918 10.0352C11.918 11.6523 11.4961 12.8945 10.6523 13.7617C9.81641 14.6289 8.60938 15.0625 7.03125 15.0625H3.43359ZM3.43359 13.8086H7.05469C8.17969 13.8086 9.04688 13.4844 9.65625 12.8359C10.2734 12.1797 10.582 11.2539 10.582 10.0586C10.582 8.86328 10.2695 7.92188 9.64453 7.23438C9.02734 6.54687 8.16797 6.20312 7.06641 6.20312H3.43359V13.8086ZM23.0508 17.8047C23.0508 16.8516 22.7773 16.1016 22.2305 15.5547C21.6914 15.0078 20.6797 14.4844 19.1953 13.9844C17.7109 13.4844 16.6211 12.9258 15.9258 12.3086C15.0117 11.5039 14.5547 10.4414 14.5547 9.12109C14.5547 7.81641 15.0039 6.75391 15.9023 5.93359C16.8008 5.11328 17.9609 4.70312 19.3828 4.70312C20.8359 4.70312 22.0234 5.17969 22.9453 6.13281C23.8672 7.08594 24.3281 8.3125 24.3281 9.8125H22.9805C22.9805 8.66406 22.6562 7.73828 22.0078 7.03516C21.3672 6.32422 20.4922 5.96875 19.3828 5.96875C18.3047 5.96875 17.4531 6.26172 16.8281 6.84766C16.2109 7.42578 15.9023 8.17578 15.9023 9.09766C15.9023 9.95703 16.1953 10.6602 16.7812 11.207C17.3672 11.7539 18.3008 12.2422 19.582 12.6719C20.8633 13.0938 21.832 13.5352 22.4883 13.9961C23.1445 14.4492 23.6289 14.9844 23.9414 15.6016C24.2539 16.2188 24.4102 16.9453 24.4102 17.7812C24.4102 19.1172 23.957 20.1953 23.0508 21.0156C22.1523 21.8281 20.9609 22.2344 19.4766 22.2344C18.4766 22.2344 17.5625 22.0312 16.7344 21.625C15.9141 21.2109 15.2695 20.6211 14.8008 19.8555C14.3398 19.082 14.1094 18.1719 14.1094 17.125H15.4453C15.4453 18.3281 15.8086 19.2734 16.5352 19.9609C17.2617 20.6484 18.2422 20.9922 19.4766 20.9922C20.5547 20.9922 21.418 20.7031 22.0664 20.125C22.7227 19.5469 23.0508 18.7734 23.0508 17.8047ZM31.8867 19.8672L31.9219 20.0547L31.9688 19.8672L36.4219 4.9375H37.8984L32.5664 22H31.3008L25.9688 4.9375H27.4336L31.8867 19.8672ZM56.5312 22H55.1836V13.832H47.168V22H45.832V4.9375H47.168V12.5898H55.1836V4.9375H56.5312V22ZM64.5 22.2344C63.0078 22.2344 61.8398 21.7461 60.9961 20.7695C60.1523 19.793 59.7227 18.4023 59.707 16.5977V15.0508C59.707 13.1914 60.1133 11.7344 60.9258 10.6797C61.7383 9.61719 62.8555 9.08594 64.2773 9.08594C65.6523 9.08594 66.6992 9.53516 67.418 10.4336C68.1445 11.332 68.5156 12.707 68.5312 14.5586V15.7773H60.9961V16.4922C60.9961 17.9453 61.3047 19.0664 61.9219 19.8555C62.5469 20.6445 63.4258 21.0391 64.5586 21.0391C65.8086 21.0391 66.8203 20.582 67.5938 19.668L68.2734 20.5352C67.4453 21.668 66.1875 22.2344 64.5 22.2344ZM64.2773 10.3047C63.2539 10.3047 62.4648 10.668 61.9102 11.3945C61.3633 12.1133 61.0625 13.168 61.0078 14.5586H67.2305V14.2188C67.168 11.6094 66.1836 10.3047 64.2773 10.3047ZM76.2773 10.5391C75.9648 10.4844 75.6914 10.457 75.457 10.457C74.7383 10.457 74.1328 10.7031 73.6406 11.1953C73.1562 11.6875 72.8125 12.3711 72.6094 13.2461V22H71.3086V9.32031H72.5859L72.6094 11.2188C73.2266 9.79688 74.1953 9.08594 75.5156 9.08594C75.8594 9.08594 76.1211 9.13672 76.3008 9.23828L76.2773 10.5391ZM82.5234 22.2344C81.0312 22.2344 79.8633 21.7461 79.0195 20.7695C78.1758 19.793 77.7461 18.4023 77.7305 16.5977V15.0508C77.7305 13.1914 78.1367 11.7344 78.9492 10.6797C79.7617 9.61719 80.8789 9.08594 82.3008 9.08594C83.6758 9.08594 84.7227 9.53516 85.4414 10.4336C86.168 11.332 86.5391 12.707 86.5547 14.5586V15.7773H79.0195V16.4922C79.0195 17.9453 79.3281 19.0664 79.9453 19.8555C80.5703 20.6445 81.4492 21.0391 82.582 21.0391C83.832 21.0391 84.8438 20.582 85.6172 19.668L86.2969 20.5352C85.4688 21.668 84.2109 22.2344 82.5234 22.2344ZM82.3008 10.3047C81.2773 10.3047 80.4883 10.668 79.9336 11.3945C79.3867 12.1133 79.0859 13.168 79.0312 14.5586H85.2539V14.2188C85.1914 11.6094 84.207 10.3047 82.3008 10.3047ZM88.8633 15.0742C88.8633 13.0898 89.2109 11.5977 89.9062 10.5977C90.6016 9.58984 91.6328 9.08594 93 9.08594C94.4375 9.08594 95.5117 9.73047 96.2227 11.0195V4H97.5234V22H96.3047L96.2461 20.3711C95.5352 21.6133 94.4492 22.2344 92.9883 22.2344C91.6523 22.2344 90.6328 21.7266 89.9297 20.7109C89.2344 19.6953 88.8789 18.2539 88.8633 16.3867V15.0742ZM90.1875 16.2578C90.1875 17.8828 90.4297 19.0781 90.9141 19.8438C91.4062 20.6094 92.1836 20.9922 93.2461 20.9922C94.6133 20.9922 95.6055 20.3398 96.2227 19.0352V12.4609C95.6367 11.0469 94.6484 10.3398 93.2578 10.3398C92.1953 10.3398 91.418 10.7188 90.9258 11.4766C90.4414 12.2344 90.1953 13.4062 90.1875 14.9922V16.2578ZM102.504 22H101.191V9.32031H102.504V22ZM101.004 5.66406C101.004 5.39844 101.078 5.17188 101.227 4.98438C101.375 4.79688 101.586 4.70312 101.859 4.70312C102.133 4.70312 102.344 4.79688 102.492 4.98438C102.648 5.17188 102.727 5.39844 102.727 5.66406C102.727 5.92969 102.648 6.15625 102.492 6.34375C102.344 6.52344 102.133 6.61328 101.859 6.61328C101.586 6.61328 101.375 6.52344 101.227 6.34375C101.078 6.15625 101.004 5.92969 101.004 5.66406ZM112.816 22C112.699 21.5938 112.621 21.0078 112.582 20.2422C112.191 20.875 111.688 21.3672 111.07 21.7188C110.461 22.0625 109.797 22.2344 109.078 22.2344C107.984 22.2344 107.133 21.9258 106.523 21.3086C105.914 20.6914 105.609 19.8125 105.609 18.6719C105.609 17.4297 106.031 16.4453 106.875 15.7188C107.727 14.9922 108.898 14.625 110.391 14.6172H112.57V12.8477C112.57 11.9414 112.344 11.293 111.891 10.9023C111.445 10.5039 110.789 10.3047 109.922 10.3047C109.117 10.3047 108.457 10.5391 107.941 11.0078C107.426 11.4766 107.168 12.082 107.168 12.8242L105.867 12.8125C105.867 11.7734 106.258 10.8945 107.039 10.1758C107.82 9.44922 108.801 9.08594 109.98 9.08594C111.254 9.08594 112.219 9.40625 112.875 10.0469C113.531 10.6875 113.859 11.6211 113.859 12.8477V19.0703C113.859 20.3125 113.973 21.2422 114.199 21.8594V22H112.816ZM109.242 20.9805C110.008 20.9805 110.684 20.7812 111.27 20.3828C111.863 19.9844 112.297 19.4531 112.57 18.7891V15.707H110.508C109.32 15.7227 108.426 15.9883 107.824 16.5039C107.223 17.0117 106.922 17.6992 106.922 18.5664C106.922 20.1758 107.695 20.9805 109.242 20.9805ZM118.652 9.32031L118.688 11.3359C119.062 10.6484 119.539 10.1016 120.117 9.69531C120.703 9.28906 121.367 9.08594 122.109 9.08594C124.32 9.08594 125.453 10.5586 125.508 13.5039V22H124.219V13.6445C124.211 12.5117 124.012 11.6758 123.621 11.1367C123.23 10.5977 122.617 10.3281 121.781 10.3281C121.102 10.3281 120.488 10.5859 119.941 11.1016C119.402 11.6094 118.992 12.3086 118.711 13.1992V22H117.41V9.32031H118.652ZM135.668 22C135.551 21.5938 135.473 21.0078 135.434 20.2422C135.043 20.875 134.539 21.3672 133.922 21.7188C133.312 22.0625 132.648 22.2344 131.93 22.2344C130.836 22.2344 129.984 21.9258 129.375 21.3086C128.766 20.6914 128.461 19.8125 128.461 18.6719C128.461 17.4297 128.883 16.4453 129.727 15.7188C130.578 14.9922 131.75 14.625 133.242 14.6172H135.422V12.8477C135.422 11.9414 135.195 11.293 134.742 10.9023C134.297 10.5039 133.641 10.3047 132.773 10.3047C131.969 10.3047 131.309 10.5391 130.793 11.0078C130.277 11.4766 130.02 12.082 130.02 12.8242L128.719 12.8125C128.719 11.7734 129.109 10.8945 129.891 10.1758C130.672 9.44922 131.652 9.08594 132.832 9.08594C134.105 9.08594 135.07 9.40625 135.727 10.0469C136.383 10.6875 136.711 11.6211 136.711 12.8477V19.0703C136.711 20.3125 136.824 21.2422 137.051 21.8594V22H135.668ZM132.094 20.9805C132.859 20.9805 133.535 20.7812 134.121 20.3828C134.715 19.9844 135.148 19.4531 135.422 18.7891V15.707H133.359C132.172 15.7227 131.277 15.9883 130.676 16.5039C130.074 17.0117 129.773 17.6992 129.773 18.5664C129.773 20.1758 130.547 20.9805 132.094 20.9805ZM21.0938 41.5859L19.1133 43.8828V50H17.7773V32.9375H19.1133V42.0312L20.9883 39.6875L26.2734 32.9375H27.9492L21.9961 40.5312L28.4062 50H26.7773L21.0938 41.5859ZM37.7695 42.2188C37.3633 42.9062 36.8516 43.4453 36.2344 43.8359C35.6172 44.2188 34.9609 44.4102 34.2656 44.4102C33.0469 44.4102 32.0586 43.875 31.3008 42.8047C30.543 41.7344 30.1641 40.3633 30.1641 38.6914C30.1641 36.957 30.5586 35.5273 31.3477 34.4023C32.1445 33.2695 33.1992 32.7031 34.5117 32.7031C35.9492 32.7031 37.0664 33.3008 37.8633 34.4961C38.668 35.6914 39.0703 37.3906 39.0703 39.5938V40.8594C39.0703 43.9688 38.5273 46.2852 37.4414 47.8086C36.3555 49.3242 34.7031 50.0938 32.4844 50.1172H32.1328L32.1445 48.875H32.5195C34.207 48.8516 35.4883 48.2969 36.3633 47.2109C37.2461 46.1172 37.7148 44.4531 37.7695 42.2188ZM34.4414 43.1797C35.1758 43.1797 35.8438 42.9141 36.4453 42.3828C37.0547 41.8438 37.5 41.125 37.7812 40.2266V39.3711C37.7812 37.6914 37.4844 36.3672 36.8906 35.3984C36.3047 34.4219 35.5156 33.9336 34.5234 33.9336C33.625 33.9336 32.8867 34.3789 32.3086 35.2695C31.7305 36.1602 31.4414 37.2812 31.4414 38.6328C31.4414 39.9375 31.7188 41.0234 32.2734 41.8906C32.8281 42.75 33.5508 43.1797 34.4414 43.1797ZM50.8711 42.875C50.8711 45.2969 50.4961 47.1289 49.7461 48.3711C49.0039 49.6133 47.9062 50.2344 46.4531 50.2344C45.0156 50.2344 43.918 49.6172 43.1602 48.3828C42.4102 47.1406 42.0273 45.3516 42.0117 43.0156V40.0156C42.0117 37.6406 42.3828 35.8281 43.125 34.5781C43.8672 33.3281 44.9688 32.7031 46.4297 32.7031C47.8672 32.7031 48.9609 33.3086 49.7109 34.5195C50.4609 35.7227 50.8477 37.4805 50.8711 39.793V42.875ZM49.5586 39.8281C49.5586 37.875 49.2969 36.4023 48.7734 35.4102C48.2578 34.418 47.4766 33.9219 46.4297 33.9219C45.4219 33.9219 44.6523 34.3984 44.1211 35.3516C43.5977 36.2969 43.3242 37.707 43.3008 39.582V43.0391C43.3008 44.9453 43.5664 46.4219 44.0977 47.4688C44.6367 48.5078 45.4219 49.0273 46.4531 49.0273C47.4531 49.0273 48.2148 48.5352 48.7383 47.5508C49.2695 46.5586 49.543 45.1055 49.5586 43.1914V39.8281ZM58.793 41.3047H63.082V42.6523H58.793V48.2891H57.4688V42.6523H53.25V41.3047H57.4688V35.8672H58.793V41.3047ZM68.3086 40.6953H69.5859C70.5391 40.6875 71.3086 40.3867 71.8945 39.793C72.4883 39.1914 72.7852 38.3906 72.7852 37.3906C72.7852 36.2891 72.5312 35.4375 72.0234 34.8359C71.5156 34.2266 70.7969 33.9219 69.8672 33.9219C68.9609 33.9219 68.2266 34.2461 67.6641 34.8945C67.1094 35.5352 66.832 36.375 66.832 37.4141H65.5312C65.5312 36.5234 65.7109 35.7227 66.0703 35.0117C66.4375 34.293 66.957 33.7305 67.6289 33.3242C68.3008 32.9102 69.0469 32.7031 69.8672 32.7031C71.1484 32.7031 72.1719 33.1211 72.9375 33.957C73.7031 34.7852 74.0859 35.9453 74.0859 37.4375C74.0859 38.2812 73.8633 39.0469 73.418 39.7344C72.9805 40.4219 72.3906 40.9297 71.6484 41.2578C72.5078 41.5391 73.1719 42.0352 73.6406 42.7461C74.1094 43.4492 74.3438 44.3203 74.3438 45.3594C74.3438 46.8438 73.9375 48.0273 73.125 48.9102C72.3125 49.793 71.2383 50.2344 69.9023 50.2344C69.0508 50.2344 68.2695 50.0352 67.5586 49.6367C66.8477 49.2305 66.2969 48.6641 65.9062 47.9375C65.5234 47.2109 65.332 46.3594 65.332 45.3828H66.6328C66.6328 46.4453 66.9336 47.3203 67.5352 48.0078C68.1445 48.6875 68.9336 49.0273 69.9023 49.0273C70.8945 49.0273 71.6641 48.7188 72.2109 48.1016C72.7656 47.4766 73.043 46.5781 73.043 45.4062C73.043 44.2812 72.7461 43.4219 72.1523 42.8281C71.5664 42.2266 70.707 41.9219 69.5742 41.9141H68.3086V40.6953ZM79.9805 40.6953H81.2578C82.2109 40.6875 82.9805 40.3867 83.5664 39.793C84.1602 39.1914 84.457 38.3906 84.457 37.3906C84.457 36.2891 84.2031 35.4375 83.6953 34.8359C83.1875 34.2266 82.4688 33.9219 81.5391 33.9219C80.6328 33.9219 79.8984 34.2461 79.3359 34.8945C78.7812 35.5352 78.5039 36.375 78.5039 37.4141H77.2031C77.2031 36.5234 77.3828 35.7227 77.7422 35.0117C78.1094 34.293 78.6289 33.7305 79.3008 33.3242C79.9727 32.9102 80.7188 32.7031 81.5391 32.7031C82.8203 32.7031 83.8438 33.1211 84.6094 33.957C85.375 34.7852 85.7578 35.9453 85.7578 37.4375C85.7578 38.2812 85.5352 39.0469 85.0898 39.7344C84.6523 40.4219 84.0625 40.9297 83.3203 41.2578C84.1797 41.5391 84.8438 42.0352 85.3125 42.7461C85.7812 43.4492 86.0156 44.3203 86.0156 45.3594C86.0156 46.8438 85.6094 48.0273 84.7969 48.9102C83.9844 49.793 82.9102 50.2344 81.5742 50.2344C80.7227 50.2344 79.9414 50.0352 79.2305 49.6367C78.5195 49.2305 77.9688 48.6641 77.5781 47.9375C77.1953 47.2109 77.0039 46.3594 77.0039 45.3828H78.3047C78.3047 46.4453 78.6055 47.3203 79.207 48.0078C79.8164 48.6875 80.6055 49.0273 81.5742 49.0273C82.5664 49.0273 83.3359 48.7188 83.8828 48.1016C84.4375 47.4766 84.7148 46.5781 84.7148 45.4062C84.7148 44.2812 84.418 43.4219 83.8242 42.8281C83.2383 42.2266 82.3789 41.9219 81.2461 41.9141H79.9805V40.6953ZM94.6172 50H93.3047V34.6602L89.4492 36.3828V35.0469L94.3945 32.8789H94.6172V50ZM100.852 49.1445C100.852 48.8633 100.938 48.6289 101.109 48.4414C101.289 48.2461 101.535 48.1484 101.848 48.1484C102.16 48.1484 102.406 48.2461 102.586 48.4414C102.766 48.6289 102.855 48.8633 102.855 49.1445C102.855 49.418 102.766 49.6445 102.586 49.8242C102.406 50.0039 102.16 50.0938 101.848 50.0938C101.535 50.0938 101.289 50.0039 101.109 49.8242C100.938 49.6445 100.852 49.418 100.852 49.1445ZM115.359 33.7578L109.266 50H107.906L113.965 34.1562H105.891V32.9375H115.359V33.7578ZM127.031 33.7578L120.938 50H119.578L125.637 34.1562H117.562V32.9375H127.031V33.7578Z" fill="black"/>
</svg>
