<svg width="125" height="56" viewBox="0 0 125 56" fill="none" xmlns="http://www.w3.org/2000/svg">
<path d="M6.49609 15.0625V22H5.16016V4.9375H10.1172C11.625 4.9375 12.8125 5.39063 13.6797 6.29688C14.5469 7.20312 14.9805 8.44922 14.9805 10.0352C14.9805 11.6523 14.5586 12.8945 13.7148 13.7617C12.8789 14.6289 11.6719 15.0625 10.0938 15.0625H6.49609ZM6.49609 13.8086H10.1172C11.2422 13.8086 12.1094 13.4844 12.7188 12.8359C13.3359 12.1797 13.6445 11.2539 13.6445 10.0586C13.6445 8.86328 13.332 7.92188 12.707 7.23438C12.0898 6.54687 11.2305 6.20312 10.1289 6.20312H6.49609V13.8086ZM26.1133 17.8047C26.1133 16.8516 25.8398 16.1016 25.293 15.5547C24.7539 15.0078 23.7422 14.4844 22.2578 13.9844C20.7734 13.4844 19.6836 12.9258 18.9883 12.3086C18.0742 11.5039 17.6172 10.4414 17.6172 9.12109C17.6172 7.81641 18.0664 6.75391 18.9648 5.93359C19.8633 5.11328 21.0234 4.70312 22.4453 4.70312C23.8984 4.70312 25.0859 5.17969 26.0078 6.13281C26.9297 7.08594 27.3906 8.3125 27.3906 9.8125H26.043C26.043 8.66406 25.7188 7.73828 25.0703 7.03516C24.4297 6.32422 23.5547 5.96875 22.4453 5.96875C21.3672 5.96875 20.5156 6.26172 19.8906 6.84766C19.2734 7.42578 18.9648 8.17578 18.9648 9.09766C18.9648 9.95703 19.2578 10.6602 19.8438 11.207C20.4297 11.7539 21.3633 12.2422 22.6445 12.6719C23.9258 13.0938 24.8945 13.5352 25.5508 13.9961C26.207 14.4492 26.6914 14.9844 27.0039 15.6016C27.3164 16.2188 27.4727 16.9453 27.4727 17.7812C27.4727 19.1172 27.0195 20.1953 26.1133 21.0156C25.2148 21.8281 24.0234 22.2344 22.5391 22.2344C21.5391 22.2344 20.625 22.0312 19.7969 21.625C18.9766 21.2109 18.332 20.6211 17.8633 19.8555C17.4023 19.082 17.1719 18.1719 17.1719 17.125H18.5078C18.5078 18.3281 18.8711 19.2734 19.5977 19.9609C20.3242 20.6484 21.3047 20.9922 22.5391 20.9922C23.6172 20.9922 24.4805 20.7031 25.1289 20.125C25.7852 19.5469 26.1133 18.7734 26.1133 17.8047ZM34.9492 19.8672L34.9844 20.0547L35.0312 19.8672L39.4844 4.9375H40.9609L35.6289 22H34.3633L29.0312 4.9375H30.4961L34.9492 19.8672ZM48.8945 22V4.9375H53.2188C54.7578 4.9375 55.9219 5.31641 56.7109 6.07422C57.5078 6.82422 57.9062 7.93359 57.9062 9.40234C57.9062 10.2773 57.7031 11.0391 57.2969 11.6875C56.8906 12.3359 56.3281 12.8047 55.6094 13.0938C56.4375 13.3047 57.1055 13.7891 57.6133 14.5469C58.1289 15.2969 58.3867 16.1797 58.3867 17.1953C58.3867 18.6797 57.9805 19.8516 57.168 20.7109C56.3555 21.5703 55.2031 22 53.7109 22H48.8945ZM50.2305 13.8086V20.7578H53.7695C54.7852 20.7578 55.5859 20.4453 56.1719 19.8203C56.7578 19.1953 57.0508 18.3281 57.0508 17.2188C57.0508 16.1875 56.7773 15.3672 56.2305 14.7578C55.6914 14.1484 54.9375 13.832 53.9688 13.8086H50.2305ZM50.2305 12.5781H53.3359C54.3516 12.5781 55.1406 12.3086 55.7031 11.7695C56.2656 11.2305 56.5469 10.4297 56.5469 9.36719C56.5469 8.28125 56.2695 7.48437 55.7148 6.97656C55.168 6.46094 54.3359 6.20312 53.2188 6.20312H50.2305V12.5781ZM68.1836 22C68.0664 21.5938 67.9883 21.0078 67.9492 20.2422C67.5586 20.875 67.0547 21.3672 66.4375 21.7188C65.8281 22.0625 65.1641 22.2344 64.4453 22.2344C63.3516 22.2344 62.5 21.9258 61.8906 21.3086C61.2812 20.6914 60.9766 19.8125 60.9766 18.6719C60.9766 17.4297 61.3984 16.4453 62.2422 15.7188C63.0938 14.9922 64.2656 14.625 65.7578 14.6172H67.9375V12.8477C67.9375 11.9414 67.7109 11.293 67.2578 10.9023C66.8125 10.5039 66.1562 10.3047 65.2891 10.3047C64.4844 10.3047 63.8242 10.5391 63.3086 11.0078C62.793 11.4766 62.5352 12.082 62.5352 12.8242L61.2344 12.8125C61.2344 11.7734 61.625 10.8945 62.4062 10.1758C63.1875 9.44922 64.168 9.08594 65.3477 9.08594C66.6211 9.08594 67.5859 9.40625 68.2422 10.0469C68.8984 10.6875 69.2266 11.6211 69.2266 12.8477V19.0703C69.2266 20.3125 69.3398 21.2422 69.5664 21.8594V22H68.1836ZM64.6094 20.9805C65.375 20.9805 66.0508 20.7812 66.6367 20.3828C67.2305 19.9844 67.6641 19.4531 67.9375 18.7891V15.707H65.875C64.6875 15.7227 63.793 15.9883 63.1914 16.5039C62.5898 17.0117 62.2891 17.6992 62.2891 18.5664C62.2891 20.1758 63.0625 20.9805 64.6094 20.9805ZM77.7461 10.5391C77.4336 10.4844 77.1602 10.457 76.9258 10.457C76.207 10.457 75.6016 10.7031 75.1094 11.1953C74.625 11.6875 74.2812 12.3711 74.0781 13.2461V22H72.7773V9.32031H74.0547L74.0781 11.2188C74.6953 9.79688 75.6641 9.08594 76.9844 9.08594C77.3281 9.08594 77.5898 9.13672 77.7695 9.23828L77.7461 10.5391ZM88.7031 16.2578C88.7031 18.2109 88.3594 19.6953 87.6719 20.7109C86.9922 21.7266 85.9766 22.2344 84.625 22.2344C83.1328 22.2344 82.0273 21.5898 81.3086 20.3008L81.25 22H80.043V4H81.332V11.0898C82.043 9.75391 83.1328 9.08594 84.6016 9.08594C85.9688 9.08594 86.9883 9.57031 87.6602 10.5391C88.332 11.5 88.6797 12.9375 88.7031 14.8516V16.2578ZM87.4023 15.0742C87.4023 13.4648 87.1641 12.2734 86.6875 11.5C86.2109 10.7266 85.4297 10.3398 84.3438 10.3398C82.8984 10.3398 81.8945 11.1016 81.332 12.625V18.9062C81.5977 19.5703 81.9883 20.0859 82.5039 20.4531C83.0195 20.8125 83.6406 20.9922 84.3672 20.9922C85.4062 20.9922 86.168 20.6172 86.6523 19.8672C87.1445 19.1094 87.3945 17.9336 87.4023 16.3398V15.0742ZM93.168 22H91.8555V9.32031H93.168V22ZM91.668 5.66406C91.668 5.39844 91.7422 5.17188 91.8906 4.98438C92.0391 4.79688 92.25 4.70312 92.5234 4.70312C92.7969 4.70312 93.0078 4.79688 93.1562 4.98438C93.3125 5.17188 93.3906 5.39844 93.3906 5.66406C93.3906 5.92969 93.3125 6.15625 93.1562 6.34375C93.0078 6.52344 92.7969 6.61328 92.5234 6.61328C92.25 6.61328 92.0391 6.52344 91.8906 6.34375C91.7422 6.15625 91.668 5.92969 91.668 5.66406ZM98.2305 22H96.918V4H98.2305V22ZM103.293 22H101.98V4H103.293V22ZM113.605 22C113.488 21.5938 113.41 21.0078 113.371 20.2422C112.98 20.875 112.477 21.3672 111.859 21.7188C111.25 22.0625 110.586 22.2344 109.867 22.2344C108.773 22.2344 107.922 21.9258 107.312 21.3086C106.703 20.6914 106.398 19.8125 106.398 18.6719C106.398 17.4297 106.82 16.4453 107.664 15.7188C108.516 14.9922 109.688 14.625 111.18 14.6172H113.359V12.8477C113.359 11.9414 113.133 11.293 112.68 10.9023C112.234 10.5039 111.578 10.3047 110.711 10.3047C109.906 10.3047 109.246 10.5391 108.73 11.0078C108.215 11.4766 107.957 12.082 107.957 12.8242L106.656 12.8125C106.656 11.7734 107.047 10.8945 107.828 10.1758C108.609 9.44922 109.59 9.08594 110.77 9.08594C112.043 9.08594 113.008 9.40625 113.664 10.0469C114.32 10.6875 114.648 11.6211 114.648 12.8477V19.0703C114.648 20.3125 114.762 21.2422 114.988 21.8594V22H113.605ZM110.031 20.9805C110.797 20.9805 111.473 20.7812 112.059 20.3828C112.652 19.9844 113.086 19.4531 113.359 18.7891V15.707H111.297C110.109 15.7227 109.215 15.9883 108.613 16.5039C108.012 17.0117 107.711 17.6992 107.711 18.5664C107.711 20.1758 108.484 20.9805 110.031 20.9805ZM5.75781 41.5859L3.77734 43.8828V50H2.44141V32.9375H3.77734V42.0312L5.65234 39.6875L10.9375 32.9375H12.6133L6.66016 40.5312L13.0703 50H11.4414L5.75781 41.5859ZM20.7344 50H19.4219V34.6602L15.5664 36.3828V35.0469L20.5117 32.8789H20.7344V50ZM32.4062 50H31.0938V34.6602L27.2383 36.3828V35.0469L32.1836 32.8789H32.4062V50ZM39.2969 41.2578L40 32.9375H47.207V34.2734H41.1133L40.6328 39.9922C41.3984 39.3672 42.2773 39.0547 43.2695 39.0547C44.5742 39.0547 45.6055 39.5586 46.3633 40.5664C47.1289 41.5664 47.5117 42.8984 47.5117 44.5625C47.5117 46.3438 47.1367 47.7344 46.3867 48.7344C45.6367 49.7344 44.5703 50.2344 43.1875 50.2344C41.9297 50.2344 40.9102 49.8164 40.1289 48.9805C39.3477 48.1367 38.9062 46.9805 38.8047 45.5117H40.0469C40.1562 46.6602 40.4805 47.5352 41.0195 48.1367C41.5586 48.7305 42.2812 49.0273 43.1875 49.0273C44.1797 49.0273 44.9297 48.6406 45.4375 47.8672C45.9531 47.0938 46.2109 46 46.2109 44.5859C46.2109 43.3281 45.9219 42.3125 45.3438 41.5391C44.7734 40.7578 44 40.3672 43.0234 40.3672C42.4609 40.3672 41.9766 40.457 41.5703 40.6367C41.1641 40.8086 40.75 41.125 40.3281 41.5859L39.2969 41.2578ZM55.1289 41.3047H59.418V42.6523H55.1289V48.2891H53.8047V42.6523H49.5859V41.3047H53.8047V35.8672H55.1289V41.3047ZM71.0781 50H62.0312V48.8984L66.8828 42.3477C67.6953 41.2305 68.2617 40.3047 68.582 39.5703C68.9023 38.8359 69.0625 38.1172 69.0625 37.4141C69.0625 36.3438 68.8047 35.4961 68.2891 34.8711C67.7812 34.2383 67.0742 33.9219 66.168 33.9219C65.207 33.9219 64.4414 34.2891 63.8711 35.0234C63.3008 35.75 63.0156 36.6953 63.0156 37.8594H61.7148C61.7148 36.375 62.125 35.1445 62.9453 34.168C63.7656 33.1914 64.8398 32.7031 66.168 32.7031C67.4648 32.7031 68.4922 33.1094 69.25 33.9219C70.0078 34.7266 70.3867 35.8477 70.3867 37.2852C70.3867 38.6523 69.7695 40.25 68.5352 42.0781L67.7852 43.1562L63.6133 48.793H71.0781V50ZM82.4102 42.875C82.4102 45.2969 82.0352 47.1289 81.2852 48.3711C80.543 49.6133 79.4453 50.2344 77.9922 50.2344C76.5547 50.2344 75.457 49.6172 74.6992 48.3828C73.9492 47.1406 73.5664 45.3516 73.5508 43.0156V40.0156C73.5508 37.6406 73.9219 35.8281 74.6641 34.5781C75.4062 33.3281 76.5078 32.7031 77.9688 32.7031C79.4062 32.7031 80.5 33.3086 81.25 34.5195C82 35.7227 82.3867 37.4805 82.4102 39.793V42.875ZM81.0977 39.8281C81.0977 37.875 80.8359 36.4023 80.3125 35.4102C79.7969 34.418 79.0156 33.9219 77.9688 33.9219C76.9609 33.9219 76.1914 34.3984 75.6602 35.3516C75.1367 36.2969 74.8633 37.707 74.8398 39.582V43.0391C74.8398 44.9453 75.1055 46.4219 75.6367 47.4688C76.1758 48.5078 76.9609 49.0273 77.9922 49.0273C78.9922 49.0273 79.7539 48.5352 80.2773 47.5508C80.8086 46.5586 81.082 45.1055 81.0977 43.1914V39.8281ZM94.4219 50H85.375V48.8984L90.2266 42.3477C91.0391 41.2305 91.6055 40.3047 91.9258 39.5703C92.2461 38.8359 92.4062 38.1172 92.4062 37.4141C92.4062 36.3438 92.1484 35.4961 91.6328 34.8711C91.125 34.2383 90.418 33.9219 89.5117 33.9219C88.5508 33.9219 87.7852 34.2891 87.2148 35.0234C86.6445 35.75 86.3594 36.6953 86.3594 37.8594H85.0586C85.0586 36.375 85.4688 35.1445 86.2891 34.168C87.1094 33.1914 88.1836 32.7031 89.5117 32.7031C90.8086 32.7031 91.8359 33.1094 92.5938 33.9219C93.3516 34.7266 93.7305 35.8477 93.7305 37.2852C93.7305 38.6523 93.1133 40.25 91.8789 42.0781L91.1289 43.1562L86.957 48.793H94.4219V50ZM97.1875 49.1445C97.1875 48.8633 97.2734 48.6289 97.4453 48.4414C97.625 48.2461 97.8711 48.1484 98.1836 48.1484C98.4961 48.1484 98.7422 48.2461 98.9219 48.4414C99.1016 48.6289 99.1914 48.8633 99.1914 49.1445C99.1914 49.418 99.1016 49.6445 98.9219 49.8242C98.7422 50.0039 98.4961 50.0938 98.1836 50.0938C97.8711 50.0938 97.625 50.0039 97.4453 49.8242C97.2734 49.6445 97.1875 49.418 97.1875 49.1445ZM110.066 42.2188C109.66 42.9062 109.148 43.4453 108.531 43.8359C107.914 44.2188 107.258 44.4102 106.562 44.4102C105.344 44.4102 104.355 43.875 103.598 42.8047C102.84 41.7344 102.461 40.3633 102.461 38.6914C102.461 36.957 102.855 35.5273 103.645 34.4023C104.441 33.2695 105.496 32.7031 106.809 32.7031C108.246 32.7031 109.363 33.3008 110.16 34.4961C110.965 35.6914 111.367 37.3906 111.367 39.5938V40.8594C111.367 43.9688 110.824 46.2852 109.738 47.8086C108.652 49.3242 107 50.0938 104.781 50.1172H104.43L104.441 48.875H104.816C106.504 48.8516 107.785 48.2969 108.66 47.2109C109.543 46.1172 110.012 44.4531 110.066 42.2188ZM106.738 43.1797C107.473 43.1797 108.141 42.9141 108.742 42.3828C109.352 41.8438 109.797 41.125 110.078 40.2266V39.3711C110.078 37.6914 109.781 36.3672 109.188 35.3984C108.602 34.4219 107.812 33.9336 106.82 33.9336C105.922 33.9336 105.184 34.3789 104.605 35.2695C104.027 36.1602 103.738 37.2812 103.738 38.6328C103.738 39.9375 104.016 41.0234 104.57 41.8906C105.125 42.75 105.848 43.1797 106.738 43.1797ZM121.445 32.8203V34.0742H121.246C119.59 34.082 118.285 34.668 117.332 35.832C116.387 36.9961 115.859 38.6406 115.75 40.7656C116.148 40.1328 116.645 39.6484 117.238 39.3125C117.832 38.9688 118.488 38.7969 119.207 38.7969C120.465 38.7969 121.465 39.3164 122.207 40.3555C122.957 41.3867 123.332 42.7383 123.332 44.4102C123.332 46.1523 122.938 47.5586 122.148 48.6289C121.359 49.6992 120.328 50.2344 119.055 50.2344C117.688 50.2344 116.574 49.6484 115.715 48.4766C114.855 47.3047 114.426 45.7656 114.426 43.8594V42.4766C114.426 39.3438 115.004 36.9609 116.16 35.3281C117.316 33.6875 118.977 32.8516 121.141 32.8203H121.445ZM118.996 40.0273C118.262 40.0273 117.582 40.293 116.957 40.8242C116.34 41.3477 115.93 41.9961 115.727 42.7695V43.9883C115.727 45.4727 116.039 46.6836 116.664 47.6211C117.289 48.5508 118.086 49.0156 119.055 49.0156C119.945 49.0156 120.668 48.5898 121.223 47.7383C121.777 46.8867 122.055 45.7969 122.055 44.4688C122.055 43.1328 121.777 42.0586 121.223 41.2461C120.676 40.4336 119.934 40.0273 118.996 40.0273Z" fill="black"/>
</svg>
