<svg width="125" height="56" viewBox="0 0 125 56" fill="none" xmlns="http://www.w3.org/2000/svg">
<path d="M9.22656 15.0625V22H7.89062V4.9375H12.8477C14.3555 4.9375 15.543 5.39063 16.4102 6.29688C17.2773 7.20312 17.7109 8.44922 17.7109 10.0352C17.7109 11.6523 17.2891 12.8945 16.4453 13.7617C15.6094 14.6289 14.4023 15.0625 12.8242 15.0625H9.22656ZM9.22656 13.8086H12.8477C13.9727 13.8086 14.8398 13.4844 15.4492 12.8359C16.0664 12.1797 16.375 11.2539 16.375 10.0586C16.375 8.86328 16.0625 7.92188 15.4375 7.23438C14.8203 6.54687 13.9609 6.20312 12.8594 6.20312H9.22656V13.8086ZM28.8438 17.8047C28.8438 16.8516 28.5703 16.1016 28.0234 15.5547C27.4844 15.0078 26.4727 14.4844 24.9883 13.9844C23.5039 13.4844 22.4141 12.9258 21.7188 12.3086C20.8047 11.5039 20.3477 10.4414 20.3477 9.12109C20.3477 7.81641 20.7969 6.75391 21.6953 5.93359C22.5938 5.11328 23.7539 4.70312 25.1758 4.70312C26.6289 4.70312 27.8164 5.17969 28.7383 6.13281C29.6602 7.08594 30.1211 8.3125 30.1211 9.8125H28.7734C28.7734 8.66406 28.4492 7.73828 27.8008 7.03516C27.1602 6.32422 26.2852 5.96875 25.1758 5.96875C24.0977 5.96875 23.2461 6.26172 22.6211 6.84766C22.0039 7.42578 21.6953 8.17578 21.6953 9.09766C21.6953 9.95703 21.9883 10.6602 22.5742 11.207C23.1602 11.7539 24.0938 12.2422 25.375 12.6719C26.6562 13.0938 27.625 13.5352 28.2812 13.9961C28.9375 14.4492 29.4219 14.9844 29.7344 15.6016C30.0469 16.2188 30.2031 16.9453 30.2031 17.7812C30.2031 19.1172 29.75 20.1953 28.8438 21.0156C27.9453 21.8281 26.7539 22.2344 25.2695 22.2344C24.2695 22.2344 23.3555 22.0312 22.5273 21.625C21.707 21.2109 21.0625 20.6211 20.5938 19.8555C20.1328 19.082 19.9023 18.1719 19.9023 17.125H21.2383C21.2383 18.3281 21.6016 19.2734 22.3281 19.9609C23.0547 20.6484 24.0352 20.9922 25.2695 20.9922C26.3477 20.9922 27.2109 20.7031 27.8594 20.125C28.5156 19.5469 28.8438 18.7734 28.8438 17.8047ZM37.6797 19.8672L37.7148 20.0547L37.7617 19.8672L42.2148 4.9375H43.6914L38.3594 22H37.0938L31.7617 4.9375H33.2266L37.6797 19.8672ZM53.3945 4.9375L58.5625 19.9492L63.7539 4.9375H65.5234V22H64.1875V14.6055L64.3047 7.16406L59.0781 22H58.0469L52.8438 7.23438L52.9609 14.5586V22H51.625V4.9375H53.3945ZM76 22C75.8828 21.5938 75.8047 21.0078 75.7656 20.2422C75.375 20.875 74.8711 21.3672 74.2539 21.7188C73.6445 22.0625 72.9805 22.2344 72.2617 22.2344C71.168 22.2344 70.3164 21.9258 69.707 21.3086C69.0977 20.6914 68.793 19.8125 68.793 18.6719C68.793 17.4297 69.2148 16.4453 70.0586 15.7188C70.9102 14.9922 72.082 14.625 73.5742 14.6172H75.7539V12.8477C75.7539 11.9414 75.5273 11.293 75.0742 10.9023C74.6289 10.5039 73.9727 10.3047 73.1055 10.3047C72.3008 10.3047 71.6406 10.5391 71.125 11.0078C70.6094 11.4766 70.3516 12.082 70.3516 12.8242L69.0508 12.8125C69.0508 11.7734 69.4414 10.8945 70.2227 10.1758C71.0039 9.44922 71.9844 9.08594 73.1641 9.08594C74.4375 9.08594 75.4023 9.40625 76.0586 10.0469C76.7148 10.6875 77.043 11.6211 77.043 12.8477V19.0703C77.043 20.3125 77.1562 21.2422 77.3828 21.8594V22H76ZM72.4258 20.9805C73.1914 20.9805 73.8672 20.7812 74.4531 20.3828C75.0469 19.9844 75.4805 19.4531 75.7539 18.7891V15.707H73.6914C72.5039 15.7227 71.6094 15.9883 71.0078 16.5039C70.4062 17.0117 70.1055 17.6992 70.1055 18.5664C70.1055 20.1758 70.8789 20.9805 72.4258 20.9805ZM82.5508 6.08594V9.32031H84.7188V10.4922H82.5508V18.918C82.5508 19.6133 82.6523 20.1328 82.8555 20.4766C83.0664 20.8125 83.4141 20.9805 83.8984 20.9805C84.1094 20.9805 84.4219 20.9414 84.8359 20.8633L84.8711 22.0352C84.5742 22.168 84.1484 22.2344 83.5938 22.2344C82.0703 22.2344 81.2891 21.1875 81.25 19.0938V10.4922H79.293V9.32031H81.25V6.08594H82.5508ZM89.0078 22H87.6953V9.32031H89.0078V22ZM87.5078 5.66406C87.5078 5.39844 87.582 5.17188 87.7305 4.98438C87.8789 4.79688 88.0898 4.70312 88.3633 4.70312C88.6367 4.70312 88.8477 4.79688 88.9961 4.98438C89.1523 5.17188 89.2305 5.39844 89.2305 5.66406C89.2305 5.92969 89.1523 6.15625 88.9961 6.34375C88.8477 6.52344 88.6367 6.61328 88.3633 6.61328C88.0898 6.61328 87.8789 6.52344 87.7305 6.34375C87.582 6.15625 87.5078 5.92969 87.5078 5.66406ZM93.8594 9.32031L93.8945 11.3359C94.2695 10.6484 94.7461 10.1016 95.3242 9.69531C95.9102 9.28906 96.5742 9.08594 97.3164 9.08594C99.5273 9.08594 100.66 10.5586 100.715 13.5039V22H99.4258V13.6445C99.418 12.5117 99.2188 11.6758 98.8281 11.1367C98.4375 10.5977 97.8242 10.3281 96.9883 10.3281C96.3086 10.3281 95.6953 10.5859 95.1484 11.1016C94.6094 11.6094 94.1992 12.3086 93.918 13.1992V22H92.6172V9.32031H93.8594ZM110.875 22C110.758 21.5938 110.68 21.0078 110.641 20.2422C110.25 20.875 109.746 21.3672 109.129 21.7188C108.52 22.0625 107.855 22.2344 107.137 22.2344C106.043 22.2344 105.191 21.9258 104.582 21.3086C103.973 20.6914 103.668 19.8125 103.668 18.6719C103.668 17.4297 104.09 16.4453 104.934 15.7188C105.785 14.9922 106.957 14.625 108.449 14.6172H110.629V12.8477C110.629 11.9414 110.402 11.293 109.949 10.9023C109.504 10.5039 108.848 10.3047 107.98 10.3047C107.176 10.3047 106.516 10.5391 106 11.0078C105.484 11.4766 105.227 12.082 105.227 12.8242L103.926 12.8125C103.926 11.7734 104.316 10.8945 105.098 10.1758C105.879 9.44922 106.859 9.08594 108.039 9.08594C109.312 9.08594 110.277 9.40625 110.934 10.0469C111.59 10.6875 111.918 11.6211 111.918 12.8477V19.0703C111.918 20.3125 112.031 21.2422 112.258 21.8594V22H110.875ZM107.301 20.9805C108.066 20.9805 108.742 20.7812 109.328 20.3828C109.922 19.9844 110.355 19.4531 110.629 18.7891V15.707H108.566C107.379 15.7227 106.484 15.9883 105.883 16.5039C105.281 17.0117 104.98 17.6992 104.98 18.5664C104.98 20.1758 105.754 20.9805 107.301 20.9805ZM5.75781 41.5859L3.77734 43.8828V50H2.44141V32.9375H3.77734V42.0312L5.65234 39.6875L10.9375 32.9375H12.6133L6.66016 40.5312L13.0703 50H11.4414L5.75781 41.5859ZM20.7344 50H19.4219V34.6602L15.5664 36.3828V35.0469L20.5117 32.8789H20.7344V50ZM35.875 50H26.8281V48.8984L31.6797 42.3477C32.4922 41.2305 33.0586 40.3047 33.3789 39.5703C33.6992 38.8359 33.8594 38.1172 33.8594 37.4141C33.8594 36.3438 33.6016 35.4961 33.0859 34.8711C32.5781 34.2383 31.8711 33.9219 30.9648 33.9219C30.0039 33.9219 29.2383 34.2891 28.668 35.0234C28.0977 35.75 27.8125 36.6953 27.8125 37.8594H26.5117C26.5117 36.375 26.9219 35.1445 27.7422 34.168C28.5625 33.1914 29.6367 32.7031 30.9648 32.7031C32.2617 32.7031 33.2891 33.1094 34.0469 33.9219C34.8047 34.7266 35.1836 35.8477 35.1836 37.2852C35.1836 38.6523 34.5664 40.25 33.332 42.0781L32.582 43.1562L28.4102 48.793H35.875V50ZM45.8125 44.4922H48.0039V45.7109H45.8125V50H44.5117V45.7109H37.8086V44.8789L44.4062 32.9375H45.8125V44.4922ZM39.3672 44.4922H44.5117V34.9062L44.043 35.8555L39.3672 44.4922ZM55.1289 41.3047H59.418V42.6523H55.1289V48.2891H53.8047V42.6523H49.5859V41.3047H53.8047V35.8672H55.1289V41.3047ZM71.0781 50H62.0312V48.8984L66.8828 42.3477C67.6953 41.2305 68.2617 40.3047 68.582 39.5703C68.9023 38.8359 69.0625 38.1172 69.0625 37.4141C69.0625 36.3438 68.8047 35.4961 68.2891 34.8711C67.7812 34.2383 67.0742 33.9219 66.168 33.9219C65.207 33.9219 64.4414 34.2891 63.8711 35.0234C63.3008 35.75 63.0156 36.6953 63.0156 37.8594H61.7148C61.7148 36.375 62.125 35.1445 62.9453 34.168C63.7656 33.1914 64.8398 32.7031 66.168 32.7031C67.4648 32.7031 68.4922 33.1094 69.25 33.9219C70.0078 34.7266 70.3867 35.8477 70.3867 37.2852C70.3867 38.6523 69.7695 40.25 68.5352 42.0781L67.7852 43.1562L63.6133 48.793H71.0781V50ZM74.5 41.2578L75.2031 32.9375H82.4102V34.2734H76.3164L75.8359 39.9922C76.6016 39.3672 77.4805 39.0547 78.4727 39.0547C79.7773 39.0547 80.8086 39.5586 81.5664 40.5664C82.332 41.5664 82.7148 42.8984 82.7148 44.5625C82.7148 46.3438 82.3398 47.7344 81.5898 48.7344C80.8398 49.7344 79.7734 50.2344 78.3906 50.2344C77.1328 50.2344 76.1133 49.8164 75.332 48.9805C74.5508 48.1367 74.1094 46.9805 74.0078 45.5117H75.25C75.3594 46.6602 75.6836 47.5352 76.2227 48.1367C76.7617 48.7305 77.4844 49.0273 78.3906 49.0273C79.3828 49.0273 80.1328 48.6406 80.6406 47.8672C81.1562 47.0938 81.4141 46 81.4141 44.5859C81.4141 43.3281 81.125 42.3125 80.5469 41.5391C79.9766 40.7578 79.2031 40.3672 78.2266 40.3672C77.6641 40.3672 77.1797 40.457 76.7734 40.6367C76.3672 40.8086 75.9531 41.125 75.5312 41.5859L74.5 41.2578ZM90.9531 50H89.6406V34.6602L85.7852 36.3828V35.0469L90.7305 32.8789H90.9531V50ZM97.1875 49.1445C97.1875 48.8633 97.2734 48.6289 97.4453 48.4414C97.625 48.2461 97.8711 48.1484 98.1836 48.1484C98.4961 48.1484 98.7422 48.2461 98.9219 48.4414C99.1016 48.6289 99.1914 48.8633 99.1914 49.1445C99.1914 49.418 99.1016 49.6445 98.9219 49.8242C98.7422 50.0039 98.4961 50.0938 98.1836 50.0938C97.8711 50.0938 97.625 50.0039 97.4453 49.8242C97.2734 49.6445 97.1875 49.418 97.1875 49.1445ZM111.836 50H102.789V48.8984L107.641 42.3477C108.453 41.2305 109.02 40.3047 109.34 39.5703C109.66 38.8359 109.82 38.1172 109.82 37.4141C109.82 36.3438 109.562 35.4961 109.047 34.8711C108.539 34.2383 107.832 33.9219 106.926 33.9219C105.965 33.9219 105.199 34.2891 104.629 35.0234C104.059 35.75 103.773 36.6953 103.773 37.8594H102.473C102.473 36.375 102.883 35.1445 103.703 34.168C104.523 33.1914 105.598 32.7031 106.926 32.7031C108.223 32.7031 109.25 33.1094 110.008 33.9219C110.766 34.7266 111.145 35.8477 111.145 37.2852C111.145 38.6523 110.527 40.25 109.293 42.0781L108.543 43.1562L104.371 48.793H111.836V50ZM121.738 42.2188C121.332 42.9062 120.82 43.4453 120.203 43.8359C119.586 44.2188 118.93 44.4102 118.234 44.4102C117.016 44.4102 116.027 43.875 115.27 42.8047C114.512 41.7344 114.133 40.3633 114.133 38.6914C114.133 36.957 114.527 35.5273 115.316 34.4023C116.113 33.2695 117.168 32.7031 118.48 32.7031C119.918 32.7031 121.035 33.3008 121.832 34.4961C122.637 35.6914 123.039 37.3906 123.039 39.5938V40.8594C123.039 43.9688 122.496 46.2852 121.41 47.8086C120.324 49.3242 118.672 50.0938 116.453 50.1172H116.102L116.113 48.875H116.488C118.176 48.8516 119.457 48.2969 120.332 47.2109C121.215 46.1172 121.684 44.4531 121.738 42.2188ZM118.41 43.1797C119.145 43.1797 119.812 42.9141 120.414 42.3828C121.023 41.8438 121.469 41.125 121.75 40.2266V39.3711C121.75 37.6914 121.453 36.3672 120.859 35.3984C120.273 34.4219 119.484 33.9336 118.492 33.9336C117.594 33.9336 116.855 34.3789 116.277 35.2695C115.699 36.1602 115.41 37.2812 115.41 38.6328C115.41 39.9375 115.688 41.0234 116.242 41.8906C116.797 42.75 117.52 43.1797 118.41 43.1797Z" fill="black"/>
</svg>
