<svg width="131" height="56" viewBox="0 0 131 56" fill="none" xmlns="http://www.w3.org/2000/svg">
<path d="M3.55469 15.0625V22H2.21875V4.9375H7.17578C8.68359 4.9375 9.87109 5.39063 10.7383 6.29688C11.6055 7.20312 12.0391 8.44922 12.0391 10.0352C12.0391 11.6523 11.6172 12.8945 10.7734 13.7617C9.9375 14.6289 8.73047 15.0625 7.15234 15.0625H3.55469ZM3.55469 13.8086H7.17578C8.30078 13.8086 9.16797 13.4844 9.77734 12.8359C10.3945 12.1797 10.7031 11.2539 10.7031 10.0586C10.7031 8.86328 10.3906 7.92188 9.76562 7.23438C9.14844 6.54687 8.28906 6.20312 7.1875 6.20312H3.55469V13.8086ZM23.1719 17.8047C23.1719 16.8516 22.8984 16.1016 22.3516 15.5547C21.8125 15.0078 20.8008 14.4844 19.3164 13.9844C17.832 13.4844 16.7422 12.9258 16.0469 12.3086C15.1328 11.5039 14.6758 10.4414 14.6758 9.12109C14.6758 7.81641 15.125 6.75391 16.0234 5.93359C16.9219 5.11328 18.082 4.70312 19.5039 4.70312C20.957 4.70312 22.1445 5.17969 23.0664 6.13281C23.9883 7.08594 24.4492 8.3125 24.4492 9.8125H23.1016C23.1016 8.66406 22.7773 7.73828 22.1289 7.03516C21.4883 6.32422 20.6133 5.96875 19.5039 5.96875C18.4258 5.96875 17.5742 6.26172 16.9492 6.84766C16.332 7.42578 16.0234 8.17578 16.0234 9.09766C16.0234 9.95703 16.3164 10.6602 16.9023 11.207C17.4883 11.7539 18.4219 12.2422 19.7031 12.6719C20.9844 13.0938 21.9531 13.5352 22.6094 13.9961C23.2656 14.4492 23.75 14.9844 24.0625 15.6016C24.375 16.2188 24.5312 16.9453 24.5312 17.7812C24.5312 19.1172 24.0781 20.1953 23.1719 21.0156C22.2734 21.8281 21.082 22.2344 19.5977 22.2344C18.5977 22.2344 17.6836 22.0312 16.8555 21.625C16.0352 21.2109 15.3906 20.6211 14.9219 19.8555C14.4609 19.082 14.2305 18.1719 14.2305 17.125H15.5664C15.5664 18.3281 15.9297 19.2734 16.6562 19.9609C17.3828 20.6484 18.3633 20.9922 19.5977 20.9922C20.6758 20.9922 21.5391 20.7031 22.1875 20.125C22.8438 19.5469 23.1719 18.7734 23.1719 17.8047ZM32.0078 19.8672L32.043 20.0547L32.0898 19.8672L36.543 4.9375H38.0195L32.6875 22H31.4219L26.0898 4.9375H27.5547L32.0078 19.8672ZM47.3008 20.7578H54.332V22H45.9531V4.9375H47.3008V20.7578ZM63.5078 22C63.3906 21.5938 63.3125 21.0078 63.2734 20.2422C62.8828 20.875 62.3789 21.3672 61.7617 21.7188C61.1523 22.0625 60.4883 22.2344 59.7695 22.2344C58.6758 22.2344 57.8242 21.9258 57.2148 21.3086C56.6055 20.6914 56.3008 19.8125 56.3008 18.6719C56.3008 17.4297 56.7227 16.4453 57.5664 15.7188C58.418 14.9922 59.5898 14.625 61.082 14.6172H63.2617V12.8477C63.2617 11.9414 63.0352 11.293 62.582 10.9023C62.1367 10.5039 61.4805 10.3047 60.6133 10.3047C59.8086 10.3047 59.1484 10.5391 58.6328 11.0078C58.1172 11.4766 57.8594 12.082 57.8594 12.8242L56.5586 12.8125C56.5586 11.7734 56.9492 10.8945 57.7305 10.1758C58.5117 9.44922 59.4922 9.08594 60.6719 9.08594C61.9453 9.08594 62.9102 9.40625 63.5664 10.0469C64.2227 10.6875 64.5508 11.6211 64.5508 12.8477V19.0703C64.5508 20.3125 64.6641 21.2422 64.8906 21.8594V22H63.5078ZM59.9336 20.9805C60.6992 20.9805 61.375 20.7812 61.9609 20.3828C62.5547 19.9844 62.9883 19.4531 63.2617 18.7891V15.707H61.1992C60.0117 15.7227 59.1172 15.9883 58.5156 16.5039C57.9141 17.0117 57.6133 17.6992 57.6133 18.5664C57.6133 20.1758 58.3867 20.9805 59.9336 20.9805ZM83.6875 4.9375V17.043C83.6797 18.6914 83.2344 19.9688 82.3516 20.875C81.4766 21.7812 80.2305 22.2344 78.6133 22.2344C76.9727 22.2344 75.7148 21.7891 74.8398 20.8984C73.9727 20 73.5391 18.6992 73.5391 16.9961V4.9375H74.875V16.9492C74.875 19.6445 76.1211 20.9922 78.6133 20.9922C81.0664 20.9922 82.3086 19.6836 82.3398 17.0664V4.9375H83.6875ZM88.4219 9.32031L88.457 11.3359C88.832 10.6484 89.3086 10.1016 89.8867 9.69531C90.4727 9.28906 91.1367 9.08594 91.8789 9.08594C94.0898 9.08594 95.2227 10.5586 95.2773 13.5039V22H93.9883V13.6445C93.9805 12.5117 93.7812 11.6758 93.3906 11.1367C93 10.5977 92.3867 10.3281 91.5508 10.3281C90.8711 10.3281 90.2578 10.5859 89.7109 11.1016C89.1719 11.6094 88.7617 12.3086 88.4805 13.1992V22H87.1797V9.32031H88.4219ZM100.188 22H98.875V9.32031H100.188V22ZM98.6875 5.66406C98.6875 5.39844 98.7617 5.17188 98.9102 4.98438C99.0586 4.79688 99.2695 4.70312 99.543 4.70312C99.8164 4.70312 100.027 4.79688 100.176 4.98438C100.332 5.17188 100.41 5.39844 100.41 5.66406C100.41 5.92969 100.332 6.15625 100.176 6.34375C100.027 6.52344 99.8164 6.61328 99.543 6.61328C99.2695 6.61328 99.0586 6.52344 98.9102 6.34375C98.7617 6.15625 98.6875 5.92969 98.6875 5.66406ZM103.305 15.0156C103.305 13.1875 103.719 11.7422 104.547 10.6797C105.375 9.61719 106.504 9.08594 107.934 9.08594C109.371 9.08594 110.5 9.60938 111.32 10.6562C112.148 11.7031 112.566 13.1445 112.574 14.9805V16.3281C112.574 18.1875 112.156 19.6367 111.32 20.6758C110.492 21.7148 109.371 22.2344 107.957 22.2344C106.543 22.2344 105.422 21.7266 104.594 20.7109C103.766 19.6953 103.336 18.2969 103.305 16.5156V15.0156ZM104.617 16.3281C104.617 17.7891 104.91 18.9375 105.496 19.7734C106.09 20.6094 106.91 21.0273 107.957 21.0273C109.027 21.0273 109.844 20.625 110.406 19.8203C110.977 19.0156 111.266 17.8633 111.273 16.3633V15.0156C111.273 13.5547 110.977 12.4062 110.383 11.5703C109.789 10.7266 108.973 10.3047 107.934 10.3047C106.926 10.3047 106.125 10.7148 105.531 11.5352C104.938 12.3555 104.633 13.4844 104.617 14.9219V16.3281ZM109.328 4H111.027L108.32 7.29297H107.09L109.328 4ZM116.828 9.32031L116.863 11.3359C117.238 10.6484 117.715 10.1016 118.293 9.69531C118.879 9.28906 119.543 9.08594 120.285 9.08594C122.496 9.08594 123.629 10.5586 123.684 13.5039V22H122.395V13.6445C122.387 12.5117 122.188 11.6758 121.797 11.1367C121.406 10.5977 120.793 10.3281 119.957 10.3281C119.277 10.3281 118.664 10.5859 118.117 11.1016C117.578 11.6094 117.168 12.3086 116.887 13.1992V22H115.586V9.32031H116.828ZM14.5938 41.5859L12.6133 43.8828V50H11.2773V32.9375H12.6133V42.0312L14.4883 39.6875L19.7734 32.9375H21.4492L15.4961 40.5312L21.9062 50H20.2773L14.5938 41.5859ZM24.7891 41.2578L25.4922 32.9375H32.6992V34.2734H26.6055L26.125 39.9922C26.8906 39.3672 27.7695 39.0547 28.7617 39.0547C30.0664 39.0547 31.0977 39.5586 31.8555 40.5664C32.6211 41.5664 33.0039 42.8984 33.0039 44.5625C33.0039 46.3438 32.6289 47.7344 31.8789 48.7344C31.1289 49.7344 30.0625 50.2344 28.6797 50.2344C27.4219 50.2344 26.4023 49.8164 25.6211 48.9805C24.8398 48.1367 24.3984 46.9805 24.2969 45.5117H25.5391C25.6484 46.6602 25.9727 47.5352 26.5117 48.1367C27.0508 48.7305 27.7734 49.0273 28.6797 49.0273C29.6719 49.0273 30.4219 48.6406 30.9297 47.8672C31.4453 47.0938 31.7031 46 31.7031 44.5859C31.7031 43.3281 31.4141 42.3125 30.8359 41.5391C30.2656 40.7578 29.4922 40.3672 28.5156 40.3672C27.9531 40.3672 27.4688 40.457 27.0625 40.6367C26.6562 40.8086 26.2422 41.125 25.8203 41.5859L24.7891 41.2578ZM44.7109 50H35.6641V48.8984L40.5156 42.3477C41.3281 41.2305 41.8945 40.3047 42.2148 39.5703C42.5352 38.8359 42.6953 38.1172 42.6953 37.4141C42.6953 36.3438 42.4375 35.4961 41.9219 34.8711C41.4141 34.2383 40.707 33.9219 39.8008 33.9219C38.8398 33.9219 38.0742 34.2891 37.5039 35.0234C36.9336 35.75 36.6484 36.6953 36.6484 37.8594H35.3477C35.3477 36.375 35.7578 35.1445 36.5781 34.168C37.3984 33.1914 38.4727 32.7031 39.8008 32.7031C41.0977 32.7031 42.125 33.1094 42.8828 33.9219C43.6406 34.7266 44.0195 35.8477 44.0195 37.2852C44.0195 38.6523 43.4023 40.25 42.168 42.0781L41.418 43.1562L37.2461 48.793H44.7109V50ZM52.293 41.3047H56.582V42.6523H52.293V48.2891H50.9688V42.6523H46.75V41.3047H50.9688V35.8672H52.293V41.3047ZM66.1797 32.8203V34.0742H65.9805C64.3242 34.082 63.0195 34.668 62.0664 35.832C61.1211 36.9961 60.5938 38.6406 60.4844 40.7656C60.8828 40.1328 61.3789 39.6484 61.9727 39.3125C62.5664 38.9688 63.2227 38.7969 63.9414 38.7969C65.1992 38.7969 66.1992 39.3164 66.9414 40.3555C67.6914 41.3867 68.0664 42.7383 68.0664 44.4102C68.0664 46.1523 67.6719 47.5586 66.8828 48.6289C66.0938 49.6992 65.0625 50.2344 63.7891 50.2344C62.4219 50.2344 61.3086 49.6484 60.4492 48.4766C59.5898 47.3047 59.1602 45.7656 59.1602 43.8594V42.4766C59.1602 39.3438 59.7383 36.9609 60.8945 35.3281C62.0508 33.6875 63.7109 32.8516 65.875 32.8203H66.1797ZM63.7305 40.0273C62.9961 40.0273 62.3164 40.293 61.6914 40.8242C61.0742 41.3477 60.6641 41.9961 60.4609 42.7695V43.9883C60.4609 45.4727 60.7734 46.6836 61.3984 47.6211C62.0234 48.5508 62.8203 49.0156 63.7891 49.0156C64.6797 49.0156 65.4023 48.5898 65.957 47.7383C66.5117 46.8867 66.7891 45.7969 66.7891 44.4688C66.7891 43.1328 66.5117 42.0586 65.957 41.2461C65.4102 40.4336 64.668 40.0273 63.7305 40.0273ZM78.1445 42.2188C77.7383 42.9062 77.2266 43.4453 76.6094 43.8359C75.9922 44.2188 75.3359 44.4102 74.6406 44.4102C73.4219 44.4102 72.4336 43.875 71.6758 42.8047C70.918 41.7344 70.5391 40.3633 70.5391 38.6914C70.5391 36.957 70.9336 35.5273 71.7227 34.4023C72.5195 33.2695 73.5742 32.7031 74.8867 32.7031C76.3242 32.7031 77.4414 33.3008 78.2383 34.4961C79.043 35.6914 79.4453 37.3906 79.4453 39.5938V40.8594C79.4453 43.9688 78.9023 46.2852 77.8164 47.8086C76.7305 49.3242 75.0781 50.0938 72.8594 50.1172H72.5078L72.5195 48.875H72.8945C74.582 48.8516 75.8633 48.2969 76.7383 47.2109C77.6211 46.1172 78.0898 44.4531 78.1445 42.2188ZM74.8164 43.1797C75.5508 43.1797 76.2188 42.9141 76.8203 42.3828C77.4297 41.8438 77.875 41.125 78.1562 40.2266V39.3711C78.1562 37.6914 77.8594 36.3672 77.2656 35.3984C76.6797 34.4219 75.8906 33.9336 74.8984 33.9336C74 33.9336 73.2617 34.3789 72.6836 35.2695C72.1055 36.1602 71.8164 37.2812 71.8164 38.6328C71.8164 39.9375 72.0938 41.0234 72.6484 41.8906C73.2031 42.75 73.9258 43.1797 74.8164 43.1797ZM89.8164 42.2188C89.4102 42.9062 88.8984 43.4453 88.2812 43.8359C87.6641 44.2188 87.0078 44.4102 86.3125 44.4102C85.0938 44.4102 84.1055 43.875 83.3477 42.8047C82.5898 41.7344 82.2109 40.3633 82.2109 38.6914C82.2109 36.957 82.6055 35.5273 83.3945 34.4023C84.1914 33.2695 85.2461 32.7031 86.5586 32.7031C87.9961 32.7031 89.1133 33.3008 89.9102 34.4961C90.7148 35.6914 91.1172 37.3906 91.1172 39.5938V40.8594C91.1172 43.9688 90.5742 46.2852 89.4883 47.8086C88.4023 49.3242 86.75 50.0938 84.5312 50.1172H84.1797L84.1914 48.875H84.5664C86.2539 48.8516 87.5352 48.2969 88.4102 47.2109C89.293 46.1172 89.7617 44.4531 89.8164 42.2188ZM86.4883 43.1797C87.2227 43.1797 87.8906 42.9141 88.4922 42.3828C89.1016 41.8438 89.5469 41.125 89.8281 40.2266V39.3711C89.8281 37.6914 89.5312 36.3672 88.9375 35.3984C88.3516 34.4219 87.5625 33.9336 86.5703 33.9336C85.6719 33.9336 84.9336 34.3789 84.3555 35.2695C83.7773 36.1602 83.4883 37.2812 83.4883 38.6328C83.4883 39.9375 83.7656 41.0234 84.3203 41.8906C84.875 42.75 85.5977 43.1797 86.4883 43.1797ZM94.3516 49.1445C94.3516 48.8633 94.4375 48.6289 94.6094 48.4414C94.7891 48.2461 95.0352 48.1484 95.3477 48.1484C95.6602 48.1484 95.9062 48.2461 96.0859 48.4414C96.2656 48.6289 96.3555 48.8633 96.3555 49.1445C96.3555 49.418 96.2656 49.6445 96.0859 49.8242C95.9062 50.0039 95.6602 50.0938 95.3477 50.0938C95.0352 50.0938 94.7891 50.0039 94.6094 49.8242C94.4375 49.6445 94.3516 49.418 94.3516 49.1445ZM106.938 32.8203V34.0742H106.738C105.082 34.082 103.777 34.668 102.824 35.832C101.879 36.9961 101.352 38.6406 101.242 40.7656C101.641 40.1328 102.137 39.6484 102.73 39.3125C103.324 38.9688 103.98 38.7969 104.699 38.7969C105.957 38.7969 106.957 39.3164 107.699 40.3555C108.449 41.3867 108.824 42.7383 108.824 44.4102C108.824 46.1523 108.43 47.5586 107.641 48.6289C106.852 49.6992 105.82 50.2344 104.547 50.2344C103.18 50.2344 102.066 49.6484 101.207 48.4766C100.348 47.3047 99.918 45.7656 99.918 43.8594V42.4766C99.918 39.3438 100.496 36.9609 101.652 35.3281C102.809 33.6875 104.469 32.8516 106.633 32.8203H106.938ZM104.488 40.0273C103.754 40.0273 103.074 40.293 102.449 40.8242C101.832 41.3477 101.422 41.9961 101.219 42.7695V43.9883C101.219 45.4727 101.531 46.6836 102.156 47.6211C102.781 48.5508 103.578 49.0156 104.547 49.0156C105.438 49.0156 106.16 48.5898 106.715 47.7383C107.27 46.8867 107.547 45.7969 107.547 44.4688C107.547 43.1328 107.27 42.0586 106.715 41.2461C106.168 40.4336 105.426 40.0273 104.488 40.0273ZM117.203 50H115.891V34.6602L112.035 36.3828V35.0469L116.98 32.8789H117.203V50Z" fill="black"/>
</svg>
