<svg width="113" height="56" viewBox="0 0 113 56" fill="none" xmlns="http://www.w3.org/2000/svg">
<path d="M7.89062 15.0625V22H6.55469V4.9375H11.5117C13.0195 4.9375 14.207 5.39063 15.0742 6.29688C15.9414 7.20312 16.375 8.44922 16.375 10.0352C16.375 11.6523 15.9531 12.8945 15.1094 13.7617C14.2734 14.6289 13.0664 15.0625 11.4883 15.0625H7.89062ZM7.89062 13.8086H11.5117C12.6367 13.8086 13.5039 13.4844 14.1133 12.8359C14.7305 12.1797 15.0391 11.2539 15.0391 10.0586C15.0391 8.86328 14.7266 7.92188 14.1016 7.23438C13.4844 6.54687 12.625 6.20312 11.5234 6.20312H7.89062V13.8086ZM27.5078 17.8047C27.5078 16.8516 27.2344 16.1016 26.6875 15.5547C26.1484 15.0078 25.1367 14.4844 23.6523 13.9844C22.168 13.4844 21.0781 12.9258 20.3828 12.3086C19.4688 11.5039 19.0117 10.4414 19.0117 9.12109C19.0117 7.81641 19.4609 6.75391 20.3594 5.93359C21.2578 5.11328 22.418 4.70312 23.8398 4.70312C25.293 4.70312 26.4805 5.17969 27.4023 6.13281C28.3242 7.08594 28.7852 8.3125 28.7852 9.8125H27.4375C27.4375 8.66406 27.1133 7.73828 26.4648 7.03516C25.8242 6.32422 24.9492 5.96875 23.8398 5.96875C22.7617 5.96875 21.9102 6.26172 21.2852 6.84766C20.668 7.42578 20.3594 8.17578 20.3594 9.09766C20.3594 9.95703 20.6523 10.6602 21.2383 11.207C21.8242 11.7539 22.7578 12.2422 24.0391 12.6719C25.3203 13.0938 26.2891 13.5352 26.9453 13.9961C27.6016 14.4492 28.0859 14.9844 28.3984 15.6016C28.7109 16.2188 28.8672 16.9453 28.8672 17.7812C28.8672 19.1172 28.4141 20.1953 27.5078 21.0156C26.6094 21.8281 25.418 22.2344 23.9336 22.2344C22.9336 22.2344 22.0195 22.0312 21.1914 21.625C20.3711 21.2109 19.7266 20.6211 19.2578 19.8555C18.7969 19.082 18.5664 18.1719 18.5664 17.125H19.9023C19.9023 18.3281 20.2656 19.2734 20.9922 19.9609C21.7188 20.6484 22.6992 20.9922 23.9336 20.9922C25.0117 20.9922 25.875 20.7031 26.5234 20.125C27.1797 19.5469 27.5078 18.7734 27.5078 17.8047ZM36.3438 19.8672L36.3789 20.0547L36.4258 19.8672L40.8789 4.9375H42.3555L37.0234 22H35.7578L30.4258 4.9375H31.8906L36.3438 19.8672ZM50.2891 22V4.9375H54.3086C56.1602 4.9375 57.625 5.53125 58.7031 6.71875C59.7812 7.89844 60.3359 9.52734 60.3672 11.6055V15.1797C60.3672 17.3203 59.8203 18.9922 58.7266 20.1953C57.6406 21.3984 56.1133 22 54.1445 22H50.2891ZM51.625 6.20312V20.7578H54.2148C55.7383 20.7578 56.918 20.2891 57.7539 19.3516C58.5898 18.4062 59.0195 17.0586 59.043 15.3086V11.7344C59.043 9.98438 58.6328 8.625 57.8125 7.65625C57 6.6875 55.8203 6.20312 54.2734 6.20312H51.625ZM70.3984 22C70.2812 21.5938 70.2031 21.0078 70.1641 20.2422C69.7734 20.875 69.2695 21.3672 68.6523 21.7188C68.043 22.0625 67.3789 22.2344 66.6602 22.2344C65.5664 22.2344 64.7148 21.9258 64.1055 21.3086C63.4961 20.6914 63.1914 19.8125 63.1914 18.6719C63.1914 17.4297 63.6133 16.4453 64.457 15.7188C65.3086 14.9922 66.4805 14.625 67.9727 14.6172H70.1523V12.8477C70.1523 11.9414 69.9258 11.293 69.4727 10.9023C69.0273 10.5039 68.3711 10.3047 67.5039 10.3047C66.6992 10.3047 66.0391 10.5391 65.5234 11.0078C65.0078 11.4766 64.75 12.082 64.75 12.8242L63.4492 12.8125C63.4492 11.7734 63.8398 10.8945 64.6211 10.1758C65.4023 9.44922 66.3828 9.08594 67.5625 9.08594C68.8359 9.08594 69.8008 9.40625 70.457 10.0469C71.1133 10.6875 71.4414 11.6211 71.4414 12.8477V19.0703C71.4414 20.3125 71.5547 21.2422 71.7812 21.8594V22H70.3984ZM66.8242 20.9805C67.5898 20.9805 68.2656 20.7812 68.8516 20.3828C69.4453 19.9844 69.8789 19.4531 70.1523 18.7891V15.707H68.0898C66.9023 15.7227 66.0078 15.9883 65.4062 16.5039C64.8047 17.0117 64.5039 17.6992 64.5039 18.5664C64.5039 20.1758 65.2773 20.9805 66.8242 20.9805ZM76.2344 9.32031L76.2695 11.3359C76.6445 10.6484 77.1211 10.1016 77.6992 9.69531C78.2852 9.28906 78.9492 9.08594 79.6914 9.08594C81.9023 9.08594 83.0352 10.5586 83.0898 13.5039V22H81.8008V13.6445C81.793 12.5117 81.5938 11.6758 81.2031 11.1367C80.8125 10.5977 80.1992 10.3281 79.3633 10.3281C78.6836 10.3281 78.0703 10.5859 77.5234 11.1016C76.9844 11.6094 76.5742 12.3086 76.293 13.1992V22H74.9922V9.32031H76.2344ZM88.5039 6.08594V9.32031H90.6719V10.4922H88.5039V18.918C88.5039 19.6133 88.6055 20.1328 88.8086 20.4766C89.0195 20.8125 89.3672 20.9805 89.8516 20.9805C90.0625 20.9805 90.375 20.9414 90.7891 20.8633L90.8242 22.0352C90.5273 22.168 90.1016 22.2344 89.5469 22.2344C88.0234 22.2344 87.2422 21.1875 87.2031 19.0938V10.4922H85.2461V9.32031H87.2031V6.08594H88.5039ZM100.211 22C100.094 21.5938 100.016 21.0078 99.9766 20.2422C99.5859 20.875 99.082 21.3672 98.4648 21.7188C97.8555 22.0625 97.1914 22.2344 96.4727 22.2344C95.3789 22.2344 94.5273 21.9258 93.918 21.3086C93.3086 20.6914 93.0039 19.8125 93.0039 18.6719C93.0039 17.4297 93.4258 16.4453 94.2695 15.7188C95.1211 14.9922 96.293 14.625 97.7852 14.6172H99.9648V12.8477C99.9648 11.9414 99.7383 11.293 99.2852 10.9023C98.8398 10.5039 98.1836 10.3047 97.3164 10.3047C96.5117 10.3047 95.8516 10.5391 95.3359 11.0078C94.8203 11.4766 94.5625 12.082 94.5625 12.8242L93.2617 12.8125C93.2617 11.7734 93.6523 10.8945 94.4336 10.1758C95.2148 9.44922 96.1953 9.08594 97.375 9.08594C98.6484 9.08594 99.6133 9.40625 100.27 10.0469C100.926 10.6875 101.254 11.6211 101.254 12.8477V19.0703C101.254 20.3125 101.367 21.2422 101.594 21.8594V22H100.211ZM96.6367 20.9805C97.4023 20.9805 98.0781 20.7812 98.6641 20.3828C99.2578 19.9844 99.6914 19.4531 99.9648 18.7891V15.707H97.9023C96.7148 15.7227 95.8203 15.9883 95.2188 16.5039C94.6172 17.0117 94.3164 17.6992 94.3164 18.5664C94.3164 20.1758 95.0898 20.9805 96.6367 20.9805ZM5.59375 41.5859L3.61328 43.8828V50H2.27734V32.9375H3.61328V42.0312L5.48828 39.6875L10.7734 32.9375H12.4492L6.49609 40.5312L12.9062 50H11.2773L5.59375 41.5859ZM15.7891 41.2578L16.4922 32.9375H23.6992V34.2734H17.6055L17.125 39.9922C17.8906 39.3672 18.7695 39.0547 19.7617 39.0547C21.0664 39.0547 22.0977 39.5586 22.8555 40.5664C23.6211 41.5664 24.0039 42.8984 24.0039 44.5625C24.0039 46.3438 23.6289 47.7344 22.8789 48.7344C22.1289 49.7344 21.0625 50.2344 19.6797 50.2344C18.4219 50.2344 17.4023 49.8164 16.6211 48.9805C15.8398 48.1367 15.3984 46.9805 15.2969 45.5117H16.5391C16.6484 46.6602 16.9727 47.5352 17.5117 48.1367C18.0508 48.7305 18.7734 49.0273 19.6797 49.0273C20.6719 49.0273 21.4219 48.6406 21.9297 47.8672C22.4453 47.0938 22.7031 46 22.7031 44.5859C22.7031 43.3281 22.4141 42.3125 21.8359 41.5391C21.2656 40.7578 20.4922 40.3672 19.5156 40.3672C18.9531 40.3672 18.4688 40.457 18.0625 40.6367C17.6562 40.8086 17.2422 41.125 16.8203 41.5859L15.7891 41.2578ZM35.5703 33.7578L29.4766 50H28.1172L34.1758 34.1562H26.1016V32.9375H35.5703V33.7578ZM43.293 41.3047H47.582V42.6523H43.293V48.2891H41.9688V42.6523H37.75V41.3047H41.9688V35.8672H43.293V41.3047ZM50.9922 41.2578L51.6953 32.9375H58.9023V34.2734H52.8086L52.3281 39.9922C53.0938 39.3672 53.9727 39.0547 54.9648 39.0547C56.2695 39.0547 57.3008 39.5586 58.0586 40.5664C58.8242 41.5664 59.207 42.8984 59.207 44.5625C59.207 46.3438 58.832 47.7344 58.082 48.7344C57.332 49.7344 56.2656 50.2344 54.8828 50.2344C53.625 50.2344 52.6055 49.8164 51.8242 48.9805C51.043 48.1367 50.6016 46.9805 50.5 45.5117H51.7422C51.8516 46.6602 52.1758 47.5352 52.7148 48.1367C53.2539 48.7305 53.9766 49.0273 54.8828 49.0273C55.875 49.0273 56.625 48.6406 57.1328 47.8672C57.6484 47.0938 57.9062 46 57.9062 44.5859C57.9062 43.3281 57.6172 42.3125 57.0391 41.5391C56.4688 40.7578 55.6953 40.3672 54.7188 40.3672C54.1562 40.3672 53.6719 40.457 53.2656 40.6367C52.8594 40.8086 52.4453 41.125 52.0234 41.5859L50.9922 41.2578ZM68.8516 32.8203V34.0742H68.6523C66.9961 34.082 65.6914 34.668 64.7383 35.832C63.793 36.9961 63.2656 38.6406 63.1562 40.7656C63.5547 40.1328 64.0508 39.6484 64.6445 39.3125C65.2383 38.9688 65.8945 38.7969 66.6133 38.7969C67.8711 38.7969 68.8711 39.3164 69.6133 40.3555C70.3633 41.3867 70.7383 42.7383 70.7383 44.4102C70.7383 46.1523 70.3438 47.5586 69.5547 48.6289C68.7656 49.6992 67.7344 50.2344 66.4609 50.2344C65.0938 50.2344 63.9805 49.6484 63.1211 48.4766C62.2617 47.3047 61.832 45.7656 61.832 43.8594V42.4766C61.832 39.3438 62.4102 36.9609 63.5664 35.3281C64.7227 33.6875 66.3828 32.8516 68.5469 32.8203H68.8516ZM66.4023 40.0273C65.668 40.0273 64.9883 40.293 64.3633 40.8242C63.7461 41.3477 63.3359 41.9961 63.1328 42.7695V43.9883C63.1328 45.4727 63.4453 46.6836 64.0703 47.6211C64.6953 48.5508 65.4922 49.0156 66.4609 49.0156C67.3516 49.0156 68.0742 48.5898 68.6289 47.7383C69.1836 46.8867 69.4609 45.7969 69.4609 44.4688C69.4609 43.1328 69.1836 42.0586 68.6289 41.2461C68.082 40.4336 67.3398 40.0273 66.4023 40.0273ZM82.0234 37.332C82.0234 38.1914 81.8125 38.9727 81.3906 39.6758C80.9766 40.3711 80.4102 40.8945 79.6914 41.2461C80.5352 41.6055 81.1953 42.1602 81.6719 42.9102C82.1562 43.6602 82.3984 44.5156 82.3984 45.4766C82.3984 46.9141 81.9805 48.0664 81.1445 48.9336C80.3164 49.8008 79.2148 50.2344 77.8398 50.2344C76.4492 50.2344 75.3398 49.8047 74.5117 48.9453C73.6836 48.0781 73.2695 46.9219 73.2695 45.4766C73.2695 44.5 73.5039 43.6406 73.9727 42.8984C74.4492 42.1562 75.1016 41.6055 75.9297 41.2461C75.2109 40.8945 74.6445 40.375 74.2305 39.6875C73.8242 38.9922 73.6211 38.207 73.6211 37.332C73.6211 35.918 74.0039 34.793 74.7695 33.957C75.5352 33.1211 76.5508 32.7031 77.8164 32.7031C79.0898 32.7031 80.1094 33.125 80.875 33.9688C81.6406 34.8125 82.0234 35.9336 82.0234 37.332ZM81.0859 45.4766C81.0859 44.4141 80.7773 43.5469 80.1602 42.875C79.543 42.1953 78.7617 41.8555 77.8164 41.8555C76.8711 41.8555 76.0898 42.1875 75.4727 42.8516C74.8633 43.5156 74.5586 44.3906 74.5586 45.4766C74.5586 46.5625 74.8516 47.4258 75.4375 48.0664C76.0312 48.707 76.832 49.0273 77.8398 49.0273C78.8242 49.0273 79.6094 48.707 80.1953 48.0664C80.7891 47.4258 81.0859 46.5625 81.0859 45.4766ZM80.7227 37.3203C80.7227 36.3438 80.4453 35.5352 79.8906 34.8945C79.3438 34.2461 78.6523 33.9219 77.8164 33.9219C76.9492 33.9219 76.25 34.2344 75.7188 34.8594C75.1953 35.4844 74.9336 36.3047 74.9336 37.3203C74.9336 38.3438 75.2031 39.1523 75.7422 39.7461C76.2891 40.3398 76.9844 40.6367 77.8281 40.6367C78.6719 40.6367 79.3633 40.3359 79.9023 39.7344C80.4492 39.125 80.7227 38.3203 80.7227 37.3203ZM85.3516 49.1445C85.3516 48.8633 85.4375 48.6289 85.6094 48.4414C85.7891 48.2461 86.0352 48.1484 86.3477 48.1484C86.6602 48.1484 86.9062 48.2461 87.0859 48.4414C87.2656 48.6289 87.3555 48.8633 87.3555 49.1445C87.3555 49.418 87.2656 49.6445 87.0859 49.8242C86.9062 50.0039 86.6602 50.0938 86.3477 50.0938C86.0352 50.0938 85.7891 50.0039 85.6094 49.8242C85.4375 49.6445 85.3516 49.418 85.3516 49.1445ZM98.2656 44.4922H100.457V45.7109H98.2656V50H96.9648V45.7109H90.2617V44.8789L96.8594 32.9375H98.2656V44.4922ZM91.8203 44.4922H96.9648V34.9062L96.4961 35.8555L91.8203 44.4922ZM111.672 50H102.625V48.8984L107.477 42.3477C108.289 41.2305 108.855 40.3047 109.176 39.5703C109.496 38.8359 109.656 38.1172 109.656 37.4141C109.656 36.3438 109.398 35.4961 108.883 34.8711C108.375 34.2383 107.668 33.9219 106.762 33.9219C105.801 33.9219 105.035 34.2891 104.465 35.0234C103.895 35.75 103.609 36.6953 103.609 37.8594H102.309C102.309 36.375 102.719 35.1445 103.539 34.168C104.359 33.1914 105.434 32.7031 106.762 32.7031C108.059 32.7031 109.086 33.1094 109.844 33.9219C110.602 34.7266 110.98 35.8477 110.98 37.2852C110.98 38.6523 110.363 40.25 109.129 42.0781L108.379 43.1562L104.207 48.793H111.672V50Z" fill="black"/>
</svg>
