<svg width="174" height="56" viewBox="0 0 174 56" fill="none" xmlns="http://www.w3.org/2000/svg">
<path d="M3.84375 15.0625V22H2.50781V4.9375H7.46484C8.97266 4.9375 10.1602 5.39063 11.0273 6.29688C11.8945 7.20312 12.3281 8.44922 12.3281 10.0352C12.3281 11.6523 11.9062 12.8945 11.0625 13.7617C10.2266 14.6289 9.01953 15.0625 7.44141 15.0625H3.84375ZM3.84375 13.8086H7.46484C8.58984 13.8086 9.45703 13.4844 10.0664 12.8359C10.6836 12.1797 10.9922 11.2539 10.9922 10.0586C10.9922 8.86328 10.6797 7.92188 10.0547 7.23438C9.4375 6.54687 8.57812 6.20312 7.47656 6.20312H3.84375V13.8086ZM23.4609 17.8047C23.4609 16.8516 23.1875 16.1016 22.6406 15.5547C22.1016 15.0078 21.0898 14.4844 19.6055 13.9844C18.1211 13.4844 17.0312 12.9258 16.3359 12.3086C15.4219 11.5039 14.9648 10.4414 14.9648 9.12109C14.9648 7.81641 15.4141 6.75391 16.3125 5.93359C17.2109 5.11328 18.3711 4.70312 19.793 4.70312C21.2461 4.70312 22.4336 5.17969 23.3555 6.13281C24.2773 7.08594 24.7383 8.3125 24.7383 9.8125H23.3906C23.3906 8.66406 23.0664 7.73828 22.418 7.03516C21.7773 6.32422 20.9023 5.96875 19.793 5.96875C18.7148 5.96875 17.8633 6.26172 17.2383 6.84766C16.6211 7.42578 16.3125 8.17578 16.3125 9.09766C16.3125 9.95703 16.6055 10.6602 17.1914 11.207C17.7773 11.7539 18.7109 12.2422 19.9922 12.6719C21.2734 13.0938 22.2422 13.5352 22.8984 13.9961C23.5547 14.4492 24.0391 14.9844 24.3516 15.6016C24.6641 16.2188 24.8203 16.9453 24.8203 17.7812C24.8203 19.1172 24.3672 20.1953 23.4609 21.0156C22.5625 21.8281 21.3711 22.2344 19.8867 22.2344C18.8867 22.2344 17.9727 22.0312 17.1445 21.625C16.3242 21.2109 15.6797 20.6211 15.2109 19.8555C14.75 19.082 14.5195 18.1719 14.5195 17.125H15.8555C15.8555 18.3281 16.2188 19.2734 16.9453 19.9609C17.6719 20.6484 18.6523 20.9922 19.8867 20.9922C20.9648 20.9922 21.8281 20.7031 22.4766 20.125C23.1328 19.5469 23.4609 18.7734 23.4609 17.8047ZM32.2969 19.8672L32.332 20.0547L32.3789 19.8672L36.832 4.9375H38.3086L32.9766 22H31.7109L26.3789 4.9375H27.8438L32.2969 19.8672ZM55.5352 6.20312H50.6836V22H49.3359V6.20312H44.4961V4.9375H55.5352V6.20312ZM56.3438 15.0156C56.3438 13.1875 56.7578 11.7422 57.5859 10.6797C58.4141 9.61719 59.543 9.08594 60.9727 9.08594C62.4102 9.08594 63.5391 9.60938 64.3594 10.6562C65.1875 11.7031 65.6055 13.1445 65.6133 14.9805V16.3281C65.6133 18.1875 65.1953 19.6367 64.3594 20.6758C63.5312 21.7148 62.4102 22.2344 60.9961 22.2344C59.582 22.2344 58.4609 21.7266 57.6328 20.7109C56.8047 19.6953 56.375 18.2969 56.3438 16.5156V15.0156ZM57.6562 16.3281C57.6562 17.7891 57.9492 18.9375 58.5352 19.7734C59.1289 20.6094 59.9492 21.0273 60.9961 21.0273C62.0664 21.0273 62.8828 20.625 63.4453 19.8203C64.0156 19.0156 64.3047 17.8633 64.3125 16.3633V15.0156C64.3125 13.5547 64.0156 12.4062 63.4219 11.5703C62.8281 10.7266 62.0117 10.3047 60.9727 10.3047C59.9648 10.3047 59.1641 10.7148 58.5703 11.5352C57.9766 12.3555 57.6719 13.4844 57.6562 14.9219V16.3281ZM73.5938 10.5391C73.2812 10.4844 73.0078 10.457 72.7734 10.457C72.0547 10.457 71.4492 10.7031 70.957 11.1953C70.4727 11.6875 70.1289 12.3711 69.9258 13.2461V22H68.625V9.32031H69.9023L69.9258 11.2188C70.543 9.79688 71.5117 9.08594 72.832 9.08594C73.1758 9.08594 73.4375 9.13672 73.6172 9.23828L73.5938 10.5391ZM75.1641 15.0156C75.1641 13.1875 75.5781 11.7422 76.4062 10.6797C77.2344 9.61719 78.3633 9.08594 79.793 9.08594C81.2305 9.08594 82.3594 9.60938 83.1797 10.6562C84.0078 11.7031 84.4258 13.1445 84.4336 14.9805V16.3281C84.4336 18.1875 84.0156 19.6367 83.1797 20.6758C82.3516 21.7148 81.2305 22.2344 79.8164 22.2344C78.4023 22.2344 77.2812 21.7266 76.4531 20.7109C75.625 19.6953 75.1953 18.2969 75.1641 16.5156V15.0156ZM76.4766 16.3281C76.4766 17.7891 76.7695 18.9375 77.3555 19.7734C77.9492 20.6094 78.7695 21.0273 79.8164 21.0273C80.8867 21.0273 81.7031 20.625 82.2656 19.8203C82.8359 19.0156 83.125 17.8633 83.1328 16.3633V15.0156C83.1328 13.5547 82.8359 12.4062 82.2422 11.5703C81.6484 10.7266 80.832 10.3047 79.793 10.3047C78.7852 10.3047 77.9844 10.7148 77.3906 11.5352C76.7969 12.3555 76.4922 13.4844 76.4766 14.9219V16.3281ZM100.875 17.2305H94.4766L93.0234 22H91.6289L97.0664 4.9375H98.3086L103.746 22H102.352L100.875 17.2305ZM94.8633 15.9766H100.488L97.6758 6.82422L94.8633 15.9766ZM107.203 9.32031L107.238 11.2188C108.027 9.79688 109.16 9.08594 110.637 9.08594C112.27 9.08594 113.324 9.86328 113.801 11.418C114.199 10.6445 114.711 10.0625 115.336 9.67188C115.969 9.28125 116.656 9.08594 117.398 9.08594C119.68 9.08594 120.848 10.5547 120.902 13.4922V22H119.602V13.5742C119.586 12.4805 119.383 11.668 118.992 11.1367C118.602 10.5977 117.961 10.3281 117.07 10.3281C116.266 10.3438 115.586 10.6562 115.031 11.2656C114.477 11.875 114.16 12.6406 114.082 13.5625V22H112.77V13.6094C112.77 12.5 112.562 11.6758 112.148 11.1367C111.742 10.5977 111.105 10.3281 110.238 10.3281C109.527 10.3281 108.91 10.5742 108.387 11.0664C107.871 11.5586 107.496 12.2617 107.262 13.1758V22H105.961V9.32031H107.203ZM131.016 22C130.898 21.5938 130.82 21.0078 130.781 20.2422C130.391 20.875 129.887 21.3672 129.27 21.7188C128.66 22.0625 127.996 22.2344 127.277 22.2344C126.184 22.2344 125.332 21.9258 124.723 21.3086C124.113 20.6914 123.809 19.8125 123.809 18.6719C123.809 17.4297 124.23 16.4453 125.074 15.7188C125.926 14.9922 127.098 14.625 128.59 14.6172H130.77V12.8477C130.77 11.9414 130.543 11.293 130.09 10.9023C129.645 10.5039 128.988 10.3047 128.121 10.3047C127.316 10.3047 126.656 10.5391 126.141 11.0078C125.625 11.4766 125.367 12.082 125.367 12.8242L124.066 12.8125C124.066 11.7734 124.457 10.8945 125.238 10.1758C126.02 9.44922 127 9.08594 128.18 9.08594C129.453 9.08594 130.418 9.40625 131.074 10.0469C131.73 10.6875 132.059 11.6211 132.059 12.8477V19.0703C132.059 20.3125 132.172 21.2422 132.398 21.8594V22H131.016ZM127.441 20.9805C128.207 20.9805 128.883 20.7812 129.469 20.3828C130.062 19.9844 130.496 19.4531 130.77 18.7891V15.707H128.707C127.52 15.7227 126.625 15.9883 126.023 16.5039C125.422 17.0117 125.121 17.6992 125.121 18.5664C125.121 20.1758 125.895 20.9805 127.441 20.9805ZM140.578 10.5391C140.266 10.4844 139.992 10.457 139.758 10.457C139.039 10.457 138.434 10.7031 137.941 11.1953C137.457 11.6875 137.113 12.3711 136.91 13.2461V22H135.609V9.32031H136.887L136.91 11.2188C137.527 9.79688 138.496 9.08594 139.816 9.08594C140.16 9.08594 140.422 9.13672 140.602 9.23828L140.578 10.5391ZM144.328 22H143.016V9.32031H144.328V22ZM142.828 5.66406C142.828 5.39844 142.902 5.17188 143.051 4.98438C143.199 4.79688 143.41 4.70312 143.684 4.70312C143.957 4.70312 144.168 4.79688 144.316 4.98438C144.473 5.17188 144.551 5.39844 144.551 5.66406C144.551 5.92969 144.473 6.15625 144.316 6.34375C144.168 6.52344 143.957 6.61328 143.684 6.61328C143.41 6.61328 143.199 6.52344 143.051 6.34375C142.902 6.15625 142.828 5.92969 142.828 5.66406ZM149.391 22H148.078V4H149.391V22ZM154.453 22H153.141V4H154.453V22ZM157.57 15.0156C157.57 13.1875 157.984 11.7422 158.812 10.6797C159.641 9.61719 160.77 9.08594 162.199 9.08594C163.637 9.08594 164.766 9.60938 165.586 10.6562C166.414 11.7031 166.832 13.1445 166.84 14.9805V16.3281C166.84 18.1875 166.422 19.6367 165.586 20.6758C164.758 21.7148 163.637 22.2344 162.223 22.2344C160.809 22.2344 159.688 21.7266 158.859 20.7109C158.031 19.6953 157.602 18.2969 157.57 16.5156V15.0156ZM158.883 16.3281C158.883 17.7891 159.176 18.9375 159.762 19.7734C160.355 20.6094 161.176 21.0273 162.223 21.0273C163.293 21.0273 164.109 20.625 164.672 19.8203C165.242 19.0156 165.531 17.8633 165.539 16.3633V15.0156C165.539 13.5547 165.242 12.4062 164.648 11.5703C164.055 10.7266 163.238 10.3047 162.199 10.3047C161.191 10.3047 160.391 10.7148 159.797 11.5352C159.203 12.3555 158.898 13.4844 158.883 14.9219V16.3281ZM36.0938 41.5859L34.1133 43.8828V50H32.7773V32.9375H34.1133V42.0312L35.9883 39.6875L41.2734 32.9375H42.9492L36.9961 40.5312L43.4062 50H41.7773L36.0938 41.5859ZM46.2891 41.2578L46.9922 32.9375H54.1992V34.2734H48.1055L47.625 39.9922C48.3906 39.3672 49.2695 39.0547 50.2617 39.0547C51.5664 39.0547 52.5977 39.5586 53.3555 40.5664C54.1211 41.5664 54.5039 42.8984 54.5039 44.5625C54.5039 46.3438 54.1289 47.7344 53.3789 48.7344C52.6289 49.7344 51.5625 50.2344 50.1797 50.2344C48.9219 50.2344 47.9023 49.8164 47.1211 48.9805C46.3398 48.1367 45.8984 46.9805 45.7969 45.5117H47.0391C47.1484 46.6602 47.4727 47.5352 48.0117 48.1367C48.5508 48.7305 49.2734 49.0273 50.1797 49.0273C51.1719 49.0273 51.9219 48.6406 52.4297 47.8672C52.9453 47.0938 53.2031 46 53.2031 44.5859C53.2031 43.3281 52.9141 42.3125 52.3359 41.5391C51.7656 40.7578 50.9922 40.3672 50.0156 40.3672C49.4531 40.3672 48.9688 40.457 48.5625 40.6367C48.1562 40.8086 47.7422 41.125 47.3203 41.5859L46.2891 41.2578ZM64.4414 42.2188C64.0352 42.9062 63.5234 43.4453 62.9062 43.8359C62.2891 44.2188 61.6328 44.4102 60.9375 44.4102C59.7188 44.4102 58.7305 43.875 57.9727 42.8047C57.2148 41.7344 56.8359 40.3633 56.8359 38.6914C56.8359 36.957 57.2305 35.5273 58.0195 34.4023C58.8164 33.2695 59.8711 32.7031 61.1836 32.7031C62.6211 32.7031 63.7383 33.3008 64.5352 34.4961C65.3398 35.6914 65.7422 37.3906 65.7422 39.5938V40.8594C65.7422 43.9688 65.1992 46.2852 64.1133 47.8086C63.0273 49.3242 61.375 50.0938 59.1562 50.1172H58.8047L58.8164 48.875H59.1914C60.8789 48.8516 62.1602 48.2969 63.0352 47.2109C63.918 46.1172 64.3867 44.4531 64.4414 42.2188ZM61.1133 43.1797C61.8477 43.1797 62.5156 42.9141 63.1172 42.3828C63.7266 41.8438 64.1719 41.125 64.4531 40.2266V39.3711C64.4531 37.6914 64.1562 36.3672 63.5625 35.3984C62.9766 34.4219 62.1875 33.9336 61.1953 33.9336C60.2969 33.9336 59.5586 34.3789 58.9805 35.2695C58.4023 36.1602 58.1133 37.2812 58.1133 38.6328C58.1133 39.9375 58.3906 41.0234 58.9453 41.8906C59.5 42.75 60.2227 43.1797 61.1133 43.1797ZM73.793 41.3047H78.082V42.6523H73.793V48.2891H72.4688V42.6523H68.25V41.3047H72.4688V35.8672H73.793V41.3047ZM89.1797 37.332C89.1797 38.1914 88.9688 38.9727 88.5469 39.6758C88.1328 40.3711 87.5664 40.8945 86.8477 41.2461C87.6914 41.6055 88.3516 42.1602 88.8281 42.9102C89.3125 43.6602 89.5547 44.5156 89.5547 45.4766C89.5547 46.9141 89.1367 48.0664 88.3008 48.9336C87.4727 49.8008 86.3711 50.2344 84.9961 50.2344C83.6055 50.2344 82.4961 49.8047 81.668 48.9453C80.8398 48.0781 80.4258 46.9219 80.4258 45.4766C80.4258 44.5 80.6602 43.6406 81.1289 42.8984C81.6055 42.1562 82.2578 41.6055 83.0859 41.2461C82.3672 40.8945 81.8008 40.375 81.3867 39.6875C80.9805 38.9922 80.7773 38.207 80.7773 37.332C80.7773 35.918 81.1602 34.793 81.9258 33.957C82.6914 33.1211 83.707 32.7031 84.9727 32.7031C86.2461 32.7031 87.2656 33.125 88.0312 33.9688C88.7969 34.8125 89.1797 35.9336 89.1797 37.332ZM88.2422 45.4766C88.2422 44.4141 87.9336 43.5469 87.3164 42.875C86.6992 42.1953 85.918 41.8555 84.9727 41.8555C84.0273 41.8555 83.2461 42.1875 82.6289 42.8516C82.0195 43.5156 81.7148 44.3906 81.7148 45.4766C81.7148 46.5625 82.0078 47.4258 82.5938 48.0664C83.1875 48.707 83.9883 49.0273 84.9961 49.0273C85.9805 49.0273 86.7656 48.707 87.3516 48.0664C87.9453 47.4258 88.2422 46.5625 88.2422 45.4766ZM87.8789 37.3203C87.8789 36.3438 87.6016 35.5352 87.0469 34.8945C86.5 34.2461 85.8086 33.9219 84.9727 33.9219C84.1055 33.9219 83.4062 34.2344 82.875 34.8594C82.3516 35.4844 82.0898 36.3047 82.0898 37.3203C82.0898 38.3438 82.3594 39.1523 82.8984 39.7461C83.4453 40.3398 84.1406 40.6367 84.9844 40.6367C85.8281 40.6367 86.5195 40.3359 87.0586 39.7344C87.6055 39.125 87.8789 38.3203 87.8789 37.3203ZM99.6797 44.4922H101.871V45.7109H99.6797V50H98.3789V45.7109H91.6758V44.8789L98.2734 32.9375H99.6797V44.4922ZM93.2344 44.4922H98.3789V34.9062L97.9102 35.8555L93.2344 44.4922ZM106.652 40.6953H107.93C108.883 40.6875 109.652 40.3867 110.238 39.793C110.832 39.1914 111.129 38.3906 111.129 37.3906C111.129 36.2891 110.875 35.4375 110.367 34.8359C109.859 34.2266 109.141 33.9219 108.211 33.9219C107.305 33.9219 106.57 34.2461 106.008 34.8945C105.453 35.5352 105.176 36.375 105.176 37.4141H103.875C103.875 36.5234 104.055 35.7227 104.414 35.0117C104.781 34.293 105.301 33.7305 105.973 33.3242C106.645 32.9102 107.391 32.7031 108.211 32.7031C109.492 32.7031 110.516 33.1211 111.281 33.957C112.047 34.7852 112.43 35.9453 112.43 37.4375C112.43 38.2812 112.207 39.0469 111.762 39.7344C111.324 40.4219 110.734 40.9297 109.992 41.2578C110.852 41.5391 111.516 42.0352 111.984 42.7461C112.453 43.4492 112.688 44.3203 112.688 45.3594C112.688 46.8438 112.281 48.0273 111.469 48.9102C110.656 49.793 109.582 50.2344 108.246 50.2344C107.395 50.2344 106.613 50.0352 105.902 49.6367C105.191 49.2305 104.641 48.6641 104.25 47.9375C103.867 47.2109 103.676 46.3594 103.676 45.3828H104.977C104.977 46.4453 105.277 47.3203 105.879 48.0078C106.488 48.6875 107.277 49.0273 108.246 49.0273C109.238 49.0273 110.008 48.7188 110.555 48.1016C111.109 47.4766 111.387 46.5781 111.387 45.4062C111.387 44.2812 111.09 43.4219 110.496 42.8281C109.91 42.2266 109.051 41.9219 107.918 41.9141H106.652V40.6953ZM115.852 49.1445C115.852 48.8633 115.938 48.6289 116.109 48.4414C116.289 48.2461 116.535 48.1484 116.848 48.1484C117.16 48.1484 117.406 48.2461 117.586 48.4414C117.766 48.6289 117.855 48.8633 117.855 49.1445C117.855 49.418 117.766 49.6445 117.586 49.8242C117.406 50.0039 117.16 50.0938 116.848 50.0938C116.535 50.0938 116.289 50.0039 116.109 49.8242C115.938 49.6445 115.852 49.418 115.852 49.1445ZM128.438 32.8203V34.0742H128.238C126.582 34.082 125.277 34.668 124.324 35.832C123.379 36.9961 122.852 38.6406 122.742 40.7656C123.141 40.1328 123.637 39.6484 124.23 39.3125C124.824 38.9688 125.48 38.7969 126.199 38.7969C127.457 38.7969 128.457 39.3164 129.199 40.3555C129.949 41.3867 130.324 42.7383 130.324 44.4102C130.324 46.1523 129.93 47.5586 129.141 48.6289C128.352 49.6992 127.32 50.2344 126.047 50.2344C124.68 50.2344 123.566 49.6484 122.707 48.4766C121.848 47.3047 121.418 45.7656 121.418 43.8594V42.4766C121.418 39.3438 121.996 36.9609 123.152 35.3281C124.309 33.6875 125.969 32.8516 128.133 32.8203H128.438ZM125.988 40.0273C125.254 40.0273 124.574 40.293 123.949 40.8242C123.332 41.3477 122.922 41.9961 122.719 42.7695V43.9883C122.719 45.4727 123.031 46.6836 123.656 47.6211C124.281 48.5508 125.078 49.0156 126.047 49.0156C126.938 49.0156 127.66 48.5898 128.215 47.7383C128.77 46.8867 129.047 45.7969 129.047 44.4688C129.047 43.1328 128.77 42.0586 128.215 41.2461C127.668 40.4336 126.926 40.0273 125.988 40.0273ZM138.703 50H137.391V34.6602L133.535 36.3828V35.0469L138.48 32.8789H138.703V50Z" fill="black"/>
</svg>
