<svg width="113" height="56" viewBox="0 0 113 56" fill="none" xmlns="http://www.w3.org/2000/svg">
<path d="M12.5898 15.0625V22H11.2539V4.9375H16.2109C17.7188 4.9375 18.9062 5.39063 19.7734 6.29688C20.6406 7.20312 21.0742 8.44922 21.0742 10.0352C21.0742 11.6523 20.6523 12.8945 19.8086 13.7617C18.9727 14.6289 17.7656 15.0625 16.1875 15.0625H12.5898ZM12.5898 13.8086H16.2109C17.3359 13.8086 18.2031 13.4844 18.8125 12.8359C19.4297 12.1797 19.7383 11.2539 19.7383 10.0586C19.7383 8.86328 19.4258 7.92188 18.8008 7.23438C18.1836 6.54687 17.3242 6.20312 16.2227 6.20312H12.5898V13.8086ZM32.207 17.8047C32.207 16.8516 31.9336 16.1016 31.3867 15.5547C30.8477 15.0078 29.8359 14.4844 28.3516 13.9844C26.8672 13.4844 25.7773 12.9258 25.082 12.3086C24.168 11.5039 23.7109 10.4414 23.7109 9.12109C23.7109 7.81641 24.1602 6.75391 25.0586 5.93359C25.957 5.11328 27.1172 4.70312 28.5391 4.70312C29.9922 4.70312 31.1797 5.17969 32.1016 6.13281C33.0234 7.08594 33.4844 8.3125 33.4844 9.8125H32.1367C32.1367 8.66406 31.8125 7.73828 31.1641 7.03516C30.5234 6.32422 29.6484 5.96875 28.5391 5.96875C27.4609 5.96875 26.6094 6.26172 25.9844 6.84766C25.3672 7.42578 25.0586 8.17578 25.0586 9.09766C25.0586 9.95703 25.3516 10.6602 25.9375 11.207C26.5234 11.7539 27.457 12.2422 28.7383 12.6719C30.0195 13.0938 30.9883 13.5352 31.6445 13.9961C32.3008 14.4492 32.7852 14.9844 33.0977 15.6016C33.4102 16.2188 33.5664 16.9453 33.5664 17.7812C33.5664 19.1172 33.1133 20.1953 32.207 21.0156C31.3086 21.8281 30.1172 22.2344 28.6328 22.2344C27.6328 22.2344 26.7188 22.0312 25.8906 21.625C25.0703 21.2109 24.4258 20.6211 23.957 19.8555C23.4961 19.082 23.2656 18.1719 23.2656 17.125H24.6016C24.6016 18.3281 24.9648 19.2734 25.6914 19.9609C26.418 20.6484 27.3984 20.9922 28.6328 20.9922C29.7109 20.9922 30.5742 20.7031 31.2227 20.125C31.8789 19.5469 32.207 18.7734 32.207 17.8047ZM41.043 19.8672L41.0781 20.0547L41.125 19.8672L45.5781 4.9375H47.0547L41.7227 22H40.457L35.125 4.9375H36.5898L41.043 19.8672ZM63.0039 17.8047C63.0039 16.8516 62.7305 16.1016 62.1836 15.5547C61.6445 15.0078 60.6328 14.4844 59.1484 13.9844C57.6641 13.4844 56.5742 12.9258 55.8789 12.3086C54.9648 11.5039 54.5078 10.4414 54.5078 9.12109C54.5078 7.81641 54.957 6.75391 55.8555 5.93359C56.7539 5.11328 57.9141 4.70312 59.3359 4.70312C60.7891 4.70312 61.9766 5.17969 62.8984 6.13281C63.8203 7.08594 64.2812 8.3125 64.2812 9.8125H62.9336C62.9336 8.66406 62.6094 7.73828 61.9609 7.03516C61.3203 6.32422 60.4453 5.96875 59.3359 5.96875C58.2578 5.96875 57.4062 6.26172 56.7812 6.84766C56.1641 7.42578 55.8555 8.17578 55.8555 9.09766C55.8555 9.95703 56.1484 10.6602 56.7344 11.207C57.3203 11.7539 58.2539 12.2422 59.5352 12.6719C60.8164 13.0938 61.7852 13.5352 62.4414 13.9961C63.0977 14.4492 63.582 14.9844 63.8945 15.6016C64.207 16.2188 64.3633 16.9453 64.3633 17.7812C64.3633 19.1172 63.9102 20.1953 63.0039 21.0156C62.1055 21.8281 60.9141 22.2344 59.4297 22.2344C58.4297 22.2344 57.5156 22.0312 56.6875 21.625C55.8672 21.2109 55.2227 20.6211 54.7539 19.8555C54.293 19.082 54.0625 18.1719 54.0625 17.125H55.3984C55.3984 18.3281 55.7617 19.2734 56.4883 19.9609C57.2148 20.6484 58.1953 20.9922 59.4297 20.9922C60.5078 20.9922 61.3711 20.7031 62.0195 20.125C62.6758 19.5469 63.0039 18.7734 63.0039 17.8047ZM68.582 22H67.2695V9.32031H68.582V22ZM67.082 5.66406C67.082 5.39844 67.1562 5.17188 67.3047 4.98438C67.4531 4.79688 67.6641 4.70312 67.9375 4.70312C68.2109 4.70312 68.4219 4.79688 68.5703 4.98438C68.7266 5.17188 68.8047 5.39844 68.8047 5.66406C68.8047 5.92969 68.7266 6.15625 68.5703 6.34375C68.4219 6.52344 68.2109 6.61328 67.9375 6.61328C67.6641 6.61328 67.4531 6.52344 67.3047 6.34375C67.1562 6.15625 67.082 5.92969 67.082 5.66406ZM73.4336 9.32031L73.4688 11.3359C73.8438 10.6484 74.3203 10.1016 74.8984 9.69531C75.4844 9.28906 76.1484 9.08594 76.8906 9.08594C79.1016 9.08594 80.2344 10.5586 80.2891 13.5039V22H79V13.6445C78.9922 12.5117 78.793 11.6758 78.4023 11.1367C78.0117 10.5977 77.3984 10.3281 76.5625 10.3281C75.8828 10.3281 75.2695 10.5859 74.7227 11.1016C74.1836 11.6094 73.7734 12.3086 73.4922 13.1992V22H72.1914V9.32031H73.4336ZM90.4492 22C90.332 21.5938 90.2539 21.0078 90.2148 20.2422C89.8242 20.875 89.3203 21.3672 88.7031 21.7188C88.0938 22.0625 87.4297 22.2344 86.7109 22.2344C85.6172 22.2344 84.7656 21.9258 84.1562 21.3086C83.5469 20.6914 83.2422 19.8125 83.2422 18.6719C83.2422 17.4297 83.6641 16.4453 84.5078 15.7188C85.3594 14.9922 86.5312 14.625 88.0234 14.6172H90.2031V12.8477C90.2031 11.9414 89.9766 11.293 89.5234 10.9023C89.0781 10.5039 88.4219 10.3047 87.5547 10.3047C86.75 10.3047 86.0898 10.5391 85.5742 11.0078C85.0586 11.4766 84.8008 12.082 84.8008 12.8242L83.5 12.8125C83.5 11.7734 83.8906 10.8945 84.6719 10.1758C85.4531 9.44922 86.4336 9.08594 87.6133 9.08594C88.8867 9.08594 89.8516 9.40625 90.5078 10.0469C91.1641 10.6875 91.4922 11.6211 91.4922 12.8477V19.0703C91.4922 20.3125 91.6055 21.2422 91.832 21.8594V22H90.4492ZM86.875 20.9805C87.6406 20.9805 88.3164 20.7812 88.9023 20.3828C89.4961 19.9844 89.9297 19.4531 90.2031 18.7891V15.707H88.1406C86.9531 15.7227 86.0586 15.9883 85.457 16.5039C84.8555 17.0117 84.5547 17.6992 84.5547 18.5664C84.5547 20.1758 85.3281 20.9805 86.875 20.9805ZM96.4961 22H95.1836V9.32031H96.4961V22ZM94.9961 5.66406C94.9961 5.39844 95.0703 5.17188 95.2188 4.98438C95.3672 4.79688 95.5781 4.70312 95.8516 4.70312C96.125 4.70312 96.3359 4.79688 96.4844 4.98438C96.6406 5.17188 96.7188 5.39844 96.7188 5.66406C96.7188 5.92969 96.6406 6.15625 96.4844 6.34375C96.3359 6.52344 96.125 6.61328 95.8516 6.61328C95.5781 6.61328 95.3672 6.52344 95.2188 6.34375C95.0703 6.15625 94.9961 5.92969 94.9961 5.66406ZM5.59375 41.5859L3.61328 43.8828V50H2.27734V32.9375H3.61328V42.0312L5.48828 39.6875L10.7734 32.9375H12.4492L6.49609 40.5312L12.9062 50H11.2773L5.59375 41.5859ZM21.9766 32.8203V34.0742H21.7773C20.1211 34.082 18.8164 34.668 17.8633 35.832C16.918 36.9961 16.3906 38.6406 16.2812 40.7656C16.6797 40.1328 17.1758 39.6484 17.7695 39.3125C18.3633 38.9688 19.0195 38.7969 19.7383 38.7969C20.9961 38.7969 21.9961 39.3164 22.7383 40.3555C23.4883 41.3867 23.8633 42.7383 23.8633 44.4102C23.8633 46.1523 23.4688 47.5586 22.6797 48.6289C21.8906 49.6992 20.8594 50.2344 19.5859 50.2344C18.2188 50.2344 17.1055 49.6484 16.2461 48.4766C15.3867 47.3047 14.957 45.7656 14.957 43.8594V42.4766C14.957 39.3438 15.5352 36.9609 16.6914 35.3281C17.8477 33.6875 19.5078 32.8516 21.6719 32.8203H21.9766ZM19.5273 40.0273C18.793 40.0273 18.1133 40.293 17.4883 40.8242C16.8711 41.3477 16.4609 41.9961 16.2578 42.7695V43.9883C16.2578 45.4727 16.5703 46.6836 17.1953 47.6211C17.8203 48.5508 18.6172 49.0156 19.5859 49.0156C20.4766 49.0156 21.1992 48.5898 21.7539 47.7383C22.3086 46.8867 22.5859 45.7969 22.5859 44.4688C22.5859 43.1328 22.3086 42.0586 21.7539 41.2461C21.207 40.4336 20.4648 40.0273 19.5273 40.0273ZM32.2422 50H30.9297V34.6602L27.0742 36.3828V35.0469L32.0195 32.8789H32.2422V50ZM43.293 41.3047H47.582V42.6523H43.293V48.2891H41.9688V42.6523H37.75V41.3047H41.9688V35.8672H43.293V41.3047ZM57.1797 32.8203V34.0742H56.9805C55.3242 34.082 54.0195 34.668 53.0664 35.832C52.1211 36.9961 51.5938 38.6406 51.4844 40.7656C51.8828 40.1328 52.3789 39.6484 52.9727 39.3125C53.5664 38.9688 54.2227 38.7969 54.9414 38.7969C56.1992 38.7969 57.1992 39.3164 57.9414 40.3555C58.6914 41.3867 59.0664 42.7383 59.0664 44.4102C59.0664 46.1523 58.6719 47.5586 57.8828 48.6289C57.0938 49.6992 56.0625 50.2344 54.7891 50.2344C53.4219 50.2344 52.3086 49.6484 51.4492 48.4766C50.5898 47.3047 50.1602 45.7656 50.1602 43.8594V42.4766C50.1602 39.3438 50.7383 36.9609 51.8945 35.3281C53.0508 33.6875 54.7109 32.8516 56.875 32.8203H57.1797ZM54.7305 40.0273C53.9961 40.0273 53.3164 40.293 52.6914 40.8242C52.0742 41.3477 51.6641 41.9961 51.4609 42.7695V43.9883C51.4609 45.4727 51.7734 46.6836 52.3984 47.6211C53.0234 48.5508 53.8203 49.0156 54.7891 49.0156C55.6797 49.0156 56.4023 48.5898 56.957 47.7383C57.5117 46.8867 57.7891 45.7969 57.7891 44.4688C57.7891 43.1328 57.5117 42.0586 56.957 41.2461C56.4102 40.4336 55.668 40.0273 54.7305 40.0273ZM69.1445 42.2188C68.7383 42.9062 68.2266 43.4453 67.6094 43.8359C66.9922 44.2188 66.3359 44.4102 65.6406 44.4102C64.4219 44.4102 63.4336 43.875 62.6758 42.8047C61.918 41.7344 61.5391 40.3633 61.5391 38.6914C61.5391 36.957 61.9336 35.5273 62.7227 34.4023C63.5195 33.2695 64.5742 32.7031 65.8867 32.7031C67.3242 32.7031 68.4414 33.3008 69.2383 34.4961C70.043 35.6914 70.4453 37.3906 70.4453 39.5938V40.8594C70.4453 43.9688 69.9023 46.2852 68.8164 47.8086C67.7305 49.3242 66.0781 50.0938 63.8594 50.1172H63.5078L63.5195 48.875H63.8945C65.582 48.8516 66.8633 48.2969 67.7383 47.2109C68.6211 46.1172 69.0898 44.4531 69.1445 42.2188ZM65.8164 43.1797C66.5508 43.1797 67.2188 42.9141 67.8203 42.3828C68.4297 41.8438 68.875 41.125 69.1562 40.2266V39.3711C69.1562 37.6914 68.8594 36.3672 68.2656 35.3984C67.6797 34.4219 66.8906 33.9336 65.8984 33.9336C65 33.9336 64.2617 34.3789 63.6836 35.2695C63.1055 36.1602 62.8164 37.2812 62.8164 38.6328C62.8164 39.9375 63.0938 41.0234 63.6484 41.8906C64.2031 42.75 64.9258 43.1797 65.8164 43.1797ZM74.3359 41.2578L75.0391 32.9375H82.2461V34.2734H76.1523L75.6719 39.9922C76.4375 39.3672 77.3164 39.0547 78.3086 39.0547C79.6133 39.0547 80.6445 39.5586 81.4023 40.5664C82.168 41.5664 82.5508 42.8984 82.5508 44.5625C82.5508 46.3438 82.1758 47.7344 81.4258 48.7344C80.6758 49.7344 79.6094 50.2344 78.2266 50.2344C76.9688 50.2344 75.9492 49.8164 75.168 48.9805C74.3867 48.1367 73.9453 46.9805 73.8438 45.5117H75.0859C75.1953 46.6602 75.5195 47.5352 76.0586 48.1367C76.5977 48.7305 77.3203 49.0273 78.2266 49.0273C79.2188 49.0273 79.9688 48.6406 80.4766 47.8672C80.9922 47.0938 81.25 46 81.25 44.5859C81.25 43.3281 80.9609 42.3125 80.3828 41.5391C79.8125 40.7578 79.0391 40.3672 78.0625 40.3672C77.5 40.3672 77.0156 40.457 76.6094 40.6367C76.2031 40.8086 75.7891 41.125 75.3672 41.5859L74.3359 41.2578ZM85.3516 49.1445C85.3516 48.8633 85.4375 48.6289 85.6094 48.4414C85.7891 48.2461 86.0352 48.1484 86.3477 48.1484C86.6602 48.1484 86.9062 48.2461 87.0859 48.4414C87.2656 48.6289 87.3555 48.8633 87.3555 49.1445C87.3555 49.418 87.2656 49.6445 87.0859 49.8242C86.9062 50.0039 86.6602 50.0938 86.3477 50.0938C86.0352 50.0938 85.7891 50.0039 85.6094 49.8242C85.4375 49.6445 85.3516 49.418 85.3516 49.1445ZM91.75 41.2578L92.4531 32.9375H99.6602V34.2734H93.5664L93.0859 39.9922C93.8516 39.3672 94.7305 39.0547 95.7227 39.0547C97.0273 39.0547 98.0586 39.5586 98.8164 40.5664C99.582 41.5664 99.9648 42.8984 99.9648 44.5625C99.9648 46.3438 99.5898 47.7344 98.8398 48.7344C98.0898 49.7344 97.0234 50.2344 95.6406 50.2344C94.3828 50.2344 93.3633 49.8164 92.582 48.9805C91.8008 48.1367 91.3594 46.9805 91.2578 45.5117H92.5C92.6094 46.6602 92.9336 47.5352 93.4727 48.1367C94.0117 48.7305 94.7344 49.0273 95.6406 49.0273C96.6328 49.0273 97.3828 48.6406 97.8906 47.8672C98.4062 47.0938 98.6641 46 98.6641 44.5859C98.6641 43.3281 98.375 42.3125 97.7969 41.5391C97.2266 40.7578 96.4531 40.3672 95.4766 40.3672C94.9141 40.3672 94.4297 40.457 94.0234 40.6367C93.6172 40.8086 93.2031 41.125 92.7812 41.5859L91.75 41.2578ZM111.109 37.332C111.109 38.1914 110.898 38.9727 110.477 39.6758C110.062 40.3711 109.496 40.8945 108.777 41.2461C109.621 41.6055 110.281 42.1602 110.758 42.9102C111.242 43.6602 111.484 44.5156 111.484 45.4766C111.484 46.9141 111.066 48.0664 110.23 48.9336C109.402 49.8008 108.301 50.2344 106.926 50.2344C105.535 50.2344 104.426 49.8047 103.598 48.9453C102.77 48.0781 102.355 46.9219 102.355 45.4766C102.355 44.5 102.59 43.6406 103.059 42.8984C103.535 42.1562 104.188 41.6055 105.016 41.2461C104.297 40.8945 103.73 40.375 103.316 39.6875C102.91 38.9922 102.707 38.207 102.707 37.332C102.707 35.918 103.09 34.793 103.855 33.957C104.621 33.1211 105.637 32.7031 106.902 32.7031C108.176 32.7031 109.195 33.125 109.961 33.9688C110.727 34.8125 111.109 35.9336 111.109 37.332ZM110.172 45.4766C110.172 44.4141 109.863 43.5469 109.246 42.875C108.629 42.1953 107.848 41.8555 106.902 41.8555C105.957 41.8555 105.176 42.1875 104.559 42.8516C103.949 43.5156 103.645 44.3906 103.645 45.4766C103.645 46.5625 103.938 47.4258 104.523 48.0664C105.117 48.707 105.918 49.0273 106.926 49.0273C107.91 49.0273 108.695 48.707 109.281 48.0664C109.875 47.4258 110.172 46.5625 110.172 45.4766ZM109.809 37.3203C109.809 36.3438 109.531 35.5352 108.977 34.8945C108.43 34.2461 107.738 33.9219 106.902 33.9219C106.035 33.9219 105.336 34.2344 104.805 34.8594C104.281 35.4844 104.02 36.3047 104.02 37.3203C104.02 38.3438 104.289 39.1523 104.828 39.7461C105.375 40.3398 106.07 40.6367 106.914 40.6367C107.758 40.6367 108.449 40.3359 108.988 39.7344C109.535 39.125 109.809 38.3203 109.809 37.3203Z" fill="black"/>
</svg>
