<svg width="113" height="56" viewBox="0 0 113 56" fill="none" xmlns="http://www.w3.org/2000/svg">
<path d="M4.69141 22H3.35547V4.9375H4.69141V22ZM19.1992 16.6797C19.0742 18.5938 18.5586 20 17.6523 20.8984C16.7461 21.7891 15.4922 22.2344 13.8906 22.2344C12.2422 22.2344 10.9414 21.6133 9.98828 20.3711C9.03516 19.1211 8.55469 17.4258 8.54688 15.2852V11.582C8.54688 9.43359 9.03125 7.75 10 6.53125C10.9766 5.3125 12.3086 4.70312 13.9961 4.70312C15.5898 4.70312 16.8242 5.16016 17.6992 6.07422C18.5742 6.98828 19.0742 8.39062 19.1992 10.2812H17.8398C17.7148 8.73438 17.3477 7.62891 16.7383 6.96484C16.1367 6.30078 15.2227 5.96875 13.9961 5.96875C12.707 5.96875 11.7031 6.44922 10.9844 7.41016C10.2656 8.37109 9.90625 9.76562 9.90625 11.5938V15.25C9.90625 17.0625 10.2539 18.4727 10.9492 19.4805C11.6445 20.4883 12.625 20.9922 13.8906 20.9922C15.2188 20.9922 16.1797 20.6602 16.7734 19.9961C17.3672 19.332 17.7227 18.2266 17.8398 16.6797H19.1992ZM38.3242 20.0195C37.7539 20.7539 37.0352 21.3086 36.168 21.6836C35.3008 22.0508 34.3516 22.2344 33.3203 22.2344C31.5703 22.2344 30.1953 21.6484 29.1953 20.4766C28.1953 19.3047 27.6758 17.6797 27.6367 15.6016V11.4531C27.6367 9.27344 28.1094 7.60547 29.0547 6.44922C30.0078 5.28516 31.3633 4.70312 33.1211 4.70312C34.6914 4.70312 35.9219 5.13672 36.8125 6.00391C37.7031 6.87109 38.2031 8.12109 38.3125 9.75391H36.9766C36.8359 8.44141 36.4492 7.48437 35.8164 6.88281C35.1914 6.27344 34.2969 5.96875 33.1328 5.96875C31.7422 5.96875 30.6992 6.43359 30.0039 7.36328C29.3164 8.28516 28.9727 9.64062 28.9727 11.4297V15.3672C28.9727 17.1484 29.3516 18.5312 30.1094 19.5156C30.875 20.5 31.9453 20.9922 33.3203 20.9922C34.8125 20.9922 36.0312 20.5195 36.9766 19.5742V15.1328H33.2383V13.8789H38.3242V20.0195ZM48.6953 20.4883C47.9766 21.6523 46.8633 22.2344 45.3555 22.2344C44.207 22.2344 43.3398 21.8359 42.7539 21.0391C42.168 20.2422 41.8711 19.0703 41.8633 17.5234V9.32031H43.1523V17.4883C43.1523 18.6367 43.3555 19.5078 43.7617 20.1016C44.168 20.6953 44.7539 20.9922 45.5195 20.9922C47.1602 20.9922 48.2109 20.1953 48.6719 18.6016V9.32031H49.9844V22H48.7188L48.6953 20.4883ZM60.1562 22C60.0391 21.5938 59.9609 21.0078 59.9219 20.2422C59.5312 20.875 59.0273 21.3672 58.4102 21.7188C57.8008 22.0625 57.1367 22.2344 56.418 22.2344C55.3242 22.2344 54.4727 21.9258 53.8633 21.3086C53.2539 20.6914 52.9492 19.8125 52.9492 18.6719C52.9492 17.4297 53.3711 16.4453 54.2148 15.7188C55.0664 14.9922 56.2383 14.625 57.7305 14.6172H59.9102V12.8477C59.9102 11.9414 59.6836 11.293 59.2305 10.9023C58.7852 10.5039 58.1289 10.3047 57.2617 10.3047C56.457 10.3047 55.7969 10.5391 55.2812 11.0078C54.7656 11.4766 54.5078 12.082 54.5078 12.8242L53.207 12.8125C53.207 11.7734 53.5977 10.8945 54.3789 10.1758C55.1602 9.44922 56.1406 9.08594 57.3203 9.08594C58.5938 9.08594 59.5586 9.40625 60.2148 10.0469C60.8711 10.6875 61.1992 11.6211 61.1992 12.8477V19.0703C61.1992 20.3125 61.3125 21.2422 61.5391 21.8594V22H60.1562ZM56.582 20.9805C57.3477 20.9805 58.0234 20.7812 58.6094 20.3828C59.2031 19.9844 59.6367 19.4531 59.9102 18.7891V15.707H57.8477C56.6602 15.7227 55.7656 15.9883 55.1641 16.5039C54.5625 17.0117 54.2617 17.6992 54.2617 18.5664C54.2617 20.1758 55.0352 20.9805 56.582 20.9805ZM73.3984 16.2578C73.3984 18.2109 73.0586 19.6953 72.3789 20.7109C71.6992 21.7266 70.6836 22.2344 69.332 22.2344C67.8633 22.2344 66.7656 21.6484 66.0391 20.4766V26.875H64.75V9.32031H65.9453L66.0039 11.0547C66.7539 9.74219 67.8516 9.08594 69.2969 9.08594C70.6641 9.08594 71.6875 9.57031 72.3672 10.5391C73.0469 11.5078 73.3906 12.9883 73.3984 14.9805V16.2578ZM72.0977 15.0742C72.0977 13.4492 71.8438 12.2539 71.3359 11.4883C70.8359 10.7227 70.0508 10.3398 68.9805 10.3398C67.6055 10.3398 66.625 11.0391 66.0391 12.4375V19.1172C66.625 20.3906 67.6133 21.0273 69.0039 21.0273C70.0508 21.0273 70.8242 20.6445 71.3242 19.8789C71.832 19.1133 72.0898 17.9336 72.0977 16.3398V15.0742ZM77.875 22H76.5625V9.32031H77.875V22ZM76.375 5.66406C76.375 5.39844 76.4492 5.17188 76.5977 4.98438C76.7461 4.79688 76.957 4.70312 77.2305 4.70312C77.5039 4.70312 77.7148 4.79688 77.8633 4.98438C78.0195 5.17188 78.0977 5.39844 78.0977 5.66406C78.0977 5.92969 78.0195 6.15625 77.8633 6.34375C77.7148 6.52344 77.5039 6.61328 77.2305 6.61328C76.957 6.61328 76.7461 6.52344 76.5977 6.34375C76.4492 6.15625 76.375 5.92969 76.375 5.66406ZM82.9375 22H81.625V4H82.9375V22ZM90.7305 22.2344C89.2383 22.2344 88.0703 21.7461 87.2266 20.7695C86.3828 19.793 85.9531 18.4023 85.9375 16.5977V15.0508C85.9375 13.1914 86.3438 11.7344 87.1562 10.6797C87.9688 9.61719 89.0859 9.08594 90.5078 9.08594C91.8828 9.08594 92.9297 9.53516 93.6484 10.4336C94.375 11.332 94.7461 12.707 94.7617 14.5586V15.7773H87.2266V16.4922C87.2266 17.9453 87.5352 19.0664 88.1523 19.8555C88.7773 20.6445 89.6562 21.0391 90.7891 21.0391C92.0391 21.0391 93.0508 20.582 93.8242 19.668L94.5039 20.5352C93.6758 21.668 92.418 22.2344 90.7305 22.2344ZM90.5078 10.3047C89.4844 10.3047 88.6953 10.668 88.1406 11.3945C87.5938 12.1133 87.293 13.168 87.2383 14.5586H93.4609V14.2188C93.3984 11.6094 92.4141 10.3047 90.5078 10.3047ZM103.879 18.8828C103.879 18.3359 103.652 17.8594 103.199 17.4531C102.746 17.0391 101.977 16.5898 100.891 16.1055C99.8125 15.6133 99.0586 15.207 98.6289 14.8867C98.1992 14.5586 97.8828 14.2031 97.6797 13.8203C97.4766 13.4375 97.375 12.9844 97.375 12.4609C97.375 11.4844 97.7266 10.6797 98.4297 10.0469C99.1328 9.40625 100.043 9.08594 101.16 9.08594C102.363 9.08594 103.324 9.42578 104.043 10.1055C104.762 10.7852 105.121 11.6836 105.121 12.8008H103.82C103.82 12.082 103.574 11.4883 103.082 11.0195C102.59 10.543 101.949 10.3047 101.16 10.3047C100.395 10.3047 99.7852 10.5 99.332 10.8906C98.8867 11.2812 98.6641 11.7891 98.6641 12.4141C98.6641 12.9219 98.8359 13.3359 99.1797 13.6562C99.5234 13.9766 100.266 14.4102 101.406 14.957C102.586 15.4727 103.398 15.8984 103.844 16.2344C104.289 16.5703 104.625 16.9453 104.852 17.3594C105.078 17.7656 105.191 18.25 105.191 18.8125C105.191 19.8594 104.828 20.6914 104.102 21.3086C103.375 21.9258 102.418 22.2344 101.23 22.2344C99.9727 22.2344 98.9531 21.8906 98.1719 21.2031C97.3984 20.5156 97.0117 19.6289 97.0117 18.543H98.3242C98.3633 19.332 98.625 19.9453 99.1094 20.3828C99.6016 20.8125 100.309 21.0273 101.23 21.0273C102.027 21.0273 102.668 20.832 103.152 20.4414C103.637 20.0508 103.879 19.5312 103.879 18.8828ZM5.59375 41.5859L3.61328 43.8828V50H2.27734V32.9375H3.61328V42.0312L5.48828 39.6875L10.7734 32.9375H12.4492L6.49609 40.5312L12.9062 50H11.2773L5.59375 41.5859ZM21.9766 32.8203V34.0742H21.7773C20.1211 34.082 18.8164 34.668 17.8633 35.832C16.918 36.9961 16.3906 38.6406 16.2812 40.7656C16.6797 40.1328 17.1758 39.6484 17.7695 39.3125C18.3633 38.9688 19.0195 38.7969 19.7383 38.7969C20.9961 38.7969 21.9961 39.3164 22.7383 40.3555C23.4883 41.3867 23.8633 42.7383 23.8633 44.4102C23.8633 46.1523 23.4688 47.5586 22.6797 48.6289C21.8906 49.6992 20.8594 50.2344 19.5859 50.2344C18.2188 50.2344 17.1055 49.6484 16.2461 48.4766C15.3867 47.3047 14.957 45.7656 14.957 43.8594V42.4766C14.957 39.3438 15.5352 36.9609 16.6914 35.3281C17.8477 33.6875 19.5078 32.8516 21.6719 32.8203H21.9766ZM19.5273 40.0273C18.793 40.0273 18.1133 40.293 17.4883 40.8242C16.8711 41.3477 16.4609 41.9961 16.2578 42.7695V43.9883C16.2578 45.4727 16.5703 46.6836 17.1953 47.6211C17.8203 48.5508 18.6172 49.0156 19.5859 49.0156C20.4766 49.0156 21.1992 48.5898 21.7539 47.7383C22.3086 46.8867 22.5859 45.7969 22.5859 44.4688C22.5859 43.1328 22.3086 42.0586 21.7539 41.2461C21.207 40.4336 20.4648 40.0273 19.5273 40.0273ZM35.7109 50H26.6641V48.8984L31.5156 42.3477C32.3281 41.2305 32.8945 40.3047 33.2148 39.5703C33.5352 38.8359 33.6953 38.1172 33.6953 37.4141C33.6953 36.3438 33.4375 35.4961 32.9219 34.8711C32.4141 34.2383 31.707 33.9219 30.8008 33.9219C29.8398 33.9219 29.0742 34.2891 28.5039 35.0234C27.9336 35.75 27.6484 36.6953 27.6484 37.8594H26.3477C26.3477 36.375 26.7578 35.1445 27.5781 34.168C28.3984 33.1914 29.4727 32.7031 30.8008 32.7031C32.0977 32.7031 33.125 33.1094 33.8828 33.9219C34.6406 34.7266 35.0195 35.8477 35.0195 37.2852C35.0195 38.6523 34.4023 40.25 33.168 42.0781L32.418 43.1562L28.2461 48.793H35.7109V50ZM43.293 41.3047H47.582V42.6523H43.293V48.2891H41.9688V42.6523H37.75V41.3047H41.9688V35.8672H43.293V41.3047ZM58.6797 37.332C58.6797 38.1914 58.4688 38.9727 58.0469 39.6758C57.6328 40.3711 57.0664 40.8945 56.3477 41.2461C57.1914 41.6055 57.8516 42.1602 58.3281 42.9102C58.8125 43.6602 59.0547 44.5156 59.0547 45.4766C59.0547 46.9141 58.6367 48.0664 57.8008 48.9336C56.9727 49.8008 55.8711 50.2344 54.4961 50.2344C53.1055 50.2344 51.9961 49.8047 51.168 48.9453C50.3398 48.0781 49.9258 46.9219 49.9258 45.4766C49.9258 44.5 50.1602 43.6406 50.6289 42.8984C51.1055 42.1562 51.7578 41.6055 52.5859 41.2461C51.8672 40.8945 51.3008 40.375 50.8867 39.6875C50.4805 38.9922 50.2773 38.207 50.2773 37.332C50.2773 35.918 50.6602 34.793 51.4258 33.957C52.1914 33.1211 53.207 32.7031 54.4727 32.7031C55.7461 32.7031 56.7656 33.125 57.5312 33.9688C58.2969 34.8125 58.6797 35.9336 58.6797 37.332ZM57.7422 45.4766C57.7422 44.4141 57.4336 43.5469 56.8164 42.875C56.1992 42.1953 55.418 41.8555 54.4727 41.8555C53.5273 41.8555 52.7461 42.1875 52.1289 42.8516C51.5195 43.5156 51.2148 44.3906 51.2148 45.4766C51.2148 46.5625 51.5078 47.4258 52.0938 48.0664C52.6875 48.707 53.4883 49.0273 54.4961 49.0273C55.4805 49.0273 56.2656 48.707 56.8516 48.0664C57.4453 47.4258 57.7422 46.5625 57.7422 45.4766ZM57.3789 37.3203C57.3789 36.3438 57.1016 35.5352 56.5469 34.8945C56 34.2461 55.3086 33.9219 54.4727 33.9219C53.6055 33.9219 52.9062 34.2344 52.375 34.8594C51.8516 35.4844 51.5898 36.3047 51.5898 37.3203C51.5898 38.3438 51.8594 39.1523 52.3984 39.7461C52.9453 40.3398 53.6406 40.6367 54.4844 40.6367C55.3281 40.6367 56.0195 40.3359 56.5586 39.7344C57.1055 39.125 57.3789 38.3203 57.3789 37.3203ZM69.1445 42.2188C68.7383 42.9062 68.2266 43.4453 67.6094 43.8359C66.9922 44.2188 66.3359 44.4102 65.6406 44.4102C64.4219 44.4102 63.4336 43.875 62.6758 42.8047C61.918 41.7344 61.5391 40.3633 61.5391 38.6914C61.5391 36.957 61.9336 35.5273 62.7227 34.4023C63.5195 33.2695 64.5742 32.7031 65.8867 32.7031C67.3242 32.7031 68.4414 33.3008 69.2383 34.4961C70.043 35.6914 70.4453 37.3906 70.4453 39.5938V40.8594C70.4453 43.9688 69.9023 46.2852 68.8164 47.8086C67.7305 49.3242 66.0781 50.0938 63.8594 50.1172H63.5078L63.5195 48.875H63.8945C65.582 48.8516 66.8633 48.2969 67.7383 47.2109C68.6211 46.1172 69.0898 44.4531 69.1445 42.2188ZM65.8164 43.1797C66.5508 43.1797 67.2188 42.9141 67.8203 42.3828C68.4297 41.8438 68.875 41.125 69.1562 40.2266V39.3711C69.1562 37.6914 68.8594 36.3672 68.2656 35.3984C67.6797 34.4219 66.8906 33.9336 65.8984 33.9336C65 33.9336 64.2617 34.3789 63.6836 35.2695C63.1055 36.1602 62.8164 37.2812 62.8164 38.6328C62.8164 39.9375 63.0938 41.0234 63.6484 41.8906C64.2031 42.75 64.9258 43.1797 65.8164 43.1797ZM82.2461 42.875C82.2461 45.2969 81.8711 47.1289 81.1211 48.3711C80.3789 49.6133 79.2812 50.2344 77.8281 50.2344C76.3906 50.2344 75.293 49.6172 74.5352 48.3828C73.7852 47.1406 73.4023 45.3516 73.3867 43.0156V40.0156C73.3867 37.6406 73.7578 35.8281 74.5 34.5781C75.2422 33.3281 76.3438 32.7031 77.8047 32.7031C79.2422 32.7031 80.3359 33.3086 81.0859 34.5195C81.8359 35.7227 82.2227 37.4805 82.2461 39.793V42.875ZM80.9336 39.8281C80.9336 37.875 80.6719 36.4023 80.1484 35.4102C79.6328 34.418 78.8516 33.9219 77.8047 33.9219C76.7969 33.9219 76.0273 34.3984 75.4961 35.3516C74.9727 36.2969 74.6992 37.707 74.6758 39.582V43.0391C74.6758 44.9453 74.9414 46.4219 75.4727 47.4688C76.0117 48.5078 76.7969 49.0273 77.8281 49.0273C78.8281 49.0273 79.5898 48.5352 80.1133 47.5508C80.6445 46.5586 80.918 45.1055 80.9336 43.1914V39.8281ZM85.3516 49.1445C85.3516 48.8633 85.4375 48.6289 85.6094 48.4414C85.7891 48.2461 86.0352 48.1484 86.3477 48.1484C86.6602 48.1484 86.9062 48.2461 87.0859 48.4414C87.2656 48.6289 87.3555 48.8633 87.3555 49.1445C87.3555 49.418 87.2656 49.6445 87.0859 49.8242C86.9062 50.0039 86.6602 50.0938 86.3477 50.0938C86.0352 50.0938 85.7891 50.0039 85.6094 49.8242C85.4375 49.6445 85.3516 49.418 85.3516 49.1445ZM100 50H90.9531V48.8984L95.8047 42.3477C96.6172 41.2305 97.1836 40.3047 97.5039 39.5703C97.8242 38.8359 97.9844 38.1172 97.9844 37.4141C97.9844 36.3438 97.7266 35.4961 97.2109 34.8711C96.7031 34.2383 95.9961 33.9219 95.0898 33.9219C94.1289 33.9219 93.3633 34.2891 92.793 35.0234C92.2227 35.75 91.9375 36.6953 91.9375 37.8594H90.6367C90.6367 36.375 91.0469 35.1445 91.8672 34.168C92.6875 33.1914 93.7617 32.7031 95.0898 32.7031C96.3867 32.7031 97.4141 33.1094 98.1719 33.9219C98.9297 34.7266 99.3086 35.8477 99.3086 37.2852C99.3086 38.6523 98.6914 40.25 97.457 42.0781L96.707 43.1562L92.5352 48.793H100V50ZM109.902 42.2188C109.496 42.9062 108.984 43.4453 108.367 43.8359C107.75 44.2188 107.094 44.4102 106.398 44.4102C105.18 44.4102 104.191 43.875 103.434 42.8047C102.676 41.7344 102.297 40.3633 102.297 38.6914C102.297 36.957 102.691 35.5273 103.48 34.4023C104.277 33.2695 105.332 32.7031 106.645 32.7031C108.082 32.7031 109.199 33.3008 109.996 34.4961C110.801 35.6914 111.203 37.3906 111.203 39.5938V40.8594C111.203 43.9688 110.66 46.2852 109.574 47.8086C108.488 49.3242 106.836 50.0938 104.617 50.1172H104.266L104.277 48.875H104.652C106.34 48.8516 107.621 48.2969 108.496 47.2109C109.379 46.1172 109.848 44.4531 109.902 42.2188ZM106.574 43.1797C107.309 43.1797 107.977 42.9141 108.578 42.3828C109.188 41.8438 109.633 41.125 109.914 40.2266V39.3711C109.914 37.6914 109.617 36.3672 109.023 35.3984C108.438 34.4219 107.648 33.9336 106.656 33.9336C105.758 33.9336 105.02 34.3789 104.441 35.2695C103.863 36.1602 103.574 37.2812 103.574 38.6328C103.574 39.9375 103.852 41.0234 104.406 41.8906C104.961 42.75 105.684 43.1797 106.574 43.1797Z" fill="black"/>
</svg>
