<svg width="113" height="56" viewBox="0 0 113 56" fill="none" xmlns="http://www.w3.org/2000/svg">
<path d="M3.68359 15.0625V22H2.34766V4.9375H7.30469C8.8125 4.9375 10 5.39063 10.8672 6.29688C11.7344 7.20312 12.168 8.44922 12.168 10.0352C12.168 11.6523 11.7461 12.8945 10.9023 13.7617C10.0664 14.6289 8.85938 15.0625 7.28125 15.0625H3.68359ZM3.68359 13.8086H7.30469C8.42969 13.8086 9.29688 13.4844 9.90625 12.8359C10.5234 12.1797 10.832 11.2539 10.832 10.0586C10.832 8.86328 10.5195 7.92188 9.89453 7.23438C9.27734 6.54687 8.41797 6.20312 7.31641 6.20312H3.68359V13.8086ZM23.3008 17.8047C23.3008 16.8516 23.0273 16.1016 22.4805 15.5547C21.9414 15.0078 20.9297 14.4844 19.4453 13.9844C17.9609 13.4844 16.8711 12.9258 16.1758 12.3086C15.2617 11.5039 14.8047 10.4414 14.8047 9.12109C14.8047 7.81641 15.2539 6.75391 16.1523 5.93359C17.0508 5.11328 18.2109 4.70312 19.6328 4.70312C21.0859 4.70312 22.2734 5.17969 23.1953 6.13281C24.1172 7.08594 24.5781 8.3125 24.5781 9.8125H23.2305C23.2305 8.66406 22.9062 7.73828 22.2578 7.03516C21.6172 6.32422 20.7422 5.96875 19.6328 5.96875C18.5547 5.96875 17.7031 6.26172 17.0781 6.84766C16.4609 7.42578 16.1523 8.17578 16.1523 9.09766C16.1523 9.95703 16.4453 10.6602 17.0312 11.207C17.6172 11.7539 18.5508 12.2422 19.832 12.6719C21.1133 13.0938 22.082 13.5352 22.7383 13.9961C23.3945 14.4492 23.8789 14.9844 24.1914 15.6016C24.5039 16.2188 24.6602 16.9453 24.6602 17.7812C24.6602 19.1172 24.207 20.1953 23.3008 21.0156C22.4023 21.8281 21.2109 22.2344 19.7266 22.2344C18.7266 22.2344 17.8125 22.0312 16.9844 21.625C16.1641 21.2109 15.5195 20.6211 15.0508 19.8555C14.5898 19.082 14.3594 18.1719 14.3594 17.125H15.6953C15.6953 18.3281 16.0586 19.2734 16.7852 19.9609C17.5117 20.6484 18.4922 20.9922 19.7266 20.9922C20.8047 20.9922 21.668 20.7031 22.3164 20.125C22.9727 19.5469 23.3008 18.7734 23.3008 17.8047ZM32.1367 19.8672L32.1719 20.0547L32.2188 19.8672L36.6719 4.9375H38.1484L32.8164 22H31.5508L26.2188 4.9375H27.6836L32.1367 19.8672ZM47.8516 4.9375L53.0195 19.9492L58.2109 4.9375H59.9805V22H58.6445V14.6055L58.7617 7.16406L53.5352 22H52.5039L47.3008 7.23438L47.418 14.5586V22H46.082V4.9375H47.8516ZM63.2617 15.0156C63.2617 13.1875 63.6758 11.7422 64.5039 10.6797C65.332 9.61719 66.4609 9.08594 67.8906 9.08594C69.3281 9.08594 70.457 9.60938 71.2773 10.6562C72.1055 11.7031 72.5234 13.1445 72.5312 14.9805V16.3281C72.5312 18.1875 72.1133 19.6367 71.2773 20.6758C70.4492 21.7148 69.3281 22.2344 67.9141 22.2344C66.5 22.2344 65.3789 21.7266 64.5508 20.7109C63.7227 19.6953 63.293 18.2969 63.2617 16.5156V15.0156ZM64.5742 16.3281C64.5742 17.7891 64.8672 18.9375 65.4531 19.7734C66.0469 20.6094 66.8672 21.0273 67.9141 21.0273C68.9844 21.0273 69.8008 20.625 70.3633 19.8203C70.9336 19.0156 71.2227 17.8633 71.2305 16.3633V15.0156C71.2305 13.5547 70.9336 12.4062 70.3398 11.5703C69.7461 10.7266 68.9297 10.3047 67.8906 10.3047C66.8828 10.3047 66.082 10.7148 65.4883 11.5352C64.8945 12.3555 64.5898 13.4844 64.5742 14.9219V16.3281ZM76.9961 22H75.6836V4H76.9961V22ZM82.0586 22H80.7461V9.32031H82.0586V22ZM80.5586 5.66406C80.5586 5.39844 80.6328 5.17188 80.7812 4.98438C80.9297 4.79688 81.1406 4.70312 81.4141 4.70312C81.6875 4.70312 81.8984 4.79688 82.0469 4.98438C82.2031 5.17188 82.2812 5.39844 82.2812 5.66406C82.2812 5.92969 82.2031 6.15625 82.0469 6.34375C81.8984 6.52344 81.6875 6.61328 81.4141 6.61328C81.1406 6.61328 80.9297 6.52344 80.7812 6.34375C80.6328 6.15625 80.5586 5.92969 80.5586 5.66406ZM86.9102 9.32031L86.9453 11.3359C87.3203 10.6484 87.7969 10.1016 88.375 9.69531C88.9609 9.28906 89.625 9.08594 90.3672 9.08594C92.5781 9.08594 93.7109 10.5586 93.7656 13.5039V22H92.4766V13.6445C92.4688 12.5117 92.2695 11.6758 91.8789 11.1367C91.4883 10.5977 90.875 10.3281 90.0391 10.3281C89.3594 10.3281 88.7461 10.5859 88.1992 11.1016C87.6602 11.6094 87.25 12.3086 86.9688 13.1992V22H85.668V9.32031H86.9102ZM96.7305 15.0156C96.7305 13.1875 97.1445 11.7422 97.9727 10.6797C98.8008 9.61719 99.9297 9.08594 101.359 9.08594C102.797 9.08594 103.926 9.60938 104.746 10.6562C105.574 11.7031 105.992 13.1445 106 14.9805V16.3281C106 18.1875 105.582 19.6367 104.746 20.6758C103.918 21.7148 102.797 22.2344 101.383 22.2344C99.9688 22.2344 98.8477 21.7266 98.0195 20.7109C97.1914 19.6953 96.7617 18.2969 96.7305 16.5156V15.0156ZM98.043 16.3281C98.043 17.7891 98.3359 18.9375 98.9219 19.7734C99.5156 20.6094 100.336 21.0273 101.383 21.0273C102.453 21.0273 103.27 20.625 103.832 19.8203C104.402 19.0156 104.691 17.8633 104.699 16.3633V15.0156C104.699 13.5547 104.402 12.4062 103.809 11.5703C103.215 10.7266 102.398 10.3047 101.359 10.3047C100.352 10.3047 99.5508 10.7148 98.957 11.5352C98.3633 12.3555 98.0586 13.4844 98.043 14.9219V16.3281ZM5.59375 41.5859L3.61328 43.8828V50H2.27734V32.9375H3.61328V42.0312L5.48828 39.6875L10.7734 32.9375H12.4492L6.49609 40.5312L12.9062 50H11.2773L5.59375 41.5859ZM21.9766 32.8203V34.0742H21.7773C20.1211 34.082 18.8164 34.668 17.8633 35.832C16.918 36.9961 16.3906 38.6406 16.2812 40.7656C16.6797 40.1328 17.1758 39.6484 17.7695 39.3125C18.3633 38.9688 19.0195 38.7969 19.7383 38.7969C20.9961 38.7969 21.9961 39.3164 22.7383 40.3555C23.4883 41.3867 23.8633 42.7383 23.8633 44.4102C23.8633 46.1523 23.4688 47.5586 22.6797 48.6289C21.8906 49.6992 20.8594 50.2344 19.5859 50.2344C18.2188 50.2344 17.1055 49.6484 16.2461 48.4766C15.3867 47.3047 14.957 45.7656 14.957 43.8594V42.4766C14.957 39.3438 15.5352 36.9609 16.6914 35.3281C17.8477 33.6875 19.5078 32.8516 21.6719 32.8203H21.9766ZM19.5273 40.0273C18.793 40.0273 18.1133 40.293 17.4883 40.8242C16.8711 41.3477 16.4609 41.9961 16.2578 42.7695V43.9883C16.2578 45.4727 16.5703 46.6836 17.1953 47.6211C17.8203 48.5508 18.6172 49.0156 19.5859 49.0156C20.4766 49.0156 21.1992 48.5898 21.7539 47.7383C22.3086 46.8867 22.5859 45.7969 22.5859 44.4688C22.5859 43.1328 22.3086 42.0586 21.7539 41.2461C21.207 40.4336 20.4648 40.0273 19.5273 40.0273ZM33.9766 44.4922H36.168V45.7109H33.9766V50H32.6758V45.7109H25.9727V44.8789L32.5703 32.9375H33.9766V44.4922ZM27.5312 44.4922H32.6758V34.9062L32.207 35.8555L27.5312 44.4922ZM43.293 41.3047H47.582V42.6523H43.293V48.2891H41.9688V42.6523H37.75V41.3047H41.9688V35.8672H43.293V41.3047ZM50.9922 41.2578L51.6953 32.9375H58.9023V34.2734H52.8086L52.3281 39.9922C53.0938 39.3672 53.9727 39.0547 54.9648 39.0547C56.2695 39.0547 57.3008 39.5586 58.0586 40.5664C58.8242 41.5664 59.207 42.8984 59.207 44.5625C59.207 46.3438 58.832 47.7344 58.082 48.7344C57.332 49.7344 56.2656 50.2344 54.8828 50.2344C53.625 50.2344 52.6055 49.8164 51.8242 48.9805C51.043 48.1367 50.6016 46.9805 50.5 45.5117H51.7422C51.8516 46.6602 52.1758 47.5352 52.7148 48.1367C53.2539 48.7305 53.9766 49.0273 54.8828 49.0273C55.875 49.0273 56.625 48.6406 57.1328 47.8672C57.6484 47.0938 57.9062 46 57.9062 44.5859C57.9062 43.3281 57.6172 42.3125 57.0391 41.5391C56.4688 40.7578 55.6953 40.3672 54.7188 40.3672C54.1562 40.3672 53.6719 40.457 53.2656 40.6367C52.8594 40.8086 52.4453 41.125 52.0234 41.5859L50.9922 41.2578ZM70.7734 33.7578L64.6797 50H63.3203L69.3789 34.1562H61.3047V32.9375H70.7734V33.7578ZM82.0234 37.332C82.0234 38.1914 81.8125 38.9727 81.3906 39.6758C80.9766 40.3711 80.4102 40.8945 79.6914 41.2461C80.5352 41.6055 81.1953 42.1602 81.6719 42.9102C82.1562 43.6602 82.3984 44.5156 82.3984 45.4766C82.3984 46.9141 81.9805 48.0664 81.1445 48.9336C80.3164 49.8008 79.2148 50.2344 77.8398 50.2344C76.4492 50.2344 75.3398 49.8047 74.5117 48.9453C73.6836 48.0781 73.2695 46.9219 73.2695 45.4766C73.2695 44.5 73.5039 43.6406 73.9727 42.8984C74.4492 42.1562 75.1016 41.6055 75.9297 41.2461C75.2109 40.8945 74.6445 40.375 74.2305 39.6875C73.8242 38.9922 73.6211 38.207 73.6211 37.332C73.6211 35.918 74.0039 34.793 74.7695 33.957C75.5352 33.1211 76.5508 32.7031 77.8164 32.7031C79.0898 32.7031 80.1094 33.125 80.875 33.9688C81.6406 34.8125 82.0234 35.9336 82.0234 37.332ZM81.0859 45.4766C81.0859 44.4141 80.7773 43.5469 80.1602 42.875C79.543 42.1953 78.7617 41.8555 77.8164 41.8555C76.8711 41.8555 76.0898 42.1875 75.4727 42.8516C74.8633 43.5156 74.5586 44.3906 74.5586 45.4766C74.5586 46.5625 74.8516 47.4258 75.4375 48.0664C76.0312 48.707 76.832 49.0273 77.8398 49.0273C78.8242 49.0273 79.6094 48.707 80.1953 48.0664C80.7891 47.4258 81.0859 46.5625 81.0859 45.4766ZM80.7227 37.3203C80.7227 36.3438 80.4453 35.5352 79.8906 34.8945C79.3438 34.2461 78.6523 33.9219 77.8164 33.9219C76.9492 33.9219 76.25 34.2344 75.7188 34.8594C75.1953 35.4844 74.9336 36.3047 74.9336 37.3203C74.9336 38.3438 75.2031 39.1523 75.7422 39.7461C76.2891 40.3398 76.9844 40.6367 77.8281 40.6367C78.6719 40.6367 79.3633 40.3359 79.9023 39.7344C80.4492 39.125 80.7227 38.3203 80.7227 37.3203ZM85.3516 49.1445C85.3516 48.8633 85.4375 48.6289 85.6094 48.4414C85.7891 48.2461 86.0352 48.1484 86.3477 48.1484C86.6602 48.1484 86.9062 48.2461 87.0859 48.4414C87.2656 48.6289 87.3555 48.8633 87.3555 49.1445C87.3555 49.418 87.2656 49.6445 87.0859 49.8242C86.9062 50.0039 86.6602 50.0938 86.3477 50.0938C86.0352 50.0938 85.7891 50.0039 85.6094 49.8242C85.4375 49.6445 85.3516 49.418 85.3516 49.1445ZM91.75 41.2578L92.4531 32.9375H99.6602V34.2734H93.5664L93.0859 39.9922C93.8516 39.3672 94.7305 39.0547 95.7227 39.0547C97.0273 39.0547 98.0586 39.5586 98.8164 40.5664C99.582 41.5664 99.9648 42.8984 99.9648 44.5625C99.9648 46.3438 99.5898 47.7344 98.8398 48.7344C98.0898 49.7344 97.0234 50.2344 95.6406 50.2344C94.3828 50.2344 93.3633 49.8164 92.582 48.9805C91.8008 48.1367 91.3594 46.9805 91.2578 45.5117H92.5C92.6094 46.6602 92.9336 47.5352 93.4727 48.1367C94.0117 48.7305 94.7344 49.0273 95.6406 49.0273C96.6328 49.0273 97.3828 48.6406 97.8906 47.8672C98.4062 47.0938 98.6641 46 98.6641 44.5859C98.6641 43.3281 98.375 42.3125 97.7969 41.5391C97.2266 40.7578 96.4531 40.3672 95.4766 40.3672C94.9141 40.3672 94.4297 40.457 94.0234 40.6367C93.6172 40.8086 93.2031 41.125 92.7812 41.5859L91.75 41.2578ZM111.531 33.7578L105.438 50H104.078L110.137 34.1562H102.062V32.9375H111.531V33.7578Z" fill="black"/>
</svg>
