<svg width="128" height="56" viewBox="0 0 128 56" fill="none" xmlns="http://www.w3.org/2000/svg">
<path d="M3.39062 15.0625V22H2.05469V4.9375H7.01172C8.51953 4.9375 9.70703 5.39063 10.5742 6.29688C11.4414 7.20312 11.875 8.44922 11.875 10.0352C11.875 11.6523 11.4531 12.8945 10.6094 13.7617C9.77344 14.6289 8.56641 15.0625 6.98828 15.0625H3.39062ZM3.39062 13.8086H7.01172C8.13672 13.8086 9.00391 13.4844 9.61328 12.8359C10.2305 12.1797 10.5391 11.2539 10.5391 10.0586C10.5391 8.86328 10.2266 7.92188 9.60156 7.23438C8.98438 6.54687 8.125 6.20312 7.02344 6.20312H3.39062V13.8086ZM23.0078 17.8047C23.0078 16.8516 22.7344 16.1016 22.1875 15.5547C21.6484 15.0078 20.6367 14.4844 19.1523 13.9844C17.668 13.4844 16.5781 12.9258 15.8828 12.3086C14.9688 11.5039 14.5117 10.4414 14.5117 9.12109C14.5117 7.81641 14.9609 6.75391 15.8594 5.93359C16.7578 5.11328 17.918 4.70312 19.3398 4.70312C20.793 4.70312 21.9805 5.17969 22.9023 6.13281C23.8242 7.08594 24.2852 8.3125 24.2852 9.8125H22.9375C22.9375 8.66406 22.6133 7.73828 21.9648 7.03516C21.3242 6.32422 20.4492 5.96875 19.3398 5.96875C18.2617 5.96875 17.4102 6.26172 16.7852 6.84766C16.168 7.42578 15.8594 8.17578 15.8594 9.09766C15.8594 9.95703 16.1523 10.6602 16.7383 11.207C17.3242 11.7539 18.2578 12.2422 19.5391 12.6719C20.8203 13.0938 21.7891 13.5352 22.4453 13.9961C23.1016 14.4492 23.5859 14.9844 23.8984 15.6016C24.2109 16.2188 24.3672 16.9453 24.3672 17.7812C24.3672 19.1172 23.9141 20.1953 23.0078 21.0156C22.1094 21.8281 20.918 22.2344 19.4336 22.2344C18.4336 22.2344 17.5195 22.0312 16.6914 21.625C15.8711 21.2109 15.2266 20.6211 14.7578 19.8555C14.2969 19.082 14.0664 18.1719 14.0664 17.125H15.4023C15.4023 18.3281 15.7656 19.2734 16.4922 19.9609C17.2188 20.6484 18.1992 20.9922 19.4336 20.9922C20.5117 20.9922 21.375 20.7031 22.0234 20.125C22.6797 19.5469 23.0078 18.7734 23.0078 17.8047ZM31.8438 19.8672L31.8789 20.0547L31.9258 19.8672L36.3789 4.9375H37.8555L32.5234 22H31.2578L25.9258 4.9375H27.3906L31.8438 19.8672ZM52.0586 4.9375H53.4062V16.9258C53.4062 18.5664 53.0078 19.8633 52.2109 20.8164C51.4141 21.7617 50.3555 22.2344 49.0352 22.2344C47.6445 22.2344 46.5703 21.8047 45.8125 20.9453C45.0547 20.0781 44.6758 18.8633 44.6758 17.3008H46.0117C46.0117 18.5352 46.2773 19.4609 46.8086 20.0781C47.3477 20.6875 48.0898 20.9922 49.0352 20.9922C49.9414 20.9922 50.668 20.6289 51.2148 19.9023C51.7695 19.1758 52.0508 18.2031 52.0586 16.9844V4.9375ZM58.5391 22H57.2266V9.32031H58.5391V22ZM57.0391 5.66406C57.0391 5.39844 57.1133 5.17188 57.2617 4.98438C57.4102 4.79688 57.6211 4.70312 57.8945 4.70312C58.168 4.70312 58.3789 4.79688 58.5273 4.98438C58.6836 5.17188 58.7617 5.39844 58.7617 5.66406C58.7617 5.92969 58.6836 6.15625 58.5273 6.34375C58.3789 6.52344 58.168 6.61328 57.8945 6.61328C57.6211 6.61328 57.4102 6.52344 57.2617 6.34375C57.1133 6.15625 57.0391 5.92969 57.0391 5.66406ZM63.3438 9.32031L63.3789 11.2188C64.168 9.79688 65.3008 9.08594 66.7773 9.08594C68.4102 9.08594 69.4648 9.86328 69.9414 11.418C70.3398 10.6445 70.8516 10.0625 71.4766 9.67188C72.1094 9.28125 72.7969 9.08594 73.5391 9.08594C75.8203 9.08594 76.9883 10.5547 77.043 13.4922V22H75.7422V13.5742C75.7266 12.4805 75.5234 11.668 75.1328 11.1367C74.7422 10.5977 74.1016 10.3281 73.2109 10.3281C72.4062 10.3438 71.7266 10.6562 71.1719 11.2656C70.6172 11.875 70.3008 12.6406 70.2227 13.5625V22H68.9102V13.6094C68.9102 12.5 68.7031 11.6758 68.2891 11.1367C67.8828 10.5977 67.2461 10.3281 66.3789 10.3281C65.668 10.3281 65.0508 10.5742 64.5273 11.0664C64.0117 11.5586 63.6367 12.2617 63.4023 13.1758V22H62.1016V9.32031H63.3438ZM84.6367 22.2344C83.1445 22.2344 81.9766 21.7461 81.1328 20.7695C80.2891 19.793 79.8594 18.4023 79.8438 16.5977V15.0508C79.8438 13.1914 80.25 11.7344 81.0625 10.6797C81.875 9.61719 82.9922 9.08594 84.4141 9.08594C85.7891 9.08594 86.8359 9.53516 87.5547 10.4336C88.2812 11.332 88.6523 12.707 88.668 14.5586V15.7773H81.1328V16.4922C81.1328 17.9453 81.4414 19.0664 82.0586 19.8555C82.6836 20.6445 83.5625 21.0391 84.6953 21.0391C85.9453 21.0391 86.957 20.582 87.7305 19.668L88.4102 20.5352C87.582 21.668 86.3242 22.2344 84.6367 22.2344ZM84.4141 10.3047C83.3906 10.3047 82.6016 10.668 82.0469 11.3945C81.5 12.1133 81.1992 13.168 81.1445 14.5586H87.3672V14.2188C87.3047 11.6094 86.3203 10.3047 84.4141 10.3047ZM92.6875 9.32031L92.7227 11.3359C93.0977 10.6484 93.5742 10.1016 94.1523 9.69531C94.7383 9.28906 95.4023 9.08594 96.1445 9.08594C98.3555 9.08594 99.4883 10.5586 99.543 13.5039V22H98.2539V13.6445C98.2461 12.5117 98.0469 11.6758 97.6562 11.1367C97.2656 10.5977 96.6523 10.3281 95.8164 10.3281C95.1367 10.3281 94.5234 10.5859 93.9766 11.1016C93.4375 11.6094 93.0273 12.3086 92.7461 13.1992V22H91.4453V9.32031H92.6875ZM107.184 22.2344C105.691 22.2344 104.523 21.7461 103.68 20.7695C102.836 19.793 102.406 18.4023 102.391 16.5977V15.0508C102.391 13.1914 102.797 11.7344 103.609 10.6797C104.422 9.61719 105.539 9.08594 106.961 9.08594C108.336 9.08594 109.383 9.53516 110.102 10.4336C110.828 11.332 111.199 12.707 111.215 14.5586V15.7773H103.68V16.4922C103.68 17.9453 103.988 19.0664 104.605 19.8555C105.23 20.6445 106.109 21.0391 107.242 21.0391C108.492 21.0391 109.504 20.582 110.277 19.668L110.957 20.5352C110.129 21.668 108.871 22.2344 107.184 22.2344ZM106.961 10.3047C105.938 10.3047 105.148 10.668 104.594 11.3945C104.047 12.1133 103.746 13.168 103.691 14.5586H109.914V14.2188C109.852 11.6094 108.867 10.3047 106.961 10.3047ZM114.895 20.793H121.738V22H113.348V20.9453L119.758 10.5508H113.523V9.32031H121.34V10.3867L114.895 20.793ZM13.0938 41.5859L11.1133 43.8828V50H9.77734V32.9375H11.1133V42.0312L12.9883 39.6875L18.2734 32.9375H19.9492L13.9961 40.5312L20.4062 50H18.7773L13.0938 41.5859ZM29.4766 32.8203V34.0742H29.2773C27.6211 34.082 26.3164 34.668 25.3633 35.832C24.418 36.9961 23.8906 38.6406 23.7812 40.7656C24.1797 40.1328 24.6758 39.6484 25.2695 39.3125C25.8633 38.9688 26.5195 38.7969 27.2383 38.7969C28.4961 38.7969 29.4961 39.3164 30.2383 40.3555C30.9883 41.3867 31.3633 42.7383 31.3633 44.4102C31.3633 46.1523 30.9688 47.5586 30.1797 48.6289C29.3906 49.6992 28.3594 50.2344 27.0859 50.2344C25.7188 50.2344 24.6055 49.6484 23.7461 48.4766C22.8867 47.3047 22.457 45.7656 22.457 43.8594V42.4766C22.457 39.3438 23.0352 36.9609 24.1914 35.3281C25.3477 33.6875 27.0078 32.8516 29.1719 32.8203H29.4766ZM27.0273 40.0273C26.293 40.0273 25.6133 40.293 24.9883 40.8242C24.3711 41.3477 23.9609 41.9961 23.7578 42.7695V43.9883C23.7578 45.4727 24.0703 46.6836 24.6953 47.6211C25.3203 48.5508 26.1172 49.0156 27.0859 49.0156C27.9766 49.0156 28.6992 48.5898 29.2539 47.7383C29.8086 46.8867 30.0859 45.7969 30.0859 44.4688C30.0859 43.1328 29.8086 42.0586 29.2539 41.2461C28.707 40.4336 27.9648 40.0273 27.0273 40.0273ZM43.0703 33.7578L36.9766 50H35.6172L41.6758 34.1562H33.6016V32.9375H43.0703V33.7578ZM50.793 41.3047H55.082V42.6523H50.793V48.2891H49.4688V42.6523H45.25V41.3047H49.4688V35.8672H50.793V41.3047ZM66.7422 50H57.6953V48.8984L62.5469 42.3477C63.3594 41.2305 63.9258 40.3047 64.2461 39.5703C64.5664 38.8359 64.7266 38.1172 64.7266 37.4141C64.7266 36.3438 64.4688 35.4961 63.9531 34.8711C63.4453 34.2383 62.7383 33.9219 61.832 33.9219C60.8711 33.9219 60.1055 34.2891 59.5352 35.0234C58.9648 35.75 58.6797 36.6953 58.6797 37.8594H57.3789C57.3789 36.375 57.7891 35.1445 58.6094 34.168C59.4297 33.1914 60.5039 32.7031 61.832 32.7031C63.1289 32.7031 64.1562 33.1094 64.9141 33.9219C65.6719 34.7266 66.0508 35.8477 66.0508 37.2852C66.0508 38.6523 65.4336 40.25 64.1992 42.0781L63.4492 43.1562L59.2773 48.793H66.7422V50ZM78.0742 42.875C78.0742 45.2969 77.6992 47.1289 76.9492 48.3711C76.207 49.6133 75.1094 50.2344 73.6562 50.2344C72.2188 50.2344 71.1211 49.6172 70.3633 48.3828C69.6133 47.1406 69.2305 45.3516 69.2148 43.0156V40.0156C69.2148 37.6406 69.5859 35.8281 70.3281 34.5781C71.0703 33.3281 72.1719 32.7031 73.6328 32.7031C75.0703 32.7031 76.1641 33.3086 76.9141 34.5195C77.6641 35.7227 78.0508 37.4805 78.0742 39.793V42.875ZM76.7617 39.8281C76.7617 37.875 76.5 36.4023 75.9766 35.4102C75.4609 34.418 74.6797 33.9219 73.6328 33.9219C72.625 33.9219 71.8555 34.3984 71.3242 35.3516C70.8008 36.2969 70.5273 37.707 70.5039 39.582V43.0391C70.5039 44.9453 70.7695 46.4219 71.3008 47.4688C71.8398 48.5078 72.625 49.0273 73.6562 49.0273C74.6562 49.0273 75.418 48.5352 75.9414 47.5508C76.4727 46.5586 76.7461 45.1055 76.7617 43.1914V39.8281ZM81.8359 41.2578L82.5391 32.9375H89.7461V34.2734H83.6523L83.1719 39.9922C83.9375 39.3672 84.8164 39.0547 85.8086 39.0547C87.1133 39.0547 88.1445 39.5586 88.9023 40.5664C89.668 41.5664 90.0508 42.8984 90.0508 44.5625C90.0508 46.3438 89.6758 47.7344 88.9258 48.7344C88.1758 49.7344 87.1094 50.2344 85.7266 50.2344C84.4688 50.2344 83.4492 49.8164 82.668 48.9805C81.8867 48.1367 81.4453 46.9805 81.3438 45.5117H82.5859C82.6953 46.6602 83.0195 47.5352 83.5586 48.1367C84.0977 48.7305 84.8203 49.0273 85.7266 49.0273C86.7188 49.0273 87.4688 48.6406 87.9766 47.8672C88.4922 47.0938 88.75 46 88.75 44.5859C88.75 43.3281 88.4609 42.3125 87.8828 41.5391C87.3125 40.7578 86.5391 40.3672 85.5625 40.3672C85 40.3672 84.5156 40.457 84.1094 40.6367C83.7031 40.8086 83.2891 41.125 82.8672 41.5859L81.8359 41.2578ZM92.8516 49.1445C92.8516 48.8633 92.9375 48.6289 93.1094 48.4414C93.2891 48.2461 93.5352 48.1484 93.8477 48.1484C94.1602 48.1484 94.4062 48.2461 94.5859 48.4414C94.7656 48.6289 94.8555 48.8633 94.8555 49.1445C94.8555 49.418 94.7656 49.6445 94.5859 49.8242C94.4062 50.0039 94.1602 50.0938 93.8477 50.0938C93.5352 50.0938 93.2891 50.0039 93.1094 49.8242C92.9375 49.6445 92.8516 49.418 92.8516 49.1445ZM105.438 32.8203V34.0742H105.238C103.582 34.082 102.277 34.668 101.324 35.832C100.379 36.9961 99.8516 38.6406 99.7422 40.7656C100.141 40.1328 100.637 39.6484 101.23 39.3125C101.824 38.9688 102.48 38.7969 103.199 38.7969C104.457 38.7969 105.457 39.3164 106.199 40.3555C106.949 41.3867 107.324 42.7383 107.324 44.4102C107.324 46.1523 106.93 47.5586 106.141 48.6289C105.352 49.6992 104.32 50.2344 103.047 50.2344C101.68 50.2344 100.566 49.6484 99.707 48.4766C98.8477 47.3047 98.418 45.7656 98.418 43.8594V42.4766C98.418 39.3438 98.9961 36.9609 100.152 35.3281C101.309 33.6875 102.969 32.8516 105.133 32.8203H105.438ZM102.988 40.0273C102.254 40.0273 101.574 40.293 100.949 40.8242C100.332 41.3477 99.9219 41.9961 99.7188 42.7695V43.9883C99.7188 45.4727 100.031 46.6836 100.656 47.6211C101.281 48.5508 102.078 49.0156 103.047 49.0156C103.938 49.0156 104.66 48.5898 105.215 47.7383C105.77 46.8867 106.047 45.7969 106.047 44.4688C106.047 43.1328 105.77 42.0586 105.215 41.2461C104.668 40.4336 103.926 40.0273 102.988 40.0273ZM112.738 40.6953H114.016C114.969 40.6875 115.738 40.3867 116.324 39.793C116.918 39.1914 117.215 38.3906 117.215 37.3906C117.215 36.2891 116.961 35.4375 116.453 34.8359C115.945 34.2266 115.227 33.9219 114.297 33.9219C113.391 33.9219 112.656 34.2461 112.094 34.8945C111.539 35.5352 111.262 36.375 111.262 37.4141H109.961C109.961 36.5234 110.141 35.7227 110.5 35.0117C110.867 34.293 111.387 33.7305 112.059 33.3242C112.73 32.9102 113.477 32.7031 114.297 32.7031C115.578 32.7031 116.602 33.1211 117.367 33.957C118.133 34.7852 118.516 35.9453 118.516 37.4375C118.516 38.2812 118.293 39.0469 117.848 39.7344C117.41 40.4219 116.82 40.9297 116.078 41.2578C116.938 41.5391 117.602 42.0352 118.07 42.7461C118.539 43.4492 118.773 44.3203 118.773 45.3594C118.773 46.8438 118.367 48.0273 117.555 48.9102C116.742 49.793 115.668 50.2344 114.332 50.2344C113.48 50.2344 112.699 50.0352 111.988 49.6367C111.277 49.2305 110.727 48.6641 110.336 47.9375C109.953 47.2109 109.762 46.3594 109.762 45.3828H111.062C111.062 46.4453 111.363 47.3203 111.965 48.0078C112.574 48.6875 113.363 49.0273 114.332 49.0273C115.324 49.0273 116.094 48.7188 116.641 48.1016C117.195 47.4766 117.473 46.5781 117.473 45.4062C117.473 44.2812 117.176 43.4219 116.582 42.8281C115.996 42.2266 115.137 41.9219 114.004 41.9141H112.738V40.6953Z" fill="black"/>
</svg>
