<svg width="133" height="56" viewBox="0 0 133 56" fill="none" xmlns="http://www.w3.org/2000/svg">
<path d="M3.71094 15.0625V22H2.375V4.9375H7.33203C8.83984 4.9375 10.0273 5.39063 10.8945 6.29688C11.7617 7.20312 12.1953 8.44922 12.1953 10.0352C12.1953 11.6523 11.7734 12.8945 10.9297 13.7617C10.0938 14.6289 8.88672 15.0625 7.30859 15.0625H3.71094ZM3.71094 13.8086H7.33203C8.45703 13.8086 9.32422 13.4844 9.93359 12.8359C10.5508 12.1797 10.8594 11.2539 10.8594 10.0586C10.8594 8.86328 10.5469 7.92188 9.92188 7.23438C9.30469 6.54687 8.44531 6.20312 7.34375 6.20312H3.71094V13.8086ZM23.3281 17.8047C23.3281 16.8516 23.0547 16.1016 22.5078 15.5547C21.9688 15.0078 20.957 14.4844 19.4727 13.9844C17.9883 13.4844 16.8984 12.9258 16.2031 12.3086C15.2891 11.5039 14.832 10.4414 14.832 9.12109C14.832 7.81641 15.2812 6.75391 16.1797 5.93359C17.0781 5.11328 18.2383 4.70312 19.6602 4.70312C21.1133 4.70312 22.3008 5.17969 23.2227 6.13281C24.1445 7.08594 24.6055 8.3125 24.6055 9.8125H23.2578C23.2578 8.66406 22.9336 7.73828 22.2852 7.03516C21.6445 6.32422 20.7695 5.96875 19.6602 5.96875C18.582 5.96875 17.7305 6.26172 17.1055 6.84766C16.4883 7.42578 16.1797 8.17578 16.1797 9.09766C16.1797 9.95703 16.4727 10.6602 17.0586 11.207C17.6445 11.7539 18.5781 12.2422 19.8594 12.6719C21.1406 13.0938 22.1094 13.5352 22.7656 13.9961C23.4219 14.4492 23.9062 14.9844 24.2188 15.6016C24.5312 16.2188 24.6875 16.9453 24.6875 17.7812C24.6875 19.1172 24.2344 20.1953 23.3281 21.0156C22.4297 21.8281 21.2383 22.2344 19.7539 22.2344C18.7539 22.2344 17.8398 22.0312 17.0117 21.625C16.1914 21.2109 15.5469 20.6211 15.0781 19.8555C14.6172 19.082 14.3867 18.1719 14.3867 17.125H15.7227C15.7227 18.3281 16.0859 19.2734 16.8125 19.9609C17.5391 20.6484 18.5195 20.9922 19.7539 20.9922C20.832 20.9922 21.6953 20.7031 22.3438 20.125C23 19.5469 23.3281 18.7734 23.3281 17.8047ZM32.1641 19.8672L32.1992 20.0547L32.2461 19.8672L36.6992 4.9375H38.1758L32.8438 22H31.5781L26.2461 4.9375H27.7109L32.1641 19.8672ZM56.5039 20.0195C55.9336 20.7539 55.2148 21.3086 54.3477 21.6836C53.4805 22.0508 52.5312 22.2344 51.5 22.2344C49.75 22.2344 48.375 21.6484 47.375 20.4766C46.375 19.3047 45.8555 17.6797 45.8164 15.6016V11.4531C45.8164 9.27344 46.2891 7.60547 47.2344 6.44922C48.1875 5.28516 49.543 4.70312 51.3008 4.70312C52.8711 4.70312 54.1016 5.13672 54.9922 6.00391C55.8828 6.87109 56.3828 8.12109 56.4922 9.75391H55.1562C55.0156 8.44141 54.6289 7.48437 53.9961 6.88281C53.3711 6.27344 52.4766 5.96875 51.3125 5.96875C49.9219 5.96875 48.8789 6.43359 48.1836 7.36328C47.4961 8.28516 47.1523 9.64062 47.1523 11.4297V15.3672C47.1523 17.1484 47.5312 18.5312 48.2891 19.5156C49.0547 20.5 50.125 20.9922 51.5 20.9922C52.9922 20.9922 54.2109 20.5195 55.1562 19.5742V15.1328H51.418V13.8789H56.5039V20.0195ZM66.875 20.4883C66.1562 21.6523 65.043 22.2344 63.5352 22.2344C62.3867 22.2344 61.5195 21.8359 60.9336 21.0391C60.3477 20.2422 60.0508 19.0703 60.043 17.5234V9.32031H61.332V17.4883C61.332 18.6367 61.5352 19.5078 61.9414 20.1016C62.3477 20.6953 62.9336 20.9922 63.6992 20.9922C65.3398 20.9922 66.3906 20.1953 66.8516 18.6016V9.32031H68.1641V22H66.8984L66.875 20.4883ZM78.3359 22C78.2188 21.5938 78.1406 21.0078 78.1016 20.2422C77.7109 20.875 77.207 21.3672 76.5898 21.7188C75.9805 22.0625 75.3164 22.2344 74.5977 22.2344C73.5039 22.2344 72.6523 21.9258 72.043 21.3086C71.4336 20.6914 71.1289 19.8125 71.1289 18.6719C71.1289 17.4297 71.5508 16.4453 72.3945 15.7188C73.2461 14.9922 74.418 14.625 75.9102 14.6172H78.0898V12.8477C78.0898 11.9414 77.8633 11.293 77.4102 10.9023C76.9648 10.5039 76.3086 10.3047 75.4414 10.3047C74.6367 10.3047 73.9766 10.5391 73.4609 11.0078C72.9453 11.4766 72.6875 12.082 72.6875 12.8242L71.3867 12.8125C71.3867 11.7734 71.7773 10.8945 72.5586 10.1758C73.3398 9.44922 74.3203 9.08594 75.5 9.08594C76.7734 9.08594 77.7383 9.40625 78.3945 10.0469C79.0508 10.6875 79.3789 11.6211 79.3789 12.8477V19.0703C79.3789 20.3125 79.4922 21.2422 79.7188 21.8594V22H78.3359ZM74.7617 20.9805C75.5273 20.9805 76.2031 20.7812 76.7891 20.3828C77.3828 19.9844 77.8164 19.4531 78.0898 18.7891V15.707H76.0273C74.8398 15.7227 73.9453 15.9883 73.3438 16.5039C72.7422 17.0117 72.4414 17.6992 72.4414 18.5664C72.4414 20.1758 73.2148 20.9805 74.7617 20.9805ZM77.2461 4H78.9453L76.2383 7.29297H75.0078L77.2461 4ZM86.9375 21.0273C87.8438 21.0273 88.5391 20.7734 89.0234 20.2656C89.5078 19.7578 89.7695 19.0273 89.8086 18.0742H91.0625C91 19.3711 90.5859 20.3906 89.8203 21.1328C89.0547 21.8672 88.0938 22.2344 86.9375 22.2344C85.4297 22.2344 84.2891 21.7539 83.5156 20.793C82.75 19.8242 82.3594 18.3906 82.3438 16.4922V14.9453C82.3438 13.0078 82.7266 11.5469 83.4922 10.5625C84.2656 9.57812 85.4102 9.08594 86.9258 9.08594C88.1836 9.08594 89.1758 9.48438 89.9023 10.2812C90.6289 11.0703 91.0156 12.1758 91.0625 13.5977H89.8086C89.7695 12.5508 89.5039 11.7422 89.0117 11.1719C88.5195 10.5938 87.8242 10.3047 86.9258 10.3047C85.8008 10.3047 84.9727 10.6836 84.4414 11.4414C83.918 12.1992 83.6562 13.3633 83.6562 14.9336V16.375C83.6562 18 83.9219 19.1836 84.4531 19.9258C84.9844 20.6602 85.8125 21.0273 86.9375 21.0273ZM95.2812 22H93.9688V9.32031H95.2812V22ZM93.7812 5.66406C93.7812 5.39844 93.8555 5.17188 94.0039 4.98438C94.1523 4.79688 94.3633 4.70312 94.6367 4.70312C94.9102 4.70312 95.1211 4.79688 95.2695 4.98438C95.4258 5.17188 95.5039 5.39844 95.5039 5.66406C95.5039 5.92969 95.4258 6.15625 95.2695 6.34375C95.1211 6.52344 94.9102 6.61328 94.6367 6.61328C94.3633 6.61328 94.1523 6.52344 94.0039 6.34375C93.8555 6.15625 93.7812 5.92969 93.7812 5.66406ZM100.086 9.32031L100.121 11.2188C100.91 9.79688 102.043 9.08594 103.52 9.08594C105.152 9.08594 106.207 9.86328 106.684 11.418C107.082 10.6445 107.594 10.0625 108.219 9.67188C108.852 9.28125 109.539 9.08594 110.281 9.08594C112.562 9.08594 113.73 10.5547 113.785 13.4922V22H112.484V13.5742C112.469 12.4805 112.266 11.668 111.875 11.1367C111.484 10.5977 110.844 10.3281 109.953 10.3281C109.148 10.3438 108.469 10.6562 107.914 11.2656C107.359 11.875 107.043 12.6406 106.965 13.5625V22H105.652V13.6094C105.652 12.5 105.445 11.6758 105.031 11.1367C104.625 10.5977 103.988 10.3281 103.121 10.3281C102.41 10.3281 101.793 10.5742 101.27 11.0664C100.754 11.5586 100.379 12.2617 100.145 13.1758V22H98.8438V9.32031H100.086ZM116.703 15.0156C116.703 13.1875 117.117 11.7422 117.945 10.6797C118.773 9.61719 119.902 9.08594 121.332 9.08594C122.77 9.08594 123.898 9.60938 124.719 10.6562C125.547 11.7031 125.965 13.1445 125.973 14.9805V16.3281C125.973 18.1875 125.555 19.6367 124.719 20.6758C123.891 21.7148 122.77 22.2344 121.355 22.2344C119.941 22.2344 118.82 21.7266 117.992 20.7109C117.164 19.6953 116.734 18.2969 116.703 16.5156V15.0156ZM118.016 16.3281C118.016 17.7891 118.309 18.9375 118.895 19.7734C119.488 20.6094 120.309 21.0273 121.355 21.0273C122.426 21.0273 123.242 20.625 123.805 19.8203C124.375 19.0156 124.664 17.8633 124.672 16.3633V15.0156C124.672 13.5547 124.375 12.4062 123.781 11.5703C123.188 10.7266 122.371 10.3047 121.332 10.3047C120.324 10.3047 119.523 10.7148 118.93 11.5352C118.336 12.3555 118.031 13.4844 118.016 14.9219V16.3281ZM15.5938 41.5859L13.6133 43.8828V50H12.2773V32.9375H13.6133V42.0312L15.4883 39.6875L20.7734 32.9375H22.4492L16.4961 40.5312L22.9062 50H21.2773L15.5938 41.5859ZM33.8984 33.7578L27.8047 50H26.4453L32.5039 34.1562H24.4297V32.9375H33.8984V33.7578ZM39.2773 40.6953H40.5547C41.5078 40.6875 42.2773 40.3867 42.8633 39.793C43.457 39.1914 43.7539 38.3906 43.7539 37.3906C43.7539 36.2891 43.5 35.4375 42.9922 34.8359C42.4844 34.2266 41.7656 33.9219 40.8359 33.9219C39.9297 33.9219 39.1953 34.2461 38.6328 34.8945C38.0781 35.5352 37.8008 36.375 37.8008 37.4141H36.5C36.5 36.5234 36.6797 35.7227 37.0391 35.0117C37.4062 34.293 37.9258 33.7305 38.5977 33.3242C39.2695 32.9102 40.0156 32.7031 40.8359 32.7031C42.1172 32.7031 43.1406 33.1211 43.9062 33.957C44.6719 34.7852 45.0547 35.9453 45.0547 37.4375C45.0547 38.2812 44.832 39.0469 44.3867 39.7344C43.9492 40.4219 43.3594 40.9297 42.6172 41.2578C43.4766 41.5391 44.1406 42.0352 44.6094 42.7461C45.0781 43.4492 45.3125 44.3203 45.3125 45.3594C45.3125 46.8438 44.9062 48.0273 44.0938 48.9102C43.2812 49.793 42.207 50.2344 40.8711 50.2344C40.0195 50.2344 39.2383 50.0352 38.5273 49.6367C37.8164 49.2305 37.2656 48.6641 36.875 47.9375C36.4922 47.2109 36.3008 46.3594 36.3008 45.3828H37.6016C37.6016 46.4453 37.9023 47.3203 38.5039 48.0078C39.1133 48.6875 39.9023 49.0273 40.8711 49.0273C41.8633 49.0273 42.6328 48.7188 43.1797 48.1016C43.7344 47.4766 44.0117 46.5781 44.0117 45.4062C44.0117 44.2812 43.7148 43.4219 43.1211 42.8281C42.5352 42.2266 41.6758 41.9219 40.543 41.9141H39.2773V40.6953ZM53.293 41.3047H57.582V42.6523H53.293V48.2891H51.9688V42.6523H47.75V41.3047H51.9688V35.8672H53.293V41.3047ZM60.9922 41.2578L61.6953 32.9375H68.9023V34.2734H62.8086L62.3281 39.9922C63.0938 39.3672 63.9727 39.0547 64.9648 39.0547C66.2695 39.0547 67.3008 39.5586 68.0586 40.5664C68.8242 41.5664 69.207 42.8984 69.207 44.5625C69.207 46.3438 68.832 47.7344 68.082 48.7344C67.332 49.7344 66.2656 50.2344 64.8828 50.2344C63.625 50.2344 62.6055 49.8164 61.8242 48.9805C61.043 48.1367 60.6016 46.9805 60.5 45.5117H61.7422C61.8516 46.6602 62.1758 47.5352 62.7148 48.1367C63.2539 48.7305 63.9766 49.0273 64.8828 49.0273C65.875 49.0273 66.625 48.6406 67.1328 47.8672C67.6484 47.0938 67.9062 46 67.9062 44.5859C67.9062 43.3281 67.6172 42.3125 67.0391 41.5391C66.4688 40.7578 65.6953 40.3672 64.7188 40.3672C64.1562 40.3672 63.6719 40.457 63.2656 40.6367C62.8594 40.8086 62.4453 41.125 62.0234 41.5859L60.9922 41.2578ZM77.4453 50H76.1328V34.6602L72.2773 36.3828V35.0469L77.2227 32.8789H77.4453V50ZM92.4453 33.7578L86.3516 50H84.9922L91.0508 34.1562H82.9766V32.9375H92.4453V33.7578ZM95.3516 49.1445C95.3516 48.8633 95.4375 48.6289 95.6094 48.4414C95.7891 48.2461 96.0352 48.1484 96.3477 48.1484C96.6602 48.1484 96.9062 48.2461 97.0859 48.4414C97.2656 48.6289 97.3555 48.8633 97.3555 49.1445C97.3555 49.418 97.2656 49.6445 97.0859 49.8242C96.9062 50.0039 96.6602 50.0938 96.3477 50.0938C96.0352 50.0938 95.7891 50.0039 95.6094 49.8242C95.4375 49.6445 95.3516 49.418 95.3516 49.1445ZM101.75 41.2578L102.453 32.9375H109.66V34.2734H103.566L103.086 39.9922C103.852 39.3672 104.73 39.0547 105.723 39.0547C107.027 39.0547 108.059 39.5586 108.816 40.5664C109.582 41.5664 109.965 42.8984 109.965 44.5625C109.965 46.3438 109.59 47.7344 108.84 48.7344C108.09 49.7344 107.023 50.2344 105.641 50.2344C104.383 50.2344 103.363 49.8164 102.582 48.9805C101.801 48.1367 101.359 46.9805 101.258 45.5117H102.5C102.609 46.6602 102.934 47.5352 103.473 48.1367C104.012 48.7305 104.734 49.0273 105.641 49.0273C106.633 49.0273 107.383 48.6406 107.891 47.8672C108.406 47.0938 108.664 46 108.664 44.5859C108.664 43.3281 108.375 42.3125 107.797 41.5391C107.227 40.7578 106.453 40.3672 105.477 40.3672C104.914 40.3672 104.43 40.457 104.023 40.6367C103.617 40.8086 103.203 41.125 102.781 41.5859L101.75 41.2578ZM121.332 42.875C121.332 45.2969 120.957 47.1289 120.207 48.3711C119.465 49.6133 118.367 50.2344 116.914 50.2344C115.477 50.2344 114.379 49.6172 113.621 48.3828C112.871 47.1406 112.488 45.3516 112.473 43.0156V40.0156C112.473 37.6406 112.844 35.8281 113.586 34.5781C114.328 33.3281 115.43 32.7031 116.891 32.7031C118.328 32.7031 119.422 33.3086 120.172 34.5195C120.922 35.7227 121.309 37.4805 121.332 39.793V42.875ZM120.02 39.8281C120.02 37.875 119.758 36.4023 119.234 35.4102C118.719 34.418 117.938 33.9219 116.891 33.9219C115.883 33.9219 115.113 34.3984 114.582 35.3516C114.059 36.2969 113.785 37.707 113.762 39.582V43.0391C113.762 44.9453 114.027 46.4219 114.559 47.4688C115.098 48.5078 115.883 49.0273 116.914 49.0273C117.914 49.0273 118.676 48.5352 119.199 47.5508C119.73 46.5586 120.004 45.1055 120.02 43.1914V39.8281Z" fill="black"/>
</svg>
