<svg width="128" height="63" viewBox="0 0 128 63" fill="none" xmlns="http://www.w3.org/2000/svg">
<path d="M5.3875 19.5076V28H2.66099V6.30712H9.5741C11.5904 6.30712 13.1747 6.91301 14.3269 8.12479C15.4791 9.32664 16.0552 10.9308 16.0552 12.9372C16.0552 15.023 15.5039 16.6321 14.4014 17.7644C13.3088 18.8868 11.7643 19.4679 9.76779 19.5076H5.3875ZM5.3875 17.1685H9.5741C10.7859 17.1685 11.7146 16.8059 12.3602 16.0808C13.0058 15.3558 13.3286 14.3178 13.3286 12.967C13.3286 11.6658 12.9959 10.6228 12.3304 9.83817C11.6649 9.05349 10.7511 8.66115 9.589 8.66115H5.3875V17.1685ZM29.0619 22.5172C29.0619 21.4345 28.7689 20.6052 28.1829 20.0291C27.5969 19.453 26.5391 18.8918 25.0094 18.3455C23.4798 17.7992 22.3077 17.2281 21.4933 16.6321C20.6887 16.0262 20.0828 15.3409 19.6756 14.576C19.2783 13.8013 19.0796 12.9173 19.0796 11.924C19.0796 10.2057 19.6508 8.79028 20.793 7.67782C21.9452 6.56536 23.45 6.00914 25.3074 6.00914C26.5788 6.00914 27.7111 6.29718 28.7044 6.87328C29.6976 7.43944 30.4624 8.22908 30.9988 9.24221C31.5352 10.2553 31.8033 11.3678 31.8033 12.5796H29.0619C29.0619 11.2387 28.7391 10.2007 28.0935 9.4657C27.4479 8.73068 26.5192 8.36317 25.3074 8.36317C24.2049 8.36317 23.3507 8.67108 22.7448 9.28691C22.1389 9.90273 21.8359 10.7669 21.8359 11.8793C21.8359 12.7931 22.1637 13.5579 22.8193 14.1738C23.4748 14.7896 24.488 15.3409 25.8587 15.8276C27.9942 16.5328 29.5188 17.4019 30.4326 18.4349C31.3564 19.4679 31.8182 20.8187 31.8182 22.4874C31.8182 24.2455 31.2471 25.6559 30.1049 26.7187C28.9626 27.7715 27.4082 28.298 25.4415 28.298C24.18 28.298 23.013 28.0248 21.9402 27.4785C20.8774 26.9223 20.0381 26.1476 19.4223 25.1543C18.8164 24.1511 18.5135 23.0039 18.5135 21.7126H21.2549C21.2549 23.0535 21.6274 24.0965 22.3723 24.8414C23.1272 25.5864 24.1503 25.9588 25.4415 25.9588C26.6433 25.9588 27.5472 25.6509 28.1531 25.0351C28.759 24.4193 29.0619 23.58 29.0619 22.5172ZM41.6069 23.8134L46.5682 6.30712H49.5629L42.8137 28H40.4298L33.6955 6.30712H36.6753L41.6069 23.8134ZM59.5154 28V6.30712H64.6853C67.2182 6.30712 69.1848 7.10173 70.5853 8.69095C71.9858 10.2702 72.6861 12.4952 72.6861 15.3657V19.001C72.6861 21.8716 71.9759 24.0915 70.5555 25.6609C69.1352 27.2203 67.0741 28 64.3725 28H59.5154ZM62.2419 8.66115V25.6609H64.4321C66.3491 25.6609 67.7496 25.1146 68.6336 24.022C69.5176 22.9195 69.9695 21.2905 69.9894 19.1351V15.2912C69.9894 13.0067 69.5474 11.333 68.6634 10.2702C67.7893 9.19751 66.4633 8.66115 64.6853 8.66115H62.2419ZM84.8734 28C84.7145 27.6524 84.6003 27.0663 84.5308 26.2419C83.5971 27.6126 82.4052 28.298 80.955 28.298C79.4949 28.298 78.3527 27.8907 77.5283 27.0763C76.7138 26.2519 76.3065 25.0947 76.3065 23.6048C76.3065 21.9659 76.8628 20.6647 77.9752 19.7013C79.0877 18.7378 80.6123 18.2461 82.5492 18.2263H84.4861V16.5129C84.4861 15.5494 84.2725 14.8641 83.8454 14.4568C83.4183 14.0496 82.7677 13.846 81.8937 13.846C81.099 13.846 80.4534 14.0844 79.9568 14.5611C79.4602 15.028 79.2118 15.6239 79.2118 16.349H76.5747C76.5747 15.5246 76.8181 14.7399 77.3048 13.995C77.7915 13.2401 78.447 12.6491 79.2714 12.222C80.0958 11.7949 81.0146 11.5813 82.0277 11.5813C83.6766 11.5813 84.9281 11.9936 85.7823 12.818C86.6464 13.6324 87.0884 14.8244 87.1083 16.3937V24.5285C87.1182 25.7701 87.2871 26.8478 87.6149 27.7616V28H84.8734ZM81.3573 25.8992C82.0029 25.8992 82.6187 25.7205 83.2048 25.3629C83.7908 25.0053 84.2179 24.5583 84.4861 24.022V20.178H82.9962C81.7447 20.1979 80.7564 20.481 80.0313 21.0273C79.3062 21.5636 78.9437 22.3185 78.9437 23.2919C78.9437 24.2057 79.1274 24.8712 79.4949 25.2884C79.8624 25.6956 80.4832 25.8992 81.3573 25.8992ZM93.6936 11.8793L93.7681 13.6225C94.7912 12.2617 96.0973 11.5813 97.6865 11.5813C100.537 11.5813 101.982 13.4834 102.022 17.2876V28H99.3999V17.4068C99.3999 16.1454 99.1864 15.2515 98.7593 14.725C98.3421 14.1887 97.7114 13.9205 96.8671 13.9205C96.2115 13.9205 95.6206 14.139 95.0941 14.576C94.5776 15.0131 94.1605 15.5842 93.8426 16.2894V28H91.2055V11.8793H93.6936ZM109.442 7.9758V11.8793H111.87V14.0099H109.442V24.0071C109.442 24.6428 109.546 25.1245 109.755 25.4523C109.963 25.7801 110.321 25.9439 110.827 25.9439C111.175 25.9439 111.528 25.8843 111.885 25.7652L111.855 28C111.259 28.1987 110.649 28.298 110.023 28.298C108.98 28.298 108.185 27.9255 107.639 27.1806C107.093 26.4356 106.82 25.3827 106.82 24.022V14.0099H104.361V11.8793H106.82V7.9758H109.442ZM123.313 28C123.154 27.6524 123.04 27.0663 122.97 26.2419C122.036 27.6126 120.844 28.298 119.394 28.298C117.934 28.298 116.792 27.8907 115.968 27.0763C115.153 26.2519 114.746 25.0947 114.746 23.6048C114.746 21.9659 115.302 20.6647 116.415 19.7013C117.527 18.7378 119.052 18.2461 120.989 18.2263H122.925V16.5129C122.925 15.5494 122.712 14.8641 122.285 14.4568C121.858 14.0496 121.207 13.846 120.333 13.846C119.538 13.846 118.893 14.0844 118.396 14.5611C117.899 15.028 117.651 15.6239 117.651 16.349H115.014C115.014 15.5246 115.257 14.7399 115.744 13.995C116.231 13.2401 116.886 12.6491 117.711 12.222C118.535 11.7949 119.454 11.5813 120.467 11.5813C122.116 11.5813 123.367 11.9936 124.222 12.818C125.086 13.6324 125.528 14.8244 125.548 16.3937V24.5285C125.558 25.7701 125.726 26.8478 126.054 27.7616V28H123.313ZM119.797 25.8992C120.442 25.8992 121.058 25.7205 121.644 25.3629C122.23 25.0053 122.657 24.5583 122.925 24.022V20.178H121.435C120.184 20.1979 119.196 20.481 118.471 21.0273C117.746 21.5636 117.383 22.3185 117.383 23.2919C117.383 24.2057 117.567 24.8712 117.934 25.2884C118.302 25.6956 118.923 25.8992 119.797 25.8992Z" fill="#756B6B"/>
<path d="M6.73728 50.0223L5.29705 51.835V57H1.64681V38.9226H5.29705V46.8066L6.45172 44.8573L9.8164 38.9226H14.2861L9.1087 46.8687L14.373 57H10.0399L6.73728 50.0223ZM15.8132 48.1103L16.7072 38.9226H25.4603V41.9272H19.5876L19.2648 45.8009C19.9436 45.3457 20.643 45.1181 21.3631 45.1181C22.853 45.1181 23.9994 45.6478 24.8023 46.7073C25.6134 47.7668 26.019 49.265 26.019 51.2018C26.019 53.0145 25.5389 54.4755 24.5788 55.5846C23.6186 56.6937 22.3357 57.2483 20.7299 57.2483C19.778 57.2483 18.8965 57.0248 18.0853 56.5779C17.2742 56.1226 16.6327 55.4935 16.1609 54.6907C15.6974 53.8878 15.4615 52.9773 15.4532 51.9592H18.9296C18.9875 52.7124 19.1738 53.296 19.4883 53.7098C19.8028 54.1237 20.2084 54.3306 20.7051 54.3306C21.2845 54.3306 21.7314 54.0533 22.046 53.4987C22.3605 52.9359 22.5178 52.0999 22.5178 50.9908C22.5178 49.9478 22.3274 49.1615 21.9466 48.6318C21.5742 48.102 21.0486 47.8371 20.3698 47.8371C19.7077 47.8371 19.1945 48.0648 18.8303 48.52L18.6068 48.8304L15.8132 48.1103ZM38.919 40.9464L33.2078 57H29.4954L35.2315 41.8403H27.9807V38.9226H38.919V40.9464ZM47.697 46.8687H51.2107V50.1341H47.697V55.1873H44.3696V50.1341H40.7938V46.8687H44.3696V42.0265H47.697V46.8687ZM53.6318 48.1103L54.5257 38.9226H63.2788V41.9272H57.4062L57.0833 45.8009C57.7621 45.3457 58.4615 45.1181 59.1816 45.1181C60.6715 45.1181 61.8179 45.6478 62.6208 46.7073C63.432 47.7668 63.8375 49.265 63.8375 51.2018C63.8375 53.0145 63.3575 54.4755 62.3973 55.5846C61.4372 56.6937 60.1542 57.2483 58.5484 57.2483C57.5965 57.2483 56.715 57.0248 55.9038 56.5779C55.0927 56.1226 54.4512 55.4935 53.9794 54.6907C53.5159 53.8878 53.28 52.9773 53.2717 51.9592H56.7481C56.8061 52.7124 56.9923 53.296 57.3068 53.7098C57.6214 54.1237 58.0269 54.3306 58.5236 54.3306C59.103 54.3306 59.5499 54.0533 59.8645 53.4987C60.179 52.9359 60.3363 52.0999 60.3363 50.9908C60.3363 49.9478 60.1459 49.1615 59.7652 48.6318C59.3927 48.102 58.8671 47.8371 58.1884 47.8371C57.5262 47.8371 57.013 48.0648 56.6488 48.52L56.4253 48.8304L53.6318 48.1103ZM74.5151 38.7364V41.7162H74.3165C73.0004 41.7244 71.9533 42.1217 71.1753 42.9081C70.4055 43.6861 69.9378 44.7787 69.7723 46.1858C70.5255 45.325 71.4691 44.8946 72.6031 44.8946C73.9109 44.8946 74.9538 45.4533 75.7319 46.5707C76.5182 47.6882 76.9114 49.178 76.9114 51.0404C76.9114 52.2241 76.6879 53.2918 76.2409 54.2437C75.7939 55.1956 75.1649 55.9364 74.3537 56.4661C73.5508 56.9876 72.6403 57.2483 71.6222 57.2483C69.9834 57.2483 68.6673 56.5903 67.674 55.2742C66.689 53.9581 66.1965 52.1868 66.1965 49.9602V48.6566C66.1965 46.6618 66.5069 44.9153 67.1277 43.4171C67.7568 41.9189 68.659 40.7684 69.8344 39.9655C71.018 39.1544 72.3962 38.7446 73.9688 38.7364H74.5151ZM71.4981 47.7999C71.0511 47.7999 70.6745 47.9406 70.3682 48.222C70.0703 48.5035 69.8468 48.8511 69.6978 49.265V50.5314C69.6978 51.8061 69.8675 52.7579 70.2068 53.387C70.5462 54.0161 70.9932 54.3306 71.5477 54.3306C72.1106 54.3306 72.5617 54.0285 72.9011 53.4243C73.2404 52.8117 73.4101 52.0295 73.4101 51.0777C73.4101 50.1092 73.2322 49.3229 72.8762 48.7187C72.5286 48.1061 72.0692 47.7999 71.4981 47.7999ZM89.1285 43.7275C89.1285 44.6049 88.9423 45.383 88.5698 46.0617C88.1973 46.7404 87.6842 47.2826 87.0303 47.6882C87.7752 48.1103 88.3629 48.6938 88.7933 49.4388C89.2237 50.1754 89.4389 51.0446 89.4389 52.0461C89.4389 53.6519 88.9754 54.9224 88.0484 55.8577C87.1213 56.7848 85.859 57.2483 84.2615 57.2483C82.664 57.2483 81.3935 56.7848 80.4499 55.8577C79.5063 54.9224 79.0345 53.6519 79.0345 52.0461C79.0345 51.0446 79.2497 50.1713 79.6801 49.4264C80.1105 48.6814 80.7023 48.102 81.4556 47.6882C80.7934 47.2826 80.2761 46.7404 79.9036 46.0617C79.5311 45.383 79.3449 44.6049 79.3449 43.7275C79.3449 42.1466 79.7877 40.9091 80.6734 40.0152C81.559 39.1213 82.7468 38.6743 84.2367 38.6743C85.7432 38.6743 86.9351 39.1254 87.8125 40.0276C88.6898 40.9298 89.1285 42.1631 89.1285 43.7275ZM84.2615 54.3306C84.7913 54.3306 85.1969 54.1071 85.4783 53.6602C85.768 53.2049 85.9128 52.5758 85.9128 51.7729C85.9128 50.9701 85.7638 50.341 85.4659 49.8857C85.1679 49.4305 84.7582 49.2029 84.2367 49.2029C83.7152 49.2029 83.3014 49.4305 82.9951 49.8857C82.6971 50.341 82.5482 50.9701 82.5482 51.7729C82.5482 52.5758 82.6971 53.2049 82.9951 53.6602C83.3014 54.1071 83.7235 54.3306 84.2615 54.3306ZM85.6273 43.9137C85.6273 43.2102 85.5114 42.6473 85.2796 42.2252C85.0561 41.8031 84.7085 41.592 84.2367 41.592C83.7897 41.592 83.4504 41.7989 83.2186 42.2128C82.9868 42.6184 82.871 43.1854 82.871 43.9137C82.871 44.6256 82.9868 45.2009 83.2186 45.6395C83.4504 46.07 83.798 46.2852 84.2615 46.2852C84.7251 46.2852 85.0686 46.07 85.292 45.6395C85.5155 45.2009 85.6273 44.6256 85.6273 43.9137ZM92.2449 55.2121C92.2449 54.6493 92.4311 54.1858 92.8036 53.8216C93.1843 53.4574 93.6768 53.2753 94.2811 53.2753C94.8688 53.2753 95.3571 53.4574 95.7461 53.8216C96.1352 54.1775 96.3297 54.641 96.3297 55.2121C96.3297 55.7915 96.131 56.2592 95.7337 56.6151C95.3447 56.9628 94.8605 57.1366 94.2811 57.1366C93.6934 57.1366 93.205 56.9586 92.816 56.6027C92.4353 56.2468 92.2449 55.7833 92.2449 55.2121ZM108.522 50.1713H110.062V53.089H108.522V57H105.008V53.089H99.0239L98.8625 50.8169L104.996 38.9226H108.522V50.1713ZM102.277 50.1713H105.008V44.1248L104.934 44.2614L102.277 50.1713ZM122.775 57H112.123V54.5168L117.014 48.2965C117.635 47.4357 118.09 46.6825 118.38 46.0369C118.678 45.383 118.827 44.758 118.827 44.1621C118.827 43.3592 118.686 42.7301 118.405 42.2749C118.132 41.8196 117.735 41.592 117.213 41.592C116.642 41.592 116.187 41.8569 115.847 42.3866C115.516 42.9163 115.351 43.6613 115.351 44.6214H111.825C111.825 43.5123 112.052 42.4983 112.507 41.5796C112.971 40.6608 113.617 39.949 114.444 39.4441C115.28 38.9309 116.224 38.6743 117.275 38.6743C118.889 38.6743 120.139 39.1213 121.025 40.0152C121.919 40.9008 122.366 42.1631 122.366 43.802C122.366 44.8201 122.117 45.8548 121.621 46.906C121.132 47.9489 120.243 49.236 118.951 50.7673L116.63 54.0823H122.775V57Z" fill="#756B6B"/>
</svg>
