<svg width="124" height="63" viewBox="0 0 124 63" fill="none" xmlns="http://www.w3.org/2000/svg">
<path d="M8.5193 19.5076V28H5.7928V6.30712H12.7059C14.7222 6.30712 16.3065 6.91301 17.4587 8.12479C18.6109 9.32664 19.187 10.9308 19.187 12.9372C19.187 15.023 18.6357 16.6321 17.5332 17.7644C16.4406 18.8868 14.8961 19.4679 12.8996 19.5076H8.5193ZM8.5193 17.1685H12.7059C13.9177 17.1685 14.8464 16.8059 15.492 16.0808C16.1376 15.3558 16.4604 14.3178 16.4604 12.967C16.4604 11.6658 16.1277 10.6228 15.4622 9.83817C14.7967 9.05349 13.8829 8.66115 12.7208 8.66115H8.5193V17.1685ZM32.1937 22.5172C32.1937 21.4345 31.9007 20.6052 31.3147 20.0291C30.7287 19.453 29.6709 18.8918 28.1412 18.3455C26.6116 17.7992 25.4396 17.2281 24.6251 16.6321C23.8205 16.0262 23.2146 15.3409 22.8074 14.576C22.4101 13.8013 22.2114 12.9173 22.2114 11.924C22.2114 10.2057 22.7826 8.79028 23.9248 7.67782C25.077 6.56536 26.5818 6.00914 28.4392 6.00914C29.7106 6.00914 30.8429 6.29718 31.8362 6.87328C32.8294 7.43944 33.5943 8.22908 34.1306 9.24221C34.667 10.2553 34.9352 11.3678 34.9352 12.5796H32.1937C32.1937 11.2387 31.8709 10.2007 31.2253 9.4657C30.5797 8.73068 29.651 8.36317 28.4392 8.36317C27.3367 8.36317 26.4825 8.67108 25.8766 9.28691C25.2707 9.90273 24.9678 10.7669 24.9678 11.8793C24.9678 12.7931 25.2955 13.5579 25.9511 14.1738C26.6066 14.7896 27.6198 15.3409 28.9905 15.8276C31.126 16.5328 32.6507 17.4019 33.5645 18.4349C34.4882 19.4679 34.9501 20.8187 34.9501 22.4874C34.9501 24.2455 34.3789 25.6559 33.2367 26.7187C32.0944 27.7715 30.54 28.298 28.5733 28.298C27.3119 28.298 26.1448 28.0248 25.072 27.4785C24.0093 26.9223 23.1699 26.1476 22.5541 25.1543C21.9482 24.1511 21.6453 23.0039 21.6453 21.7126H24.3867C24.3867 23.0535 24.7592 24.0965 25.5041 24.8414C26.259 25.5864 27.2821 25.9588 28.5733 25.9588C29.7752 25.9588 30.679 25.6509 31.2849 25.0351C31.8908 24.4193 32.1937 23.58 32.1937 22.5172ZM44.7387 23.8134L49.7 6.30712H52.6947L45.9455 28H43.5617L36.8273 6.30712H39.8071L44.7387 23.8134ZM72.123 22.5172C72.123 21.4345 71.8299 20.6052 71.2439 20.0291C70.6579 19.453 69.6001 18.8918 68.0704 18.3455C66.5408 17.7992 65.3688 17.2281 64.5543 16.6321C63.7497 16.0262 63.1439 15.3409 62.7366 14.576C62.3393 13.8013 62.1407 12.9173 62.1407 11.924C62.1407 10.2057 62.7118 8.79028 63.854 7.67782C65.0062 6.56536 66.511 6.00914 68.3684 6.00914C69.6398 6.00914 70.7721 6.29718 71.7654 6.87328C72.7586 7.43944 73.5235 8.22908 74.0598 9.24221C74.5962 10.2553 74.8644 11.3678 74.8644 12.5796H72.123C72.123 11.2387 71.8001 10.2007 71.1545 9.4657C70.5089 8.73068 69.5802 8.36317 68.3684 8.36317C67.2659 8.36317 66.4117 8.67108 65.8058 9.28691C65.1999 9.90273 64.897 10.7669 64.897 11.8793C64.897 12.7931 65.2247 13.5579 65.8803 14.1738C66.5358 14.7896 67.549 15.3409 68.9197 15.8276C71.0552 16.5328 72.5799 17.4019 73.4937 18.4349C74.4174 19.4679 74.8793 20.8187 74.8793 22.4874C74.8793 24.2455 74.3081 25.6559 73.1659 26.7187C72.0236 27.7715 70.4692 28.298 68.5025 28.298C67.2411 28.298 66.074 28.0248 65.0013 27.4785C63.9385 26.9223 63.0992 26.1476 62.4833 25.1543C61.8774 24.1511 61.5745 23.0039 61.5745 21.7126H64.3159C64.3159 23.0535 64.6884 24.0965 65.4333 24.8414C66.1882 25.5864 67.2113 25.9588 68.5025 25.9588C69.7044 25.9588 70.6082 25.6509 71.2141 25.0351C71.82 24.4193 72.123 23.58 72.123 22.5172ZM80.9431 28H78.306V11.8793H80.9431V28ZM81.1517 7.60333C81.1517 8.05029 81.0276 8.42277 80.7793 8.72075C80.5309 9.01873 80.1535 9.16772 79.6469 9.16772C79.1503 9.16772 78.7778 9.01873 78.5295 8.72075C78.2812 8.42277 78.157 8.05029 78.157 7.60333C78.157 7.15636 78.2812 6.77892 78.5295 6.471C78.7778 6.16309 79.1503 6.00914 79.6469 6.00914C80.1436 6.00914 80.516 6.16806 80.7644 6.4859C81.0226 6.79382 81.1517 7.16629 81.1517 7.60333ZM87.5881 11.8793L87.6626 13.6225C88.6856 12.2617 89.9918 11.5813 91.581 11.5813C94.4317 11.5813 95.8769 13.4834 95.9166 17.2876V28H93.2944V17.4068C93.2944 16.1454 93.0808 15.2515 92.6537 14.725C92.2365 14.1887 91.6058 13.9205 90.7616 13.9205C90.106 13.9205 89.515 14.139 88.9886 14.576C88.4721 15.0131 88.0549 15.5842 87.7371 16.2894V28H85.0999V11.8793H87.5881ZM108.178 28C108.02 27.6524 107.905 27.0663 107.836 26.2419C106.902 27.6126 105.71 28.298 104.26 28.298C102.8 28.298 101.658 27.8907 100.833 27.0763C100.019 26.2519 99.6115 25.0947 99.6115 23.6048C99.6115 21.9659 100.168 20.6647 101.28 19.7013C102.393 18.7378 103.917 18.2461 105.854 18.2263H107.791V16.5129C107.791 15.5494 107.578 14.8641 107.15 14.4568C106.723 14.0496 106.073 13.846 105.199 13.846C104.404 13.846 103.758 14.0844 103.262 14.5611C102.765 15.028 102.517 15.6239 102.517 16.349H99.8797C99.8797 15.5246 100.123 14.7399 100.61 13.995C101.096 13.2401 101.752 12.6491 102.576 12.222C103.401 11.7949 104.32 11.5813 105.333 11.5813C106.982 11.5813 108.233 11.9936 109.087 12.818C109.951 13.6324 110.393 14.8244 110.413 16.3937V24.5285C110.423 25.7701 110.592 26.8478 110.92 27.7616V28H108.178ZM104.662 25.8992C105.308 25.8992 105.924 25.7205 106.51 25.3629C107.096 25.0053 107.523 24.5583 107.791 24.022V20.178H106.301C105.05 20.1979 104.061 20.481 103.336 21.0273C102.611 21.5636 102.249 22.3185 102.249 23.2919C102.249 24.2057 102.432 24.8712 102.8 25.2884C103.167 25.6956 103.788 25.8992 104.662 25.8992ZM117.356 28H114.719V11.8793H117.356V28ZM117.565 7.60333C117.565 8.05029 117.441 8.42277 117.192 8.72075C116.944 9.01873 116.567 9.16772 116.06 9.16772C115.563 9.16772 115.191 9.01873 114.943 8.72075C114.694 8.42277 114.57 8.05029 114.57 7.60333C114.57 7.15636 114.694 6.77892 114.943 6.471C115.191 6.16309 115.563 6.00914 116.06 6.00914C116.557 6.00914 116.929 6.16806 117.177 6.4859C117.436 6.79382 117.565 7.16629 117.565 7.60333Z" fill="#756B6B"/>
<path d="M6.73728 50.0223L5.29705 51.835V57H1.64681V38.9226H5.29705V46.8066L6.45172 44.8573L9.8164 38.9226H14.2861L9.1087 46.8687L14.373 57H10.0399L6.73728 50.0223ZM23.8338 38.7364V41.7162H23.6352C22.3191 41.7244 21.272 42.1217 20.494 42.9081C19.7242 43.6861 19.2565 44.7787 19.091 46.1858C19.8442 45.325 20.7878 44.8946 21.9218 44.8946C23.2296 44.8946 24.2725 45.4533 25.0506 46.5707C25.8369 47.6882 26.2301 49.178 26.2301 51.0404C26.2301 52.2241 26.0066 53.2918 25.5596 54.2437C25.1127 55.1956 24.4836 55.9364 23.6724 56.4661C22.8695 56.9876 21.9591 57.2483 20.941 57.2483C19.3021 57.2483 17.986 56.5903 16.9927 55.2742C16.0077 53.9581 15.5153 52.1868 15.5153 49.9602V48.6566C15.5153 46.6618 15.8256 44.9153 16.4464 43.4171C17.0755 41.9189 17.9777 40.7684 19.1531 39.9655C20.3367 39.1544 21.7149 38.7446 23.2875 38.7364H23.8338ZM20.8168 47.7999C20.3698 47.7999 19.9932 47.9406 19.687 48.222C19.389 48.5035 19.1655 48.8511 19.0165 49.265V50.5314C19.0165 51.8061 19.1862 52.7579 19.5256 53.387C19.8649 54.0161 20.3119 54.3306 20.8665 54.3306C21.4293 54.3306 21.8804 54.0285 22.2198 53.4243C22.5591 52.8117 22.7288 52.0295 22.7288 51.0777C22.7288 50.1092 22.5509 49.3229 22.195 48.7187C21.8473 48.1061 21.3879 47.7999 20.8168 47.7999ZM36.051 57H32.5249V43.1936L29.0857 44.5221V41.592L35.6785 38.8978H36.051V57ZM47.697 46.8687H51.2107V50.1341H47.697V55.1873H44.3696V50.1341H40.7938V46.8687H44.3696V42.0265H47.697V46.8687ZM61.6524 38.7364V41.7162H61.4537C60.1376 41.7244 59.0906 42.1217 58.3125 42.9081C57.5427 43.6861 57.0751 44.7787 56.9095 46.1858C57.6627 45.325 58.6063 44.8946 59.7403 44.8946C61.0481 44.8946 62.091 45.4533 62.8691 46.5707C63.6554 47.6882 64.0486 49.178 64.0486 51.0404C64.0486 52.2241 63.8251 53.2918 63.3782 54.2437C62.9312 55.1956 62.3021 55.9364 61.491 56.4661C60.6881 56.9876 59.7776 57.2483 58.7595 57.2483C57.1206 57.2483 55.8045 56.5903 54.8113 55.2742C53.8263 53.9581 53.3338 52.1868 53.3338 49.9602V48.6566C53.3338 46.6618 53.6442 44.9153 54.265 43.4171C54.894 41.9189 55.7962 40.7684 56.9716 39.9655C58.1552 39.1544 59.5334 38.7446 61.1061 38.7364H61.6524ZM58.6353 47.7999C58.1884 47.7999 57.8117 47.9406 57.5055 48.222C57.2075 48.5035 56.984 48.8511 56.835 49.265V50.5314C56.835 51.8061 57.0047 52.7579 57.3441 53.387C57.6834 54.0161 58.1304 54.3306 58.685 54.3306C59.2478 54.3306 59.6989 54.0285 60.0383 53.4243C60.3777 52.8117 60.5474 52.0295 60.5474 51.0777C60.5474 50.1092 60.3694 49.3229 60.0135 48.7187C59.6658 48.1061 59.2064 47.7999 58.6353 47.7999ZM72.9507 50.0099C72.2058 50.7714 71.3905 51.1522 70.5048 51.1522C69.1308 51.1522 68.0465 50.6017 67.2519 49.5009C66.4655 48.3917 66.0724 46.9142 66.0724 45.0684C66.0724 43.8765 66.2959 42.788 66.7428 41.8031C67.1898 40.8098 67.8106 40.04 68.6052 39.4937C69.4081 38.9474 70.302 38.6743 71.287 38.6743C72.3051 38.6743 73.2115 38.9764 74.0061 39.5806C74.8007 40.1849 75.4173 41.054 75.856 42.188C76.2947 43.3137 76.5141 44.5966 76.5141 46.0369V47.3157C76.5141 50.3948 75.8353 52.8035 74.4779 54.5417C73.1287 56.2716 71.2125 57.1531 68.7294 57.1862H68.3693V54.1568H68.6052C69.9792 54.1485 71.0097 53.7926 71.6967 53.089C72.392 52.3855 72.81 51.3591 72.9507 50.0099ZM71.3988 48.3959C72.0775 48.3959 72.6114 47.9323 73.0004 47.0053V45.3912C73.0004 44.2076 72.839 43.2805 72.5162 42.6101C72.1934 41.9314 71.7754 41.592 71.2622 41.592C70.7573 41.592 70.3476 41.9272 70.033 42.5977C69.7268 43.2598 69.5736 44.071 69.5736 45.0312C69.5736 46.0741 69.735 46.8977 70.0578 47.5019C70.3807 48.0979 70.8276 48.3959 71.3988 48.3959ZM79.3573 48.1103L80.2512 38.9226H89.0044V41.9272H83.1317L82.8089 45.8009C83.4876 45.3457 84.187 45.1181 84.9072 45.1181C86.3971 45.1181 87.5434 45.6478 88.3463 46.7073C89.1575 47.7668 89.5631 49.265 89.5631 51.2018C89.5631 53.0145 89.083 54.4755 88.1228 55.5846C87.1627 56.6937 85.8797 57.2483 84.2739 57.2483C83.3221 57.2483 82.4405 57.0248 81.6294 56.5779C80.8182 56.1226 80.1767 55.4935 79.7049 54.6907C79.2414 53.8878 79.0055 52.9773 78.9972 51.9592H82.4737C82.5316 52.7124 82.7178 53.296 83.0324 53.7098C83.3469 54.1237 83.7525 54.3306 84.2491 54.3306C84.8285 54.3306 85.2755 54.0533 85.59 53.4987C85.9046 52.9359 86.0618 52.0999 86.0618 50.9908C86.0618 49.9478 85.8714 49.1615 85.4907 48.6318C85.1182 48.102 84.5926 47.8371 83.9139 47.8371C83.2517 47.8371 82.7385 48.0648 82.3743 48.52L82.1508 48.8304L79.3573 48.1103ZM92.2449 55.2121C92.2449 54.6493 92.4311 54.1858 92.8036 53.8216C93.1843 53.4574 93.6768 53.2753 94.2811 53.2753C94.8688 53.2753 95.3571 53.4574 95.7461 53.8216C96.1352 54.1775 96.3297 54.641 96.3297 55.2121C96.3297 55.7915 96.131 56.2592 95.7337 56.6151C95.3447 56.9628 94.8605 57.1366 94.2811 57.1366C93.6934 57.1366 93.205 56.9586 92.816 56.6027C92.4353 56.2468 92.2449 55.7833 92.2449 55.2121ZM99.6199 48.1103L100.514 38.9226H109.267V41.9272H103.394L103.071 45.8009C103.75 45.3457 104.45 45.1181 105.17 45.1181C106.66 45.1181 107.806 45.6478 108.609 46.7073C109.42 47.7668 109.826 49.265 109.826 51.2018C109.826 53.0145 109.346 54.4755 108.385 55.5846C107.425 56.6937 106.142 57.2483 104.537 57.2483C103.585 57.2483 102.703 57.0248 101.892 56.5779C101.081 56.1226 100.439 55.4935 99.9675 54.6907C99.504 53.8878 99.2681 52.9773 99.2598 51.9592H102.736C102.794 52.7124 102.98 53.296 103.295 53.7098C103.609 54.1237 104.015 54.3306 104.512 54.3306C105.091 54.3306 105.538 54.0533 105.853 53.4987C106.167 52.9359 106.324 52.0999 106.324 50.9908C106.324 49.9478 106.134 49.1615 105.753 48.6318C105.381 48.102 104.855 47.8371 104.176 47.8371C103.514 47.8371 103.001 48.0648 102.637 48.52L102.413 48.8304L99.6199 48.1103ZM122.254 43.7275C122.254 44.6049 122.068 45.383 121.695 46.0617C121.323 46.7404 120.81 47.2826 120.156 47.6882C120.901 48.1103 121.488 48.6938 121.919 49.4388C122.349 50.1754 122.564 51.0446 122.564 52.0461C122.564 53.6519 122.101 54.9224 121.174 55.8577C120.247 56.7848 118.984 57.2483 117.387 57.2483C115.789 57.2483 114.519 56.7848 113.575 55.8577C112.632 54.9224 112.16 53.6519 112.16 52.0461C112.16 51.0446 112.375 50.1713 112.805 49.4264C113.236 48.6814 113.828 48.102 114.581 47.6882C113.919 47.2826 113.401 46.7404 113.029 46.0617C112.656 45.383 112.47 44.6049 112.47 43.7275C112.47 42.1466 112.913 40.9091 113.799 40.0152C114.684 39.1213 115.872 38.6743 117.362 38.6743C118.869 38.6743 120.06 39.1254 120.938 40.0276C121.815 40.9298 122.254 42.1631 122.254 43.7275ZM117.387 54.3306C117.917 54.3306 118.322 54.1071 118.604 53.6602C118.893 53.2049 119.038 52.5758 119.038 51.7729C119.038 50.9701 118.889 50.341 118.591 49.8857C118.293 49.4305 117.884 49.2029 117.362 49.2029C116.841 49.2029 116.427 49.4305 116.12 49.8857C115.822 50.341 115.674 50.9701 115.674 51.7729C115.674 52.5758 115.822 53.2049 116.12 53.6602C116.427 54.1071 116.849 54.3306 117.387 54.3306ZM118.753 43.9137C118.753 43.2102 118.637 42.6473 118.405 42.2252C118.181 41.8031 117.834 41.592 117.362 41.592C116.915 41.592 116.576 41.7989 116.344 42.2128C116.112 42.6184 115.996 43.1854 115.996 43.9137C115.996 44.6256 116.112 45.2009 116.344 45.6395C116.576 46.07 116.923 46.2852 117.387 46.2852C117.85 46.2852 118.194 46.07 118.417 45.6395C118.641 45.2009 118.753 44.6256 118.753 43.9137Z" fill="#756B6B"/>
</svg>
