<svg width="163" height="63" viewBox="0 0 163 63" fill="none" xmlns="http://www.w3.org/2000/svg">
<path d="M5.56001 19.5076V28H2.8335V6.30712H9.74662C11.7629 6.30712 13.3472 6.91301 14.4994 8.12479C15.6516 9.32664 16.2277 10.9308 16.2277 12.9372C16.2277 15.023 15.6764 16.6321 14.5739 17.7644C13.4813 18.8868 11.9368 19.4679 9.9403 19.5076H5.56001ZM5.56001 17.1685H9.74662C10.9584 17.1685 11.8871 16.8059 12.5327 16.0808C13.1783 15.3558 13.5012 14.3178 13.5012 12.967C13.5012 11.6658 13.1684 10.6228 12.5029 9.83817C11.8374 9.05349 10.9236 8.66115 9.76151 8.66115H5.56001V17.1685ZM29.2345 22.5172C29.2345 21.4345 28.9414 20.6052 28.3554 20.0291C27.7694 19.453 26.7116 18.8918 25.1819 18.3455C23.6523 17.7992 22.4803 17.2281 21.6658 16.6321C20.8612 16.0262 20.2553 15.3409 19.8481 14.576C19.4508 13.8013 19.2522 12.9173 19.2522 11.924C19.2522 10.2057 19.8233 8.79028 20.9655 7.67782C22.1177 6.56536 23.6225 6.00914 25.4799 6.00914C26.7513 6.00914 27.8836 6.29718 28.8769 6.87328C29.8701 7.43944 30.635 8.22908 31.1713 9.24221C31.7077 10.2553 31.9759 11.3678 31.9759 12.5796H29.2345C29.2345 11.2387 28.9116 10.2007 28.266 9.4657C27.6204 8.73068 26.6917 8.36317 25.4799 8.36317C24.3774 8.36317 23.5232 8.67108 22.9173 9.28691C22.3114 9.90273 22.0085 10.7669 22.0085 11.8793C22.0085 12.7931 22.3362 13.5579 22.9918 14.1738C23.6473 14.7896 24.6605 15.3409 26.0312 15.8276C28.1667 16.5328 29.6914 17.4019 30.6052 18.4349C31.5289 19.4679 31.9908 20.8187 31.9908 22.4874C31.9908 24.2455 31.4196 25.6559 30.2774 26.7187C29.1351 27.7715 27.5807 28.298 25.614 28.298C24.3526 28.298 23.1855 28.0248 22.1128 27.4785C21.05 26.9223 20.2107 26.1476 19.5948 25.1543C18.9889 24.1511 18.686 23.0039 18.686 21.7126H21.4274C21.4274 23.0535 21.7999 24.0965 22.5448 24.8414C23.2997 25.5864 24.3228 25.9588 25.614 25.9588C26.8159 25.9588 27.7197 25.6509 28.3256 25.0351C28.9315 24.4193 29.2345 23.58 29.2345 22.5172ZM41.7794 23.8134L46.7407 6.30712H49.7354L42.9862 28H40.6024L33.868 6.30712H36.8478L41.7794 23.8134ZM62.4293 25.6609H70.9366V28H59.6879V6.30712H62.4293V25.6609ZM82.1258 28C81.9668 27.6524 81.8526 27.0663 81.7831 26.2419C80.8494 27.6126 79.6575 28.298 78.2073 28.298C76.7472 28.298 75.605 27.8907 74.7806 27.0763C73.9661 26.2519 73.5589 25.0947 73.5589 23.6048C73.5589 21.9659 74.1151 20.6647 75.2275 19.7013C76.34 18.7378 77.8647 18.2461 79.8015 18.2263H81.7384V16.5129C81.7384 15.5494 81.5248 14.8641 81.0977 14.4568C80.6706 14.0496 80.02 13.846 79.146 13.846C78.3514 13.846 77.7057 14.0844 77.2091 14.5611C76.7125 15.028 76.4642 15.6239 76.4642 16.349H73.827C73.827 15.5246 74.0704 14.7399 74.5571 13.995C75.0438 13.2401 75.6993 12.6491 76.5237 12.222C77.3482 11.7949 78.2669 11.5813 79.2801 11.5813C80.9289 11.5813 82.1804 11.9936 83.0346 12.818C83.8987 13.6324 84.3407 14.8244 84.3606 16.3937V24.5285C84.3705 25.7701 84.5394 26.8478 84.8672 27.7616V28H82.1258ZM78.6096 25.8992C79.2552 25.8992 79.871 25.7205 80.4571 25.3629C81.0431 25.0053 81.4702 24.5583 81.7384 24.022V20.178H80.2485C78.997 20.1979 78.0087 20.481 77.2836 21.0273C76.5585 21.5636 76.196 22.3185 76.196 23.2919C76.196 24.2057 76.3797 24.8712 76.7472 25.2884C77.1147 25.6956 77.7355 25.8992 78.6096 25.8992ZM108.765 6.30712V21.7275C108.745 23.7836 108.149 25.3927 106.977 26.5548C105.805 27.7169 104.171 28.298 102.075 28.298C99.93 28.298 98.2911 27.7318 97.1588 26.5995C96.0265 25.4572 95.4504 23.8333 95.4305 21.7275V6.30712H98.1421V21.6232C98.1421 23.0833 98.45 24.1759 99.0659 24.901C99.6916 25.6162 100.695 25.9737 102.075 25.9737C103.466 25.9737 104.469 25.6162 105.085 24.901C105.711 24.1759 106.024 23.0833 106.024 21.6232V6.30712H108.765ZM115.082 11.8793L115.157 13.6225C116.18 12.2617 117.486 11.5813 119.075 11.5813C121.926 11.5813 123.371 13.4834 123.411 17.2876V28H120.789V17.4068C120.789 16.1454 120.575 15.2515 120.148 14.725C119.731 14.1887 119.1 13.9205 118.256 13.9205C117.6 13.9205 117.009 14.139 116.483 14.576C115.966 15.0131 115.549 15.5842 115.231 16.2894V28H112.594V11.8793H115.082ZM130.22 28H127.582V11.8793H130.22V28ZM130.428 7.60333C130.428 8.05029 130.304 8.42277 130.056 8.72075C129.807 9.01873 129.43 9.16772 128.923 9.16772C128.427 9.16772 128.054 9.01873 127.806 8.72075C127.558 8.42277 127.433 8.05029 127.433 7.60333C127.433 7.15636 127.558 6.77892 127.806 6.471C128.054 6.16309 128.427 6.00914 128.923 6.00914C129.42 6.00914 129.792 6.16806 130.041 6.4859C130.299 6.79382 130.428 7.16629 130.428 7.60333ZM133.825 19.1947C133.825 16.8506 134.391 14.9982 135.524 13.6374C136.666 12.2667 138.171 11.5813 140.038 11.5813C141.905 11.5813 143.405 12.2468 144.537 13.5778C145.68 14.9088 146.266 16.7215 146.296 19.0159V20.7144C146.296 23.0486 145.729 24.8961 144.597 26.2568C143.465 27.6176 141.955 28.298 140.068 28.298C138.2 28.298 136.701 27.6375 135.568 26.3164C134.446 24.9954 133.865 23.2075 133.825 20.9528V19.1947ZM136.462 20.7144C136.462 22.3732 136.785 23.6793 137.431 24.6328C138.086 25.5764 138.965 26.0482 140.068 26.0482C142.392 26.0482 143.589 24.3696 143.658 21.0124V19.1947C143.658 17.5459 143.331 16.2447 142.675 15.2912C142.02 14.3277 141.141 13.846 140.038 13.846C138.955 13.846 138.086 14.3277 137.431 15.2912C136.785 16.2447 136.462 17.5409 136.462 19.1798V20.7144ZM141.275 5.1152H144.612L140.619 9.49549H138.399L141.275 5.1152ZM152.181 11.8793L152.255 13.6225C153.278 12.2617 154.584 11.5813 156.174 11.5813C159.024 11.5813 160.469 13.4834 160.509 17.2876V28H157.887V17.4068C157.887 16.1454 157.673 15.2515 157.246 14.725C156.829 14.1887 156.198 13.9205 155.354 13.9205C154.699 13.9205 154.108 14.139 153.581 14.576C153.065 15.0131 152.647 15.5842 152.33 16.2894V28H149.693V11.8793H152.181Z" fill="#756B6B"/>
<path d="M23.7373 50.0223L22.297 51.835V57H18.6468V38.9226H22.297V46.8066L23.4517 44.8573L26.8164 38.9226H31.2861L26.1087 46.8687L31.373 57H27.0399L23.7373 50.0223ZM32.8132 48.1103L33.7072 38.9226H42.4603V41.9272H36.5876L36.2648 45.8009C36.9436 45.3457 37.643 45.1181 38.3631 45.1181C39.853 45.1181 40.9994 45.6478 41.8023 46.7073C42.6134 47.7668 43.019 49.265 43.019 51.2018C43.019 53.0145 42.5389 54.4755 41.5788 55.5846C40.6186 56.6937 39.3357 57.2483 37.7299 57.2483C36.778 57.2483 35.8965 57.0248 35.0853 56.5779C34.2742 56.1226 33.6327 55.4935 33.1609 54.6907C32.6974 53.8878 32.4615 52.9773 32.4532 51.9592H35.9296C35.9875 52.7124 36.1738 53.296 36.4883 53.7098C36.8028 54.1237 37.2084 54.3306 37.7051 54.3306C38.2845 54.3306 38.7314 54.0533 39.046 53.4987C39.3605 52.9359 39.5178 52.0999 39.5178 50.9908C39.5178 49.9478 39.3274 49.1615 38.9466 48.6318C38.5742 48.102 38.0486 47.8371 37.3698 47.8371C36.7077 47.8371 36.1945 48.0648 35.8303 48.52L35.6068 48.8304L32.8132 48.1103ZM55.9687 57H45.3159V54.5168L50.2078 48.2965C50.8286 47.4357 51.2838 46.6825 51.5735 46.0369C51.8715 45.383 52.0205 44.758 52.0205 44.1621C52.0205 43.3592 51.8798 42.7301 51.5983 42.2749C51.3252 41.8196 50.9279 41.592 50.4064 41.592C49.8353 41.592 49.38 41.8569 49.0407 42.3866C48.7096 42.9163 48.544 43.6613 48.544 44.6214H45.018C45.018 43.5123 45.2456 42.4983 45.7008 41.5796C46.1644 40.6608 46.81 39.949 47.6377 39.4441C48.4737 38.9309 49.4173 38.6743 50.4685 38.6743C52.0826 38.6743 53.3324 39.1213 54.2181 40.0152C55.112 40.9008 55.559 42.1631 55.559 43.802C55.559 44.8201 55.3107 45.8548 54.814 46.906C54.3257 47.9489 53.4359 49.236 52.1446 50.7673L49.8229 54.0823H55.9687V57ZM64.697 46.8687H68.2107V50.1341H64.697V55.1873H61.3696V50.1341H57.7938V46.8687H61.3696V42.0265H64.697V46.8687ZM78.6524 38.7364V41.7162H78.4537C77.1376 41.7244 76.0906 42.1217 75.3125 42.9081C74.5427 43.6861 74.0751 44.7787 73.9095 46.1858C74.6627 45.325 75.6063 44.8946 76.7403 44.8946C78.0481 44.8946 79.091 45.4533 79.8691 46.5707C80.6554 47.6882 81.0486 49.178 81.0486 51.0404C81.0486 52.2241 80.8251 53.2918 80.3782 54.2437C79.9312 55.1956 79.3021 55.9364 78.491 56.4661C77.6881 56.9876 76.7776 57.2483 75.7595 57.2483C74.1206 57.2483 72.8045 56.5903 71.8113 55.2742C70.8263 53.9581 70.3338 52.1868 70.3338 49.9602V48.6566C70.3338 46.6618 70.6442 44.9153 71.265 43.4171C71.894 41.9189 72.7962 40.7684 73.9716 39.9655C75.1552 39.1544 76.5334 38.7446 78.1061 38.7364H78.6524ZM75.6353 47.7999C75.1884 47.7999 74.8117 47.9406 74.5055 48.222C74.2075 48.5035 73.984 48.8511 73.835 49.265V50.5314C73.835 51.8061 74.0047 52.7579 74.3441 53.387C74.6834 54.0161 75.1304 54.3306 75.685 54.3306C76.2478 54.3306 76.6989 54.0285 77.0383 53.4243C77.3777 52.8117 77.5474 52.0295 77.5474 51.0777C77.5474 50.1092 77.3694 49.3229 77.0135 48.7187C76.6658 48.1061 76.2064 47.7999 75.6353 47.7999ZM89.9507 50.0099C89.2058 50.7714 88.3905 51.1522 87.5048 51.1522C86.1308 51.1522 85.0465 50.6017 84.2519 49.5009C83.4655 48.3917 83.0724 46.9142 83.0724 45.0684C83.0724 43.8765 83.2959 42.788 83.7428 41.8031C84.1898 40.8098 84.8106 40.04 85.6052 39.4937C86.4081 38.9474 87.302 38.6743 88.287 38.6743C89.3051 38.6743 90.2115 38.9764 91.0061 39.5806C91.8007 40.1849 92.4173 41.054 92.856 42.188C93.2947 43.3137 93.5141 44.5966 93.5141 46.0369V47.3157C93.5141 50.3948 92.8353 52.8035 91.4779 54.5417C90.1287 56.2716 88.2125 57.1531 85.7294 57.1862H85.3693V54.1568H85.6052C86.9792 54.1485 88.0097 53.7926 88.6967 53.089C89.392 52.3855 89.81 51.3591 89.9507 50.0099ZM88.3988 48.3959C89.0775 48.3959 89.6114 47.9323 90.0004 47.0053V45.3912C90.0004 44.2076 89.839 43.2805 89.5162 42.6101C89.1934 41.9314 88.7754 41.592 88.2622 41.592C87.7573 41.592 87.3476 41.9272 87.033 42.5977C86.7268 43.2598 86.5736 44.071 86.5736 45.0312C86.5736 46.0741 86.735 46.8977 87.0578 47.5019C87.3807 48.0979 87.8276 48.3959 88.3988 48.3959ZM102.814 50.0099C102.069 50.7714 101.253 51.1522 100.368 51.1522C98.9936 51.1522 97.9093 50.6017 97.1147 49.5009C96.3283 48.3917 95.9352 46.9142 95.9352 45.0684C95.9352 43.8765 96.1586 42.788 96.6056 41.8031C97.0526 40.8098 97.6734 40.04 98.468 39.4937C99.2709 38.9474 100.165 38.6743 101.15 38.6743C102.168 38.6743 103.074 38.9764 103.869 39.5806C104.663 40.1849 105.28 41.054 105.719 42.188C106.157 43.3137 106.377 44.5966 106.377 46.0369V47.3157C106.377 50.3948 105.698 52.8035 104.341 54.5417C102.991 56.2716 101.075 57.1531 98.5921 57.1862H98.2321V54.1568H98.468C99.842 54.1485 100.873 53.7926 101.56 53.089C102.255 52.3855 102.673 51.3591 102.814 50.0099ZM101.262 48.3959C101.94 48.3959 102.474 47.9323 102.863 47.0053V45.3912C102.863 44.2076 102.702 43.2805 102.379 42.6101C102.056 41.9314 101.638 41.592 101.125 41.592C100.62 41.592 100.21 41.9272 99.8958 42.5977C99.5895 43.2598 99.4364 44.071 99.4364 45.0312C99.4364 46.0741 99.5978 46.8977 99.9206 47.5019C100.243 48.0979 100.69 48.3959 101.262 48.3959ZM109.245 55.2121C109.245 54.6493 109.431 54.1858 109.804 53.8216C110.184 53.4574 110.677 53.2753 111.281 53.2753C111.869 53.2753 112.357 53.4574 112.746 53.8216C113.135 54.1775 113.33 54.641 113.33 55.2121C113.33 55.7915 113.131 56.2592 112.734 56.6151C112.345 56.9628 111.86 57.1366 111.281 57.1366C110.693 57.1366 110.205 56.9586 109.816 56.6027C109.435 56.2468 109.245 55.7833 109.245 55.2121ZM124.64 38.7364V41.7162H124.442C123.126 41.7244 122.079 42.1217 121.301 42.9081C120.531 43.6861 120.063 44.7787 119.898 46.1858C120.651 45.325 121.594 44.8946 122.728 44.8946C124.036 44.8946 125.079 45.4533 125.857 46.5707C126.644 47.6882 127.037 49.178 127.037 51.0404C127.037 52.2241 126.813 53.2918 126.366 54.2437C125.919 55.1956 125.29 55.9364 124.479 56.4661C123.676 56.9876 122.766 57.2483 121.748 57.2483C120.109 57.2483 118.793 56.5903 117.799 55.2742C116.814 53.9581 116.322 52.1868 116.322 49.9602V48.6566C116.322 46.6618 116.632 44.9153 117.253 43.4171C117.882 41.9189 118.784 40.7684 119.96 39.9655C121.143 39.1544 122.522 38.7446 124.094 38.7364H124.64ZM121.623 47.7999C121.176 47.7999 120.8 47.9406 120.494 48.222C120.196 48.5035 119.972 48.8511 119.823 49.265V50.5314C119.823 51.8061 119.993 52.7579 120.332 53.387C120.672 54.0161 121.119 54.3306 121.673 54.3306C122.236 54.3306 122.687 54.0285 123.026 53.4243C123.366 52.8117 123.535 52.0295 123.535 51.0777C123.535 50.1092 123.358 49.3229 123.002 48.7187C122.654 48.1061 122.195 47.7999 121.623 47.7999ZM136.858 57H133.332V43.1936L129.892 44.5221V41.592L136.485 38.8978H136.858V57Z" fill="#756B6B"/>
</svg>
