<svg width="54" height="60" viewBox="0 0 54 60" fill="none" xmlns="http://www.w3.org/2000/svg">
<path d="M30.4843 58.6891C30.2928 58.9112 30.1302 59.0977 29.9999 59.2462C29.8609 59.0877 29.685 58.886 29.4765 58.6439C28.905 57.9806 28.0879 57.0147 27.107 55.806C25.1447 53.3882 22.5291 50.0018 19.9145 46.1266C17.2989 42.25 14.6905 37.8932 12.7376 33.5339C10.7816 29.168 9.5 24.8363 9.5 21C9.5 19.4537 9.70427 17.9304 10.0283 16.4574L10.0871 16.19L9.89355 15.9964L0.707107 6.81L3.81 3.70711L28.5364 28.4335L28.8664 28.7636L42.7564 42.6536L53.2929 53.19L50.19 56.2929L40.4936 46.5964L40.0675 46.1704L39.7273 46.6677C37.1722 50.4033 34.6461 53.6543 32.7586 55.9717C31.815 57.1302 31.0315 58.0547 30.4843 58.6891ZM38 21C38 16.5839 34.4161 13 30 13C27.8183 13 25.8801 13.8698 24.4397 15.3026L15.5857 6.44864C19.3087 2.7834 24.38 0.5 30 0.5C41.3339 0.5 50.5 9.66614 50.5 21C50.5 25.7387 48.5363 31.2354 45.7715 36.6044L35.721 26.5539C37.1032 25.1184 38 23.1842 38 21Z" fill="#FF0000" stroke="white"/>
</svg>
