<svg width="162" height="102" viewBox="0 0 162 102" fill="none" xmlns="http://www.w3.org/2000/svg">
<path d="M57.6384 19.5076V28H54.9119V6.30712H61.825C63.8414 6.30712 65.4256 6.91301 66.5778 8.12479C67.73 9.32664 68.3061 10.9308 68.3061 12.9372C68.3061 15.023 67.7548 16.6321 66.6523 17.7644C65.5597 18.8868 64.0152 19.4679 62.0187 19.5076H57.6384ZM57.6384 17.1685H61.825C63.0368 17.1685 63.9655 16.8059 64.6111 16.0808C65.2568 15.3558 65.5796 14.3178 65.5796 12.967C65.5796 11.6658 65.2468 10.6228 64.5813 9.83817C63.9159 9.05349 63.0021 8.66115 61.8399 8.66115H57.6384V17.1685ZM81.3129 22.5172C81.3129 21.4345 81.0199 20.6052 80.4338 20.0291C79.8478 19.453 78.79 18.8918 77.2604 18.3455C75.7307 17.7992 74.5587 17.2281 73.7442 16.6321C72.9397 16.0262 72.3338 15.3409 71.9265 14.576C71.5292 13.8013 71.3306 12.9173 71.3306 11.924C71.3306 10.2057 71.9017 8.79028 73.044 7.67782C74.1961 6.56536 75.7009 6.00914 77.5583 6.00914C78.8297 6.00914 79.962 6.29718 80.9553 6.87328C81.9486 7.43944 82.7134 8.22908 83.2497 9.24221C83.7861 10.2553 84.0543 11.3678 84.0543 12.5796H81.3129C81.3129 11.2387 80.9901 10.2007 80.3444 9.4657C79.6988 8.73068 78.7701 8.36317 77.5583 8.36317C76.4558 8.36317 75.6016 8.67108 74.9957 9.28691C74.3898 9.90273 74.0869 10.7669 74.0869 11.8793C74.0869 12.7931 74.4147 13.5579 75.0702 14.1738C75.7258 14.7896 76.7389 15.3409 78.1096 15.8276C80.2451 16.5328 81.7698 17.4019 82.6836 18.4349C83.6073 19.4679 84.0692 20.8187 84.0692 22.4874C84.0692 24.2455 83.4981 25.6559 82.3558 26.7187C81.2135 27.7715 79.6591 28.298 77.6924 28.298C76.431 28.298 75.2639 28.0248 74.1912 27.4785C73.1284 26.9223 72.2891 26.1476 71.6732 25.1543C71.0674 24.1511 70.7644 23.0039 70.7644 21.7126H73.5058C73.5058 23.0535 73.8783 24.0965 74.6232 24.8414C75.3781 25.5864 76.4012 25.9588 77.6924 25.9588C78.8943 25.9588 79.7981 25.6509 80.404 25.0351C81.0099 24.4193 81.3129 23.58 81.3129 22.5172ZM93.8578 23.8134L98.8192 6.30712H101.814L95.0646 28H92.6808L85.9465 6.30712H88.9262L93.8578 23.8134ZM15.1019 44.6612H9.3956V64H6.6691V44.6612H0.977693V42.3071H15.1019V44.6612ZM15.8916 55.1947C15.8916 52.8506 16.4577 50.9982 17.59 49.6374C18.7323 48.2667 20.2371 47.5813 22.1044 47.5813C23.9718 47.5813 25.4716 48.2468 26.6039 49.5778C27.7462 50.9088 28.3322 52.7215 28.362 55.0159V56.7144C28.362 59.0486 27.7958 60.8961 26.6635 62.2568C25.5312 63.6176 24.0214 64.298 22.1342 64.298C20.2669 64.298 18.767 63.6375 17.6347 62.3164C16.5123 60.9954 15.9313 59.2075 15.8916 56.9528V55.1947ZM18.5287 56.7144C18.5287 58.3732 18.8515 59.6793 19.4971 60.6328C20.1527 61.5764 21.0317 62.0482 22.1342 62.0482C24.4585 62.0482 25.6553 60.3696 25.7249 57.0124V55.1947C25.7249 53.5459 25.3971 52.2447 24.7415 51.2912C24.086 50.3277 23.2069 49.846 22.1044 49.846C21.0218 49.846 20.1527 50.3277 19.4971 51.2912C18.8515 52.2447 18.5287 53.5409 18.5287 55.1798V56.7144ZM38.4188 50.3526C38.0513 50.283 37.654 50.2483 37.2269 50.2483C35.876 50.2483 34.9324 50.9882 34.3961 52.4682V64H31.7589V47.8793H34.3216L34.3663 49.5182C35.0715 48.227 36.0697 47.5813 37.3609 47.5813C37.7781 47.5813 38.1258 47.6509 38.4039 47.7899L38.4188 50.3526ZM40.2067 55.1947C40.2067 52.8506 40.7728 50.9982 41.9051 49.6374C43.0474 48.2667 44.5522 47.5813 46.4195 47.5813C48.2869 47.5813 49.7867 48.2468 50.919 49.5778C52.0613 50.9088 52.6473 52.7215 52.6771 55.0159V56.7144C52.6771 59.0486 52.1109 60.8961 50.9786 62.2568C49.8463 63.6176 48.3365 64.298 46.4493 64.298C44.582 64.298 43.0822 63.6375 41.9498 62.3164C40.8274 60.9954 40.2464 59.2075 40.2067 56.9528V55.1947ZM42.8438 56.7144C42.8438 58.3732 43.1666 59.6793 43.8122 60.6328C44.4678 61.5764 45.3468 62.0482 46.4493 62.0482C48.7736 62.0482 49.9704 60.3696 50.04 57.0124V55.1947C50.04 53.5459 49.7122 52.2447 49.0566 51.2912C48.4011 50.3277 47.522 49.846 46.4195 49.846C45.3369 49.846 44.4678 50.3277 43.8122 51.2912C43.1666 52.2447 42.8438 53.5409 42.8438 55.1798V56.7144ZM73.5654 58.3384H66.2351L64.5515 64H61.7505L68.7382 42.3071H71.0773L78.0798 64H75.2788L73.5654 58.3384ZM66.9503 55.9844H72.8652L69.9003 46.1212L66.9503 55.9844ZM83.1454 47.8793L83.205 49.3692C84.1884 48.1773 85.4846 47.5813 87.0937 47.5813C88.8915 47.5813 90.148 48.3611 90.8631 49.9205C91.8762 48.3611 93.2867 47.5813 95.0944 47.5813C98.0643 47.5813 99.584 49.4338 99.6535 53.1387V64H97.0313V53.3919C97.0313 52.2199 96.8227 51.3508 96.4055 50.7846C95.9883 50.2085 95.2831 49.9205 94.2899 49.9205C93.4953 49.9205 92.8496 50.2284 92.353 50.8442C91.8564 51.46 91.5683 52.2447 91.4889 53.1983V64H88.8368V53.2727C88.8071 51.0379 87.8982 49.9205 86.1103 49.9205C84.7794 49.9205 83.8407 50.586 83.2944 51.9169V64H80.6722V47.8793H83.1454ZM111.93 64C111.771 63.6524 111.657 63.0663 111.588 62.2419C110.654 63.6126 109.462 64.298 108.012 64.298C106.552 64.298 105.409 63.8907 104.585 63.0763C103.771 62.2519 103.363 61.0947 103.363 59.6048C103.363 57.9659 103.92 56.6647 105.032 55.7013C106.144 54.7378 107.669 54.2461 109.606 54.2263H111.543V52.5129C111.543 51.5494 111.329 50.8641 110.902 50.4568C110.475 50.0496 109.825 49.846 108.95 49.846C108.156 49.846 107.51 50.0844 107.014 50.5611C106.517 51.028 106.269 51.6239 106.269 52.349H103.632C103.632 51.5246 103.875 50.7399 104.362 49.995C104.848 49.2401 105.504 48.6491 106.328 48.222C107.153 47.7949 108.071 47.5813 109.085 47.5813C110.733 47.5813 111.985 47.9936 112.839 48.818C113.703 49.6324 114.145 50.8244 114.165 52.3937V60.5285C114.175 61.7701 114.344 62.8478 114.672 63.7616V64H111.93ZM108.414 61.8992C109.06 61.8992 109.676 61.7205 110.262 61.3629C110.848 61.0053 111.275 60.5583 111.543 60.022V56.178H110.053C108.801 56.1979 107.813 56.481 107.088 57.0273C106.363 57.5636 106 58.3185 106 59.2919C106 60.2057 106.184 60.8712 106.552 61.2884C106.919 61.6956 107.54 61.8992 108.414 61.8992ZM124.922 50.3526C124.555 50.283 124.157 50.2483 123.73 50.2483C122.379 50.2483 121.436 50.9882 120.899 52.4682V64H118.262V47.8793H120.825L120.87 49.5182C121.575 48.227 122.573 47.5813 123.864 47.5813C124.281 47.5813 124.629 47.6509 124.907 47.7899L124.922 50.3526ZM130.405 64H127.768V47.8793H130.405V64ZM130.614 43.6033C130.614 44.0503 130.489 44.4228 130.241 44.7207C129.993 45.0187 129.615 45.1677 129.109 45.1677C128.612 45.1677 128.24 45.0187 127.991 44.7207C127.743 44.4228 127.619 44.0503 127.619 43.6033C127.619 43.1564 127.743 42.7789 127.991 42.471C128.24 42.1631 128.612 42.0091 129.109 42.0091C129.605 42.0091 129.978 42.1681 130.226 42.4859C130.484 42.7938 130.614 43.1663 130.614 43.6033ZM137.407 64H134.77V41.1152H137.407V64ZM144.41 64H141.773V41.1152H144.41V64ZM148.016 55.1947C148.016 52.8506 148.582 50.9982 149.714 49.6374C150.856 48.2667 152.361 47.5813 154.228 47.5813C156.096 47.5813 157.596 48.2468 158.728 49.5778C159.87 50.9088 160.456 52.7215 160.486 55.0159V56.7144C160.486 59.0486 159.92 60.8961 158.787 62.2568C157.655 63.6176 156.145 64.298 154.258 64.298C152.391 64.298 150.891 63.6375 149.759 62.3164C148.636 60.9954 148.055 59.2075 148.016 56.9528V55.1947ZM150.653 56.7144C150.653 58.3732 150.975 59.6793 151.621 60.6328C152.277 61.5764 153.156 62.0482 154.258 62.0482C156.582 62.0482 157.779 60.3696 157.849 57.0124V55.1947C157.849 53.5459 157.521 52.2447 156.865 51.2912C156.21 50.3277 155.331 49.846 154.228 49.846C153.146 49.846 152.277 50.3277 151.621 51.2912C150.975 52.2447 150.653 53.5409 150.653 55.1798V56.7144Z" fill="#756B6B"/>
<path d="M21.7373 89.0223L20.297 90.835V96H16.6468V77.9226H20.297V85.8066L21.4517 83.8573L24.8164 77.9226H29.2861L24.1087 85.8687L29.373 96H25.0399L21.7373 89.0223ZM30.8132 87.1103L31.7072 77.9226H40.4603V80.9272H34.5876L34.2648 84.8009C34.9436 84.3457 35.643 84.1181 36.3631 84.1181C37.853 84.1181 38.9994 84.6478 39.8023 85.7073C40.6134 86.7668 41.019 88.265 41.019 90.2018C41.019 92.0145 40.5389 93.4755 39.5788 94.5846C38.6186 95.6937 37.3357 96.2483 35.7299 96.2483C34.778 96.2483 33.8965 96.0248 33.0853 95.5779C32.2742 95.1226 31.6327 94.4935 31.1609 93.6907C30.6974 92.8878 30.4615 91.9773 30.4532 90.9592H33.9296C33.9875 91.7124 34.1738 92.296 34.4883 92.7098C34.8028 93.1237 35.2084 93.3306 35.7051 93.3306C36.2845 93.3306 36.7314 93.0533 37.046 92.4987C37.3605 91.9359 37.5178 91.0999 37.5178 89.9908C37.5178 88.9478 37.3274 88.1615 36.9466 87.6318C36.5742 87.102 36.0486 86.8371 35.3698 86.8371C34.7077 86.8371 34.1945 87.0648 33.8303 87.52L33.6068 87.8304L30.8132 87.1103ZM50.1322 89.0099C49.3873 89.7714 48.572 90.1522 47.6863 90.1522C46.3123 90.1522 45.228 89.6017 44.4334 88.5009C43.647 87.3917 43.2539 85.9142 43.2539 84.0684C43.2539 82.8765 43.4773 81.788 43.9243 80.8031C44.3713 79.8098 44.9921 79.04 45.7867 78.4937C46.5896 77.9474 47.4835 77.6743 48.4685 77.6743C49.4866 77.6743 50.3929 77.9764 51.1876 78.5806C51.9822 79.1849 52.5988 80.054 53.0375 81.188C53.4762 82.3137 53.6955 83.5966 53.6955 85.0369V86.3157C53.6955 89.3948 53.0168 91.8035 51.6594 93.5417C50.3102 95.2716 48.394 96.1531 45.9108 96.1862H45.5508V93.1568H45.7867C47.1607 93.1485 48.1912 92.7926 48.8782 92.089C49.5735 91.3855 49.9915 90.3591 50.1322 89.0099ZM48.5802 87.3959C49.259 87.3959 49.7928 86.9323 50.1819 86.0053V84.3912C50.1819 83.2076 50.0205 82.2805 49.6977 81.6101C49.3749 80.9314 48.9569 80.592 48.4437 80.592C47.9388 80.592 47.529 80.9272 47.2145 81.5977C46.9082 82.2598 46.7551 83.071 46.7551 84.0312C46.7551 85.0741 46.9165 85.8977 47.2393 86.5019C47.5621 87.0979 48.0091 87.3959 48.5802 87.3959ZM62.697 85.8687H66.2107V89.1341H62.697V94.1873H59.3696V89.1341H55.7938V85.8687H59.3696V81.0265H62.697V85.8687ZM78.403 82.7275C78.403 83.6049 78.2167 84.383 77.8443 85.0617C77.4718 85.7404 76.9586 86.2826 76.3047 86.6882C77.0497 87.1103 77.6373 87.6938 78.0678 88.4388C78.4982 89.1754 78.7134 90.0446 78.7134 91.0461C78.7134 92.6519 78.2499 93.9224 77.3228 94.8577C76.3958 95.7848 75.1335 96.2483 73.536 96.2483C71.9385 96.2483 70.6679 95.7848 69.7243 94.8577C68.7807 93.9224 68.3089 92.6519 68.3089 91.0461C68.3089 90.0446 68.5241 89.1713 68.9546 88.4264C69.385 87.6814 69.9768 87.102 70.73 86.6882C70.0678 86.2826 69.5505 85.7404 69.178 85.0617C68.8056 84.383 68.6193 83.6049 68.6193 82.7275C68.6193 81.1466 69.0622 79.9091 69.9478 79.0152C70.8335 78.1213 72.0213 77.6743 73.5112 77.6743C75.0176 77.6743 76.2095 78.1254 77.0869 79.0276C77.9643 79.9298 78.403 81.1631 78.403 82.7275ZM73.536 93.3306C74.0657 93.3306 74.4713 93.1071 74.7527 92.6602C75.0424 92.2049 75.1873 91.5758 75.1873 90.7729C75.1873 89.9701 75.0383 89.341 74.7403 88.8857C74.4423 88.4305 74.0326 88.2029 73.5112 88.2029C72.9897 88.2029 72.5758 88.4305 72.2696 88.8857C71.9716 89.341 71.8226 89.9701 71.8226 90.7729C71.8226 91.5758 71.9716 92.2049 72.2696 92.6602C72.5758 93.1071 72.998 93.3306 73.536 93.3306ZM74.9017 82.9137C74.9017 82.2102 74.7859 81.6473 74.5541 81.2252C74.3306 80.8031 73.983 80.592 73.5112 80.592C73.0642 80.592 72.7248 80.7989 72.4931 81.2128C72.2613 81.6184 72.1454 82.1854 72.1454 82.9137C72.1454 83.6256 72.2613 84.2009 72.4931 84.6395C72.7248 85.07 73.0725 85.2852 73.536 85.2852C73.9995 85.2852 74.343 85.07 74.5665 84.6395C74.79 84.2009 74.9017 83.6256 74.9017 82.9137ZM90.3966 89.1713H91.9362V92.089H90.3966V96H86.883V92.089H80.8986L80.7372 89.8169L86.8706 77.9226H90.3966V89.1713ZM84.1515 89.1713H86.883V83.1248L86.8085 83.2614L84.1515 89.1713ZM97.126 85.3597H98.827C99.4726 85.3597 99.9444 85.1362 100.242 84.6892C100.549 84.234 100.702 83.6297 100.702 82.8765C100.702 82.1564 100.544 81.5977 100.23 81.2004C99.9237 80.7948 99.5098 80.592 98.9884 80.592C98.5 80.592 98.0986 80.7824 97.7841 81.1631C97.4778 81.5439 97.3247 82.0239 97.3247 82.6034H93.811C93.811 81.6598 94.0262 80.8155 94.4566 80.0705C94.8953 79.3173 95.5037 78.7296 96.2817 78.3075C97.0681 77.8854 97.9372 77.6743 98.8891 77.6743C100.553 77.6743 101.856 78.1337 102.8 79.0524C103.744 79.9712 104.215 81.2293 104.215 82.8268C104.215 83.6463 104 84.4078 103.57 85.1113C103.148 85.8066 102.589 86.3405 101.894 86.713C102.746 87.0772 103.379 87.6235 103.793 88.3519C104.215 89.0803 104.427 89.9411 104.427 90.9344C104.427 92.5401 103.913 93.8272 102.887 94.7957C101.869 95.7641 100.528 96.2483 98.8642 96.2483C97.3164 96.2483 96.0583 95.7724 95.0898 94.8205C94.1297 93.8603 93.6496 92.6022 93.6496 91.0461H97.1633C97.1633 91.6917 97.3329 92.2339 97.6723 92.6726C98.0117 93.1113 98.4421 93.3306 98.9636 93.3306C99.5678 93.3306 100.044 93.1071 100.391 92.6602C100.747 92.2132 100.925 91.6172 100.925 90.8723C100.925 89.0927 100.234 88.1987 98.8518 88.1905H97.126V85.3597ZM107.245 94.2121C107.245 93.6493 107.431 93.1858 107.804 92.8216C108.184 92.4574 108.677 92.2753 109.281 92.2753C109.869 92.2753 110.357 92.4574 110.746 92.8216C111.135 93.1775 111.33 93.641 111.33 94.2121C111.33 94.7915 111.131 95.2592 110.734 95.6151C110.345 95.9628 109.86 96.1366 109.281 96.1366C108.693 96.1366 108.205 95.9586 107.816 95.6027C107.435 95.2468 107.245 94.7833 107.245 94.2121ZM122.64 77.7364V80.7162H122.442C121.126 80.7244 120.079 81.1217 119.301 81.9081C118.531 82.6861 118.063 83.7787 117.898 85.1858C118.651 84.325 119.594 83.8946 120.728 83.8946C122.036 83.8946 123.079 84.4533 123.857 85.5707C124.644 86.6882 125.037 88.178 125.037 90.0404C125.037 91.2241 124.813 92.2918 124.366 93.2437C123.919 94.1956 123.29 94.9364 122.479 95.4661C121.676 95.9876 120.766 96.2483 119.748 96.2483C118.109 96.2483 116.793 95.5903 115.799 94.2742C114.814 92.9581 114.322 91.1868 114.322 88.9602V87.6566C114.322 85.6618 114.632 83.9153 115.253 82.4171C115.882 80.9189 116.784 79.7684 117.96 78.9655C119.143 78.1544 120.522 77.7446 122.094 77.7364H122.64ZM119.623 86.7999C119.176 86.7999 118.8 86.9406 118.494 87.222C118.196 87.5035 117.972 87.8511 117.823 88.265V89.5314C117.823 90.8061 117.993 91.7579 118.332 92.387C118.672 93.0161 119.119 93.3306 119.673 93.3306C120.236 93.3306 120.687 93.0285 121.026 92.4243C121.366 91.8117 121.535 91.0295 121.535 90.0777C121.535 89.1092 121.358 88.3229 121.002 87.7187C120.654 87.1061 120.195 86.7999 119.623 86.7999ZM134.858 96H131.332V82.1936L127.892 83.5221V80.592L134.485 77.8978H134.858V96Z" fill="#756B6B"/>
</svg>
